<svg xmlns="http://www.w3.org/2000/svg" viewBox="0 0 900 900">
  <defs>
    <style>
      .a, .b, .c, .e {
        fill: none;
        stroke-linecap: round;
        stroke-linejoin: round;
      }

      .a {
        stroke: #848484;
      }

      .a, .b {
        stroke-width: 0.71px;
      }

      .b, .c, .e {
        stroke: #333;
      }

      .c {
        stroke-width: 0.9px;
      }

      .d {
        font-size: 12.38px;
        fill: #333;
        font-family: Calibri;
      }

      .e {
        stroke-width: 0.9px;
      }
    </style>
  </defs>
  <rect class="a" x="221.8" y="246.4" width="36.4" height="27.33" transform="translate(-97.1 367.7) rotate(-65)"/>
  <g>
    <path class="a" d="M165.2,633h0"/>
    <path class="a" d="M126.4,730h0"/>
    <line class="a" x1="666.6" y1="603.8" x2="779.5" y2="603.8"/>
    <line class="a" x1="581.1" y1="674.7" x2="581.1" y2="645"/>
    <line class="a" x1="512.1" y1="752.3" x2="566.6" y2="752.3"/>
    <line class="a" x1="590.2" y1="645" x2="581.1" y2="645"/>
    <line class="a" x1="590.2" y1="606.4" x2="581.1" y2="606.4"/>
    <line class="a" x1="628.8" y1="594.7" x2="628.8" y2="603.8"/>
    <line class="a" x1="666.6" y1="594.7" x2="666.6" y2="603.8"/>
    <line class="a" x1="169.7" y1="295.6" x2="177" y2="295.6"/>
    <line class="a" x1="177" y1="295.6" x2="178.8" y2="295.6"/>
    <line class="a" x1="134.5" y1="469.8" x2="134.5" y2="340.6"/>
    <line class="a" x1="171" y1="335.4" x2="171" y2="624.9"/>
    <line class="a" x1="126.4" y1="469.8" x2="126.4" y2="340.6"/>
    <line class="a" x1="178.8" y1="335.4" x2="178.8" y2="752.3"/>
    <line class="a" x1="171" y1="335.4" x2="178.8" y2="335.4"/>
    <line class="a" x1="126.4" y1="340.6" x2="134.5" y2="340.6"/>
    <line class="a" x1="144.2" y1="738.1" x2="167.1" y2="761.4"/>
    <line class="a" x1="126.4" y1="730" x2="126.4" y2="738.1"/>
    <line class="a" x1="126.4" y1="738.1" x2="144.2" y2="738.1"/>
    <line class="a" x1="126.4" y1="730" x2="165.2" y2="730"/>
    <line class="a" x1="134.5" y1="624.9" x2="171" y2="624.9"/>
    <line class="a" x1="134.5" y1="624.9" x2="134.5" y2="469.8"/>
    <line class="a" x1="126.4" y1="633" x2="126.4" y2="469.8"/>
    <line class="a" x1="126.4" y1="633" x2="165.2" y2="633"/>
    <line class="a" x1="165.2" y1="633" x2="165.2" y2="730"/>
    <line class="a" x1="531.5" y1="732.6" x2="527.9" y2="728.9"/>
    <line class="a" x1="531.5" y1="732.6" x2="512.1" y2="752.3"/>
    <line class="a" x1="527.9" y1="728.9" x2="505" y2="752.3"/>
    <line class="a" x1="581.1" y1="682" x2="561.5" y2="701.9"/>
    <line class="a" x1="581.1" y1="674.7" x2="557.9" y2="698.3"/>
    <line class="a" x1="561.5" y1="701.9" x2="557.9" y2="698.3"/>
    <line class="a" x1="167.1" y1="761.4" x2="570.3" y2="761.4"/>
    <line class="a" x1="178.8" y1="752.3" x2="505" y2="752.3"/>
    <line class="a" x1="590.2" y1="741.5" x2="590.2" y2="645"/>
    <line class="a" x1="590.2" y1="606.4" x2="590.2" y2="603.8"/>
    <line class="a" x1="581.1" y1="737.7" x2="581.1" y2="682"/>
    <line class="a" x1="590.2" y1="741.5" x2="570.3" y2="761.4"/>
    <line class="a" x1="566.6" y1="752.3" x2="581.1" y2="737.7"/>
    <line class="a" x1="590.2" y1="603.8" x2="628.8" y2="603.8"/>
    <line class="a" x1="591.2" y1="594.7" x2="628.8" y2="594.7"/>
    <line class="a" x1="666.6" y1="594.7" x2="770.4" y2="594.7"/>
    <line class="a" x1="721.8" y1="420.5" x2="728.6" y2="420.5"/>
    <line class="a" x1="710.6" y1="446" x2="727.8" y2="463.2"/>
    <line class="a" x1="714.4" y1="442.1" x2="722.7" y2="450.4"/>
    <line class="a" x1="728.2" y1="455.8" x2="731.6" y2="459.3"/>
    <line class="a" x1="728.6" y1="420.5" x2="728.6" y2="430.6"/>
    <line class="a" x1="581.1" y1="606.4" x2="581.1" y2="561.2"/>
    <line class="a" x1="591.2" y1="565.4" x2="591.2" y2="579.2"/>
    <line class="a" x1="591.2" y1="586.9" x2="591.2" y2="594.7"/>
    <line class="a" x1="728.2" y1="430.6" x2="728.2" y2="455.8"/>
    <line class="a" x1="722.7" y1="433.9" x2="722.7" y2="450.4"/>
    <line class="a" x1="591.2" y1="586.9" x2="597.6" y2="593.3"/>
    <line class="a" x1="591.2" y1="579.2" x2="601.5" y2="589.4"/>
    <line class="a" x1="601.5" y1="589.4" x2="597.6" y2="593.3"/>
    <line class="a" x1="722.7" y1="433.9" x2="714.4" y2="442.1"/>
    <line class="a" x1="721.8" y1="420.5" x2="663.8" y2="478.4"/>
    <line class="a" x1="612.3" y1="530" x2="581.1" y2="561.2"/>
    <line class="a" x1="710.6" y1="446" x2="671" y2="485.6"/>
    <line class="a" x1="619.4" y1="537.1" x2="591.2" y2="565.4"/>
    <line class="a" x1="663.8" y1="478.4" x2="671" y2="485.6"/>
    <line class="a" x1="612.3" y1="530" x2="619.4" y2="537.1"/>
    <line class="a" x1="727.8" y1="463.2" x2="731.6" y2="459.3"/>
    <line class="a" x1="317.5" y1="115.5" x2="169.7" y2="263.3"/>
    <line class="a" x1="121.1" y1="263.3" x2="121.1" y2="271.4"/>
    <line class="a" x1="121.1" y1="263.3" x2="169.7" y2="263.3"/>
    <line class="a" x1="121.1" y1="271.4" x2="169.7" y2="271.4"/>
    <line class="a" x1="317.5" y1="115.5" x2="317.5" y2="85.2"/>
    <line class="a" x1="317.5" y1="85.2" x2="325.6" y2="85.2"/>
    <line class="a" x1="325.6" y1="115.5" x2="325.6" y2="85.2"/>
    <line class="a" x1="384.6" y1="115.5" x2="384.6" y2="92.2"/>
    <line class="a" x1="178.8" y1="267.1" x2="321.3" y2="124.6"/>
    <line class="a" x1="169.7" y1="271.4" x2="169.7" y2="295.6"/>
    <line class="a" x1="178.8" y1="267.1" x2="178.8" y2="295.6"/>
    <line class="a" x1="321.3" y1="124.6" x2="341.1" y2="124.6"/>
    <line class="a" x1="380.5" y1="124.6" x2="393.7" y2="124.6"/>
    <line class="a" x1="393.7" y1="124.6" x2="393.7" y2="101.4"/>
    <line class="a" x1="325.6" y1="115.5" x2="341.1" y2="115.5"/>
    <line class="a" x1="380.5" y1="115.5" x2="384.6" y2="115.5"/>
    <line class="a" x1="380.5" y1="115.5" x2="380.5" y2="124.6"/>
    <line class="a" x1="341.1" y1="115.5" x2="341.1" y2="124.6"/>
    <line class="a" x1="393.7" y1="101.4" x2="510.9" y2="101.4"/>
    <line class="a" x1="510.9" y1="101.4" x2="724.7" y2="101.4"/>
    <line class="a" x1="384.6" y1="92.2" x2="533.1" y2="92.2"/>
    <line class="a" x1="533.1" y1="92.2" x2="728.5" y2="92.2"/>
    <line class="a" x1="779.5" y1="143.3" x2="728.5" y2="92.2"/>
    <line class="a" x1="770.4" y1="147.1" x2="724.7" y2="101.4"/>
    <line class="a" x1="770.4" y1="594.7" x2="770.4" y2="147.1"/>
    <line class="a" x1="779.5" y1="603.8" x2="779.5" y2="143.3"/>
  </g>
  <g>
    <path class="a" d="M306.7,409.5a12.7,12.7,0,0,0,18,0"/>
    <path class="a" d="M305.7,410.6a14,14,0,0,0,20,0"/>
    <line class="a" x1="459" y1="150.7" x2="460.1" y2="149.6"/>
    <path class="a" d="M460.1,149.6A14.8,14.8,0,0,1,460,170"/>
    <path class="a" d="M459,150.7a13.1,13.1,0,0,1-.1,18.3"/>
    <line class="a" x1="458.9" y1="169" x2="460" y2="170"/>
    <line class="a" x1="444.9" y1="309.7" x2="446.4" y2="309.7"/>
    <path class="a" d="M432.1,324a14.4,14.4,0,0,0,14.3-14.3"/>
    <path class="a" d="M432.1,322.5a12.9,12.9,0,0,0,12.8-12.8"/>
    <line class="a" x1="432.1" y1="322.5" x2="432.1" y2="324"/>
    <line class="a" x1="419.6" y1="283.9" x2="421.1" y2="283.9"/>
    <path class="a" d="M406.8,298.3a14.4,14.4,0,0,0,14.3-14.4"/>
    <path class="a" d="M406.8,296.8a13,13,0,0,0,12.8-12.9"/>
    <line class="a" x1="406.8" y1="296.8" x2="406.8" y2="298.3"/>
    <line class="a" x1="437.6" y1="265.8" x2="439.1" y2="265.8"/>
    <path class="a" d="M424.8,280.2a14.6,14.6,0,0,0,14.3-14.4"/>
    <path class="a" d="M424.8,278.6a12.9,12.9,0,0,0,12.8-12.8"/>
    <line class="a" x1="424.8" y1="278.6" x2="424.8" y2="280.2"/>
    <line class="a" x1="480.8" y1="273.4" x2="482.3" y2="273.4"/>
    <path class="a" d="M468.1,287.8a14.4,14.4,0,0,0,14.2-14.4"/>
    <path class="a" d="M468.1,286.3a12.9,12.9,0,0,0,12.7-12.9"/>
    <line class="a" x1="468.1" y1="286.3" x2="468.1" y2="287.8"/>
    <line class="a" x1="426.7" y1="431.4" x2="428.1" y2="431.4"/>
    <path class="a" d="M413.9,445.8a14.4,14.4,0,0,0,14.2-14.4"/>
    <path class="a" d="M413.9,444.3a13,13,0,0,0,12.8-12.9"/>
    <line class="a" x1="413.9" y1="444.3" x2="413.9" y2="445.8"/>
    <line class="a" x1="408.6" y1="449.6" x2="410.1" y2="449.6"/>
    <path class="a" d="M395.8,464a14.4,14.4,0,0,0,14.3-14.4"/>
    <path class="a" d="M395.8,462.5a13,13,0,0,0,12.8-12.9"/>
    <line class="a" x1="395.8" y1="462.5" x2="395.8" y2="464"/>
    <line class="a" x1="409.7" y1="397.2" x2="409.7" y2="398.7"/>
    <path class="a" d="M409.7,398.7a14.4,14.4,0,0,0,14.1-14.5"/>
    <path class="a" d="M409.7,397.2a13,13,0,0,0,12.7-13"/>
    <line class="a" x1="422.4" y1="384.2" x2="423.8" y2="384.2"/>
    <line class="a" x1="401.4" y1="405.6" x2="402.9" y2="405.7"/>
    <path class="a" d="M388.6,420a14.4,14.4,0,0,0,14.3-14.3"/>
    <path class="a" d="M388.6,418.5a12.9,12.9,0,0,0,12.8-12.9"/>
    <line class="a" x1="388.6" y1="418.5" x2="388.6" y2="420"/>
    <line class="a" x1="376.1" y1="379.9" x2="377.6" y2="379.9"/>
    <path class="a" d="M363.3,394.3a14.4,14.4,0,0,0,14.3-14.4"/>
    <path class="a" d="M363.3,392.8a13,13,0,0,0,12.8-12.9"/>
    <line class="a" x1="363.3" y1="392.8" x2="363.3" y2="394.3"/>
    <line class="a" x1="384.4" y1="371.4" x2="384.5" y2="372.9"/>
    <path class="a" d="M384.5,372.9a14.4,14.4,0,0,0,14.1-14.5"/>
    <path class="a" d="M384.4,371.4a13,13,0,0,0,12.7-13"/>
    <line class="a" x1="397.1" y1="358.4" x2="398.6" y2="358.4"/>
    <line class="a" x1="435" y1="422.9" x2="435" y2="424.4"/>
    <path class="a" d="M435,424.4a14.4,14.4,0,0,0,14.1-14.5"/>
    <path class="a" d="M435,422.9a12.9,12.9,0,0,0,12.6-13"/>
    <line class="a" x1="447.6" y1="409.9" x2="449.1" y2="409.9"/>
    <line class="a" x1="470.1" y1="335.4" x2="471.6" y2="335.4"/>
    <path class="a" d="M457.4,349.8a14.4,14.4,0,0,0,14.2-14.4"/>
    <path class="a" d="M457.4,348.3a12.8,12.8,0,0,0,12.7-12.9"/>
    <line class="a" x1="457.4" y1="348.3" x2="457.4" y2="349.8"/>
    <line class="a" x1="460.3" y1="448.7" x2="460.3" y2="450.2"/>
    <path class="a" d="M460.3,450.2a14.4,14.4,0,0,0,14.1-14.5"/>
    <path class="a" d="M460.3,448.7a12.9,12.9,0,0,0,12.6-13"/>
    <line class="a" x1="472.9" y1="435.7" x2="474.4" y2="435.7"/>
    <line class="a" x1="592.5" y1="314.5" x2="594" y2="314.5"/>
    <path class="a" d="M579.8,328.9A14.4,14.4,0,0,0,594,314.5"/>
    <path class="a" d="M579.8,327.4a13,13,0,0,0,12.7-12.9"/>
    <line class="a" x1="579.8" y1="327.4" x2="579.8" y2="328.9"/>
    <line class="a" x1="549.4" y1="306.8" x2="550.9" y2="306.8"/>
    <path class="a" d="M536.6,321.1a14.4,14.4,0,0,0,14.3-14.3"/>
    <path class="a" d="M536.6,319.6a12.9,12.9,0,0,0,12.8-12.8"/>
    <line class="a" x1="536.6" y1="319.6" x2="536.6" y2="321.1"/>
    <line class="a" x1="524.1" y1="281" x2="525.6" y2="281"/>
    <path class="a" d="M511.3,295.4A14.4,14.4,0,0,0,525.6,281"/>
    <path class="a" d="M511.3,293.9A13,13,0,0,0,524.1,281"/>
    <line class="a" x1="511.3" y1="293.9" x2="511.3" y2="295.4"/>
    <line class="a" x1="686.4" y1="373.5" x2="687.9" y2="373.5"/>
    <path class="a" d="M673.7,387.9a14.4,14.4,0,0,0,14.2-14.4"/>
    <path class="a" d="M673.7,386.4a12.8,12.8,0,0,0,12.7-12.9"/>
    <line class="a" x1="673.7" y1="386.4" x2="673.7" y2="387.9"/>
    <line class="a" x1="668.5" y1="391.6" x2="669.9" y2="391.7"/>
    <path class="a" d="M655.7,406a14.3,14.3,0,0,0,14.2-14.3"/>
    <path class="a" d="M655.7,404.5a12.9,12.9,0,0,0,12.8-12.9"/>
    <line class="a" x1="655.7" y1="404.5" x2="655.7" y2="406"/>
    <line class="a" x1="599.9" y1="358.3" x2="601.4" y2="358.3"/>
    <path class="a" d="M587.2,372.6a14.3,14.3,0,0,0,14.2-14.3"/>
    <path class="a" d="M587.2,371.1a12.8,12.8,0,0,0,12.7-12.8"/>
    <line class="a" x1="587.2" y1="371.1" x2="587.2" y2="372.6"/>
    <line class="a" x1="607.2" y1="402.1" x2="608.7" y2="402.2"/>
    <path class="a" d="M594.5,416.5a14.3,14.3,0,0,0,14.2-14.3"/>
    <path class="a" d="M594.4,415a12.9,12.9,0,0,0,12.8-12.9"/>
    <line class="a" x1="594.4" y1="415" x2="594.5" y2="416.5"/>
    <line class="a" x1="589.2" y1="420.3" x2="590.7" y2="420.3"/>
    <path class="a" d="M576.5,434.7a14.5,14.5,0,0,0,14.2-14.4"/>
    <path class="a" d="M576.5,433.2a13,13,0,0,0,12.7-12.9"/>
    <line class="a" x1="576.5" y1="433.2" x2="576.5" y2="434.7"/>
    <line class="a" x1="581.9" y1="376.4" x2="583.4" y2="376.4"/>
    <path class="a" d="M569.2,390.8a14.4,14.4,0,0,0,14.2-14.4"/>
    <path class="a" d="M569.2,389.3a12.8,12.8,0,0,0,12.7-12.9"/>
    <line class="a" x1="569.2" y1="389.3" x2="569.2" y2="390.8"/>
    <line class="a" x1="564" y1="394.5" x2="565.4" y2="394.5"/>
    <path class="a" d="M551.2,408.9a14.4,14.4,0,0,0,14.2-14.4"/>
    <path class="a" d="M551.2,407.4A12.9,12.9,0,0,0,564,394.5"/>
    <line class="a" x1="551.2" y1="407.4" x2="551.2" y2="408.9"/>
    <line class="a" x1="546" y1="412.7" x2="547.5" y2="412.7"/>
    <path class="a" d="M533.2,427a14.4,14.4,0,0,0,14.3-14.3"/>
    <path class="a" d="M533.2,425.5A12.9,12.9,0,0,0,546,412.7"/>
    <line class="a" x1="533.2" y1="425.5" x2="533.2" y2="427"/>
    <line class="a" x1="520.7" y1="386.9" x2="522.2" y2="386.9"/>
    <path class="a" d="M507.9,401.3a14.4,14.4,0,0,0,14.3-14.4"/>
    <path class="a" d="M507.9,399.8a13,13,0,0,0,12.8-12.9"/>
    <line class="a" x1="507.9" y1="399.8" x2="507.9" y2="401.3"/>
    <line class="a" x1="556.7" y1="350.6" x2="558.2" y2="350.7"/>
    <path class="a" d="M543.9,365a14.4,14.4,0,0,0,14.3-14.3"/>
    <path class="a" d="M543.9,363.5a12.9,12.9,0,0,0,12.8-12.9"/>
    <line class="a" x1="543.9" y1="363.5" x2="543.9" y2="365"/>
    <line class="a" x1="538.7" y1="368.8" x2="540.2" y2="368.8"/>
    <path class="a" d="M525.9,383.2a14.6,14.6,0,0,0,14.3-14.4"/>
    <path class="a" d="M525.9,381.6a12.9,12.9,0,0,0,12.8-12.8"/>
    <line class="a" x1="509.5" y1="655.9" x2="511" y2="656"/>
    <path class="a" d="M496.7,670.3A14.4,14.4,0,0,0,511,656"/>
    <path class="a" d="M496.7,668.8a12.9,12.9,0,0,0,12.8-12.9"/>
    <line class="a" x1="496.7" y1="668.8" x2="496.7" y2="670.3"/>
    <line class="a" x1="492.8" y1="672.9" x2="494.3" y2="672.9"/>
    <path class="a" d="M480.1,687.3a14.4,14.4,0,0,0,14.2-14.4"/>
    <path class="a" d="M480.1,685.8a12.9,12.9,0,0,0,12.7-12.9"/>
    <line class="a" x1="480.1" y1="685.8" x2="480.1" y2="687.3"/>
    <line class="a" x1="503" y1="611.1" x2="504.5" y2="611.1"/>
    <path class="a" d="M490.3,625.5a14.4,14.4,0,0,0,14.2-14.4"/>
    <path class="a" d="M490.3,624A12.9,12.9,0,0,0,503,611.1"/>
    <line class="a" x1="490.3" y1="624" x2="490.3" y2="625.5"/>
    <line class="a" x1="486.4" y1="628.1" x2="487.9" y2="628.1"/>
    <path class="a" d="M473.6,642.5a14.4,14.4,0,0,0,14.3-14.4"/>
    <path class="a" d="M473.6,641a13,13,0,0,0,12.8-12.9"/>
    <line class="a" x1="473.6" y1="641" x2="473.6" y2="642.5"/>
    <line class="a" x1="515.1" y1="546.5" x2="516.6" y2="546.5"/>
    <path class="a" d="M502.3,560.9a14.6,14.6,0,0,0,14.3-14.4"/>
    <path class="a" d="M502.3,559.4a13,13,0,0,0,12.8-12.9"/>
    <line class="a" x1="502.3" y1="559.4" x2="502.3" y2="560.9"/>
    <line class="a" x1="497" y1="564.7" x2="498.5" y2="564.7"/>
    <path class="a" d="M484.3,579.1a14.4,14.4,0,0,0,14.2-14.4"/>
    <path class="a" d="M484.3,577.6A12.9,12.9,0,0,0,497,564.7"/>
    <line class="a" x1="484.3" y1="577.6" x2="484.3" y2="579.1"/>
    <line class="a" x1="489.8" y1="520.7" x2="491.3" y2="520.7"/>
    <path class="a" d="M477.1,535.1a14.4,14.4,0,0,0,14.2-14.4"/>
    <path class="a" d="M477.1,533.6a12.9,12.9,0,0,0,12.7-12.9"/>
    <line class="a" x1="477.1" y1="533.6" x2="477.1" y2="535.1"/>
    <line class="a" x1="459.3" y1="501.3" x2="460.8" y2="501.3"/>
    <path class="a" d="M446.6,515.7a14.4,14.4,0,0,0,14.2-14.4"/>
    <path class="a" d="M446.6,514.2a12.9,12.9,0,0,0,12.7-12.9"/>
    <line class="a" x1="446.6" y1="514.2" x2="446.6" y2="515.7"/>
    <line class="a" x1="441.3" y1="519.5" x2="442.8" y2="519.5"/>
    <path class="a" d="M428.5,533.9a14.4,14.4,0,0,0,14.3-14.4"/>
    <path class="a" d="M428.5,532.4a12.9,12.9,0,0,0,12.8-12.9"/>
    <line class="a" x1="428.5" y1="532.4" x2="428.5" y2="533.9"/>
    <line class="a" x1="415.8" y1="493.6" x2="417.3" y2="493.6"/>
    <path class="a" d="M403,508a14.6,14.6,0,0,0,14.3-14.4"/>
    <path class="a" d="M403,506.4a12.9,12.9,0,0,0,12.8-12.8"/>
    <line class="a" x1="403" y1="506.4" x2="403" y2="508"/>
    <line class="a" x1="462.3" y1="599.9" x2="463.8" y2="599.9"/>
    <path class="a" d="M449.5,614.3a14.5,14.5,0,0,0,14.3-14.4"/>
    <path class="a" d="M449.5,612.7a12.9,12.9,0,0,0,12.8-12.8"/>
    <line class="a" x1="449.5" y1="612.7" x2="449.5" y2="614.3"/>
    <line class="a" x1="471.8" y1="538.9" x2="473.2" y2="539"/>
    <path class="a" d="M459,553.3A14.3,14.3,0,0,0,473.2,539"/>
    <path class="a" d="M459,551.8a12.9,12.9,0,0,0,12.8-12.9"/>
    <line class="a" x1="459" y1="551.8" x2="459" y2="553.3"/>
    <line class="a" x1="453.7" y1="557.2" x2="455.2" y2="557.2"/>
    <path class="a" d="M440.9,571.5a14.4,14.4,0,0,0,14.3-14.3"/>
    <path class="a" d="M440.9,570a12.9,12.9,0,0,0,12.8-12.8"/>
    <line class="a" x1="440.9" y1="570" x2="440.9" y2="571.5"/>
    <line class="a" x1="479" y1="582.9" x2="480.4" y2="582.9"/>
    <path class="a" d="M466.2,597.3a14.4,14.4,0,0,0,14.2-14.4"/>
    <path class="a" d="M466.2,595.8A13,13,0,0,0,479,582.9"/>
    <line class="a" x1="466.2" y1="595.8" x2="466.2" y2="597.3"/>
    <line class="a" x1="469.7" y1="645" x2="471.2" y2="645.1"/>
    <path class="a" d="M457,659.4a14.3,14.3,0,0,0,14.2-14.3"/>
    <path class="a" d="M457,657.9A12.8,12.8,0,0,0,469.7,645"/>
    <line class="a" x1="457" y1="657.9" x2="457" y2="659.4"/>
    <line class="a" x1="521.1" y1="592.9" x2="522.6" y2="592.9"/>
    <path class="a" d="M508.3,607.3a14.4,14.4,0,0,0,14.3-14.4"/>
    <path class="a" d="M508.3,605.8a13,13,0,0,0,12.8-12.9"/>
    <line class="a" x1="508.3" y1="605.8" x2="508.3" y2="607.3"/>
    <line class="a" x1="526.1" y1="639" x2="527.6" y2="639"/>
    <path class="a" d="M513.4,653.4A14.5,14.5,0,0,0,527.6,639"/>
    <path class="a" d="M513.4,651.8A12.8,12.8,0,0,0,526.1,639"/>
    <line class="a" x1="513.4" y1="651.8" x2="513.4" y2="653.4"/>
    <line class="a" x1="513.4" y1="343" x2="514.9" y2="343"/>
    <path class="a" d="M500.6,357.4A14.4,14.4,0,0,0,514.9,343"/>
    <path class="a" d="M500.6,355.9A13,13,0,0,0,513.4,343"/>
    <line class="a" x1="500.6" y1="355.9" x2="500.6" y2="357.4"/>
    <line class="a" x1="495.4" y1="361.2" x2="496.9" y2="361.2"/>
    <path class="a" d="M482.7,375.5a14.3,14.3,0,0,0,14.2-14.3"/>
    <path class="a" d="M482.7,374a12.9,12.9,0,0,0,12.7-12.8"/>
    <line class="a" x1="482.7" y1="374" x2="482.7" y2="375.5"/>
    <line class="a" x1="506.1" y1="299.1" x2="507.6" y2="299.2"/>
    <path class="a" d="M493.4,313.5a14.3,14.3,0,0,0,14.2-14.3"/>
    <path class="a" d="M493.3,312a12.9,12.9,0,0,0,12.8-12.9"/>
    <line class="a" x1="493.3" y1="312" x2="493.4" y2="313.5"/>
    <line class="a" x1="488.1" y1="317.3" x2="489.6" y2="317.3"/>
    <path class="a" d="M475.4,331.7a14.5,14.5,0,0,0,14.2-14.4"/>
    <path class="a" d="M475.4,330.1a12.8,12.8,0,0,0,12.7-12.8"/>
    <line class="a" x1="475.4" y1="330.1" x2="475.4" y2="331.7"/>
    <line class="a" x1="462.9" y1="291.5" x2="464.3" y2="291.5"/>
    <path class="a" d="M450.1,305.9a14.4,14.4,0,0,0,14.2-14.4"/>
    <path class="a" d="M450.1,304.4a13,13,0,0,0,12.8-12.9"/>
    <line class="a" x1="450.1" y1="304.4" x2="450.1" y2="305.9"/>
    <line class="a" x1="525.9" y1="381.6" x2="525.9" y2="383.2"/>
    <line class="a" x1="531.4" y1="324.9" x2="532.9" y2="324.9"/>
    <path class="a" d="M518.6,339.3a14.4,14.4,0,0,0,14.3-14.4"/>
    <path class="a" d="M518.6,337.8a13,13,0,0,0,12.8-12.9"/>
    <line class="a" x1="518.6" y1="337.8" x2="518.6" y2="339.3"/>
    <line class="a" x1="574.6" y1="332.6" x2="576.1" y2="332.6"/>
    <path class="a" d="M561.8,346.9a14.4,14.4,0,0,0,14.3-14.3"/>
    <path class="a" d="M561.8,345.4a12.9,12.9,0,0,0,12.8-12.8"/>
    <line class="a" x1="561.8" y1="345.4" x2="561.8" y2="346.9"/>
    <line class="a" x1="571.2" y1="438.4" x2="572.7" y2="438.4"/>
    <path class="a" d="M558.5,452.8a14.4,14.4,0,0,0,14.2-14.4"/>
    <path class="a" d="M558.5,451.3a12.8,12.8,0,0,0,12.7-12.9"/>
    <line class="a" x1="558.5" y1="451.3" x2="558.5" y2="452.8"/>
    <line class="a" x1="650.5" y1="409.8" x2="652" y2="409.8"/>
    <path class="a" d="M637.7,424.2A14.6,14.6,0,0,0,652,409.8"/>
    <path class="a" d="M637.7,422.6a12.9,12.9,0,0,0,12.8-12.8"/>
    <line class="a" x1="637.7" y1="422.6" x2="637.7" y2="424.2"/>
    <line class="a" x1="643.2" y1="365.9" x2="644.7" y2="365.9"/>
    <path class="a" d="M630.4,380.3a14.6,14.6,0,0,0,14.3-14.4"/>
    <path class="a" d="M630.4,378.8a13,13,0,0,0,12.8-12.9"/>
    <line class="a" x1="630.4" y1="378.8" x2="630.4" y2="380.3"/>
    <line class="a" x1="625.2" y1="384" x2="626.7" y2="384"/>
    <path class="a" d="M612.4,398.4A14.4,14.4,0,0,0,626.7,384"/>
    <path class="a" d="M612.4,396.9A13,13,0,0,0,625.2,384"/>
    <line class="a" x1="612.4" y1="396.9" x2="612.4" y2="398.4"/>
    <line class="a" x1="617.9" y1="340.1" x2="619.4" y2="340.1"/>
    <path class="a" d="M605.1,354.5a14.4,14.4,0,0,0,14.3-14.4"/>
    <path class="a" d="M605.1,353a12.9,12.9,0,0,0,12.8-12.9"/>
    <line class="a" x1="605.1" y1="353" x2="605.1" y2="354.5"/>
    <line class="a" x1="661.2" y1="347.7" x2="662.7" y2="347.8"/>
    <path class="a" d="M648.4,362.1a14.4,14.4,0,0,0,14.3-14.3"/>
    <path class="a" d="M648.4,360.6a12.9,12.9,0,0,0,12.8-12.9"/>
    <line class="a" x1="648.4" y1="360.6" x2="648.4" y2="362.1"/>
    <line class="a" x1="632.5" y1="427.9" x2="634" y2="427.9"/>
    <path class="a" d="M619.7,442.3A14.4,14.4,0,0,0,634,427.9"/>
    <path class="a" d="M619.7,440.8a13,13,0,0,0,12.8-12.9"/>
    <line class="a" x1="619.7" y1="440.8" x2="619.7" y2="442.3"/>
    <line class="a" x1="614.5" y1="446" x2="616" y2="446.1"/>
    <path class="a" d="M601.7,460.4A14.4,14.4,0,0,0,616,446.1"/>
    <path class="a" d="M601.7,458.9A12.9,12.9,0,0,0,614.5,446"/>
    <line class="a" x1="601.7" y1="458.9" x2="601.7" y2="460.4"/>
    <line class="a" x1="485.5" y1="474.4" x2="485.6" y2="475.9"/>
    <path class="a" d="M485.6,475.9a14.4,14.4,0,0,0,14.1-14.5"/>
    <path class="a" d="M485.5,474.4a13,13,0,0,0,12.7-13"/>
    <line class="a" x1="498.2" y1="461.4" x2="499.7" y2="461.4"/>
    <line class="a" x1="451.9" y1="457.1" x2="453.4" y2="457.2"/>
    <path class="a" d="M439.2,471.5a14.3,14.3,0,0,0,14.2-14.3"/>
    <path class="a" d="M439.2,470a12.8,12.8,0,0,0,12.7-12.9"/>
    <line class="a" x1="439.2" y1="470" x2="439.2" y2="471.5"/>
    <line class="a" x1="433.9" y1="475.4" x2="435.3" y2="475.4"/>
    <path class="a" d="M421.1,489.7a14.3,14.3,0,0,0,14.2-14.3"/>
    <path class="a" d="M421.1,488.2a12.9,12.9,0,0,0,12.8-12.8"/>
    <line class="a" x1="421.1" y1="488.2" x2="421.1" y2="489.7"/>
    <line class="a" x1="477.4" y1="483.1" x2="478.9" y2="483.1"/>
    <path class="a" d="M464.6,497.5a14.4,14.4,0,0,0,14.3-14.4"/>
    <path class="a" d="M464.6,496a13,13,0,0,0,12.8-12.9"/>
    <line class="a" x1="464.6" y1="496" x2="464.6" y2="497.5"/>
    <line class="a" x1="596.5" y1="464.2" x2="598" y2="464.2"/>
    <path class="a" d="M583.8,478.6A14.5,14.5,0,0,0,598,464.2"/>
    <path class="a" d="M583.8,477a12.9,12.9,0,0,0,12.7-12.8"/>
    <line class="a" x1="583.8" y1="477" x2="583.8" y2="478.6"/>
    <line class="a" x1="459" y1="176.4" x2="460.1" y2="175.4"/>
    <path class="a" d="M460,195.8a14.8,14.8,0,0,0,.1-20.4"/>
    <path class="a" d="M458.9,194.7a13.2,13.2,0,0,0,.1-18.3"/>
    <line class="a" x1="458.9" y1="194.7" x2="460" y2="195.8"/>
    <line class="a" x1="459" y1="202.2" x2="460.1" y2="201.1"/>
    <path class="a" d="M460,221.6a14.9,14.9,0,0,0,.1-20.5"/>
    <path class="a" d="M458.9,220.5a13.2,13.2,0,0,0,.1-18.3"/>
    <line class="a" x1="458.9" y1="220.5" x2="460" y2="221.6"/>
    <line class="a" x1="459" y1="227.9" x2="460.1" y2="226.9"/>
    <path class="a" d="M460,247.3a14.8,14.8,0,0,0,.1-20.4"/>
    <path class="a" d="M458.9,246.2a13.2,13.2,0,0,0,.1-18.3"/>
    <line class="a" x1="458.9" y1="246.2" x2="460" y2="247.3"/>
    <line class="a" x1="704.8" y1="355.7" x2="706.3" y2="355.7"/>
    <path class="a" d="M692,370.1a14.5,14.5,0,0,0,14.3-14.4"/>
    <path class="a" d="M692,368.6a13,13,0,0,0,12.8-12.9"/>
    <line class="a" x1="692" y1="368.6" x2="692" y2="370.1"/>
    <line class="a" x1="383.6" y1="423.7" x2="385.1" y2="423.7"/>
    <path class="a" d="M370.8,438a14.4,14.4,0,0,0,14.3-14.3"/>
    <path class="a" d="M370.8,436.5a12.9,12.9,0,0,0,12.8-12.8"/>
    <line class="a" x1="370.8" y1="436.5" x2="370.8" y2="438"/>
    <line class="a" x1="358.3" y1="397.9" x2="359.7" y2="397.9"/>
    <path class="a" d="M345.5,412.3a14.4,14.4,0,0,0,14.2-14.4"/>
    <path class="a" d="M345.5,410.8a13,13,0,0,0,12.8-12.9"/>
    <line class="a" x1="345.5" y1="410.8" x2="345.5" y2="412.3"/>
    <line class="a" x1="305.7" y1="410.6" x2="305.7" y2="393.7"/>
    <line class="a" x1="306.7" y1="409.5" x2="305.7" y2="410.6"/>
    <line class="a" x1="324.7" y1="409.5" x2="325.7" y2="410.6"/>
    <line class="a" x1="356.5" y1="483.4" x2="356.5" y2="466.5"/>
    <line class="a" x1="357.6" y1="482.3" x2="356.5" y2="483.4"/>
    <path class="a" d="M357.6,482.3a12.6,12.6,0,0,0,17.9,0"/>
    <path class="a" d="M356.5,483.4a14.1,14.1,0,0,0,20.1,0"/>
    <line class="a" x1="375.5" y1="482.3" x2="376.6" y2="483.4"/>
    <line class="a" x1="331.1" y1="483.4" x2="331.1" y2="466.5"/>
    <line class="a" x1="332.1" y1="482.3" x2="331.1" y2="483.4"/>
    <path class="a" d="M332.1,482.3a12.7,12.7,0,0,0,18,0"/>
    <path class="a" d="M331.1,483.4a14,14,0,0,0,20,0"/>
    <line class="a" x1="350.1" y1="482.3" x2="351.1" y2="483.4"/>
    <line class="a" x1="280.3" y1="483.4" x2="280.3" y2="466.5"/>
    <line class="a" x1="281.3" y1="482.3" x2="280.3" y2="483.4"/>
    <path class="a" d="M281.3,482.3a12.7,12.7,0,0,0,18,0"/>
    <path class="a" d="M280.3,483.4a14,14,0,0,0,20,0"/>
    <line class="a" x1="299.3" y1="482.3" x2="300.3" y2="483.4"/>
    <line class="a" x1="229.4" y1="483.4" x2="229.4" y2="466.5"/>
    <line class="a" x1="230.5" y1="482.3" x2="229.4" y2="483.4"/>
    <path class="a" d="M230.5,482.3a12.6,12.6,0,0,0,17.9,0"/>
    <path class="a" d="M229.4,483.4a14.1,14.1,0,0,0,20.1,0"/>
    <line class="a" x1="248.4" y1="482.3" x2="249.5" y2="483.4"/>
    <line class="a" x1="254.8" y1="483.4" x2="254.8" y2="466.5"/>
    <line class="a" x1="255.9" y1="482.3" x2="254.8" y2="483.4"/>
    <path class="a" d="M255.9,482.3a12.7,12.7,0,0,0,18,0"/>
    <path class="a" d="M254.8,483.4a14.1,14.1,0,0,0,20.1,0"/>
    <line class="a" x1="273.9" y1="482.3" x2="274.9" y2="483.4"/>
    <line class="a" x1="305.7" y1="483.4" x2="305.7" y2="466.5"/>
    <line class="a" x1="306.7" y1="482.3" x2="305.7" y2="483.4"/>
    <path class="a" d="M306.7,482.3a12.7,12.7,0,0,0,18,0"/>
    <path class="a" d="M305.7,483.4a14,14,0,0,0,20,0"/>
    <line class="a" x1="324.7" y1="482.3" x2="325.7" y2="483.4"/>
    <line class="a" x1="305.7" y1="447" x2="305.7" y2="430.1"/>
    <line class="a" x1="306.7" y1="445.9" x2="305.7" y2="447"/>
    <path class="a" d="M306.7,445.9a12.7,12.7,0,0,0,18,0"/>
    <path class="a" d="M305.7,447a14,14,0,0,0,20,0"/>
    <line class="a" x1="324.7" y1="445.9" x2="325.7" y2="447"/>
    <line class="a" x1="280.3" y1="447" x2="280.3" y2="430.1"/>
    <line class="a" x1="281.3" y1="445.9" x2="280.3" y2="447"/>
    <path class="a" d="M281.3,445.9a12.7,12.7,0,0,0,18,0"/>
    <path class="a" d="M280.3,447a14,14,0,0,0,20,0"/>
    <line class="a" x1="299.3" y1="445.9" x2="300.3" y2="447"/>
    <line class="a" x1="229.4" y1="447" x2="229.4" y2="430.1"/>
    <line class="a" x1="230.5" y1="445.9" x2="229.4" y2="447"/>
    <path class="a" d="M230.5,445.9a12.6,12.6,0,0,0,17.9,0"/>
    <path class="a" d="M229.4,447a14.1,14.1,0,0,0,20.1,0"/>
    <line class="a" x1="248.4" y1="445.9" x2="249.5" y2="447"/>
    <line class="a" x1="254.8" y1="447" x2="254.8" y2="430.1"/>
    <line class="a" x1="255.9" y1="445.9" x2="254.8" y2="447"/>
    <path class="a" d="M255.9,445.9a12.7,12.7,0,0,0,18,0"/>
    <path class="a" d="M254.8,447a14.1,14.1,0,0,0,20.1,0"/>
    <line class="a" x1="273.9" y1="445.9" x2="274.9" y2="447"/>
    <line class="a" x1="280.3" y1="410.6" x2="280.3" y2="393.7"/>
    <line class="a" x1="281.3" y1="409.5" x2="280.3" y2="410.6"/>
    <path class="a" d="M281.3,409.5a12.7,12.7,0,0,0,18,0"/>
    <path class="a" d="M280.3,410.6a14,14,0,0,0,20,0"/>
    <line class="a" x1="299.3" y1="409.5" x2="300.3" y2="410.6"/>
    <line class="a" x1="254.8" y1="410.6" x2="254.8" y2="393.7"/>
    <line class="a" x1="255.9" y1="409.5" x2="254.8" y2="410.6"/>
    <path class="a" d="M255.9,409.5a12.7,12.7,0,0,0,18,0"/>
    <path class="a" d="M254.8,410.6a14.1,14.1,0,0,0,20.1,0"/>
    <line class="a" x1="273.9" y1="409.5" x2="274.9" y2="410.6"/>
    <line class="a" x1="229.4" y1="410.6" x2="229.4" y2="393.7"/>
    <line class="a" x1="230.5" y1="409.5" x2="229.4" y2="410.6"/>
    <path class="a" d="M230.5,409.5a12.6,12.6,0,0,0,17.9,0"/>
    <path class="a" d="M229.4,410.6a14.1,14.1,0,0,0,20.1,0"/>
    <line class="a" x1="248.4" y1="409.5" x2="249.5" y2="410.6"/>
    <line class="a" x1="710.7" y1="324.6" x2="711.7" y2="325.6"/>
    <path class="a" d="M710.7,324.6a13.2,13.2,0,0,0,0-18.3"/>
    <path class="a" d="M711.7,325.6a14.7,14.7,0,0,0,0-20.4"/>
    <line class="a" x1="710.7" y1="306.3" x2="711.7" y2="305.2"/>
    <line class="a" x1="639.3" y1="324.6" x2="640.4" y2="325.6"/>
    <path class="a" d="M639.3,324.6a13.2,13.2,0,0,0,0-18.3"/>
    <path class="a" d="M640.4,325.6a14.9,14.9,0,0,0,0-20.4"/>
    <line class="a" x1="639.3" y1="306.3" x2="640.4" y2="305.2"/>
    <line class="a" x1="675.1" y1="324.6" x2="676.1" y2="325.6"/>
    <path class="a" d="M675.1,324.6a13.2,13.2,0,0,0,0-18.3"/>
    <path class="a" d="M676.1,325.6a14.7,14.7,0,0,0,0-20.4"/>
    <line class="a" x1="675.1" y1="306.3" x2="676.1" y2="305.2"/>
    <line class="a" x1="710.7" y1="273" x2="711.7" y2="274.1"/>
    <path class="a" d="M710.7,273a13.2,13.2,0,0,0,0-18.3"/>
    <path class="a" d="M711.7,274.1a14.8,14.8,0,0,0,0-20.5"/>
    <line class="a" x1="710.7" y1="254.7" x2="711.7" y2="253.6"/>
    <line class="a" x1="710.7" y1="221.4" x2="711.7" y2="222.5"/>
    <path class="a" d="M710.7,221.4a13.2,13.2,0,0,0,0-18.3"/>
    <path class="a" d="M711.7,222.5a14.7,14.7,0,0,0,0-20.4"/>
    <line class="a" x1="710.7" y1="203.1" x2="711.7" y2="202.1"/>
    <line class="a" x1="710.7" y1="247.2" x2="711.7" y2="248.3"/>
    <path class="a" d="M710.7,247.2a13.2,13.2,0,0,0,0-18.3"/>
    <path class="a" d="M711.7,248.3a14.7,14.7,0,0,0,0-20.4"/>
    <line class="a" x1="710.7" y1="228.9" x2="711.7" y2="227.9"/>
    <line class="a" x1="710.7" y1="169.9" x2="711.7" y2="170.9"/>
    <path class="a" d="M710.7,169.9a13.2,13.2,0,0,0,0-18.3"/>
    <path class="a" d="M711.7,170.9a14.7,14.7,0,0,0,0-20.4"/>
    <line class="a" x1="710.7" y1="151.6" x2="711.7" y2="150.5"/>
    <line class="a" x1="710.7" y1="195.7" x2="711.7" y2="196.7"/>
    <path class="a" d="M710.7,195.7a13.2,13.2,0,0,0,0-18.3"/>
    <path class="a" d="M711.7,196.7a14.7,14.7,0,0,0,0-20.4"/>
    <line class="a" x1="710.7" y1="177.4" x2="711.7" y2="176.3"/>
    <line class="a" x1="639.2" y1="247.2" x2="640.2" y2="248.3"/>
    <path class="a" d="M639.2,247.2a13.2,13.2,0,0,0,0-18.3"/>
    <path class="a" d="M640.2,248.3a14.7,14.7,0,0,0,0-20.4"/>
    <line class="a" x1="639.2" y1="228.9" x2="640.2" y2="227.9"/>
    <line class="a" x1="639.2" y1="221.4" x2="640.2" y2="222.5"/>
    <path class="a" d="M639.2,221.4a13.2,13.2,0,0,0,0-18.3"/>
    <path class="a" d="M640.2,222.5a14.7,14.7,0,0,0,0-20.4"/>
    <line class="a" x1="639.2" y1="203.1" x2="640.2" y2="202.1"/>
    <line class="a" x1="639.3" y1="273" x2="640.4" y2="274.1"/>
    <path class="a" d="M639.3,273a13.2,13.2,0,0,0,0-18.3"/>
    <path class="a" d="M640.4,274.1a15,15,0,0,0,0-20.5"/>
    <line class="a" x1="639.3" y1="254.7" x2="640.4" y2="253.6"/>
    <line class="a" x1="639.2" y1="169.9" x2="640.2" y2="170.9"/>
    <path class="a" d="M639.2,169.9a13.2,13.2,0,0,0,0-18.3"/>
    <path class="a" d="M640.2,170.9a14.7,14.7,0,0,0,0-20.4"/>
    <line class="a" x1="639.2" y1="151.6" x2="640.2" y2="150.5"/>
    <line class="a" x1="639.2" y1="195.7" x2="640.2" y2="196.7"/>
    <path class="a" d="M639.2,195.7a13.2,13.2,0,0,0,0-18.3"/>
    <path class="a" d="M640.2,196.7a14.7,14.7,0,0,0,0-20.4"/>
    <line class="a" x1="639.2" y1="177.4" x2="640.2" y2="176.3"/>
    <line class="a" x1="567.7" y1="273" x2="568.7" y2="274.1"/>
    <path class="a" d="M567.7,273a13.2,13.2,0,0,0,0-18.3"/>
    <path class="a" d="M568.7,274.1a14.8,14.8,0,0,0,0-20.5"/>
    <line class="a" x1="567.7" y1="254.7" x2="568.7" y2="253.6"/>
    <line class="a" x1="567.7" y1="221.4" x2="568.7" y2="222.5"/>
    <path class="a" d="M567.7,221.4a13.2,13.2,0,0,0,0-18.3"/>
    <path class="a" d="M568.7,222.5a14.7,14.7,0,0,0,0-20.4"/>
    <line class="a" x1="567.7" y1="203.1" x2="568.7" y2="202.1"/>
    <line class="a" x1="567.7" y1="247.2" x2="568.7" y2="248.3"/>
    <path class="a" d="M567.7,247.2a13.2,13.2,0,0,0,0-18.3"/>
    <path class="a" d="M568.7,248.3a14.7,14.7,0,0,0,0-20.4"/>
    <line class="a" x1="567.7" y1="228.9" x2="568.7" y2="227.9"/>
    <line class="a" x1="531.9" y1="247.2" x2="533" y2="248.3"/>
    <path class="a" d="M531.9,247.2a13.2,13.2,0,0,0,0-18.3"/>
    <path class="a" d="M533,248.3a14.9,14.9,0,0,0,0-20.4"/>
    <line class="a" x1="531.9" y1="228.9" x2="533" y2="227.9"/>
    <line class="a" x1="531.9" y1="221.4" x2="533" y2="222.5"/>
    <path class="a" d="M531.9,221.4a13.2,13.2,0,0,0,0-18.3"/>
    <path class="a" d="M533,222.5a14.9,14.9,0,0,0,0-20.4"/>
    <line class="a" x1="531.9" y1="203.1" x2="533" y2="202.1"/>
    <line class="a" x1="567.7" y1="169.9" x2="568.7" y2="170.9"/>
    <path class="a" d="M567.7,169.9a13.2,13.2,0,0,0,0-18.3"/>
    <path class="a" d="M568.7,170.9a14.7,14.7,0,0,0,0-20.4"/>
    <line class="a" x1="567.7" y1="151.6" x2="568.7" y2="150.5"/>
    <line class="a" x1="531.9" y1="169.9" x2="533" y2="170.9"/>
    <path class="a" d="M531.9,169.9a13.2,13.2,0,0,0,0-18.3"/>
    <path class="a" d="M533,170.9a14.9,14.9,0,0,0,0-20.4"/>
    <line class="a" x1="531.9" y1="151.6" x2="533" y2="150.5"/>
    <line class="a" x1="531.9" y1="195.7" x2="533" y2="196.7"/>
    <path class="a" d="M531.9,195.7a13.2,13.2,0,0,0,0-18.3"/>
    <path class="a" d="M533,196.7a14.9,14.9,0,0,0,0-20.4"/>
    <line class="a" x1="531.9" y1="177.4" x2="533" y2="176.3"/>
    <line class="a" x1="567.7" y1="195.7" x2="568.7" y2="196.7"/>
    <path class="a" d="M567.7,195.7a13.2,13.2,0,0,0,0-18.3"/>
    <path class="a" d="M568.7,196.7a14.7,14.7,0,0,0,0-20.4"/>
    <line class="a" x1="567.7" y1="177.4" x2="568.7" y2="176.3"/>
    <line class="a" x1="603.3" y1="247.2" x2="604.4" y2="248.3"/>
    <path class="a" d="M603.3,247.2a13.2,13.2,0,0,0,0-18.3"/>
    <path class="a" d="M604.4,248.3a14.7,14.7,0,0,0,0-20.4"/>
    <line class="a" x1="603.3" y1="228.9" x2="604.4" y2="227.9"/>
    <line class="a" x1="603.3" y1="195.7" x2="604.4" y2="196.7"/>
    <path class="a" d="M603.3,195.7a13.2,13.2,0,0,0,0-18.3"/>
    <path class="a" d="M604.4,196.7a14.7,14.7,0,0,0,0-20.4"/>
    <line class="a" x1="603.3" y1="177.4" x2="604.4" y2="176.3"/>
    <line class="a" x1="603.3" y1="169.9" x2="604.4" y2="170.9"/>
    <path class="a" d="M603.3,169.9a13.2,13.2,0,0,0,0-18.3"/>
    <path class="a" d="M604.4,170.9a14.7,14.7,0,0,0,0-20.4"/>
    <line class="a" x1="603.3" y1="151.6" x2="604.4" y2="150.5"/>
    <line class="a" x1="603.3" y1="221.4" x2="604.4" y2="222.5"/>
    <path class="a" d="M603.3,221.4a13.2,13.2,0,0,0,0-18.3"/>
    <path class="a" d="M604.4,222.5a14.7,14.7,0,0,0,0-20.4"/>
    <line class="a" x1="603.3" y1="203.1" x2="604.4" y2="202.1"/>
    <line class="a" x1="603.3" y1="273" x2="604.4" y2="274.1"/>
    <path class="a" d="M603.3,273a13.2,13.2,0,0,0,0-18.3"/>
    <path class="a" d="M604.4,274.1a14.8,14.8,0,0,0,0-20.5"/>
    <line class="a" x1="603.3" y1="254.7" x2="604.4" y2="253.6"/>
    <line class="a" x1="674.8" y1="247.2" x2="675.8" y2="248.3"/>
    <path class="a" d="M674.8,247.2a13.2,13.2,0,0,0,0-18.3"/>
    <path class="a" d="M675.8,248.3a14.7,14.7,0,0,0,0-20.4"/>
    <line class="a" x1="674.8" y1="228.9" x2="675.8" y2="227.9"/>
    <line class="a" x1="674.8" y1="195.7" x2="675.8" y2="196.7"/>
    <path class="a" d="M674.8,195.7a13.2,13.2,0,0,0,0-18.3"/>
    <path class="a" d="M675.8,196.7a14.7,14.7,0,0,0,0-20.4"/>
    <line class="a" x1="674.8" y1="177.4" x2="675.8" y2="176.3"/>
    <line class="a" x1="674.8" y1="169.9" x2="675.8" y2="170.9"/>
    <path class="a" d="M674.8,169.9a13.2,13.2,0,0,0,0-18.3"/>
    <path class="a" d="M675.8,170.9a14.7,14.7,0,0,0,0-20.4"/>
    <line class="a" x1="674.8" y1="151.6" x2="675.8" y2="150.5"/>
    <line class="a" x1="674.8" y1="221.4" x2="675.8" y2="222.5"/>
    <path class="a" d="M674.8,221.4a13.2,13.2,0,0,0,0-18.3"/>
    <path class="a" d="M675.8,222.5a14.7,14.7,0,0,0,0-20.4"/>
    <line class="a" x1="674.8" y1="203.1" x2="675.8" y2="202.1"/>
    <line class="a" x1="675.1" y1="273" x2="676.1" y2="274.1"/>
    <path class="a" d="M675.1,273a13.2,13.2,0,0,0,0-18.3"/>
    <path class="a" d="M676.1,274.1a14.8,14.8,0,0,0,0-20.5"/>
    <line class="a" x1="675.1" y1="254.7" x2="676.1" y2="253.6"/>
    <line class="a" x1="639.3" y1="298.8" x2="640.4" y2="299.8"/>
    <path class="a" d="M639.3,298.8a13.2,13.2,0,0,0,0-18.3"/>
    <path class="a" d="M640.4,299.8a14.9,14.9,0,0,0,0-20.4"/>
    <line class="a" x1="639.3" y1="280.5" x2="640.4" y2="279.4"/>
    <line class="a" x1="675.1" y1="298.8" x2="676.1" y2="299.8"/>
    <path class="a" d="M675.1,298.8a13.2,13.2,0,0,0,0-18.3"/>
    <path class="a" d="M676.1,299.8a14.7,14.7,0,0,0,0-20.4"/>
    <line class="a" x1="675.1" y1="280.5" x2="676.1" y2="279.4"/>
    <line class="a" x1="710.7" y1="298.8" x2="711.7" y2="299.8"/>
    <path class="a" d="M710.7,298.8a13.2,13.2,0,0,0,0-18.3"/>
    <path class="a" d="M711.7,299.8a14.7,14.7,0,0,0,0-20.4"/>
    <line class="a" x1="710.7" y1="280.5" x2="711.7" y2="279.4"/>
    <line class="a" x1="331.1" y1="447" x2="331.1" y2="430.1"/>
    <line class="a" x1="332.1" y1="445.9" x2="331.1" y2="447"/>
    <path class="a" d="M332.1,445.9a12.7,12.7,0,0,0,18,0"/>
    <path class="a" d="M331.1,447a14,14,0,0,0,20,0"/>
    <line class="a" x1="350.1" y1="445.9" x2="351.1" y2="447"/>
    <line class="a" x1="496.2" y1="169.9" x2="497.3" y2="170.9"/>
    <path class="a" d="M496.2,169.9a13.2,13.2,0,0,0,0-18.3"/>
    <path class="a" d="M497.3,170.9a14.9,14.9,0,0,0,0-20.4"/>
    <line class="a" x1="496.2" y1="151.6" x2="497.3" y2="150.5"/>
    <line class="a" x1="496.2" y1="195.7" x2="497.3" y2="196.7"/>
    <path class="a" d="M496.2,195.7a13.2,13.2,0,0,0,0-18.3"/>
    <path class="a" d="M497.3,196.7a14.9,14.9,0,0,0,0-20.4"/>
    <line class="a" x1="496.2" y1="177.4" x2="497.3" y2="176.3"/>
    <line class="a" x1="496.2" y1="221.4" x2="497.3" y2="222.5"/>
    <path class="a" d="M496.2,221.4a13.2,13.2,0,0,0,0-18.3"/>
    <path class="a" d="M497.3,222.5a14.9,14.9,0,0,0,0-20.4"/>
    <line class="a" x1="496.2" y1="203.1" x2="497.3" y2="202.1"/>
    <line class="a" x1="496.2" y1="247.2" x2="497.3" y2="248.3"/>
    <path class="a" d="M496.2,247.2a13.2,13.2,0,0,0,0-18.3"/>
    <path class="a" d="M497.3,248.3a14.9,14.9,0,0,0,0-20.4"/>
    <line class="a" x1="496.2" y1="228.9" x2="497.3" y2="227.9"/>
    <line class="a" x1="305.7" y1="519.8" x2="305.7" y2="502.9"/>
    <line class="a" x1="306.7" y1="518.7" x2="305.7" y2="519.8"/>
    <path class="a" d="M306.7,518.7a12.7,12.7,0,0,0,18,0"/>
    <path class="a" d="M305.7,519.8a14,14,0,0,0,20,0"/>
    <line class="a" x1="324.7" y1="518.7" x2="325.7" y2="519.8"/>
    <line class="a" x1="305.7" y1="556.2" x2="305.7" y2="539.3"/>
    <line class="a" x1="306.7" y1="555.1" x2="305.7" y2="556.2"/>
    <path class="a" d="M306.7,555.1a12.7,12.7,0,0,0,18,0"/>
    <path class="a" d="M305.7,556.2a14,14,0,0,0,20,0"/>
    <line class="a" x1="324.7" y1="555.1" x2="325.7" y2="556.2"/>
    <line class="a" x1="305.7" y1="592.6" x2="305.7" y2="575.7"/>
    <line class="a" x1="306.7" y1="591.5" x2="305.7" y2="592.6"/>
    <path class="a" d="M306.7,591.5a12.7,12.7,0,0,0,18,0"/>
    <path class="a" d="M305.7,592.6a14,14,0,0,0,20,0"/>
    <line class="a" x1="324.7" y1="591.5" x2="325.7" y2="592.6"/>
    <line class="a" x1="305.7" y1="629" x2="305.7" y2="612.1"/>
    <line class="a" x1="306.7" y1="627.9" x2="305.7" y2="629"/>
    <path class="a" d="M306.7,627.9a12.7,12.7,0,0,0,18,0"/>
    <path class="a" d="M305.7,629a14,14,0,0,0,20,0"/>
    <line class="a" x1="324.7" y1="627.9" x2="325.7" y2="629"/>
    <line class="a" x1="305.7" y1="665.4" x2="305.7" y2="648.5"/>
    <line class="a" x1="306.7" y1="664.3" x2="305.7" y2="665.4"/>
    <path class="a" d="M306.7,664.3a12.7,12.7,0,0,0,18,0"/>
    <path class="a" d="M305.7,665.4a14,14,0,0,0,20,0"/>
    <line class="a" x1="324.7" y1="664.3" x2="325.7" y2="665.4"/>
    <line class="a" x1="305.7" y1="701.7" x2="305.7" y2="684.8"/>
    <line class="a" x1="306.7" y1="700.6" x2="305.7" y2="701.7"/>
    <path class="a" d="M306.7,700.6a12.7,12.7,0,0,0,18,0"/>
    <path class="a" d="M305.7,701.7a14,14,0,0,0,20,0"/>
    <line class="a" x1="324.7" y1="700.6" x2="325.7" y2="701.7"/>
    <line class="a" x1="280.3" y1="701.7" x2="280.3" y2="684.8"/>
    <line class="a" x1="281.3" y1="700.6" x2="280.3" y2="701.7"/>
    <path class="a" d="M281.3,700.6a12.7,12.7,0,0,0,18,0"/>
    <path class="a" d="M280.3,701.7a14,14,0,0,0,20,0"/>
    <line class="a" x1="299.3" y1="700.6" x2="300.3" y2="701.7"/>
    <line class="a" x1="280.3" y1="665.4" x2="280.3" y2="648.5"/>
    <line class="a" x1="281.3" y1="664.3" x2="280.3" y2="665.4"/>
    <path class="a" d="M281.3,664.3a12.7,12.7,0,0,0,18,0"/>
    <path class="a" d="M280.3,665.4a14,14,0,0,0,20,0"/>
    <line class="a" x1="299.3" y1="664.3" x2="300.3" y2="665.4"/>
    <line class="a" x1="229.4" y1="701.7" x2="229.4" y2="684.8"/>
    <line class="a" x1="230.5" y1="700.6" x2="229.4" y2="701.7"/>
    <path class="a" d="M230.5,700.6a12.6,12.6,0,0,0,17.9,0"/>
    <path class="a" d="M229.4,701.7a14.1,14.1,0,0,0,20.1,0"/>
    <line class="a" x1="248.4" y1="700.6" x2="249.5" y2="701.7"/>
    <line class="a" x1="229.4" y1="665.4" x2="229.4" y2="648.5"/>
    <line class="a" x1="230.5" y1="664.3" x2="229.4" y2="665.4"/>
    <path class="a" d="M230.5,664.3a12.6,12.6,0,0,0,17.9,0"/>
    <path class="a" d="M229.4,665.4a14.1,14.1,0,0,0,20.1,0"/>
    <line class="a" x1="248.4" y1="664.3" x2="249.5" y2="665.4"/>
    <line class="a" x1="254.8" y1="665.4" x2="254.8" y2="648.5"/>
    <line class="a" x1="255.9" y1="664.3" x2="254.8" y2="665.4"/>
    <path class="a" d="M255.9,664.3a12.7,12.7,0,0,0,18,0"/>
    <path class="a" d="M254.8,665.4a14.1,14.1,0,0,0,20.1,0"/>
    <line class="a" x1="273.9" y1="664.3" x2="274.9" y2="665.4"/>
    <line class="a" x1="254.8" y1="701.7" x2="254.8" y2="684.8"/>
    <line class="a" x1="255.9" y1="700.6" x2="254.8" y2="701.7"/>
    <path class="a" d="M255.9,700.6a12.7,12.7,0,0,0,18,0"/>
    <path class="a" d="M254.8,701.7a14.1,14.1,0,0,0,20.1,0"/>
    <line class="a" x1="273.9" y1="700.6" x2="274.9" y2="701.7"/>
    <line class="a" x1="280.3" y1="592.6" x2="280.3" y2="575.7"/>
    <line class="a" x1="281.3" y1="591.5" x2="280.3" y2="592.6"/>
    <path class="a" d="M281.3,591.5a12.7,12.7,0,0,0,18,0"/>
    <path class="a" d="M280.3,592.6a14,14,0,0,0,20,0"/>
    <line class="a" x1="299.3" y1="591.5" x2="300.3" y2="592.6"/>
    <line class="a" x1="280.3" y1="556.2" x2="280.3" y2="539.3"/>
    <line class="a" x1="281.3" y1="555.1" x2="280.3" y2="556.2"/>
    <path class="a" d="M281.3,555.1a12.7,12.7,0,0,0,18,0"/>
    <path class="a" d="M280.3,556.2a14,14,0,0,0,20,0"/>
    <line class="a" x1="299.3" y1="555.1" x2="300.3" y2="556.2"/>
    <line class="a" x1="229.4" y1="592.6" x2="229.4" y2="575.7"/>
    <line class="a" x1="230.5" y1="591.5" x2="229.4" y2="592.6"/>
    <path class="a" d="M230.5,591.5a12.6,12.6,0,0,0,17.9,0"/>
    <path class="a" d="M229.4,592.6a14.1,14.1,0,0,0,20.1,0"/>
    <line class="a" x1="248.4" y1="591.5" x2="249.5" y2="592.6"/>
    <line class="a" x1="229.4" y1="556.2" x2="229.4" y2="539.3"/>
    <line class="a" x1="230.5" y1="555.1" x2="229.4" y2="556.2"/>
    <path class="a" d="M230.5,555.1a12.6,12.6,0,0,0,17.9,0"/>
    <path class="a" d="M229.4,556.2a14.1,14.1,0,0,0,20.1,0"/>
    <line class="a" x1="248.4" y1="555.1" x2="249.5" y2="556.2"/>
    <line class="a" x1="254.8" y1="592.6" x2="254.8" y2="575.7"/>
    <line class="a" x1="255.9" y1="591.5" x2="254.8" y2="592.6"/>
    <path class="a" d="M255.9,591.5a12.7,12.7,0,0,0,18,0"/>
    <path class="a" d="M254.8,592.6a14.1,14.1,0,0,0,20.1,0"/>
    <line class="a" x1="273.9" y1="591.5" x2="274.9" y2="592.6"/>
    <line class="a" x1="254.8" y1="556.2" x2="254.8" y2="539.3"/>
    <line class="a" x1="255.9" y1="555.1" x2="254.8" y2="556.2"/>
    <path class="a" d="M255.9,555.1a12.7,12.7,0,0,0,18,0"/>
    <path class="a" d="M254.8,556.2a14.1,14.1,0,0,0,20.1,0"/>
    <line class="a" x1="273.9" y1="555.1" x2="274.9" y2="556.2"/>
    <line class="a" x1="280.3" y1="629" x2="280.3" y2="612.1"/>
    <line class="a" x1="281.3" y1="627.9" x2="280.3" y2="629"/>
    <path class="a" d="M281.3,627.9a12.7,12.7,0,0,0,18,0"/>
    <path class="a" d="M280.3,629a14,14,0,0,0,20,0"/>
    <line class="a" x1="299.3" y1="627.9" x2="300.3" y2="629"/>
    <line class="a" x1="229.4" y1="629" x2="229.4" y2="612.1"/>
    <line class="a" x1="230.5" y1="627.9" x2="229.4" y2="629"/>
    <path class="a" d="M230.5,627.9a12.6,12.6,0,0,0,17.9,0"/>
    <path class="a" d="M229.4,629a14.1,14.1,0,0,0,20.1,0"/>
    <line class="a" x1="248.4" y1="627.9" x2="249.5" y2="629"/>
    <line class="a" x1="254.8" y1="629" x2="254.8" y2="612.1"/>
    <line class="a" x1="255.9" y1="627.9" x2="254.8" y2="629"/>
    <path class="a" d="M255.9,627.9a12.7,12.7,0,0,0,18,0"/>
    <path class="a" d="M254.8,629a14.1,14.1,0,0,0,20.1,0"/>
    <line class="a" x1="273.9" y1="627.9" x2="274.9" y2="629"/>
    <line class="a" x1="280.3" y1="519.8" x2="280.3" y2="502.9"/>
    <line class="a" x1="281.3" y1="518.7" x2="280.3" y2="519.8"/>
    <path class="a" d="M281.3,518.7a12.7,12.7,0,0,0,18,0"/>
    <path class="a" d="M280.3,519.8a14,14,0,0,0,20,0"/>
    <line class="a" x1="299.3" y1="518.7" x2="300.3" y2="519.8"/>
    <line class="a" x1="254.8" y1="519.8" x2="254.8" y2="502.9"/>
    <line class="a" x1="255.9" y1="518.7" x2="254.8" y2="519.8"/>
    <path class="a" d="M255.9,518.7a12.7,12.7,0,0,0,18,0"/>
    <path class="a" d="M254.8,519.8a14.1,14.1,0,0,0,20.1,0"/>
    <line class="a" x1="273.9" y1="518.7" x2="274.9" y2="519.8"/>
    <line class="a" x1="229.4" y1="519.8" x2="229.4" y2="502.9"/>
    <line class="a" x1="230.5" y1="518.7" x2="229.4" y2="519.8"/>
    <path class="a" d="M230.5,518.7a12.6,12.6,0,0,0,17.9,0"/>
    <path class="a" d="M229.4,519.8a14.1,14.1,0,0,0,20.1,0"/>
    <line class="a" x1="248.4" y1="518.7" x2="249.5" y2="519.8"/>
    <line class="a" x1="407.4" y1="701.7" x2="407.4" y2="684.8"/>
    <line class="a" x1="408.4" y1="700.6" x2="407.4" y2="701.7"/>
    <path class="a" d="M408.4,700.6a12.7,12.7,0,0,0,18,0"/>
    <path class="a" d="M407.4,701.7a14,14,0,0,0,20,0"/>
    <line class="a" x1="426.4" y1="700.6" x2="427.4" y2="701.7"/>
    <line class="a" x1="407.4" y1="665.4" x2="407.4" y2="648.5"/>
    <line class="a" x1="408.4" y1="664.3" x2="407.4" y2="665.4"/>
    <path class="a" d="M408.4,664.3a12.7,12.7,0,0,0,18,0"/>
    <path class="a" d="M407.4,665.4a14,14,0,0,0,20,0"/>
    <line class="a" x1="426.4" y1="664.3" x2="427.4" y2="665.4"/>
    <line class="a" x1="432.8" y1="701.7" x2="432.8" y2="684.8"/>
    <line class="a" x1="433.8" y1="700.6" x2="432.8" y2="701.7"/>
    <path class="a" d="M433.8,700.6a12.7,12.7,0,0,0,18,0"/>
    <path class="a" d="M432.8,701.7a14,14,0,0,0,20,0"/>
    <line class="a" x1="451.8" y1="700.6" x2="452.8" y2="701.7"/>
    <line class="a" x1="407.4" y1="629" x2="407.4" y2="612.1"/>
    <line class="a" x1="408.4" y1="627.9" x2="407.4" y2="629"/>
    <path class="a" d="M408.4,627.9a12.7,12.7,0,0,0,18,0"/>
    <path class="a" d="M407.4,629a14,14,0,0,0,20,0"/>
    <line class="a" x1="426.4" y1="627.9" x2="427.4" y2="629"/>
    <line class="a" x1="356.5" y1="701.7" x2="356.5" y2="684.8"/>
    <line class="a" x1="357.6" y1="700.6" x2="356.5" y2="701.7"/>
    <path class="a" d="M357.6,700.6a12.6,12.6,0,0,0,17.9,0"/>
    <path class="a" d="M356.5,701.7a14.1,14.1,0,0,0,20.1,0"/>
    <line class="a" x1="375.5" y1="700.6" x2="376.6" y2="701.7"/>
    <line class="a" x1="356.5" y1="665.4" x2="356.5" y2="648.5"/>
    <line class="a" x1="357.6" y1="664.3" x2="356.5" y2="665.4"/>
    <path class="a" d="M357.6,664.3a12.6,12.6,0,0,0,17.9,0"/>
    <path class="a" d="M356.5,665.4a14.1,14.1,0,0,0,20.1,0"/>
    <line class="a" x1="375.5" y1="664.3" x2="376.6" y2="665.4"/>
    <line class="a" x1="331.1" y1="701.7" x2="331.1" y2="684.8"/>
    <line class="a" x1="332.1" y1="700.6" x2="331.1" y2="701.7"/>
    <path class="a" d="M332.1,700.6a12.7,12.7,0,0,0,18,0"/>
    <path class="a" d="M331.1,701.7a14,14,0,0,0,20,0"/>
    <line class="a" x1="350.1" y1="700.6" x2="351.1" y2="701.7"/>
    <line class="a" x1="331.1" y1="665.4" x2="331.1" y2="648.5"/>
    <line class="a" x1="332.1" y1="664.3" x2="331.1" y2="665.4"/>
    <path class="a" d="M332.1,664.3a12.7,12.7,0,0,0,18,0"/>
    <path class="a" d="M331.1,665.4a14,14,0,0,0,20,0"/>
    <line class="a" x1="350.1" y1="664.3" x2="351.1" y2="665.4"/>
    <line class="a" x1="356.5" y1="592.6" x2="356.5" y2="575.7"/>
    <line class="a" x1="357.6" y1="591.5" x2="356.5" y2="592.6"/>
    <path class="a" d="M357.6,591.5a12.6,12.6,0,0,0,17.9,0"/>
    <path class="a" d="M356.5,592.6a14.1,14.1,0,0,0,20.1,0"/>
    <line class="a" x1="375.5" y1="591.5" x2="376.6" y2="592.6"/>
    <line class="a" x1="356.5" y1="556.2" x2="356.5" y2="539.3"/>
    <line class="a" x1="357.6" y1="555.1" x2="356.5" y2="556.2"/>
    <path class="a" d="M357.6,555.1a12.6,12.6,0,0,0,17.9,0"/>
    <path class="a" d="M356.5,556.2a14.1,14.1,0,0,0,20.1,0"/>
    <line class="a" x1="375.5" y1="555.1" x2="376.6" y2="556.2"/>
    <line class="a" x1="331.1" y1="592.6" x2="331.1" y2="575.7"/>
    <line class="a" x1="332.1" y1="591.5" x2="331.1" y2="592.6"/>
    <path class="a" d="M332.1,591.5a12.7,12.7,0,0,0,18,0"/>
    <path class="a" d="M331.1,592.6a14,14,0,0,0,20,0"/>
    <line class="a" x1="350.1" y1="591.5" x2="351.1" y2="592.6"/>
    <line class="a" x1="331.1" y1="556.2" x2="331.1" y2="539.3"/>
    <line class="a" x1="332.1" y1="555.1" x2="331.1" y2="556.2"/>
    <path class="a" d="M332.1,555.1a12.7,12.7,0,0,0,18,0"/>
    <path class="a" d="M331.1,556.2a14,14,0,0,0,20,0"/>
    <line class="a" x1="350.1" y1="555.1" x2="351.1" y2="556.2"/>
    <line class="a" x1="356.5" y1="629" x2="356.5" y2="612.1"/>
    <line class="a" x1="357.6" y1="627.9" x2="356.5" y2="629"/>
    <path class="a" d="M357.6,627.9a12.6,12.6,0,0,0,17.9,0"/>
    <path class="a" d="M356.5,629a14.1,14.1,0,0,0,20.1,0"/>
    <line class="a" x1="375.5" y1="627.9" x2="376.6" y2="629"/>
    <line class="a" x1="331.1" y1="629" x2="331.1" y2="612.1"/>
    <line class="a" x1="332.1" y1="627.9" x2="331.1" y2="629"/>
    <path class="a" d="M332.1,627.9a12.7,12.7,0,0,0,18,0"/>
    <path class="a" d="M331.1,629a14,14,0,0,0,20,0"/>
    <line class="a" x1="350.1" y1="627.9" x2="351.1" y2="629"/>
    <line class="a" x1="381.9" y1="592.6" x2="381.9" y2="575.7"/>
    <line class="a" x1="383" y1="591.5" x2="381.9" y2="592.6"/>
    <path class="a" d="M383,591.5a12.6,12.6,0,0,0,17.9,0"/>
    <path class="a" d="M381.9,592.6a14.1,14.1,0,0,0,20.1,0"/>
    <line class="a" x1="400.9" y1="591.5" x2="402" y2="592.6"/>
    <line class="a" x1="381.9" y1="629" x2="381.9" y2="612.1"/>
    <line class="a" x1="383" y1="627.9" x2="381.9" y2="629"/>
    <path class="a" d="M383,627.9a12.6,12.6,0,0,0,17.9,0"/>
    <path class="a" d="M381.9,629a14.1,14.1,0,0,0,20.1,0"/>
    <line class="a" x1="400.9" y1="627.9" x2="402" y2="629"/>
    <line class="a" x1="381.9" y1="665.4" x2="381.9" y2="648.5"/>
    <line class="a" x1="383" y1="664.3" x2="381.9" y2="665.4"/>
    <path class="a" d="M383,664.3a12.6,12.6,0,0,0,17.9,0"/>
    <path class="a" d="M381.9,665.4a14.1,14.1,0,0,0,20.1,0"/>
    <line class="a" x1="400.9" y1="664.3" x2="402" y2="665.4"/>
    <line class="a" x1="381.9" y1="701.7" x2="381.9" y2="684.8"/>
    <line class="a" x1="383" y1="700.6" x2="381.9" y2="701.7"/>
    <path class="a" d="M383,700.6a12.6,12.6,0,0,0,17.9,0"/>
    <path class="a" d="M381.9,701.7a14.1,14.1,0,0,0,20.1,0"/>
    <line class="a" x1="400.9" y1="700.6" x2="402" y2="701.7"/>
    <line class="a" x1="381.9" y1="556.2" x2="381.9" y2="539.3"/>
    <line class="a" x1="383" y1="555.1" x2="381.9" y2="556.2"/>
    <path class="a" d="M383,555.1a12.6,12.6,0,0,0,17.9,0"/>
    <path class="a" d="M381.9,556.2a14.1,14.1,0,0,0,20.1,0"/>
    <line class="a" x1="400.9" y1="555.1" x2="402" y2="556.2"/>
    <line class="a" x1="331.1" y1="519.8" x2="331.1" y2="502.9"/>
    <line class="a" x1="332.1" y1="518.7" x2="331.1" y2="519.8"/>
    <path class="a" d="M332.1,518.7a12.7,12.7,0,0,0,18,0"/>
    <path class="a" d="M331.1,519.8a14,14,0,0,0,20,0"/>
    <line class="a" x1="350.1" y1="518.7" x2="351.1" y2="519.8"/>
    <line class="a" x1="356.5" y1="519.8" x2="356.5" y2="502.9"/>
    <line class="a" x1="357.6" y1="518.7" x2="356.5" y2="519.8"/>
    <path class="a" d="M357.6,518.7a12.6,12.6,0,0,0,17.9,0"/>
    <path class="a" d="M356.5,519.8a14.1,14.1,0,0,0,20.1,0"/>
    <line class="a" x1="375.5" y1="518.7" x2="376.6" y2="519.8"/>
    <line class="a" x1="249.5" y1="410.6" x2="249.5" y2="393.7"/>
    <path class="a" d="M229.4,393.7a17,17,0,0,1,20.1,0"/>
    <line class="a" x1="274.9" y1="410.6" x2="274.9" y2="393.7"/>
    <path class="a" d="M254.8,393.7a17,17,0,0,1,20.1,0"/>
    <line class="a" x1="300.3" y1="410.6" x2="300.3" y2="393.7"/>
    <path class="a" d="M280.3,393.7a16.8,16.8,0,0,1,20,0"/>
    <line class="a" x1="325.7" y1="410.6" x2="325.7" y2="393.7"/>
    <path class="a" d="M305.7,393.7a16.8,16.8,0,0,1,20,0"/>
    <line class="a" x1="351.1" y1="447" x2="351.1" y2="430.1"/>
    <path class="a" d="M331.1,430.1a16.8,16.8,0,0,1,20,0"/>
    <line class="a" x1="325.7" y1="447" x2="325.7" y2="430.1"/>
    <path class="a" d="M305.7,430.1a16.8,16.8,0,0,1,20,0"/>
    <line class="a" x1="300.3" y1="447" x2="300.3" y2="430.1"/>
    <path class="a" d="M280.3,430.1a16.8,16.8,0,0,1,20,0"/>
    <line class="a" x1="274.9" y1="447" x2="274.9" y2="430.1"/>
    <path class="a" d="M254.8,430.1a17,17,0,0,1,20.1,0"/>
    <line class="a" x1="249.5" y1="447" x2="249.5" y2="430.1"/>
    <path class="a" d="M229.4,430.1a17,17,0,0,1,20.1,0"/>
    <line class="a" x1="249.5" y1="483.4" x2="249.5" y2="466.5"/>
    <path class="a" d="M229.4,466.5a17,17,0,0,1,20.1,0"/>
    <line class="a" x1="274.9" y1="483.4" x2="274.9" y2="466.5"/>
    <path class="a" d="M254.8,466.5a17,17,0,0,1,20.1,0"/>
    <line class="a" x1="300.3" y1="483.4" x2="300.3" y2="466.5"/>
    <path class="a" d="M280.3,466.5a16.8,16.8,0,0,1,20,0"/>
    <line class="a" x1="325.7" y1="483.4" x2="325.7" y2="466.5"/>
    <path class="a" d="M305.7,466.5a16.8,16.8,0,0,1,20,0"/>
    <line class="a" x1="351.1" y1="483.4" x2="351.1" y2="466.5"/>
    <path class="a" d="M331.1,466.5a16.8,16.8,0,0,1,20,0"/>
    <line class="a" x1="376.6" y1="483.4" x2="376.6" y2="466.5"/>
    <path class="a" d="M356.5,466.5a17,17,0,0,1,20.1,0"/>
    <line class="a" x1="376.6" y1="519.8" x2="376.6" y2="502.9"/>
    <path class="a" d="M356.5,502.9a17,17,0,0,1,20.1,0"/>
    <line class="a" x1="351.1" y1="519.8" x2="351.1" y2="502.9"/>
    <path class="a" d="M331.1,502.9a16.8,16.8,0,0,1,20,0"/>
    <line class="a" x1="325.7" y1="519.8" x2="325.7" y2="502.9"/>
    <path class="a" d="M305.7,502.9a16.8,16.8,0,0,1,20,0"/>
    <line class="a" x1="300.3" y1="519.8" x2="300.3" y2="502.9"/>
    <path class="a" d="M280.3,502.9a16.8,16.8,0,0,1,20,0"/>
    <line class="a" x1="274.9" y1="519.8" x2="274.9" y2="502.9"/>
    <path class="a" d="M254.8,502.9a17,17,0,0,1,20.1,0"/>
    <line class="a" x1="249.5" y1="519.8" x2="249.5" y2="502.9"/>
    <path class="a" d="M229.4,502.9a17,17,0,0,1,20.1,0"/>
    <line class="a" x1="274.9" y1="556.2" x2="274.9" y2="539.3"/>
    <path class="a" d="M254.8,539.3a17,17,0,0,1,20.1,0"/>
    <line class="a" x1="249.5" y1="556.2" x2="249.5" y2="539.3"/>
    <path class="a" d="M229.4,539.3a17,17,0,0,1,20.1,0"/>
    <line class="a" x1="300.3" y1="556.2" x2="300.3" y2="539.3"/>
    <path class="a" d="M280.3,539.3a16.8,16.8,0,0,1,20,0"/>
    <line class="a" x1="325.7" y1="556.2" x2="325.7" y2="539.3"/>
    <path class="a" d="M305.7,539.3a16.8,16.8,0,0,1,20,0"/>
    <line class="a" x1="351.1" y1="556.2" x2="351.1" y2="539.3"/>
    <path class="a" d="M331.1,539.3a16.8,16.8,0,0,1,20,0"/>
    <line class="a" x1="376.6" y1="556.2" x2="376.6" y2="539.3"/>
    <path class="a" d="M356.5,539.3a17,17,0,0,1,20.1,0"/>
    <line class="a" x1="402" y1="556.2" x2="402" y2="539.3"/>
    <path class="a" d="M381.9,539.3a17,17,0,0,1,20.1,0"/>
    <line class="a" x1="402" y1="592.6" x2="402" y2="575.7"/>
    <path class="a" d="M381.9,575.7a17,17,0,0,1,20.1,0"/>
    <line class="a" x1="376.6" y1="592.6" x2="376.6" y2="575.7"/>
    <path class="a" d="M356.5,575.7a17,17,0,0,1,20.1,0"/>
    <line class="a" x1="351.1" y1="592.6" x2="351.1" y2="575.7"/>
    <path class="a" d="M331.1,575.7a16.8,16.8,0,0,1,20,0"/>
    <line class="a" x1="325.7" y1="592.6" x2="325.7" y2="575.7"/>
    <path class="a" d="M305.7,575.7a16.8,16.8,0,0,1,20,0"/>
    <line class="a" x1="300.3" y1="592.6" x2="300.3" y2="575.7"/>
    <path class="a" d="M280.3,575.7a16.8,16.8,0,0,1,20,0"/>
    <line class="a" x1="274.9" y1="592.6" x2="274.9" y2="575.7"/>
    <path class="a" d="M254.8,575.7a17,17,0,0,1,20.1,0"/>
    <line class="a" x1="249.5" y1="592.6" x2="249.5" y2="575.7"/>
    <path class="a" d="M229.4,575.7a17,17,0,0,1,20.1,0"/>
    <line class="a" x1="249.5" y1="629" x2="249.5" y2="612.1"/>
    <path class="a" d="M229.4,612.1a17,17,0,0,1,20.1,0"/>
    <line class="a" x1="274.9" y1="629" x2="274.9" y2="612.1"/>
    <path class="a" d="M254.8,612.1a17,17,0,0,1,20.1,0"/>
    <line class="a" x1="300.3" y1="629" x2="300.3" y2="612.1"/>
    <path class="a" d="M280.3,612.1a16.8,16.8,0,0,1,20,0"/>
    <line class="a" x1="325.7" y1="629" x2="325.7" y2="612.1"/>
    <path class="a" d="M305.7,612.1a16.8,16.8,0,0,1,20,0"/>
    <line class="a" x1="351.1" y1="629" x2="351.1" y2="612.1"/>
    <path class="a" d="M331.1,612.1a16.8,16.8,0,0,1,20,0"/>
    <line class="a" x1="376.6" y1="629" x2="376.6" y2="612.1"/>
    <path class="a" d="M356.5,612.1a17,17,0,0,1,20.1,0"/>
    <line class="a" x1="402" y1="629" x2="402" y2="612.1"/>
    <path class="a" d="M381.9,612.1a17,17,0,0,1,20.1,0"/>
    <line class="a" x1="427.4" y1="629" x2="427.4" y2="612.1"/>
    <path class="a" d="M407.4,612.1a16.8,16.8,0,0,1,20,0"/>
    <line class="a" x1="427.4" y1="665.4" x2="427.4" y2="648.5"/>
    <path class="a" d="M407.4,648.5a16.8,16.8,0,0,1,20,0"/>
    <line class="a" x1="402" y1="665.4" x2="402" y2="648.5"/>
    <path class="a" d="M381.9,648.5a17,17,0,0,1,20.1,0"/>
    <line class="a" x1="376.6" y1="665.4" x2="376.6" y2="648.5"/>
    <path class="a" d="M356.5,648.5a17,17,0,0,1,20.1,0"/>
    <line class="a" x1="351.1" y1="665.4" x2="351.1" y2="648.5"/>
    <path class="a" d="M331.1,648.5a16.8,16.8,0,0,1,20,0"/>
    <line class="a" x1="325.7" y1="665.4" x2="325.7" y2="648.5"/>
    <path class="a" d="M305.7,648.5a16.8,16.8,0,0,1,20,0"/>
    <line class="a" x1="300.3" y1="665.4" x2="300.3" y2="648.5"/>
    <path class="a" d="M280.3,648.5a16.8,16.8,0,0,1,20,0"/>
    <line class="a" x1="274.9" y1="665.4" x2="274.9" y2="648.5"/>
    <path class="a" d="M254.8,648.5a17,17,0,0,1,20.1,0"/>
    <line class="a" x1="249.5" y1="665.4" x2="249.5" y2="648.5"/>
    <path class="a" d="M229.4,648.5a17,17,0,0,1,20.1,0"/>
    <line class="a" x1="249.5" y1="701.7" x2="249.5" y2="684.8"/>
    <path class="a" d="M229.4,684.8a17,17,0,0,1,20.1,0"/>
    <line class="a" x1="274.9" y1="701.7" x2="274.9" y2="684.8"/>
    <path class="a" d="M254.8,684.8a17,17,0,0,1,20.1,0"/>
    <line class="a" x1="300.3" y1="701.7" x2="300.3" y2="684.8"/>
    <path class="a" d="M280.3,684.8a16.8,16.8,0,0,1,20,0"/>
    <line class="a" x1="325.7" y1="701.7" x2="325.7" y2="684.8"/>
    <path class="a" d="M305.7,684.8a16.8,16.8,0,0,1,20,0"/>
    <line class="a" x1="351.1" y1="701.7" x2="351.1" y2="684.8"/>
    <path class="a" d="M331.1,684.8a16.8,16.8,0,0,1,20,0"/>
    <line class="a" x1="376.6" y1="701.7" x2="376.6" y2="684.8"/>
    <path class="a" d="M356.5,684.8a17,17,0,0,1,20.1,0"/>
    <line class="a" x1="402" y1="701.7" x2="402" y2="684.8"/>
    <path class="a" d="M381.9,684.8a17,17,0,0,1,20.1,0"/>
    <line class="a" x1="427.4" y1="701.7" x2="427.4" y2="684.8"/>
    <path class="a" d="M407.4,684.8a16.8,16.8,0,0,1,20,0"/>
    <line class="a" x1="452.8" y1="701.7" x2="452.8" y2="684.8"/>
    <path class="a" d="M432.8,684.8a16.8,16.8,0,0,1,20,0"/>
    <line class="a" x1="345.5" y1="412.3" x2="333.5" y2="400.4"/>
    <line class="a" x1="359.7" y1="397.9" x2="347.7" y2="386"/>
    <path class="a" d="M333.5,400.4A17.2,17.2,0,0,1,347.7,386"/>
    <line class="a" x1="363.3" y1="394.3" x2="351.3" y2="382.4"/>
    <line class="a" x1="377.6" y1="379.9" x2="365.6" y2="368"/>
    <path class="a" d="M351.3,382.4A17.3,17.3,0,0,1,365.6,368"/>
    <line class="a" x1="384.5" y1="372.9" x2="372.5" y2="361"/>
    <line class="a" x1="398.6" y1="358.4" x2="386.7" y2="346.7"/>
    <path class="a" d="M372.5,361a17.2,17.2,0,0,1,14.2-14.3"/>
    <line class="a" x1="370.8" y1="438" x2="358.8" y2="426.1"/>
    <line class="a" x1="385.1" y1="423.7" x2="373.1" y2="411.8"/>
    <path class="a" d="M358.8,426.1a17.3,17.3,0,0,1,14.3-14.3"/>
    <line class="a" x1="388.6" y1="420" x2="376.6" y2="408.1"/>
    <line class="a" x1="402.9" y1="405.7" x2="390.9" y2="393.7"/>
    <path class="a" d="M376.6,408.1a17.4,17.4,0,0,1,14.3-14.4"/>
    <line class="a" x1="409.7" y1="398.7" x2="397.7" y2="386.8"/>
    <line class="a" x1="423.8" y1="384.2" x2="412" y2="372.4"/>
    <path class="a" d="M397.7,386.8A17.3,17.3,0,0,1,412,372.4"/>
    <line class="a" x1="395.8" y1="464" x2="383.8" y2="452.1"/>
    <line class="a" x1="410.1" y1="449.6" x2="398.1" y2="437.7"/>
    <path class="a" d="M383.8,452.1a17.3,17.3,0,0,1,14.3-14.4"/>
    <line class="a" x1="413.9" y1="445.8" x2="401.9" y2="433.9"/>
    <line class="a" x1="428.1" y1="431.4" x2="416.1" y2="419.5"/>
    <path class="a" d="M401.9,433.9a17.2,17.2,0,0,1,14.2-14.4"/>
    <line class="a" x1="435" y1="424.4" x2="423" y2="412.5"/>
    <line class="a" x1="449.1" y1="409.9" x2="437.3" y2="398.2"/>
    <path class="a" d="M423,412.5a17.2,17.2,0,0,1,14.3-14.3"/>
    <line class="a" x1="403" y1="508" x2="391" y2="496.1"/>
    <line class="a" x1="417.3" y1="493.6" x2="405.3" y2="481.7"/>
    <path class="a" d="M391,496.1a17.3,17.3,0,0,1,14.3-14.4"/>
    <line class="a" x1="421.1" y1="489.7" x2="409.1" y2="477.8"/>
    <line class="a" x1="435.3" y1="475.4" x2="423.3" y2="463.5"/>
    <path class="a" d="M409.1,477.8a17.2,17.2,0,0,1,14.2-14.3"/>
    <line class="a" x1="439.2" y1="471.5" x2="427.2" y2="459.6"/>
    <line class="a" x1="453.4" y1="457.2" x2="441.4" y2="445.3"/>
    <path class="a" d="M427.2,459.6a17.2,17.2,0,0,1,14.2-14.3"/>
    <line class="a" x1="460.3" y1="450.2" x2="448.3" y2="438.3"/>
    <line class="a" x1="474.4" y1="435.7" x2="462.5" y2="423.9"/>
    <path class="a" d="M448.3,438.3a17.2,17.2,0,0,1,14.2-14.4"/>
    <line class="a" x1="428.5" y1="533.9" x2="416.5" y2="522"/>
    <line class="a" x1="442.8" y1="519.5" x2="430.7" y2="507.6"/>
    <path class="a" d="M416.5,522a17.2,17.2,0,0,1,14.2-14.4"/>
    <line class="a" x1="446.6" y1="515.7" x2="434.6" y2="503.8"/>
    <line class="a" x1="460.8" y1="501.3" x2="448.8" y2="489.4"/>
    <path class="a" d="M434.6,503.8a17.2,17.2,0,0,1,14.2-14.4"/>
    <line class="a" x1="464.6" y1="497.5" x2="452.6" y2="485.6"/>
    <line class="a" x1="478.9" y1="483.1" x2="466.9" y2="471.2"/>
    <path class="a" d="M452.6,485.6a17.3,17.3,0,0,1,14.3-14.4"/>
    <line class="a" x1="485.6" y1="475.9" x2="473.6" y2="464"/>
    <line class="a" x1="499.7" y1="461.4" x2="487.8" y2="449.7"/>
    <path class="a" d="M473.6,464a17.1,17.1,0,0,1,14.2-14.3"/>
    <line class="a" x1="440.9" y1="571.5" x2="428.9" y2="559.6"/>
    <line class="a" x1="455.2" y1="557.2" x2="443.2" y2="545.3"/>
    <path class="a" d="M428.9,559.6a17.3,17.3,0,0,1,14.3-14.3"/>
    <line class="a" x1="459" y1="553.3" x2="447" y2="541.4"/>
    <line class="a" x1="473.2" y1="539" x2="461.2" y2="527.1"/>
    <path class="a" d="M447,541.4a17.2,17.2,0,0,1,14.2-14.3"/>
    <line class="a" x1="477.1" y1="535.1" x2="465" y2="523.2"/>
    <line class="a" x1="491.3" y1="520.7" x2="479.3" y2="508.8"/>
    <path class="a" d="M465,523.2a17.3,17.3,0,0,1,14.3-14.4"/>
    <line class="a" x1="449.5" y1="614.3" x2="437.5" y2="602.3"/>
    <line class="a" x1="463.8" y1="599.9" x2="451.8" y2="588"/>
    <path class="a" d="M437.5,602.3A17.3,17.3,0,0,1,451.8,588"/>
    <line class="a" x1="466.2" y1="597.3" x2="454.2" y2="585.4"/>
    <line class="a" x1="480.4" y1="582.9" x2="468.4" y2="571"/>
    <path class="a" d="M454.2,585.4A17.2,17.2,0,0,1,468.4,571"/>
    <line class="a" x1="484.3" y1="579.1" x2="472.3" y2="567.2"/>
    <line class="a" x1="498.5" y1="564.7" x2="486.5" y2="552.8"/>
    <path class="a" d="M472.3,567.2a17.1,17.1,0,0,1,14.2-14.4"/>
    <line class="a" x1="502.3" y1="560.9" x2="490.3" y2="549"/>
    <line class="a" x1="516.6" y1="546.5" x2="504.6" y2="534.6"/>
    <path class="a" d="M490.3,549a17.3,17.3,0,0,1,14.3-14.4"/>
    <line class="a" x1="457" y1="659.4" x2="445" y2="647.5"/>
    <line class="a" x1="471.2" y1="645.1" x2="459.2" y2="633.2"/>
    <path class="a" d="M445,647.5a17.2,17.2,0,0,1,14.2-14.3"/>
    <line class="a" x1="473.6" y1="642.5" x2="461.6" y2="630.6"/>
    <line class="a" x1="487.9" y1="628.1" x2="475.9" y2="616.2"/>
    <path class="a" d="M461.6,630.6a17.3,17.3,0,0,1,14.3-14.4"/>
    <line class="a" x1="490.3" y1="625.5" x2="478.3" y2="613.6"/>
    <line class="a" x1="504.5" y1="611.1" x2="492.5" y2="599.2"/>
    <path class="a" d="M478.3,613.6a17.1,17.1,0,0,1,14.2-14.4"/>
    <line class="a" x1="508.3" y1="607.3" x2="496.3" y2="595.4"/>
    <line class="a" x1="522.6" y1="592.9" x2="510.6" y2="581"/>
    <path class="a" d="M496.3,595.4A17.3,17.3,0,0,1,510.6,581"/>
    <line class="a" x1="480.1" y1="687.3" x2="468.1" y2="675.4"/>
    <line class="a" x1="494.3" y1="672.9" x2="482.3" y2="661"/>
    <path class="a" d="M468.1,675.4A17.2,17.2,0,0,1,482.3,661"/>
    <line class="a" x1="496.7" y1="670.3" x2="484.7" y2="658.4"/>
    <line class="a" x1="511" y1="656" x2="499" y2="644"/>
    <path class="a" d="M484.7,658.4A17.3,17.3,0,0,1,499,644"/>
    <line class="a" x1="513.4" y1="653.4" x2="501.4" y2="641.4"/>
    <line class="a" x1="527.6" y1="639" x2="515.6" y2="627.1"/>
    <path class="a" d="M501.4,641.4a17.1,17.1,0,0,1,14.2-14.3"/>
    <line class="a" x1="406.8" y1="298.3" x2="394.8" y2="286.4"/>
    <line class="a" x1="421.1" y1="283.9" x2="409.1" y2="272"/>
    <path class="a" d="M394.8,286.4A17.3,17.3,0,0,1,409.1,272"/>
    <line class="a" x1="424.8" y1="280.2" x2="412.8" y2="268.2"/>
    <line class="a" x1="439.1" y1="265.8" x2="427.1" y2="253.9"/>
    <path class="a" d="M412.8,268.2a17.3,17.3,0,0,1,14.3-14.3"/>
    <line class="a" x1="432.1" y1="324" x2="420.1" y2="312.1"/>
    <line class="a" x1="446.4" y1="309.7" x2="434.3" y2="297.8"/>
    <path class="a" d="M420.1,312.1a17.2,17.2,0,0,1,14.2-14.3"/>
    <line class="a" x1="450.1" y1="305.9" x2="438.1" y2="294"/>
    <line class="a" x1="464.3" y1="291.5" x2="452.3" y2="279.6"/>
    <path class="a" d="M438.1,294a17.2,17.2,0,0,1,14.2-14.4"/>
    <line class="a" x1="468.1" y1="287.8" x2="456.1" y2="275.9"/>
    <line class="a" x1="482.3" y1="273.4" x2="470.3" y2="261.5"/>
    <path class="a" d="M456.1,275.9a17.2,17.2,0,0,1,14.2-14.4"/>
    <line class="a" x1="457.4" y1="349.8" x2="445.4" y2="337.9"/>
    <line class="a" x1="471.6" y1="335.4" x2="459.6" y2="323.5"/>
    <path class="a" d="M445.4,337.9a17.2,17.2,0,0,1,14.2-14.4"/>
    <line class="a" x1="475.4" y1="331.7" x2="463.4" y2="319.7"/>
    <line class="a" x1="489.6" y1="317.3" x2="477.6" y2="305.4"/>
    <path class="a" d="M463.4,319.7a17.2,17.2,0,0,1,14.2-14.3"/>
    <line class="a" x1="493.4" y1="313.5" x2="481.3" y2="301.6"/>
    <line class="a" x1="507.6" y1="299.2" x2="495.6" y2="287.2"/>
    <path class="a" d="M481.3,301.6a17.4,17.4,0,0,1,14.3-14.4"/>
    <line class="a" x1="511.3" y1="295.4" x2="499.3" y2="283.5"/>
    <line class="a" x1="525.6" y1="281" x2="513.6" y2="269.1"/>
    <path class="a" d="M499.3,283.5a17.3,17.3,0,0,1,14.3-14.4"/>
    <line class="a" x1="482.7" y1="375.5" x2="470.6" y2="363.6"/>
    <line class="a" x1="496.9" y1="361.2" x2="484.9" y2="349.3"/>
    <path class="a" d="M470.6,363.6a17.3,17.3,0,0,1,14.3-14.3"/>
    <line class="a" x1="500.6" y1="357.4" x2="488.6" y2="345.5"/>
    <line class="a" x1="514.9" y1="343" x2="502.9" y2="331.1"/>
    <path class="a" d="M488.6,345.5a17.3,17.3,0,0,1,14.3-14.4"/>
    <line class="a" x1="518.6" y1="339.3" x2="506.6" y2="327.4"/>
    <line class="a" x1="532.9" y1="324.9" x2="520.9" y2="313"/>
    <path class="a" d="M506.6,327.4A17.3,17.3,0,0,1,520.9,313"/>
    <line class="a" x1="536.6" y1="321.1" x2="524.6" y2="309.2"/>
    <line class="a" x1="550.9" y1="306.8" x2="538.9" y2="294.9"/>
    <path class="a" d="M524.6,309.2a17.2,17.2,0,0,1,14.3-14.3"/>
    <line class="a" x1="507.9" y1="401.3" x2="495.9" y2="389.4"/>
    <line class="a" x1="522.2" y1="386.9" x2="510.2" y2="375"/>
    <path class="a" d="M495.9,389.4A17.3,17.3,0,0,1,510.2,375"/>
    <line class="a" x1="525.9" y1="383.2" x2="513.9" y2="371.2"/>
    <line class="a" x1="540.2" y1="368.8" x2="528.2" y2="356.9"/>
    <path class="a" d="M513.9,371.2a17.3,17.3,0,0,1,14.3-14.3"/>
    <line class="a" x1="543.9" y1="365" x2="531.9" y2="353.1"/>
    <line class="a" x1="558.2" y1="350.7" x2="546.1" y2="338.7"/>
    <path class="a" d="M531.9,353.1a17.4,17.4,0,0,1,14.2-14.4"/>
    <line class="a" x1="561.8" y1="346.9" x2="549.8" y2="335"/>
    <line class="a" x1="576.1" y1="332.6" x2="564.1" y2="320.7"/>
    <path class="a" d="M549.8,335a17.3,17.3,0,0,1,14.3-14.3"/>
    <line class="a" x1="579.8" y1="328.9" x2="567.8" y2="317"/>
    <line class="a" x1="594" y1="314.5" x2="582" y2="302.6"/>
    <path class="a" d="M567.8,317A17.2,17.2,0,0,1,582,302.6"/>
    <line class="a" x1="533.2" y1="427" x2="521.2" y2="415.1"/>
    <line class="a" x1="547.5" y1="412.7" x2="535.4" y2="400.8"/>
    <path class="a" d="M521.2,415.1a17.2,17.2,0,0,1,14.2-14.3"/>
    <line class="a" x1="551.2" y1="408.9" x2="539.2" y2="397"/>
    <line class="a" x1="565.4" y1="394.5" x2="553.4" y2="382.6"/>
    <path class="a" d="M539.2,397a17.2,17.2,0,0,1,14.2-14.4"/>
    <line class="a" x1="569.2" y1="390.8" x2="557.2" y2="378.9"/>
    <line class="a" x1="583.4" y1="376.4" x2="571.4" y2="364.5"/>
    <path class="a" d="M557.2,378.9a17.2,17.2,0,0,1,14.2-14.4"/>
    <line class="a" x1="587.2" y1="372.6" x2="575.2" y2="360.7"/>
    <line class="a" x1="601.4" y1="358.3" x2="589.4" y2="346.4"/>
    <path class="a" d="M575.2,360.7a17.1,17.1,0,0,1,14.2-14.3"/>
    <line class="a" x1="605.1" y1="354.5" x2="593.1" y2="342.6"/>
    <line class="a" x1="619.4" y1="340.1" x2="607.4" y2="328.2"/>
    <path class="a" d="M593.1,342.6a17.3,17.3,0,0,1,14.3-14.4"/>
    <line class="a" x1="558.5" y1="452.8" x2="546.5" y2="440.9"/>
    <line class="a" x1="572.7" y1="438.4" x2="560.7" y2="426.5"/>
    <path class="a" d="M546.5,440.9a17.2,17.2,0,0,1,14.2-14.4"/>
    <line class="a" x1="576.5" y1="434.7" x2="564.5" y2="422.8"/>
    <line class="a" x1="590.7" y1="420.3" x2="578.7" y2="408.4"/>
    <path class="a" d="M564.5,422.8a17.2,17.2,0,0,1,14.2-14.4"/>
    <line class="a" x1="594.5" y1="416.5" x2="582.4" y2="404.6"/>
    <line class="a" x1="608.7" y1="402.2" x2="596.7" y2="390.3"/>
    <path class="a" d="M582.4,404.6a17.3,17.3,0,0,1,14.3-14.3"/>
    <line class="a" x1="612.4" y1="398.4" x2="600.4" y2="386.5"/>
    <line class="a" x1="626.7" y1="384" x2="614.7" y2="372.1"/>
    <path class="a" d="M600.4,386.5a17.3,17.3,0,0,1,14.3-14.4"/>
    <line class="a" x1="630.4" y1="380.3" x2="618.4" y2="368.4"/>
    <line class="a" x1="644.7" y1="365.9" x2="632.7" y2="354"/>
    <path class="a" d="M618.4,368.4A17.3,17.3,0,0,1,632.7,354"/>
    <line class="a" x1="648.4" y1="362.1" x2="636.4" y2="350.2"/>
    <line class="a" x1="662.7" y1="347.8" x2="650.6" y2="335.9"/>
    <path class="a" d="M636.4,350.2a17.2,17.2,0,0,1,14.2-14.3"/>
    <line class="a" x1="583.8" y1="478.6" x2="571.7" y2="466.6"/>
    <line class="a" x1="598" y1="464.2" x2="586" y2="452.3"/>
    <path class="a" d="M571.7,466.6A17.3,17.3,0,0,1,586,452.3"/>
    <line class="a" x1="601.7" y1="460.4" x2="589.7" y2="448.5"/>
    <line class="a" x1="616" y1="446.1" x2="604" y2="434.1"/>
    <path class="a" d="M589.7,448.5A17.3,17.3,0,0,1,604,434.1"/>
    <line class="a" x1="619.7" y1="442.3" x2="607.7" y2="430.4"/>
    <line class="a" x1="634" y1="427.9" x2="622" y2="416"/>
    <path class="a" d="M607.7,430.4A17.3,17.3,0,0,1,622,416"/>
    <line class="a" x1="637.7" y1="424.2" x2="625.7" y2="412.2"/>
    <line class="a" x1="652" y1="409.8" x2="640" y2="397.9"/>
    <path class="a" d="M625.7,412.2A17.2,17.2,0,0,1,640,397.9"/>
    <line class="a" x1="655.7" y1="406" x2="643.7" y2="394.1"/>
    <line class="a" x1="669.9" y1="391.7" x2="657.9" y2="379.7"/>
    <path class="a" d="M643.7,394.1a17.2,17.2,0,0,1,14.2-14.4"/>
    <line class="a" x1="673.7" y1="387.9" x2="661.7" y2="376"/>
    <line class="a" x1="687.9" y1="373.5" x2="675.9" y2="361.6"/>
    <path class="a" d="M661.7,376a17.2,17.2,0,0,1,14.2-14.4"/>
    <line class="a" x1="692" y1="370.1" x2="680" y2="358.2"/>
    <line class="a" x1="706.3" y1="355.7" x2="694.2" y2="343.8"/>
    <path class="a" d="M680,358.2a17.2,17.2,0,0,1,14.2-14.4"/>
    <line class="a" x1="460" y1="247.3" x2="443" y2="247.2"/>
    <line class="a" x1="460.1" y1="226.9" x2="443.1" y2="226.8"/>
    <path class="a" d="M443,247.2a17.6,17.6,0,0,1,.1-20.4"/>
    <line class="a" x1="460" y1="221.6" x2="443" y2="221.5"/>
    <line class="a" x1="460.1" y1="201.1" x2="443.1" y2="201"/>
    <path class="a" d="M443,221.5a17.7,17.7,0,0,1,.1-20.5"/>
    <line class="a" x1="460" y1="195.8" x2="443" y2="195.7"/>
    <line class="a" x1="460.1" y1="175.4" x2="443.1" y2="175.3"/>
    <path class="a" d="M443,195.7a17.6,17.6,0,0,1,.1-20.4"/>
    <line class="a" x1="460" y1="170" x2="443.1" y2="170"/>
    <line class="a" x1="460.1" y1="149.6" x2="443.2" y2="149.5"/>
    <path class="a" d="M443.1,170a17.6,17.6,0,0,1,.1-20.5"/>
    <line class="a" x1="497.3" y1="170.9" x2="480.3" y2="170.9"/>
    <line class="a" x1="497.4" y1="150.5" x2="480.4" y2="150.4"/>
    <path class="a" d="M480.3,170.9a17.7,17.7,0,0,1,.1-20.5"/>
    <line class="a" x1="497.3" y1="196.7" x2="480.3" y2="196.6"/>
    <line class="a" x1="497.4" y1="176.3" x2="480.4" y2="176.2"/>
    <path class="a" d="M480.3,196.6a17.6,17.6,0,0,1,.1-20.4"/>
    <line class="a" x1="497.3" y1="222.5" x2="480.3" y2="222.4"/>
    <line class="a" x1="497.4" y1="202.1" x2="480.4" y2="202"/>
    <path class="a" d="M480.3,222.4a17.6,17.6,0,0,1,.1-20.4"/>
    <line class="a" x1="497.3" y1="248.3" x2="480.3" y2="248.2"/>
    <line class="a" x1="497.4" y1="227.9" x2="480.4" y2="227.8"/>
    <path class="a" d="M480.3,248.2a17.6,17.6,0,0,1,.1-20.4"/>
    <line class="a" x1="533" y1="248.3" x2="516" y2="248.2"/>
    <line class="a" x1="533.1" y1="227.9" x2="516.1" y2="227.8"/>
    <path class="a" d="M516,248.2a17.6,17.6,0,0,1,.1-20.4"/>
    <line class="a" x1="533" y1="222.5" x2="516" y2="222.4"/>
    <line class="a" x1="533.1" y1="202.1" x2="516.1" y2="202"/>
    <path class="a" d="M516,222.4a17.6,17.6,0,0,1,.1-20.4"/>
    <line class="a" x1="533" y1="196.7" x2="516" y2="196.6"/>
    <line class="a" x1="533.1" y1="176.3" x2="516.1" y2="176.2"/>
    <path class="a" d="M516,196.6a17.6,17.6,0,0,1,.1-20.4"/>
    <line class="a" x1="533" y1="170.9" x2="516" y2="170.9"/>
    <line class="a" x1="533.1" y1="150.5" x2="516.1" y2="150.4"/>
    <path class="a" d="M516,170.9a17.7,17.7,0,0,1,.1-20.5"/>
    <line class="a" x1="568.7" y1="170.9" x2="551.8" y2="170.9"/>
    <line class="a" x1="568.8" y1="150.5" x2="551.9" y2="150.4"/>
    <path class="a" d="M551.8,170.9a17.7,17.7,0,0,1,.1-20.5"/>
    <line class="a" x1="568.7" y1="196.7" x2="551.8" y2="196.6"/>
    <line class="a" x1="568.8" y1="176.3" x2="551.9" y2="176.2"/>
    <path class="a" d="M551.8,196.6a17.6,17.6,0,0,1,.1-20.4"/>
    <line class="a" x1="604.4" y1="170.9" x2="587.5" y2="170.9"/>
    <line class="a" x1="604.5" y1="150.5" x2="587.6" y2="150.4"/>
    <path class="a" d="M587.5,170.9a17.6,17.6,0,0,1,.1-20.5"/>
    <line class="a" x1="604.4" y1="196.7" x2="587.5" y2="196.6"/>
    <line class="a" x1="604.5" y1="176.3" x2="587.6" y2="176.2"/>
    <path class="a" d="M587.5,196.6a17.4,17.4,0,0,1,.1-20.4"/>
    <line class="a" x1="568.7" y1="222.5" x2="551.8" y2="222.4"/>
    <line class="a" x1="568.8" y1="202.1" x2="551.9" y2="202"/>
    <path class="a" d="M551.8,222.4a17.6,17.6,0,0,1,.1-20.4"/>
    <line class="a" x1="604.4" y1="222.5" x2="587.5" y2="222.4"/>
    <line class="a" x1="604.5" y1="202.1" x2="587.6" y2="202"/>
    <path class="a" d="M587.5,222.4a17.4,17.4,0,0,1,.1-20.4"/>
    <line class="a" x1="568.7" y1="248.3" x2="551.8" y2="248.2"/>
    <line class="a" x1="568.8" y1="227.9" x2="551.9" y2="227.8"/>
    <path class="a" d="M551.8,248.2a17.6,17.6,0,0,1,.1-20.4"/>
    <line class="a" x1="604.4" y1="248.3" x2="587.5" y2="248.2"/>
    <line class="a" x1="604.5" y1="227.9" x2="587.6" y2="227.8"/>
    <path class="a" d="M587.5,248.2a17.4,17.4,0,0,1,.1-20.4"/>
    <line class="a" x1="568.7" y1="274.1" x2="551.8" y2="274"/>
    <line class="a" x1="568.8" y1="253.6" x2="551.9" y2="253.5"/>
    <path class="a" d="M551.8,274a17.7,17.7,0,0,1,.1-20.5"/>
    <line class="a" x1="604.4" y1="274.1" x2="587.5" y2="274"/>
    <line class="a" x1="604.5" y1="253.6" x2="587.6" y2="253.5"/>
    <path class="a" d="M587.5,274a17.6,17.6,0,0,1,.1-20.5"/>
    <line class="a" x1="640.2" y1="170.9" x2="623.3" y2="170.9"/>
    <line class="a" x1="640.3" y1="150.5" x2="623.4" y2="150.4"/>
    <path class="a" d="M623.3,170.9a17.7,17.7,0,0,1,.1-20.5"/>
    <line class="a" x1="640.2" y1="196.7" x2="623.3" y2="196.6"/>
    <line class="a" x1="640.3" y1="176.3" x2="623.4" y2="176.2"/>
    <path class="a" d="M623.3,196.6a17.6,17.6,0,0,1,.1-20.4"/>
    <line class="a" x1="640.2" y1="222.5" x2="623.3" y2="222.4"/>
    <line class="a" x1="640.3" y1="202.1" x2="623.4" y2="202"/>
    <path class="a" d="M623.3,222.4a17.6,17.6,0,0,1,.1-20.4"/>
    <line class="a" x1="640.2" y1="248.3" x2="623.3" y2="248.2"/>
    <line class="a" x1="640.3" y1="227.9" x2="623.4" y2="227.8"/>
    <path class="a" d="M623.3,248.2a17.6,17.6,0,0,1,.1-20.4"/>
    <line class="a" x1="640.4" y1="274.1" x2="623.5" y2="274"/>
    <line class="a" x1="640.5" y1="253.6" x2="623.6" y2="253.5"/>
    <path class="a" d="M623.5,274a17.6,17.6,0,0,1,.1-20.5"/>
    <line class="a" x1="640.4" y1="299.8" x2="623.5" y2="299.8"/>
    <line class="a" x1="640.5" y1="279.4" x2="623.6" y2="279.3"/>
    <path class="a" d="M623.5,299.8a17.6,17.6,0,0,1,.1-20.5"/>
    <line class="a" x1="640.4" y1="325.6" x2="623.5" y2="325.5"/>
    <line class="a" x1="640.5" y1="305.2" x2="623.6" y2="305.1"/>
    <path class="a" d="M623.5,325.5a17.4,17.4,0,0,1,.1-20.4"/>
    <line class="a" x1="676.1" y1="325.6" x2="659.2" y2="325.5"/>
    <line class="a" x1="676.2" y1="305.2" x2="659.3" y2="305.1"/>
    <path class="a" d="M659.2,325.5a17.6,17.6,0,0,1,.1-20.4"/>
    <line class="a" x1="676.1" y1="299.8" x2="659.2" y2="299.8"/>
    <line class="a" x1="676.2" y1="279.4" x2="659.3" y2="279.3"/>
    <path class="a" d="M659.2,299.8a17.7,17.7,0,0,1,.1-20.5"/>
    <line class="a" x1="676.1" y1="274.1" x2="659.2" y2="274"/>
    <line class="a" x1="676.2" y1="253.6" x2="659.3" y2="253.5"/>
    <path class="a" d="M659.2,274a17.7,17.7,0,0,1,.1-20.5"/>
    <line class="a" x1="675.8" y1="248.3" x2="658.9" y2="248.2"/>
    <line class="a" x1="675.9" y1="227.9" x2="659" y2="227.8"/>
    <path class="a" d="M658.9,248.2a17.6,17.6,0,0,1,.1-20.4"/>
    <line class="a" x1="675.8" y1="222.5" x2="658.9" y2="222.4"/>
    <line class="a" x1="675.9" y1="202.1" x2="659" y2="202"/>
    <path class="a" d="M658.9,222.4A17.6,17.6,0,0,1,659,202"/>
    <line class="a" x1="675.8" y1="196.7" x2="658.9" y2="196.6"/>
    <line class="a" x1="675.9" y1="176.3" x2="659" y2="176.2"/>
    <path class="a" d="M658.9,196.6a17.6,17.6,0,0,1,.1-20.4"/>
    <line class="a" x1="675.8" y1="170.9" x2="658.9" y2="170.9"/>
    <line class="a" x1="675.9" y1="150.5" x2="659" y2="150.4"/>
    <path class="a" d="M658.9,170.9a17.7,17.7,0,0,1,.1-20.5"/>
    <line class="a" x1="711.7" y1="170.9" x2="694.8" y2="170.9"/>
    <line class="a" x1="711.8" y1="150.5" x2="694.9" y2="150.4"/>
    <path class="a" d="M694.8,170.9a17.7,17.7,0,0,1,.1-20.5"/>
    <line class="a" x1="711.7" y1="196.7" x2="694.8" y2="196.6"/>
    <line class="a" x1="711.8" y1="176.3" x2="694.9" y2="176.2"/>
    <path class="a" d="M694.8,196.6a17.6,17.6,0,0,1,.1-20.4"/>
    <line class="a" x1="711.7" y1="222.5" x2="694.8" y2="222.4"/>
    <line class="a" x1="711.8" y1="202.1" x2="694.9" y2="202"/>
    <path class="a" d="M694.8,222.4a17.6,17.6,0,0,1,.1-20.4"/>
    <line class="a" x1="711.7" y1="248.3" x2="694.8" y2="248.2"/>
    <line class="a" x1="711.8" y1="227.9" x2="694.9" y2="227.8"/>
    <path class="a" d="M694.8,248.2a17.6,17.6,0,0,1,.1-20.4"/>
    <line class="a" x1="711.7" y1="274.1" x2="694.8" y2="274"/>
    <line class="a" x1="711.8" y1="253.6" x2="694.9" y2="253.5"/>
    <path class="a" d="M694.8,274a17.7,17.7,0,0,1,.1-20.5"/>
    <line class="a" x1="711.7" y1="299.8" x2="694.8" y2="299.8"/>
    <line class="a" x1="711.8" y1="279.4" x2="694.9" y2="279.3"/>
    <path class="a" d="M694.8,299.8a17.7,17.7,0,0,1,.1-20.5"/>
    <line class="a" x1="711.7" y1="325.6" x2="694.8" y2="325.5"/>
    <line class="a" x1="711.8" y1="305.2" x2="694.9" y2="305.1"/>
    <path class="a" d="M694.8,325.5a17.6,17.6,0,0,1,.1-20.4"/>
    <line class="a" x1="710.7" y1="350.3" x2="711.7" y2="351.4"/>
    <path class="a" d="M710.7,350.3a13.2,13.2,0,0,0,0-18.3"/>
    <path class="a" d="M711.7,351.4a14.7,14.7,0,0,0,0-20.4"/>
    <line class="a" x1="710.7" y1="332" x2="711.7" y2="331"/>
    <line class="a" x1="711.7" y1="351.4" x2="694.8" y2="351.3"/>
    <line class="a" x1="711.8" y1="331" x2="694.9" y2="330.9"/>
    <path class="a" d="M694.8,351.3a17.6,17.6,0,0,1,.1-20.4"/>
  </g>
  <g>
    <line class="a" x1="129.2" y1="633" x2="126.4" y2="633"/>
    <line class="a" x1="129.8" y1="730" x2="132.6" y2="730"/>
  </g>
  <g>
    <line class="a" x1="295.3" y1="195.9" x2="310.4" y2="212.1"/>
    <line class="a" x1="319.6" y1="130.2" x2="182.9" y2="266.9"/>
    <line class="a" x1="314.1" y1="177.8" x2="295.3" y2="195.9"/>
    <line class="a" x1="250.3" y1="196.9" x2="251.3" y2="197.9"/>
    <line class="a" x1="181.9" y1="265.8" x2="182.9" y2="266.9"/>
    <line class="a" x1="318.6" y1="129.1" x2="319.6" y2="130.2"/>
    <line class="a" x1="314.1" y1="177.8" x2="329.1" y2="194"/>
    <line class="a" x1="329.1" y1="194" x2="310.4" y2="212.1"/>
  </g>
  <g>
    <line class="a" x1="671" y1="485.6" x2="619.5" y2="537.1"/>
    <line class="a" x1="612.3" y1="530" x2="663.8" y2="478.4"/>
  </g>
  <g>
    <g>
      <line class="b" x1="239.5" y1="697.3" x2="239.5" y2="739.1"/>
      <line class="b" x1="319.2" y1="697.3" x2="319.2" y2="739.1"/>
      <line class="b" x1="235.5" y1="735.1" x2="323.2" y2="735.1"/>
      <line class="c" x1="242.4" y1="732.1" x2="236.5" y2="738.1"/>
      <line class="c" x1="316.2" y1="738.1" x2="322.2" y2="732.1"/>
      <text class="d" transform="translate(265.2 731.8)">2.0m</text>
    </g>
    <g>
      <line class="b" x1="233.5" y1="611.6" x2="200" y2="611.6"/>
      <line class="b" x1="233.5" y1="691.4" x2="200" y2="691.4"/>
      <line class="b" x1="204" y1="607.6" x2="204" y2="695.3"/>
      <line class="e" x1="207" y1="614.6" x2="201" y2="608.6"/>
      <line class="c" x1="201" y1="688.4" x2="207" y2="694.3"/>
      <text class="d" transform="translate(200.6 665.6) rotate(-90)">2.0m</text>
    </g>
  </g>
</svg>
