<svg xmlns="http://www.w3.org/2000/svg" viewBox="0 0 900 900">
  <defs>
    <style>
      .a, .b, .c, .e {
        fill: none;
        stroke-linecap: round;
        stroke-linejoin: round;
      }

      .a {
        stroke: #848484;
      }

      .a, .b {
        stroke-width: 0.71px;
      }

      .b, .c, .e {
        stroke: #333;
      }

      .c {
        stroke-width: 0.94px;
      }

      .d {
        font-size: 13.04px;
        fill: #333;
        font-family: Calibri;
      }

      .e {
        stroke-width: 0.94px;
      }
    </style>
  </defs>
  <g>
    <line class="a" x1="830.8" y1="699.8" x2="76.9" y2="699.8"/>
    <line class="a" x1="830.8" y1="692.5" x2="661.1" y2="692.5"/>
    <line class="a" x1="246.2" y1="692.5" x2="76.9" y2="692.5"/>
    <line class="a" x1="145.9" y1="179.7" x2="230.2" y2="179.7"/>
    <line class="a" x1="155.8" y1="189.6" x2="230.2" y2="189.6"/>
    <polyline class="a" points="145.9 179.7 145.9 221.1 127.6 221.1"/>
    <line class="a" x1="85" y1="221.1" x2="76.9" y2="221.1"/>
    <polyline class="a" points="155.8 189.6 155.8 230.9 127.6 230.9"/>
    <line class="a" x1="85" y1="231" x2="76.9" y2="231"/>
    <polyline class="a" points="85 232.8 78.8 232.8 78.8 289"/>
    <line class="a" x1="78.8" y1="295.3" x2="78.8" y2="396.1"/>
    <line class="a" x1="78.8" y1="402.4" x2="78.8" y2="503.1"/>
    <line class="a" x1="78.8" y1="509.4" x2="78.8" y2="610.2"/>
    <line class="a" x1="85" y1="221.1" x2="85" y2="231"/>
    <line class="a" x1="127.6" y1="221.1" x2="127.6" y2="231"/>
    <line class="a" x1="750.3" y1="189.6" x2="635.3" y2="189.6"/>
    <line class="a" x1="760.2" y1="179.7" x2="635.3" y2="179.7"/>
    <line class="a" x1="635.3" y1="179.7" x2="635.3" y2="189.6"/>
    <line class="a" x1="853.5" y1="218.6" x2="847.3" y2="218.6"/>
    <line class="a" x1="853.5" y1="218.6" x2="853.5" y2="228.4"/>
    <line class="a" x1="750.3" y1="228.4" x2="775.4" y2="228.4"/>
    <polyline class="a" points="127.6 232.8 157.7 232.8 157.7 191.5 748.4 191.5 748.4 230.3 775.4 230.3"/>
    <line class="a" x1="818" y1="228.4" x2="830.8" y2="228.4"/>
    <line class="a" x1="840.6" y1="228.4" x2="853.5" y2="228.4"/>
    <line class="a" x1="842.5" y1="610.2" x2="842.5" y2="509.4"/>
    <line class="a" x1="842.5" y1="503.1" x2="842.5" y2="402.4"/>
    <line class="a" x1="842.5" y1="396.1" x2="842.5" y2="295.3"/>
    <polyline class="a" points="842.5 289 842.5 230.3 853.5 230.3"/>
    <line class="a" x1="760.2" y1="218.6" x2="775.4" y2="218.6"/>
    <line class="a" x1="818" y1="218.6" x2="847.3" y2="218.6"/>
    <line class="a" x1="750.3" y1="228.4" x2="750.3" y2="189.6"/>
    <line class="a" x1="760.2" y1="218.6" x2="760.2" y2="179.7"/>
    <line class="a" x1="818" y1="218.6" x2="818" y2="228.4"/>
    <line class="a" x1="775.4" y1="228.4" x2="775.4" y2="218.6"/>
    <line class="a" x1="230.2" y1="179.7" x2="230.2" y2="189.6"/>
    <line class="a" x1="67" y1="179.7" x2="67" y2="632"/>
    <line class="a" x1="76.9" y1="179.7" x2="76.9" y2="632"/>
    <line class="a" x1="76.9" y1="674.6" x2="67" y2="674.6"/>
    <line class="a" x1="76.9" y1="632" x2="67" y2="632"/>
    <line class="a" x1="828.9" y1="610.2" x2="828.9" y2="509.4"/>
    <line class="a" x1="828.9" y1="503.1" x2="828.9" y2="402.4"/>
    <line class="a" x1="828.9" y1="396.1" x2="828.9" y2="295.3"/>
    <polyline class="a" points="828.9 289 828.9 230.3 818 230.3"/>
    <line class="a" x1="840.6" y1="709" x2="840.6" y2="218.6"/>
    <line class="a" x1="67" y1="709" x2="310" y2="709"/>
    <line class="a" x1="310" y1="709" x2="578.6" y2="709"/>
    <line class="a" x1="578.6" y1="709" x2="840.6" y2="709"/>
    <line class="a" x1="85" y1="231" x2="85" y2="232.8"/>
    <line class="a" x1="818" y1="228.4" x2="818" y2="230.3"/>
    <line class="a" x1="775.4" y1="228.4" x2="775.4" y2="230.3"/>
    <line class="a" x1="853.5" y1="228.4" x2="853.5" y2="230.3"/>
    <line class="a" x1="78.8" y1="289" x2="76.9" y2="289"/>
    <line class="a" x1="78.8" y1="295.3" x2="76.9" y2="295.3"/>
    <line class="a" x1="78.8" y1="396.1" x2="76.9" y2="396.1"/>
    <line class="a" x1="78.8" y1="402.4" x2="76.9" y2="402.4"/>
    <line class="a" x1="78.8" y1="503.1" x2="76.9" y2="503.1"/>
    <line class="a" x1="78.8" y1="509.4" x2="76.9" y2="509.4"/>
    <line class="a" x1="78.8" y1="610.2" x2="76.9" y2="610.2"/>
    <line class="a" x1="127.6" y1="231" x2="127.6" y2="232.8"/>
    <line class="a" x1="830.8" y1="289" x2="828.9" y2="289"/>
    <line class="a" x1="830.8" y1="295.3" x2="828.9" y2="295.3"/>
    <line class="a" x1="830.8" y1="396.1" x2="828.9" y2="396.1"/>
    <line class="a" x1="830.8" y1="402.4" x2="828.9" y2="402.4"/>
    <line class="a" x1="830.8" y1="503.1" x2="828.9" y2="503.1"/>
    <line class="a" x1="830.8" y1="509.4" x2="828.9" y2="509.4"/>
    <line class="a" x1="842.5" y1="289" x2="840.6" y2="289"/>
    <line class="a" x1="842.5" y1="295.3" x2="840.6" y2="295.3"/>
    <line class="a" x1="842.5" y1="396.1" x2="840.6" y2="396.1"/>
    <line class="a" x1="842.5" y1="402.4" x2="840.6" y2="402.4"/>
    <line class="a" x1="842.5" y1="503.1" x2="840.6" y2="503.1"/>
    <line class="a" x1="842.5" y1="509.4" x2="840.6" y2="509.4"/>
    <line class="a" x1="76.9" y1="674.6" x2="76.9" y2="699.8"/>
    <line class="a" x1="828.9" y1="610.2" x2="830.8" y2="610.2"/>
    <line class="a" x1="840.6" y1="610.2" x2="842.5" y2="610.2"/>
    <line class="a" x1="828.9" y1="692.5" x2="828.9" y2="616.5"/>
    <line class="a" x1="830.8" y1="616.5" x2="828.9" y2="616.5"/>
    <line class="a" x1="78.8" y1="616.5" x2="78.8" y2="632"/>
    <line class="a" x1="78.8" y1="674.6" x2="78.8" y2="692.5"/>
    <line class="a" x1="78.8" y1="616.5" x2="76.9" y2="616.5"/>
    <line class="a" x1="842.5" y1="692.5" x2="842.5" y2="616.5"/>
    <line class="a" x1="842.5" y1="616.5" x2="840.6" y2="616.5"/>
    <line class="a" x1="76.9" y1="632" x2="78.8" y2="632"/>
    <line class="a" x1="76.9" y1="674.6" x2="78.8" y2="674.6"/>
    <line class="a" x1="246.2" y1="699.8" x2="246.2" y2="692.5"/>
    <line class="a" x1="661.1" y1="699.8" x2="661.1" y2="692.5"/>
    <line class="a" x1="830.8" y1="699.8" x2="830.8" y2="218.6"/>
    <line class="a" x1="76.9" y1="179.7" x2="67" y2="179.7"/>
    <line class="a" x1="659" y1="692.5" x2="246.2" y2="692.5"/>
    <line class="a" x1="661.1" y1="692.5" x2="659" y2="692.5"/>
    <line class="a" x1="71.7" y1="632" x2="76.9" y2="632"/>
    <line class="a" x1="842.5" y1="692.5" x2="840.6" y2="692.5"/>
    <line class="a" x1="67" y1="709" x2="67" y2="674.6"/>
  </g>
  <g>
    <line class="a" x1="635.3" y1="189.6" x2="230.2" y2="189.6"/>
    <line class="a" x1="635.3" y1="179.7" x2="230.2" y2="179.7"/>
  </g>
  <g>
    <line class="a" x1="633.2" y1="183.4" x2="568.1" y2="183.4"/>
    <rect class="a" x="566" y="180.4" width="2.1" height="9.19"/>
    <line class="a" x1="566" y1="183.4" x2="501" y2="183.4"/>
    <rect class="a" x="498.9" y="180.4" width="2.1" height="9.19"/>
    <line class="a" x1="498.9" y1="183.4" x2="433.8" y2="183.4"/>
    <rect class="a" x="431.7" y="180.4" width="2.1" height="9.19"/>
    <rect class="a" x="633.2" y="180.4" width="2.1" height="9.19"/>
    <line class="a" x1="431.7" y1="183.4" x2="366.6" y2="183.4"/>
    <rect class="a" x="364.5" y="180.4" width="2.1" height="9.19"/>
    <line class="a" x1="364.5" y1="183.4" x2="299.5" y2="183.4"/>
    <rect class="a" x="297.4" y="180.4" width="2.1" height="9.19"/>
    <line class="a" x1="297.4" y1="183.4" x2="232.3" y2="183.4"/>
    <rect class="a" x="230.2" y="180.4" width="2.1" height="9.19"/>
  </g>
  <g>
    <line class="a" x1="476.7" y1="454.4" x2="476.7" y2="437.6"/>
    <line class="a" x1="476.7" y1="395.6" x2="476.7" y2="378.8"/>
    <line class="a" x1="476.7" y1="336.8" x2="476.7" y2="320"/>
    <line class="a" x1="430.6" y1="454.4" x2="430.6" y2="437.6"/>
    <line class="a" x1="430.6" y1="395.6" x2="430.6" y2="378.8"/>
    <line class="a" x1="430.6" y1="336.8" x2="430.6" y2="320"/>
    <line class="a" x1="430.6" y1="278.1" x2="430.6" y2="261.3"/>
    <line class="a" x1="124.1" y1="367.3" x2="128.9" y2="383.4"/>
    <line class="a" x1="124.1" y1="428.5" x2="129.1" y2="444.5"/>
    <line class="a" x1="476.7" y1="278" x2="476.7" y2="261.3"/>
    <line class="a" x1="430.6" y1="496.4" x2="430.6" y2="513.2"/>
    <line class="a" x1="211.3" y1="525.8" x2="215.3" y2="542.1"/>
    <line class="a" x1="476.7" y1="496.4" x2="476.7" y2="513.2"/>
    <line class="a" x1="143" y1="501.5" x2="137.9" y2="485.5"/>
    <path class="a" d="M430.6,513.2a989.9,989.9,0,0,0-215.3,28.9"/>
    <path class="a" d="M430.6,496.4a1007.3,1007.3,0,0,0-219.3,29.4"/>
    <path class="a" d="M430.6,437.6a1061.2,1061.2,0,0,0-292.7,47.9"/>
    <path class="a" d="M430.6,378.8a1114.9,1114.9,0,0,0-306.5,49.7"/>
    <path class="a" d="M430.6,320a1170,1170,0,0,0-306.5,47.3"/>
    <path class="a" d="M430.6,336.8a1150.9,1150.9,0,0,0-301.7,46.6"/>
    <path class="a" d="M430.6,395.6a1097.5,1097.5,0,0,0-301.5,48.9"/>
    <path class="a" d="M430.6,454.4A1043.8,1043.8,0,0,0,143,501.5"/>
    <path class="a" d="M769.4,485.5a1060.6,1060.6,0,0,0-292.7-47.9"/>
    <path class="a" d="M783.2,428.5a1114.3,1114.3,0,0,0-306.5-49.7"/>
    <path class="a" d="M783.2,367.3A1170,1170,0,0,0,476.7,320"/>
    <path class="a" d="M778.4,383.4a1150.2,1150.2,0,0,0-301.7-46.6"/>
    <path class="a" d="M741.4,295.4a1222.9,1222.9,0,0,0-264.7-34.1"/>
    <path class="a" d="M737.5,311.7a1200.1,1200.1,0,0,0-260.8-33.6"/>
    <path class="a" d="M778.2,444.5a1097.5,1097.5,0,0,0-301.5-48.9"/>
    <path class="a" d="M764.3,501.6a1040.1,1040.1,0,0,0-287.6-47.2"/>
    <line class="a" x1="783.2" y1="367.3" x2="778.4" y2="383.4"/>
    <line class="a" x1="783.2" y1="428.5" x2="778.2" y2="444.5"/>
    <line class="a" x1="764.3" y1="501.6" x2="769.4" y2="485.5"/>
    <line class="a" x1="737.5" y1="311.7" x2="741.4" y2="295.4"/>
    <path class="a" d="M430.6,261.3a1223.6,1223.6,0,0,0-224.1,25"/>
    <path class="a" d="M205.2,280.1c-14.6,3.1-29.3,6.4-43.8,9.9"/>
    <path class="a" d="M430.6,278.1a1202,1202,0,0,0-263.7,34.4"/>
    <path class="a" d="M689.4,524.2a1003.3,1003.3,0,0,0-212.7-27.8"/>
    <polyline class="a" points="684.1 546 641.3 537.7 645.7 514.7"/>
    <line class="a" x1="205.2" y1="280.1" x2="209.9" y2="302.7"/>
    <line class="a" x1="161.4" y1="290" x2="166.9" y2="312.5"/>
    <line class="a" x1="689.4" y1="524.2" x2="684.1" y2="546"/>
    <path class="a" d="M642.5,531.1a991.7,991.7,0,0,0-165.8-17.9"/>
  </g>
  <g>
    <path class="a" d="M770.1,409.6a42.9,42.9,0,0,0-6.2-1.4,1.8,1.8,0,0,0-1.9,1l-5,12a1.7,1.7,0,0,0,.9,2.3c0,.1.1.1.2.1l14.6,4.3a1.6,1.6,0,0,0,2.1-1.2.3.3,0,0,0,.1-.2l2.3-12.8a1.9,1.9,0,0,0-1-1.9A63.2,63.2,0,0,0,770.1,409.6Z"/>
    <path class="a" d="M777.8,407.6h0a.4.4,0,0,1,.2.6l-1,2.7a50.7,50.7,0,0,0-6.5-2.4,42.6,42.6,0,0,0-6.9-1.5l.7-2.9h0c.1-.2.3-.4.5-.3a45.4,45.4,0,0,1,6.6,1.4A49.3,49.3,0,0,1,777.8,407.6Z"/>
    <path class="a" d="M743.1,402a35,35,0,0,0-6.3-1.2,1.7,1.7,0,0,0-1.8,1L730.2,414a1.8,1.8,0,0,0,1,2.2h.2l14.7,3.9a1.7,1.7,0,0,0,2.1-1.2v-.2l2-12.9a1.7,1.7,0,0,0-1-1.8A33.9,33.9,0,0,0,743.1,402Z"/>
    <path class="a" d="M750.7,399.8h0a.4.4,0,0,1,.2.6l-.9,2.7a46.4,46.4,0,0,0-6.6-2.2,42.2,42.2,0,0,0-6.9-1.4l.7-2.8h0c0-.3.2-.5.5-.4a51.3,51.3,0,0,1,6.6,1.3A53.9,53.9,0,0,1,750.7,399.8Z"/>
    <path class="a" d="M715.9,395.1a47.6,47.6,0,0,0-6.4-1.1,1.6,1.6,0,0,0-1.8,1.1l-4.4,12.2a1.9,1.9,0,0,0,1,2.3h.2l14.8,3.6a1.7,1.7,0,0,0,2.1-1.3v-.2l1.7-12.9A1.7,1.7,0,0,0,722,397,47.6,47.6,0,0,0,715.9,395.1Z"/>
    <path class="a" d="M723.4,392.6h0a.5.5,0,0,1,.2.6l-.8,2.8c-2.2-.8-4.4-1.5-6.7-2.1a52.2,52.2,0,0,0-6.9-1.1l.6-2.9h0c0-.3.2-.4.5-.4a50.5,50.5,0,0,1,6.6,1.1A48.8,48.8,0,0,1,723.4,392.6Z"/>
    <path class="a" d="M688.5,388.8c-2.1-.4-4.3-.7-6.4-.9a1.7,1.7,0,0,0-1.8,1.1l-4.1,12.4a1.8,1.8,0,0,0,1,2.2h.3l14.9,3.2a1.7,1.7,0,0,0,2-1.4v-.2l1.4-13a1.7,1.7,0,0,0-1.2-1.7C692.6,389.9,690.5,389.3,688.5,388.8Z"/>
    <path class="a" d="M695.9,386.2h0a.6.6,0,0,1,.3.6l-.8,2.8a39.3,39.3,0,0,0-6.7-1.9,41,41,0,0,0-6.9-1l.5-2.9h0a.4.4,0,0,1,.4-.4,49.1,49.1,0,0,1,6.7.9A48.4,48.4,0,0,1,695.9,386.2Z"/>
    <path class="a" d="M660.9,383.3a44.8,44.8,0,0,0-6.4-.8,1.5,1.5,0,0,0-1.7,1.2L649,396.1a1.7,1.7,0,0,0,1.1,2.2h.2l15,2.8a1.7,1.7,0,0,0,2-1.4v-.2l1-13a1.6,1.6,0,0,0-1.2-1.7A33.2,33.2,0,0,0,660.9,383.3Z"/>
    <path class="a" d="M668.3,380.5h0c.2,0,.3.3.3.5l-.7,2.9a40.1,40.1,0,0,0-6.8-1.8,54,54,0,0,0-6.9-.8l.4-2.9h0c0-.3.2-.5.4-.4a37.2,37.2,0,0,1,6.7.8A37.6,37.6,0,0,1,668.3,380.5Z"/>
    <path class="a" d="M633.2,378.4a33.9,33.9,0,0,0-6.4-.6,1.7,1.7,0,0,0-1.7,1.2l-3.5,12.6a1.7,1.7,0,0,0,1.2,2.1h.2l15,2.4a1.7,1.7,0,0,0,2-1.4v-.2l.7-13.1a1.9,1.9,0,0,0-1.2-1.7A47.5,47.5,0,0,0,633.2,378.4Z"/>
    <path class="a" d="M640.5,375.4h0a.4.4,0,0,1,.3.6l-.6,2.8a51.7,51.7,0,0,0-6.8-1.6,40.5,40.5,0,0,0-7-.6l.4-2.9h0a.5.5,0,0,1,.4-.5,52.3,52.3,0,0,1,6.8.7A36.1,36.1,0,0,1,640.5,375.4Z"/>
    <path class="a" d="M605.4,374.2a44.9,44.9,0,0,0-6.4-.4,1.8,1.8,0,0,0-1.7,1.2l-3.1,12.7a1.7,1.7,0,0,0,1.2,2.1h.2l15.1,2a1.6,1.6,0,0,0,1.9-1.4v-.3l.4-13a1.7,1.7,0,0,0-1.3-1.7A41.3,41.3,0,0,0,605.4,374.2Z"/>
    <path class="a" d="M612.7,371.1h0c.2,0,.3.3.3.5l-.6,2.9a51.5,51.5,0,0,0-6.8-1.5,54.8,54.8,0,0,0-7-.4l.3-2.9h0a.5.5,0,0,1,.4-.5,49.1,49.1,0,0,1,6.7.5A49.8,49.8,0,0,1,612.7,371.1Z"/>
    <path class="a" d="M577.5,370.8a33.9,33.9,0,0,0-6.4-.3,1.6,1.6,0,0,0-1.6,1.3l-2.9,12.7a1.7,1.7,0,0,0,1.3,2.1h.2l15.1,1.7a1.7,1.7,0,0,0,1.9-1.5V373.5a1.7,1.7,0,0,0-1.3-1.6A45,45,0,0,0,577.5,370.8Z"/>
    <path class="a" d="M584.7,367.4h0a.5.5,0,0,1,.3.6l-.4,2.8a55.4,55.4,0,0,0-6.9-1.2,41.5,41.5,0,0,0-7-.3l.2-2.9h0a.5.5,0,0,1,.4-.5c2.3,0,4.5.1,6.7.3S582.5,366.9,584.7,367.4Z"/>
    <path class="a" d="M549.6,368a47,47,0,0,0-6.5-.1,1.8,1.8,0,0,0-1.6,1.3L539,382a1.8,1.8,0,0,0,1.3,2.1h.2l15.2,1.3a1.7,1.7,0,0,0,1.9-1.6v-.2l-.3-13a1.7,1.7,0,0,0-1.4-1.6A45.8,45.8,0,0,0,549.6,368Z"/>
    <path class="a" d="M556.6,364.5h0c.3,0,.4.3.4.5l-.4,2.9a48.7,48.7,0,0,0-13.9-1.2v-2.9h0a.5.5,0,0,1,.4-.5,51.5,51.5,0,0,1,6.8.1A50.5,50.5,0,0,1,556.6,364.5Z"/>
    <path class="a" d="M521.5,365.9a45.6,45.6,0,0,0-6.4.1,1.7,1.7,0,0,0-1.6,1.4l-2.2,12.8a1.6,1.6,0,0,0,1.4,2h.2l15.2.9a1.7,1.7,0,0,0,1.8-1.6.2.2,0,0,0,0-.3l-.6-13a1.8,1.8,0,0,0-1.4-1.6C525.8,366.3,523.7,366.1,521.5,365.9Z"/>
    <path class="a" d="M528.5,362.2h0a.5.5,0,0,1,.4.6l-.3,2.9a56.2,56.2,0,0,0-7-1,54.5,54.5,0,0,0-7,.1v-2.9h0c-.1-.3.1-.5.4-.5a37.5,37.5,0,0,1,6.7,0A49.1,49.1,0,0,1,528.5,362.2Z"/>
    <path class="a" d="M493.5,364.6a47.1,47.1,0,0,0-6.5.2,1.6,1.6,0,0,0-1.5,1.4l-1.9,12.9a1.9,1.9,0,0,0,1.4,2h.2l15.3.6a1.8,1.8,0,0,0,1.8-1.7v-.2l-1-13a1.9,1.9,0,0,0-1.4-1.6A47.6,47.6,0,0,0,493.5,364.6Z"/>
    <path class="a" d="M500.3,360.7h0c.3,0,.4.3.4.5l-.2,2.9a55.3,55.3,0,0,0-7-.7,54.6,54.6,0,0,0-7,.2v-2.9h0c0-.2.1-.5.4-.5a50,50,0,0,1,6.7-.2A49,49,0,0,1,500.3,360.7Z"/>
    <path class="a" d="M732.5,459.9a41.3,41.3,0,0,0-6.3-1.3,1.7,1.7,0,0,0-1.8,1.1l-4.8,12.1a1.9,1.9,0,0,0,1,2.3h.2l14.7,4a1.7,1.7,0,0,0,2.1-1.2v-.2l2.1-12.9a1.7,1.7,0,0,0-1.1-1.8A33.9,33.9,0,0,0,732.5,459.9Z"/>
    <path class="a" d="M740.1,457.7h0a.4.4,0,0,1,.3.6l-.9,2.8a58.4,58.4,0,0,0-6.6-2.4,55.8,55.8,0,0,0-6.9-1.3l.6-2.9h0a.7.7,0,0,1,.5-.4,45.4,45.4,0,0,1,6.6,1.4A48.3,48.3,0,0,1,740.1,457.7Z"/>
    <path class="a" d="M706.7,453.2a45,45,0,0,0-6.4-1.1,1.8,1.8,0,0,0-1.8,1.1l-4.4,12.2a1.8,1.8,0,0,0,.9,2.3h.3l14.8,3.7a1.7,1.7,0,0,0,2-1.3.3.3,0,0,0,.1-.2l1.7-13a1.8,1.8,0,0,0-1.1-1.8C710.8,454.4,708.7,453.7,706.7,453.2Z"/>
    <path class="a" d="M714.2,450.8h0a.5.5,0,0,1,.2.6l-.8,2.8a52.5,52.5,0,0,0-6.7-2.2,49.7,49.7,0,0,0-6.9-1.1l.6-2.9h0c0-.3.3-.4.5-.4a36.5,36.5,0,0,1,6.6,1.2A48.8,48.8,0,0,1,714.2,450.8Z"/>
    <path class="a" d="M680.6,447.2a45.8,45.8,0,0,0-6.3-1,1.7,1.7,0,0,0-1.8,1.1l-4.2,12.4a1.8,1.8,0,0,0,1.1,2.2h.2l14.9,3.2a1.7,1.7,0,0,0,2-1.3c0-.1.1-.1.1-.2l1.3-13a1.7,1.7,0,0,0-1.1-1.8A43.7,43.7,0,0,0,680.6,447.2Z"/>
    <path class="a" d="M688.1,444.6h0a.4.4,0,0,1,.2.6l-.7,2.8a51.6,51.6,0,0,0-6.7-2,53.6,53.6,0,0,0-7-1l.5-2.9h0a.7.7,0,0,1,.5-.4,49.2,49.2,0,0,1,6.7,1A48.4,48.4,0,0,1,688.1,444.6Z"/>
    <path class="a" d="M654.4,441.8a45.2,45.2,0,0,0-6.3-.8,1.7,1.7,0,0,0-1.8,1.2l-3.8,12.4a1.7,1.7,0,0,0,1.1,2.2h.2l14.9,2.8a1.8,1.8,0,0,0,2.1-1.3v-.2l1-13.1a1.7,1.7,0,0,0-1.1-1.7A48.5,48.5,0,0,0,654.4,441.8Z"/>
    <path class="a" d="M661.8,439h0a.4.4,0,0,1,.3.6l-.7,2.8c-2.2-.7-4.4-1.3-6.7-1.8a55.6,55.6,0,0,0-7-.8l.4-2.9h0c0-.3.3-.4.5-.4a51,51,0,0,1,6.7.8A47.7,47.7,0,0,1,661.8,439Z"/>
    <path class="a" d="M628.1,437.1a44.8,44.8,0,0,0-6.4-.7,1.7,1.7,0,0,0-1.7,1.3l-3.5,12.5a1.8,1.8,0,0,0,1.1,2.2h.2l15.1,2.5a1.8,1.8,0,0,0,2-1.4v-.2l.7-13.1a1.9,1.9,0,0,0-1.2-1.7A47.5,47.5,0,0,0,628.1,437.1Z"/>
    <path class="a" d="M635.4,434.1h0a.4.4,0,0,1,.3.6l-.6,2.8a51.7,51.7,0,0,0-6.8-1.6,53.5,53.5,0,0,0-7-.7l.4-2.9h0a.5.5,0,0,1,.5-.4,52.6,52.6,0,0,1,6.7.7A36.1,36.1,0,0,1,635.4,434.1Z"/>
    <path class="a" d="M601.7,433c-2.1-.3-4.3-.4-6.4-.5a1.8,1.8,0,0,0-1.7,1.3l-3.2,12.6a1.8,1.8,0,0,0,1.2,2.2h.2l15.1,2.1a1.6,1.6,0,0,0,1.9-1.4.4.4,0,0,0,.1-.3l.3-13a1.6,1.6,0,0,0-1.2-1.7A47,47,0,0,0,601.7,433Z"/>
    <path class="a" d="M608.9,429.9h0a.3.3,0,0,1,.3.5l-.5,2.9a51.5,51.5,0,0,0-6.8-1.5,41.7,41.7,0,0,0-7-.4l.3-3h0a.4.4,0,0,1,.4-.4,49.1,49.1,0,0,1,6.7.5A45.4,45.4,0,0,1,608.9,429.9Z"/>
    <path class="a" d="M575.2,429.6l-6.4-.3a1.8,1.8,0,0,0-1.7,1.3l-2.9,12.7a1.7,1.7,0,0,0,1.3,2.1h.2l15.1,1.7a1.7,1.7,0,0,0,1.9-1.5V432.4a1.6,1.6,0,0,0-1.3-1.6A46.6,46.6,0,0,0,575.2,429.6Z"/>
    <path class="a" d="M582.3,426.3h0a.5.5,0,0,1,.4.5l-.5,2.9a55.8,55.8,0,0,0-6.9-1.3c-2.3-.2-4.6-.3-7-.3l.2-2.9h0a.5.5,0,0,1,.5-.4,37.6,37.6,0,0,1,6.7.3A36.5,36.5,0,0,1,582.3,426.3Z"/>
    <path class="a" d="M548.6,426.9c-2.2-.2-4.3-.2-6.4-.2a1.7,1.7,0,0,0-1.6,1.4L538,440.9a1.6,1.6,0,0,0,1.3,2c0,.1.1.1.2.1l15.2,1.3a1.6,1.6,0,0,0,1.8-1.5c0-.1.1-.2,0-.3l-.2-13a1.8,1.8,0,0,0-1.4-1.6A45.8,45.8,0,0,0,548.6,426.9Z"/>
    <path class="a" d="M555.7,423.4h0a.5.5,0,0,1,.3.5l-.4,2.9a48.7,48.7,0,0,0-13.9-1.2v-2.9h0a.5.5,0,0,1,.4-.5,45.9,45.9,0,0,1,13.5,1.2Z"/>
    <path class="a" d="M521.9,424.8a45.6,45.6,0,0,0-6.4.1,1.7,1.7,0,0,0-1.6,1.3l-2.2,12.9a1.7,1.7,0,0,0,1.3,2h.2l15.3,1a1.7,1.7,0,0,0,1.8-1.6v-.2l-.6-13a1.7,1.7,0,0,0-1.4-1.6C526.2,425.3,524.1,425,521.9,424.8Z"/>
    <path class="a" d="M528.9,421.2h0c.3,0,.4.3.4.5l-.4,2.9a39.5,39.5,0,0,0-6.9-.9,40.9,40.9,0,0,0-7,0v-2.9h0c-.1-.3.1-.5.4-.5a50.4,50.4,0,0,1,13.4.9Z"/>
    <path class="a" d="M495.2,423.5a45.6,45.6,0,0,0-6.4.1,1.7,1.7,0,0,0-1.5,1.5l-2,12.9a1.7,1.7,0,0,0,1.4,1.9h.3l15.2.6a1.8,1.8,0,0,0,1.8-1.7v-.2l-1-13a1.7,1.7,0,0,0-1.4-1.6A44.8,44.8,0,0,0,495.2,423.5Z"/>
    <path class="a" d="M502.1,419.6h0a.5.5,0,0,1,.4.5l-.3,2.9a53.8,53.8,0,0,0-13.9-.5v-2.9h0c-.1-.3.1-.5.4-.5a50,50,0,0,1,6.7-.2A49,49,0,0,1,502.1,419.6Z"/>
    <path class="a" d="M771.6,349a58.4,58.4,0,0,0-6.3-1.3,1.7,1.7,0,0,0-1.8,1l-4.9,12.1a1.8,1.8,0,0,0,.9,2.3h.2l14.7,4.1a1.7,1.7,0,0,0,2.1-1.2c.1-.1.1-.1.1-.2l2.1-12.9a1.7,1.7,0,0,0-1-1.8A44.4,44.4,0,0,0,771.6,349Z"/>
    <path class="a" d="M779.2,346.9h0a.4.4,0,0,1,.3.6l-.9,2.8a43.8,43.8,0,0,0-6.6-2.4,56.3,56.3,0,0,0-6.9-1.4l.7-2.9h0a.3.3,0,0,1,.5-.3,51.3,51.3,0,0,1,6.6,1.3C775,345.3,777.2,346,779.2,346.9Z"/>
    <path class="a" d="M744.3,341.7c-2.1-.5-4.2-.9-6.4-1.2a1.8,1.8,0,0,0-1.8,1.1l-4.6,12.2a1.7,1.7,0,0,0,1,2.2h.2l14.8,3.8a1.8,1.8,0,0,0,2.1-1.3v-.2l1.8-12.9a1.7,1.7,0,0,0-1-1.8A48.2,48.2,0,0,0,744.3,341.7Z"/>
    <path class="a" d="M751.8,339.4h0a.6.6,0,0,1,.3.6l-.9,2.8a57.5,57.5,0,0,0-6.6-2.3,55.4,55.4,0,0,0-6.9-1.2l.6-2.9h0a.5.5,0,0,1,.5-.4,51.3,51.3,0,0,1,6.6,1.3A36.9,36.9,0,0,1,751.8,339.4Z"/>
    <path class="a" d="M716.7,335a45.8,45.8,0,0,0-6.3-1,1.7,1.7,0,0,0-1.8,1.1l-4.3,12.3a1.7,1.7,0,0,0,1,2.2h.2l14.9,3.4a1.7,1.7,0,0,0,2-1.3v-.2l1.5-13a1.8,1.8,0,0,0-1.1-1.8A63.2,63.2,0,0,0,716.7,335Z"/>
    <path class="a" d="M724.2,332.5h0a.5.5,0,0,1,.3.6l-.8,2.8a52,52,0,0,0-6.7-2.1,41,41,0,0,0-6.9-1l.5-2.9h0c0-.3.2-.5.5-.4a51.6,51.6,0,0,1,6.7,1A52.4,52.4,0,0,1,724.2,332.5Z"/>
    <path class="a" d="M689,329a34.2,34.2,0,0,0-6.3-.9,1.7,1.7,0,0,0-1.8,1.2l-4,12.4a1.8,1.8,0,0,0,1.1,2.2h.2l14.9,3.1a1.7,1.7,0,0,0,2.1-1.4v-.2l1.2-13a1.6,1.6,0,0,0-1.2-1.7A43.7,43.7,0,0,0,689,329Z"/>
    <path class="a" d="M696.5,326.3h0a.4.4,0,0,1,.2.6l-.7,2.8a51.2,51.2,0,0,0-6.7-1.9,40.6,40.6,0,0,0-7-.9l.5-2.9h0a.5.5,0,0,1,.5-.4,37.4,37.4,0,0,1,6.6.9A37.9,37.9,0,0,1,696.5,326.3Z"/>
    <path class="a" d="M661.2,323.6a44.8,44.8,0,0,0-6.4-.7,1.7,1.7,0,0,0-1.7,1.2l-3.7,12.5a1.8,1.8,0,0,0,1.1,2.2h.2l15,2.7a1.6,1.6,0,0,0,2-1.4v-.2l.9-13a1.5,1.5,0,0,0-1.2-1.7A43.4,43.4,0,0,0,661.2,323.6Z"/>
    <path class="a" d="M668.6,320.8h0c.2,0,.3.3.2.5l-.6,2.9a52.3,52.3,0,0,0-6.8-1.8,53.5,53.5,0,0,0-7-.7l.4-2.9h0c0-.3.3-.4.5-.4a50.8,50.8,0,0,1,6.7.7A53.3,53.3,0,0,1,668.6,320.8Z"/>
    <path class="a" d="M633.2,318.9a44.8,44.8,0,0,0-6.4-.5,1.7,1.7,0,0,0-1.6,1.2l-3.5,12.6a1.7,1.7,0,0,0,1.2,2.1h.2l15.1,2.3a1.8,1.8,0,0,0,2-1.4v-.2l.6-13.1a1.8,1.8,0,0,0-1.3-1.7A58.2,58.2,0,0,0,633.2,318.9Z"/>
    <path class="a" d="M640.5,315.9h0a.4.4,0,0,1,.3.6l-.5,2.8a42.6,42.6,0,0,0-6.9-1.5,40.5,40.5,0,0,0-7-.6l.4-2.9h0a.5.5,0,0,1,.4-.5c2.3.1,4.5.3,6.7.6A63.8,63.8,0,0,1,640.5,315.9Z"/>
    <path class="a" d="M605.2,314.9a45.8,45.8,0,0,0-6.4-.4,1.7,1.7,0,0,0-1.7,1.3L594,328.5a1.8,1.8,0,0,0,1.2,2.1h.3l15.1,2a1.7,1.7,0,0,0,1.9-1.5v-.2l.3-13.1a1.8,1.8,0,0,0-1.3-1.6A47,47,0,0,0,605.2,314.9Z"/>
    <path class="a" d="M612.4,311.7h0a.5.5,0,0,1,.3.6l-.5,2.8a70.1,70.1,0,0,0-6.9-1.4,53.7,53.7,0,0,0-7-.4l.3-2.9h0a.4.4,0,0,1,.4-.4,49.9,49.9,0,0,1,13.4,1.7Z"/>
    <path class="a" d="M577,311.6a45.2,45.2,0,0,0-6.4-.2,1.6,1.6,0,0,0-1.6,1.3l-2.8,12.7a1.7,1.7,0,0,0,1.3,2.1h.2l15.1,1.6a1.6,1.6,0,0,0,1.9-1.5c0-.1.1-.1,0-.2V314.3a1.8,1.8,0,0,0-1.3-1.6A45,45,0,0,0,577,311.6Z"/>
    <path class="a" d="M584.2,308.2h0a.5.5,0,0,1,.3.6l-.4,2.9a55.8,55.8,0,0,0-6.9-1.3,55.1,55.1,0,0,0-7-.2v-2.9h0a.5.5,0,0,1,.5-.5,37.6,37.6,0,0,1,6.7.3A49.3,49.3,0,0,1,584.2,308.2Z"/>
    <path class="a" d="M548.8,309a34.2,34.2,0,0,0-6.4-.1,1.7,1.7,0,0,0-1.6,1.3L538.3,323a1.8,1.8,0,0,0,1.3,2.1h.3l15.1,1.2a1.7,1.7,0,0,0,1.9-1.5v-.3l-.4-13a1.7,1.7,0,0,0-1.3-1.6A34,34,0,0,0,548.8,309Z"/>
    <path class="a" d="M555.9,305.4h0c.2.1.4.3.3.5l-.4,2.9a52.1,52.1,0,0,0-6.9-1,54.5,54.5,0,0,0-7-.1v-2.9h0a.5.5,0,0,1,.4-.5,50.9,50.9,0,0,1,13.5,1.1Z"/>
    <path class="a" d="M520.5,307a45.8,45.8,0,0,0-6.4.1,1.5,1.5,0,0,0-1.5,1.4l-2.2,12.8a1.6,1.6,0,0,0,1.3,2h.3l15.2.8a1.6,1.6,0,0,0,1.8-1.6v-.2l-.7-13a1.6,1.6,0,0,0-1.4-1.6A44.8,44.8,0,0,0,520.5,307Z"/>
    <path class="a" d="M527.5,303.3h0a.4.4,0,0,1,.3.5l-.2,2.9a41.9,41.9,0,0,0-7-.9,54.5,54.5,0,0,0-7,.1V303h0a.5.5,0,0,1,.5-.5,50,50,0,0,1,6.7-.1A49.1,49.1,0,0,1,527.5,303.3Z"/>
    <path class="a" d="M492.2,305.7a45.6,45.6,0,0,0-6.4.2,1.7,1.7,0,0,0-1.5,1.5l-1.9,12.9a1.9,1.9,0,0,0,1.4,2h.3l15.2.5a1.8,1.8,0,0,0,1.8-1.7v-.2l-1-13a1.7,1.7,0,0,0-1.5-1.5A44.8,44.8,0,0,0,492.2,305.7Z"/>
    <path class="a" d="M499.1,301.8h0a.7.7,0,0,1,.4.5l-.3,3a44.1,44.1,0,0,0-13.9-.5v-2.9h0a.5.5,0,0,1,.4-.5c2.3-.2,4.5-.3,6.8-.3A50.8,50.8,0,0,1,499.1,301.8Z"/>
    <path class="a" d="M137.2,409.6a42.9,42.9,0,0,1,6.2-1.4,1.8,1.8,0,0,1,1.9,1l5,12a.4.4,0,0,1,.1.3,1.6,1.6,0,0,1-1.2,2.1l-14.6,4.3h-.2a1.8,1.8,0,0,1-2-1.5l-2.3-12.8a1.9,1.9,0,0,1,1-1.9A63.2,63.2,0,0,1,137.2,409.6Z"/>
    <path class="a" d="M129.5,407.6a.4.4,0,0,0-.2.6h0l1,2.7a50.7,50.7,0,0,1,6.5-2.4,42.6,42.6,0,0,1,6.9-1.5l-.7-2.9c-.1-.2-.3-.4-.5-.3h0a45.4,45.4,0,0,0-6.6,1.4A49.3,49.3,0,0,0,129.5,407.6Z"/>
    <path class="a" d="M164.2,402a47,47,0,0,1,6.3-1.3,1.7,1.7,0,0,1,1.8,1.1l4.8,12.1a.4.4,0,0,0,.1.3,1.8,1.8,0,0,1-1.3,2.1l-14.7,3.9H161a1.8,1.8,0,0,1-1.9-1.5l-2-12.9a1.7,1.7,0,0,1,1-1.8A36.7,36.7,0,0,1,164.2,402Z"/>
    <path class="a" d="M156.7,399.8c-.3.1-.4.3-.3.5h0l.9,2.8a51.6,51.6,0,0,1,6.6-2.3,55.8,55.8,0,0,1,6.9-1.3l-.6-2.8c-.1-.3-.3-.5-.5-.4h0a49.6,49.6,0,0,0-6.7,1.3A47,47,0,0,0,156.7,399.8Z"/>
    <path class="a" d="M191.5,395.1a43.7,43.7,0,0,1,6.3-1.1,1.6,1.6,0,0,1,1.8,1.1l4.4,12.2v.2a1.8,1.8,0,0,1-1.3,2.1L188,413.2h-.2a1.6,1.6,0,0,1-1.9-1.5l-1.7-12.9a1.9,1.9,0,0,1,1.1-1.8A44.4,44.4,0,0,1,191.5,395.1Z"/>
    <path class="a" d="M184,392.6a.4.4,0,0,0-.3.6h0l.8,2.8a52,52,0,0,1,6.7-2.1q3.5-.7,6.9-1.2l-.6-2.8c0-.3-.2-.4-.5-.4h0a50.5,50.5,0,0,0-6.6,1.1A43.4,43.4,0,0,0,184,392.6Z"/>
    <path class="a" d="M218.9,388.8a45.5,45.5,0,0,1,6.3-.9A1.7,1.7,0,0,1,227,389l4.1,12.4c0,.1.1.1.1.2a1.8,1.8,0,0,1-1.4,2.1l-14.9,3.2h-.2a1.6,1.6,0,0,1-1.8-1.6l-1.4-13a1.7,1.7,0,0,1,1.2-1.7A44,44,0,0,1,218.9,388.8Z"/>
    <path class="a" d="M211.4,386.2a.6.6,0,0,0-.3.6h0l.8,2.8a51.6,51.6,0,0,1,6.7-2,54.3,54.3,0,0,1,6.9-.9l-.4-2.9a.5.5,0,0,0-.5-.4h0a49.1,49.1,0,0,0-6.7.9A48.4,48.4,0,0,0,211.4,386.2Z"/>
    <path class="a" d="M246.4,383.2a46.4,46.4,0,0,1,6.4-.7,1.5,1.5,0,0,1,1.7,1.2l3.8,12.4a.4.4,0,0,1,.1.3,1.7,1.7,0,0,1-1.4,2l-15,2.8h-.2a1.8,1.8,0,0,1-1.8-1.6l-1-13a1.6,1.6,0,0,1,1.2-1.7A43.7,43.7,0,0,1,246.4,383.2Z"/>
    <path class="a" d="M239,380.5c-.2,0-.3.3-.2.5h0l.6,2.9a40.1,40.1,0,0,1,6.8-1.8,40.6,40.6,0,0,1,7-.8l-.5-2.9c0-.3-.2-.5-.4-.4h0a37.2,37.2,0,0,0-6.7.8A40,40,0,0,0,239,380.5Z"/>
    <path class="a" d="M274.1,378.4a33.9,33.9,0,0,1,6.4-.6,1.7,1.7,0,0,1,1.7,1.2l3.5,12.6v.2a1.7,1.7,0,0,1-1.4,2l-15,2.4H269a1.6,1.6,0,0,1-1.7-1.6l-.7-13.1a1.9,1.9,0,0,1,1.2-1.7A47.5,47.5,0,0,1,274.1,378.4Z"/>
    <path class="a" d="M266.8,375.4a.5.5,0,0,0-.3.6h0l.6,2.8a51.7,51.7,0,0,1,6.8-1.6,40.5,40.5,0,0,1,7-.6l-.4-2.9a.5.5,0,0,0-.4-.5h0a49,49,0,0,0-6.7.7A35.2,35.2,0,0,0,266.8,375.4Z"/>
    <path class="a" d="M301.9,374.2a45.8,45.8,0,0,1,6.4-.4A1.7,1.7,0,0,1,310,375l3.1,12.7v.2a1.8,1.8,0,0,1-1.5,2l-15.1,2h-.2a1.6,1.6,0,0,1-1.7-1.7l-.4-13a1.7,1.7,0,0,1,1.3-1.7A47,47,0,0,1,301.9,374.2Z"/>
    <path class="a" d="M294.7,371.1c-.3,0-.4.3-.4.5h.1l.5,2.9a51.5,51.5,0,0,1,6.8-1.5,54.8,54.8,0,0,1,7-.4l-.3-2.9c0-.3-.1-.5-.4-.5h0a49.1,49.1,0,0,0-6.7.5A35.1,35.1,0,0,0,294.7,371.1Z"/>
    <path class="a" d="M329.8,370.7a45.6,45.6,0,0,1,6.4-.2,1.6,1.6,0,0,1,1.6,1.3l2.9,12.7v.2a1.6,1.6,0,0,1-1.5,1.9l-15.1,1.7h-.3a1.6,1.6,0,0,1-1.6-1.7V373.5a1.8,1.8,0,0,1,1.3-1.6C325.5,371.4,327.6,371,329.8,370.7Z"/>
    <path class="a" d="M322.6,367.4c-.2.1-.4.3-.3.5h0l.5,2.8a50.9,50.9,0,0,1,6.8-1.2,41.5,41.5,0,0,1,7-.3l-.2-2.9c.1-.3-.1-.5-.4-.5h0c-2.2,0-4.5.1-6.7.3S324.8,366.9,322.6,367.4Z"/>
    <path class="a" d="M357.7,368a47,47,0,0,1,6.5-.1,1.7,1.7,0,0,1,1.6,1.3l2.5,12.8c0,.1,0,.2.1.2a1.9,1.9,0,0,1-1.6,1.9l-15.2,1.3h-.2a1.7,1.7,0,0,1-1.7-1.8l.3-13a1.7,1.7,0,0,1,1.4-1.6A45.8,45.8,0,0,1,357.7,368Z"/>
    <path class="a" d="M350.7,364.5c-.3,0-.4.3-.4.5h0l.4,2.9a48.7,48.7,0,0,1,13.9-1.2v-2.9c0-.3-.1-.5-.4-.5h0a50,50,0,0,0-6.7.1A49.3,49.3,0,0,0,350.7,364.5Z"/>
    <path class="a" d="M385.8,365.9a45.6,45.6,0,0,1,6.4.1,1.7,1.7,0,0,1,1.6,1.3l2.2,12.9v.2a1.7,1.7,0,0,1-1.6,1.9l-15.2.9H379a1.7,1.7,0,0,1-1.6-1.9l.6-13a1.8,1.8,0,0,1,1.4-1.6A44.8,44.8,0,0,1,385.8,365.9Z"/>
    <path class="a" d="M378.8,362.2c-.2.1-.4.3-.3.5h0l.3,2.9a52.1,52.1,0,0,1,6.9-1,54.5,54.5,0,0,1,7,.1v-2.9a.5.5,0,0,0-.4-.5h-.1a37.5,37.5,0,0,0-6.7,0A51,51,0,0,0,378.8,362.2Z"/>
    <path class="a" d="M413.8,364.6a47.1,47.1,0,0,1,6.5.2,1.6,1.6,0,0,1,1.5,1.4l1.9,12.9v.2a1.6,1.6,0,0,1-1.6,1.8l-15.3.6h-.2a1.6,1.6,0,0,1-1.5-1.8l.9-13a1.9,1.9,0,0,1,1.5-1.6A44.8,44.8,0,0,1,413.8,364.6Z"/>
    <path class="a" d="M407,360.7c-.3,0-.4.3-.4.5h0l.2,2.9a55.3,55.3,0,0,1,7-.7,54.6,54.6,0,0,1,7,.2v-2.9c.1-.2-.1-.5-.4-.5h0a50,50,0,0,0-6.7-.2A49,49,0,0,0,407,360.7Z"/>
    <path class="a" d="M174.8,459.9a41.3,41.3,0,0,1,6.3-1.3,1.7,1.7,0,0,1,1.8,1.1l4.8,12.1v.2a1.7,1.7,0,0,1-1.2,2.1l-14.7,4h-.2a1.8,1.8,0,0,1-1.9-1.5l-2.1-12.9a1.7,1.7,0,0,1,1.1-1.8A33.9,33.9,0,0,1,174.8,459.9Z"/>
    <path class="a" d="M167.2,457.7a.4.4,0,0,0-.2.6h0l.8,2.7a53,53,0,0,1,6.7-2.3,51,51,0,0,1,6.8-1.3l-.6-2.9c0-.2-.3-.4-.5-.4h0a45.4,45.4,0,0,0-6.6,1.4A48.3,48.3,0,0,0,167.2,457.7Z"/>
    <path class="a" d="M200.6,453.2a45,45,0,0,1,6.4-1.1,1.6,1.6,0,0,1,1.8,1.1l4.4,12.2a.3.3,0,0,1,.1.2,1.7,1.7,0,0,1-1.2,2.1l-14.9,3.6H197a1.8,1.8,0,0,1-1.9-1.5l-1.7-13a2,2,0,0,1,1.1-1.8A47.6,47.6,0,0,1,200.6,453.2Z"/>
    <path class="a" d="M193.1,450.8a.4.4,0,0,0-.2.6h0l.8,2.8a52.5,52.5,0,0,1,6.7-2.2,49.7,49.7,0,0,1,6.9-1.1l-.6-2.9a.5.5,0,0,0-.5-.4h0a36.5,36.5,0,0,0-6.6,1.2A48.8,48.8,0,0,0,193.1,450.8Z"/>
    <path class="a" d="M226.7,447.2a45.8,45.8,0,0,1,6.3-1,1.7,1.7,0,0,1,1.8,1.1l4.2,12.4v.2a1.7,1.7,0,0,1-1.3,2.1l-14.9,3.2h-.2a1.8,1.8,0,0,1-1.8-1.6l-1.4-13a1.7,1.7,0,0,1,1.1-1.8A43.7,43.7,0,0,1,226.7,447.2Z"/>
    <path class="a" d="M219.2,444.6a.4.4,0,0,0-.2.5h0l.7,2.8a56.7,56.7,0,0,1,6.7-2,53.6,53.6,0,0,1,7-1l-.5-2.9c0-.2-.3-.4-.5-.4h0a49.2,49.2,0,0,0-6.7,1A53.1,53.1,0,0,0,219.2,444.6Z"/>
    <path class="a" d="M252.9,441.8a44.8,44.8,0,0,1,6.4-.8,1.7,1.7,0,0,1,1.7,1.2l3.8,12.4a.3.3,0,0,1,.1.2,1.7,1.7,0,0,1-1.4,2.1l-14.9,2.8h-.3a1.8,1.8,0,0,1-1.8-1.7l-1-13a1.7,1.7,0,0,1,1.2-1.7A43.4,43.4,0,0,1,252.9,441.8Z"/>
    <path class="a" d="M245.5,439a.5.5,0,0,0-.3.6h0l.7,2.8c2.2-.7,4.5-1.3,6.8-1.8a54,54,0,0,1,6.9-.8l-.4-2.9c0-.3-.2-.4-.5-.4h0a51,51,0,0,0-6.7.8A47.7,47.7,0,0,0,245.5,439Z"/>
    <path class="a" d="M279.2,437.1a44.8,44.8,0,0,1,6.4-.7,1.7,1.7,0,0,1,1.7,1.2l3.5,12.6v.2a1.7,1.7,0,0,1-1.4,2l-15.1,2.5h-.2a1.8,1.8,0,0,1-1.8-1.6l-.7-13.1a1.9,1.9,0,0,1,1.2-1.7A47.5,47.5,0,0,1,279.2,437.1Z"/>
    <path class="a" d="M271.9,434.1a.4.4,0,0,0-.3.6h0l.6,2.8a51.7,51.7,0,0,1,6.8-1.6,53.5,53.5,0,0,1,7-.7l-.4-2.9a.4.4,0,0,0-.4-.4h0c-2.3.1-4.5.3-6.8.6A47.4,47.4,0,0,0,271.9,434.1Z"/>
    <path class="a" d="M305.6,433a46,46,0,0,1,6.4-.5,1.7,1.7,0,0,1,1.7,1.3l3.2,12.6c0,.1.1.2.1.3a1.8,1.8,0,0,1-1.5,1.9l-15.1,2.1h-.2a1.7,1.7,0,0,1-1.8-1.7l-.3-13a1.7,1.7,0,0,1,1.2-1.7A47,47,0,0,1,305.6,433Z"/>
    <path class="a" d="M298.4,429.9a.3.3,0,0,0-.3.5h0l.5,2.9a49.6,49.6,0,0,1,6.9-1.5,53.4,53.4,0,0,1,6.9-.5l-.2-2.9a.5.5,0,0,0-.5-.4h0a50.4,50.4,0,0,0-6.7.5A48.3,48.3,0,0,0,298.4,429.9Z"/>
    <path class="a" d="M332.1,429.6c2.2-.2,4.3-.3,6.5-.3a1.8,1.8,0,0,1,1.6,1.3l2.9,12.7v.3a1.6,1.6,0,0,1-1.5,1.9l-15.1,1.7h-.2a1.6,1.6,0,0,1-1.7-1.7V432.4a1.7,1.7,0,0,1,1.3-1.6A46.6,46.6,0,0,1,332.1,429.6Z"/>
    <path class="a" d="M325,426.3c-.3.1-.4.3-.3.5h0l.4,2.9a55.8,55.8,0,0,1,6.9-1.3c2.3-.2,4.7-.3,7-.3l-.2-2.9a.4.4,0,0,0-.4-.4h0a49.8,49.8,0,0,0-13.4,1.5Z"/>
    <path class="a" d="M358.7,426.9a47.1,47.1,0,0,1,6.5-.2,1.9,1.9,0,0,1,1.6,1.4l2.5,12.8c.1,0,.1.1.1.2a1.8,1.8,0,0,1-1.6,1.9l-15.2,1.3h-.2a1.6,1.6,0,0,1-1.6-1.8l.2-13a1.8,1.8,0,0,1,1.4-1.6A45.8,45.8,0,0,1,358.7,426.9Z"/>
    <path class="a" d="M351.7,423.4c-.3,0-.4.3-.4.5h0l.4,2.9a48.7,48.7,0,0,1,13.9-1.2v-2.9a.5.5,0,0,0-.4-.5h0a51.5,51.5,0,0,0-6.8.1A50.5,50.5,0,0,0,351.7,423.4Z"/>
    <path class="a" d="M385.4,424.8c2.1-.1,4.3-.1,6.4,0a1.9,1.9,0,0,1,1.6,1.4l2.2,12.9c.1.1.1.1.1.2a1.7,1.7,0,0,1-1.6,1.8l-15.2,1h-.3a1.8,1.8,0,0,1-1.6-1.8l.6-13.1a1.7,1.7,0,0,1,1.4-1.5A44.8,44.8,0,0,1,385.4,424.8Z"/>
    <path class="a" d="M378.4,421.2a.3.3,0,0,0-.3.5h0l.3,2.9a44.2,44.2,0,0,1,13.9-.9v-2.9c.1-.3-.1-.5-.4-.5h0a50.4,50.4,0,0,0-13.4.9Z"/>
    <path class="a" d="M412.1,423.4c2.1,0,4.3,0,6.4.2A1.7,1.7,0,0,1,420,425l2,13v.2a1.8,1.8,0,0,1-1.6,1.8l-15.3.6h-.2a1.8,1.8,0,0,1-1.6-1.9l1-13a1.7,1.7,0,0,1,1.4-1.6C407.8,423.8,409.9,423.5,412.1,423.4Z"/>
    <path class="a" d="M405.2,419.6c-.3,0-.4.3-.4.5h0l.3,2.9a53.8,53.8,0,0,1,6.9-.7,40.7,40.7,0,0,1,7,.2v-2.9a.3.3,0,0,0-.3-.5h-.1a49.5,49.5,0,0,0-6.7-.2A50.8,50.8,0,0,0,405.2,419.6Z"/>
    <path class="a" d="M135.7,349a58.4,58.4,0,0,1,6.3-1.3,1.7,1.7,0,0,1,1.8,1l4.9,12.1c0,.1,0,.2.1.2a1.9,1.9,0,0,1-1.2,2.2l-14.7,4.1h-.2a1.9,1.9,0,0,1-2-1.5L128.6,353a1.7,1.7,0,0,1,1-1.8A44.4,44.4,0,0,1,135.7,349Z"/>
    <path class="a" d="M128.1,346.9c-.2.1-.4.4-.3.6h0l1,2.8a37.1,37.1,0,0,1,6.6-2.4,51.2,51.2,0,0,1,6.8-1.4l-.7-2.9a.3.3,0,0,0-.5-.3h0a51.3,51.3,0,0,0-6.6,1.3C132.3,345.3,130.1,346,128.1,346.9Z"/>
    <path class="a" d="M163,341.7c2.1-.5,4.2-.9,6.4-1.2a1.8,1.8,0,0,1,1.8,1.1l4.6,12.2v.2a1.7,1.7,0,0,1-1.2,2.1l-14.8,3.8h-.2a1.7,1.7,0,0,1-1.9-1.5l-1.8-12.9a1.7,1.7,0,0,1,1-1.8A48.2,48.2,0,0,1,163,341.7Z"/>
    <path class="a" d="M155.5,339.4a.4.4,0,0,0-.2.5h0l.8,2.8a57.5,57.5,0,0,1,6.6-2.3,55.4,55.4,0,0,1,6.9-1.2l-.6-2.9a.4.4,0,0,0-.4-.4h-.1a51.3,51.3,0,0,0-6.6,1.3A36.9,36.9,0,0,0,155.5,339.4Z"/>
    <path class="a" d="M190.6,335a45.8,45.8,0,0,1,6.3-1,1.7,1.7,0,0,1,1.8,1.1l4.3,12.3c0,.1.1.1.1.2a1.8,1.8,0,0,1-1.3,2.1l-14.9,3.4h-.2a1.8,1.8,0,0,1-1.9-1.5l-1.5-13a1.8,1.8,0,0,1,1.1-1.8A63.2,63.2,0,0,1,190.6,335Z"/>
    <path class="a" d="M183.1,332.5a.6.6,0,0,0-.3.6h0l.8,2.8a52,52,0,0,1,6.7-2.1,41,41,0,0,1,6.9-1l-.5-2.9c0-.3-.2-.4-.5-.4h0a50.1,50.1,0,0,0-6.6,1A48.8,48.8,0,0,0,183.1,332.5Z"/>
    <path class="a" d="M218.3,329a34,34,0,0,1,6.4-.9,1.7,1.7,0,0,1,1.7,1.2l4,12.4v.2a1.7,1.7,0,0,1-1.4,2L214.2,347H214a1.7,1.7,0,0,1-1.9-1.6l-1.2-13a1.6,1.6,0,0,1,1.2-1.7A43.7,43.7,0,0,1,218.3,329Z"/>
    <path class="a" d="M210.9,326.3a.4.4,0,0,0-.3.6h0l.7,2.8a56.1,56.1,0,0,1,6.7-1.9,41.9,41.9,0,0,1,7-.9l-.5-2.9a.4.4,0,0,0-.4-.4H224a37.4,37.4,0,0,0-6.6.9A36.9,36.9,0,0,0,210.9,326.3Z"/>
    <path class="a" d="M246.1,323.6a46.4,46.4,0,0,1,6.4-.7,1.7,1.7,0,0,1,1.7,1.2l3.7,12.5a.3.3,0,0,1,.1.2,1.7,1.7,0,0,1-1.4,2l-15,2.7h-.2a1.6,1.6,0,0,1-1.8-1.6l-.9-13a1.5,1.5,0,0,1,1.2-1.7A43.4,43.4,0,0,1,246.1,323.6Z"/>
    <path class="a" d="M238.8,320.8a.3.3,0,0,0-.3.5h0l.6,2.9a52.3,52.3,0,0,1,6.8-1.8,53.5,53.5,0,0,1,7-.7l-.4-2.9a.5.5,0,0,0-.5-.4h0a50.8,50.8,0,0,0-6.7.7A47.7,47.7,0,0,0,238.8,320.8Z"/>
    <path class="a" d="M274.1,318.9a44.8,44.8,0,0,1,6.4-.5,1.9,1.9,0,0,1,1.7,1.2l3.4,12.6v.2a1.7,1.7,0,0,1-1.4,2l-15.1,2.3h-.2a1.6,1.6,0,0,1-1.8-1.6l-.5-13.1a1.6,1.6,0,0,1,1.2-1.7A64,64,0,0,1,274.1,318.9Z"/>
    <path class="a" d="M266.8,315.9c-.3.1-.4.3-.3.5h0l.6,2.8a39.3,39.3,0,0,1,6.8-1.5,40.5,40.5,0,0,1,7-.6l-.4-2.9a.5.5,0,0,0-.4-.5h0c-2.3.1-4.5.3-6.7.6A63.8,63.8,0,0,0,266.8,315.9Z"/>
    <path class="a" d="M302.1,314.9a46.8,46.8,0,0,1,6.4-.4,1.7,1.7,0,0,1,1.7,1.3l3.1,12.7v.2a1.6,1.6,0,0,1-1.4,1.9l-15.2,2h-.2a1.8,1.8,0,0,1-1.7-1.7l-.3-13.1a1.8,1.8,0,0,1,1.3-1.6A47,47,0,0,1,302.1,314.9Z"/>
    <path class="a" d="M294.9,311.7a.5.5,0,0,0-.3.6h0l.5,2.8c2.3-.6,4.6-1,6.9-1.4a53.7,53.7,0,0,1,7-.4l-.3-2.9a.4.4,0,0,0-.4-.4h0a49.9,49.9,0,0,0-13.4,1.7Z"/>
    <path class="a" d="M330.3,311.6a45.6,45.6,0,0,1,6.4-.2,1.6,1.6,0,0,1,1.6,1.3l2.8,12.7c0,.1,0,.2.1.2a1.7,1.7,0,0,1-1.6,1.9l-15.1,1.6h-.3a1.6,1.6,0,0,1-1.6-1.7V314.3a1.8,1.8,0,0,1,1.3-1.6A45,45,0,0,1,330.3,311.6Z"/>
    <path class="a" d="M323.1,308.2a.6.6,0,0,0-.3.6h0l.5,2.9a51,51,0,0,1,6.8-1.3,56.1,56.1,0,0,1,7.1-.2l-.2-2.9a.5.5,0,0,0-.5-.5h0a37.6,37.6,0,0,0-6.7.3A52,52,0,0,0,323.1,308.2Z"/>
    <path class="a" d="M358.5,309a34.2,34.2,0,0,1,6.4-.1,1.6,1.6,0,0,1,1.6,1.3L369,323v.3a1.7,1.7,0,0,1-1.5,1.8l-15.2,1.2H352a1.9,1.9,0,0,1-1.6-1.9l.4-13a1.7,1.7,0,0,1,1.3-1.6A35.2,35.2,0,0,1,358.5,309Z"/>
    <path class="a" d="M351.4,305.4a.5.5,0,0,0-.3.5h0l.4,2.9a53.9,53.9,0,0,1,13.9-1.1v-2.9a.5.5,0,0,0-.4-.5h0a50.9,50.9,0,0,0-13.5,1.1Z"/>
    <path class="a" d="M386.8,307a45.6,45.6,0,0,1,6.4.1,1.7,1.7,0,0,1,1.6,1.4l2.1,12.8v.2a1.9,1.9,0,0,1-1.7,1.9l-15.2.8h-.2a1.6,1.6,0,0,1-1.6-1.8l.7-13a1.7,1.7,0,0,1,1.4-1.6A44.8,44.8,0,0,1,386.8,307Z"/>
    <path class="a" d="M379.8,303.3a.4.4,0,0,0-.3.5h0l.3,2.9a39.5,39.5,0,0,1,6.9-.9,54.5,54.5,0,0,1,7,.1V303a.5.5,0,0,0-.4-.5h0a45.8,45.8,0,0,0-13.5.8Z"/>
    <path class="a" d="M415.1,305.7a45.6,45.6,0,0,1,6.4.2,1.7,1.7,0,0,1,1.5,1.5l1.9,12.9v.2a1.7,1.7,0,0,1-1.6,1.8l-15.3.5h-.2a1.8,1.8,0,0,1-1.6-1.9l1.1-13a1.5,1.5,0,0,1,1.4-1.5A44.8,44.8,0,0,1,415.1,305.7Z"/>
    <path class="a" d="M408.2,301.8c-.2.1-.4.3-.3.5h0l.2,3a44.1,44.1,0,0,1,13.9-.5v-2.9a.5.5,0,0,0-.4-.5h0c-2.3-.2-4.5-.3-6.8-.3A50.8,50.8,0,0,0,408.2,301.8Z"/>
    <path class="a" d="M218.7,269a44.8,44.8,0,0,1,6.4-.8,1.7,1.7,0,0,1,1.7,1.2l3.9,12.4a.4.4,0,0,0,.1.3,1.9,1.9,0,0,1-1.4,2l-15,2.9h-.2a1.6,1.6,0,0,1-1.8-1.6l-1.1-13a1.6,1.6,0,0,1,1.2-1.7A43.7,43.7,0,0,1,218.7,269Z"/>
    <path class="a" d="M211.3,266.3c-.2.1-.4.3-.3.5h0l.7,2.9a40.1,40.1,0,0,1,6.8-1.8,40.8,40.8,0,0,1,6.9-.9l-.4-2.9a.5.5,0,0,0-.5-.4h0a51,51,0,0,0-6.7.8A48.1,48.1,0,0,0,211.3,266.3Z"/>
    <path class="a" d="M355.1,250.3a45.3,45.3,0,0,1,6.4-.1,1.7,1.7,0,0,1,1.6,1.3l2.5,12.9v.2a1.6,1.6,0,0,1-1.6,1.8l-15.2,1.3h-.2a1.7,1.7,0,0,1-1.6-1.8l.3-13.1a1.8,1.8,0,0,1,1.4-1.6A44.8,44.8,0,0,1,355.1,250.3Z"/>
    <path class="a" d="M348,246.7c-.2.1-.4.3-.3.5h0l.3,2.9a40.8,40.8,0,0,1,7-1.1,54.3,54.3,0,0,1,7-.1v-2.9c0-.2-.2-.4-.5-.5h0a50,50,0,0,0-6.7.1A51.6,51.6,0,0,0,348,246.7Z"/>
    <path class="a" d="M382.5,248.4a47,47,0,0,1,6.5,0,1.8,1.8,0,0,1,1.5,1.4l2.2,12.9v.2a1.6,1.6,0,0,1-1.6,1.8l-15.2.9h-.2a1.7,1.7,0,0,1-1.6-1.8l.7-13.1a1.6,1.6,0,0,1,1.4-1.5A45.2,45.2,0,0,1,382.5,248.4Z"/>
    <path class="a" d="M375.6,244.7c-.3,0-.4.2-.4.5h0l.3,2.9a40.6,40.6,0,0,1,7-.9,41.1,41.1,0,0,1,7,.1v-2.9c.1-.3-.1-.5-.4-.5h0a50,50,0,0,0-6.7-.1A37.3,37.3,0,0,0,375.6,244.7Z"/>
    <path class="a" d="M410.1,247.1a46.1,46.1,0,0,1,6.4.2,1.6,1.6,0,0,1,1.5,1.4l1.9,12.9v.2a1.6,1.6,0,0,1-1.6,1.8l-15.3.6h-.2a1.8,1.8,0,0,1-1.5-1.9l.9-13a1.9,1.9,0,0,1,1.5-1.6C405.8,247.4,407.9,247.2,410.1,247.1Z"/>
    <path class="a" d="M403.2,243.2c-.3,0-.4.3-.4.5h0l.2,2.9a55.3,55.3,0,0,1,7-.7,54.6,54.6,0,0,1,7,.2v-2.9c.1-.2-.1-.4-.4-.5h0a50,50,0,0,0-6.7-.2A49,49,0,0,0,403.2,243.2Z"/>
    <path class="a" d="M300.7,255.8a45.7,45.7,0,0,1,6.4-.3,1.7,1.7,0,0,1,1.7,1.2l3,12.7a.4.4,0,0,0,.1.3,1.8,1.8,0,0,1-1.5,1.9l-15.2,1.9H295a1.8,1.8,0,0,1-1.7-1.7l-.2-13.1a1.6,1.6,0,0,1,1.3-1.6A47,47,0,0,1,300.7,255.8Z"/>
    <path class="a" d="M293.5,252.6a.4.4,0,0,0-.3.5h0l.5,2.9a38.3,38.3,0,0,1,6.9-1.3,40.5,40.5,0,0,1,7-.4l-.3-2.9a.5.5,0,0,0-.4-.5h0a49.9,49.9,0,0,0-13.4,1.7Z"/>
    <path class="a" d="M328.1,252.7a45.6,45.6,0,0,1,6.4-.2,1.7,1.7,0,0,1,1.6,1.3l2.8,12.8v.2a1.8,1.8,0,0,1-1.5,1.9l-15.2,1.5H322a1.7,1.7,0,0,1-1.7-1.7V255.4a1.7,1.7,0,0,1,1.3-1.6A45,45,0,0,1,328.1,252.7Z"/>
    <path class="a" d="M321,249.3a.5.5,0,0,0-.4.5h0l.5,2.8q3.3-.7,6.9-1.2a54,54,0,0,1,7-.2l-.2-2.9c0-.2-.2-.5-.4-.5h-.1a50.1,50.1,0,0,0-6.7.3A47.8,47.8,0,0,0,321,249.3Z"/>
    <path class="a" d="M246.7,263.9a45,45,0,0,1,6.3-.7,1.9,1.9,0,0,1,1.8,1.3l3.6,12.5v.2a1.7,1.7,0,0,1-1.4,2l-15,2.6h-.2a1.7,1.7,0,0,1-1.8-1.7l-.8-13a1.7,1.7,0,0,1,1.2-1.7A58.1,58.1,0,0,1,246.7,263.9Z"/>
    <path class="a" d="M239.3,261a.5.5,0,0,0-.3.5h0l.6,2.8a53.5,53.5,0,0,1,6.9-1.7,40.2,40.2,0,0,1,6.9-.6l-.3-2.9a.5.5,0,0,0-.5-.5h0a49,49,0,0,0-6.7.7A52.8,52.8,0,0,0,239.3,261Z"/>
    <path class="a" d="M273.9,259.6a44.8,44.8,0,0,1,6.4-.6,1.7,1.7,0,0,1,1.6,1.3l3.4,12.6v.2a1.7,1.7,0,0,1-1.4,2l-15.1,2.2h-.2a1.7,1.7,0,0,1-1.8-1.7l-.5-13a1.7,1.7,0,0,1,1.3-1.7A41.3,41.3,0,0,1,273.9,259.6Z"/>
    <path class="a" d="M266.6,256.5a.4.4,0,0,0-.3.5h0l.5,2.9a42.6,42.6,0,0,1,6.9-1.5,40.5,40.5,0,0,1,7-.5l-.3-2.9a.5.5,0,0,0-.5-.5h0a50.4,50.4,0,0,0-6.7.5Z"/>
    <path class="a" d="M688.6,269a44.8,44.8,0,0,0-6.4-.8,1.8,1.8,0,0,0-1.7,1.2l-3.9,12.4a1.8,1.8,0,0,0,1.1,2.2h.2l15,2.9a1.7,1.7,0,0,0,2-1.4v-.2l1.1-13a1.6,1.6,0,0,0-1.2-1.7A43.7,43.7,0,0,0,688.6,269Z"/>
    <path class="a" d="M696,266.3h0c.2.1.4.3.3.5l-.7,2.9a40.1,40.1,0,0,0-6.8-1.8,40.8,40.8,0,0,0-6.9-.9l.4-2.9h0a.5.5,0,0,1,.5-.4,51,51,0,0,1,6.7.8A48.1,48.1,0,0,1,696,266.3Z"/>
    <path class="a" d="M552.2,250.3a45.3,45.3,0,0,0-6.4-.1,1.7,1.7,0,0,0-1.6,1.3l-2.4,12.9a1.6,1.6,0,0,0,1.3,2h.2l15.2,1.3a1.8,1.8,0,0,0,1.8-1.6.3.3,0,0,0,.1-.2l-.4-13.1a1.8,1.8,0,0,0-1.4-1.6A44.8,44.8,0,0,0,552.2,250.3Z"/>
    <path class="a" d="M559.3,246.7h0a.5.5,0,0,1,.3.6l-.3,2.9a40.8,40.8,0,0,0-7-1.1,54.3,54.3,0,0,0-7-.1v-2.9h0a.5.5,0,0,1,.5-.5,50,50,0,0,1,6.7.1A49.2,49.2,0,0,1,559.3,246.7Z"/>
    <path class="a" d="M524.8,248.4a47,47,0,0,0-6.5,0,1.8,1.8,0,0,0-1.5,1.4l-2.2,12.9a1.7,1.7,0,0,0,1.4,2h.2l15.2.9a1.6,1.6,0,0,0,1.8-1.6v-.2l-.7-13.1a1.6,1.6,0,0,0-1.4-1.5A45.2,45.2,0,0,0,524.8,248.4Z"/>
    <path class="a" d="M531.7,244.7h0c.3,0,.4.2.4.5l-.3,2.9a40.6,40.6,0,0,0-7-.9,41.1,41.1,0,0,0-7,.1v-2.9h0c0-.3.1-.5.4-.5a50,50,0,0,1,6.7-.1A37.3,37.3,0,0,1,531.7,244.7Z"/>
    <path class="a" d="M497.3,247.1a47.1,47.1,0,0,0-6.5.2,1.7,1.7,0,0,0-1.5,1.4l-1.9,12.9a1.7,1.7,0,0,0,1.4,2h.2l15.3.6a1.8,1.8,0,0,0,1.8-1.7v-.2l-1-13a1.9,1.9,0,0,0-1.4-1.6Z"/>
    <path class="a" d="M504.1,243.2h0a.5.5,0,0,1,.4.5l-.2,2.9a55.3,55.3,0,0,0-7-.7,54.6,54.6,0,0,0-7,.2v-2.9h0a.5.5,0,0,1,.4-.5,50,50,0,0,1,6.7-.2A49,49,0,0,1,504.1,243.2Z"/>
    <path class="a" d="M606.6,255.8a45.7,45.7,0,0,0-6.4-.3,1.7,1.7,0,0,0-1.7,1.2l-3,12.7a1.7,1.7,0,0,0,1.2,2.1h.3l15.1,1.9A1.8,1.8,0,0,0,614,272v-.2l.2-13.1a1.6,1.6,0,0,0-1.3-1.6A47,47,0,0,0,606.6,255.8Z"/>
    <path class="a" d="M613.8,252.6h0c.2.1.4.3.3.5l-.5,2.9a38.9,38.9,0,0,0-6.8-1.3,41.7,41.7,0,0,0-7-.4l.2-2.9h0a.5.5,0,0,1,.4-.5,49.9,49.9,0,0,1,13.4,1.7Z"/>
    <path class="a" d="M579.2,252.7a45.2,45.2,0,0,0-6.4-.2,1.7,1.7,0,0,0-1.6,1.3l-2.8,12.8a1.7,1.7,0,0,0,1.3,2h.2l15.2,1.5a1.8,1.8,0,0,0,1.9-1.5V255.4a1.7,1.7,0,0,0-1.3-1.6A45,45,0,0,0,579.2,252.7Z"/>
    <path class="a" d="M586.4,249.3h0a.6.6,0,0,1,.3.6l-.4,2.8q-3.4-.7-6.9-1.2a55.1,55.1,0,0,0-7-.2v-2.9h0a.5.5,0,0,1,.5-.5,50.1,50.1,0,0,1,6.7.3A52,52,0,0,1,586.4,249.3Z"/>
    <path class="a" d="M660.7,263.9a48.1,48.1,0,0,0-6.4-.7,1.7,1.7,0,0,0-1.7,1.3L649,277a1.8,1.8,0,0,0,1.1,2.2h.2l15,2.6a1.7,1.7,0,0,0,2-1.4v-.3l.8-13a1.7,1.7,0,0,0-1.2-1.7A62.3,62.3,0,0,0,660.7,263.9Z"/>
    <path class="a" d="M668,261h0a.5.5,0,0,1,.3.6l-.6,2.8a56.3,56.3,0,0,0-6.8-1.7,41.4,41.4,0,0,0-7-.6l.4-2.9h0a.4.4,0,0,1,.4-.4,49,49,0,0,1,6.7.7A52.8,52.8,0,0,1,668,261Z"/>
    <path class="a" d="M633.5,259.6a47.6,47.6,0,0,0-6.4-.6,1.7,1.7,0,0,0-1.7,1.3L622,272.9a1.7,1.7,0,0,0,1.2,2.1h.3l15,2.2a1.7,1.7,0,0,0,2-1.4v-.3l.5-13a1.7,1.7,0,0,0-1.3-1.7A42.6,42.6,0,0,0,633.5,259.6Z"/>
    <path class="a" d="M640.7,256.5h0c.3.1.4.3.3.5l-.5,2.9a42.6,42.6,0,0,0-6.9-1.5,40.5,40.5,0,0,0-7-.5l.4-2.9h0a.4.4,0,0,1,.4-.4,49.1,49.1,0,0,1,6.7.5A63.8,63.8,0,0,1,640.7,256.5Z"/>
    <path class="a" d="M716.4,274.8q-3.1-.6-6.3-.9a1.7,1.7,0,0,0-1.8,1.1l-4.2,12.4a1.8,1.8,0,0,0,1.1,2.2h.2l14.9,3.3a1.7,1.7,0,0,0,2-1.3.3.3,0,0,1,.1-.2l1.3-13a1.7,1.7,0,0,0-1.1-1.8A63.2,63.2,0,0,0,716.4,274.8Z"/>
    <path class="a" d="M723.9,272.3h0a.5.5,0,0,1,.3.5l-.8,2.9a39.6,39.6,0,0,0-6.7-2,41,41,0,0,0-6.9-1l.5-2.9h0a.4.4,0,0,1,.4-.4,49.2,49.2,0,0,1,6.7,1A48.4,48.4,0,0,1,723.9,272.3Z"/>
    <path class="a" d="M412.2,481.6a44.8,44.8,0,0,0-6.4.7,1.5,1.5,0,0,0-1.4,1.5l-.9,13a1.7,1.7,0,0,0,1.5,1.9h.3l15.2-.6a1.8,1.8,0,0,0,1.6-1.8v-.2l-2-12.9a1.7,1.7,0,0,0-1.5-1.5A45.6,45.6,0,0,0,412.2,481.6Z"/>
    <path class="a" d="M418.7,477.2h0c.3,0,.5.2.4.5v2.9a54,54,0,0,0-7-.2,40.6,40.6,0,0,0-6.9.8l-.3-2.9h0a.5.5,0,0,1,.4-.6,49,49,0,0,1,6.7-.7A50,50,0,0,1,418.7,477.2Z"/>
    <path class="a" d="M384.3,483.1c-2.1.2-4.3.5-6.4.9a1.6,1.6,0,0,0-1.3,1.6l-.6,13a1.7,1.7,0,0,0,1.6,1.8h.3l15.2-1a1.9,1.9,0,0,0,1.6-1.9.3.3,0,0,0-.1-.2l-2.3-12.8a1.6,1.6,0,0,0-1.6-1.4C388.6,483,386.4,483,384.3,483.1Z"/>
    <path class="a" d="M390.7,478.5h0c.3.1.5.3.4.5v2.9h-7a54.6,54.6,0,0,0-6.9,1L377,480h0a.4.4,0,0,1,.3-.5,37.3,37.3,0,0,1,6.7-.9A50,50,0,0,1,390.7,478.5Z"/>
    <path class="a" d="M356.5,485.4a45,45,0,0,0-6.4,1.1,1.7,1.7,0,0,0-1.3,1.6l-.2,13.1a1.8,1.8,0,0,0,1.7,1.7h.2l15.2-1.5a1.6,1.6,0,0,0,1.5-1.8v-.3l-2.7-12.7a1.8,1.8,0,0,0-1.6-1.4C360.8,485.2,358.6,485.2,356.5,485.4Z"/>
    <path class="a" d="M362.8,480.7h0a.5.5,0,0,1,.4.5l.2,2.9a40.7,40.7,0,0,0-7,.2,49.7,49.7,0,0,0-6.9,1.1l-.4-2.9h0c-.1-.2,0-.4.3-.5a50.5,50.5,0,0,1,6.6-1.1A51.5,51.5,0,0,1,362.8,480.7Z"/>
    <path class="a" d="M328.7,488.5a47,47,0,0,0-6.3,1.3,1.7,1.7,0,0,0-1.3,1.6l.2,13.1a1.8,1.8,0,0,0,1.8,1.7h.2l15.1-1.9a1.8,1.8,0,0,0,1.5-1.9v-.3l-3.1-12.7a1.7,1.7,0,0,0-1.6-1.2A47.2,47.2,0,0,0,328.7,488.5Z"/>
    <path class="a" d="M334.9,483.6h0c.3,0,.4.2.4.5l.3,2.9a40.5,40.5,0,0,0-7,.4,41.9,41.9,0,0,0-6.9,1.3l-.5-2.9h0a.5.5,0,0,1,.3-.5,51.3,51.3,0,0,1,13.4-1.7Z"/>
    <path class="a" d="M301.1,492.4a47.5,47.5,0,0,0-6.3,1.4,1.7,1.7,0,0,0-1.2,1.7l.5,13a1.8,1.8,0,0,0,1.8,1.7h.2l15.1-2.3a1.8,1.8,0,0,0,1.4-2v-.2l-3.4-12.6a1.5,1.5,0,0,0-1.7-1.2A44.8,44.8,0,0,0,301.1,492.4Z"/>
    <path class="a" d="M307.1,487.3h0a.5.5,0,0,1,.5.5l.3,2.9a53.6,53.6,0,0,0-7,.5,51.7,51.7,0,0,0-6.8,1.6l-.6-2.9h0a.4.4,0,0,1,.3-.5,39.2,39.2,0,0,1,6.6-1.5A50.5,50.5,0,0,1,307.1,487.3Z"/>
    <path class="a" d="M273.6,497a64.5,64.5,0,0,0-6.3,1.6,1.9,1.9,0,0,0-1.2,1.7l1,13.1a1.7,1.7,0,0,0,1.8,1.6h.2l15-2.8a1.7,1.7,0,0,0,1.4-2c0-.1-.1-.1-.1-.2l-3.7-12.5a2,2,0,0,0-1.8-1.2C277.8,496.4,275.7,496.7,273.6,497Z"/>
    <path class="a" d="M279.4,491.8h0a.5.5,0,0,1,.5.4l.4,2.9a55.6,55.6,0,0,0-7,.8,50.6,50.6,0,0,0-6.7,1.7l-.7-2.8h0a.5.5,0,0,1,.3-.6,47.4,47.4,0,0,1,6.5-1.6A38.3,38.3,0,0,1,279.4,491.8Z"/>
    <path class="a" d="M246.2,502.5a43.7,43.7,0,0,0-6.2,1.7,1.8,1.8,0,0,0-1.2,1.8l1.3,12.9a1.7,1.7,0,0,0,1.9,1.6h.2l14.9-3.2a1.7,1.7,0,0,0,1.3-2v-.2l-4.1-12.4a2,2,0,0,0-1.8-1.2A45.8,45.8,0,0,0,246.2,502.5Z"/>
    <path class="a" d="M251.9,497h0a.5.5,0,0,1,.5.5l.5,2.8a53.6,53.6,0,0,0-7,1,51.2,51.2,0,0,0-6.7,1.9l-.7-2.8h0a.5.5,0,0,1,.2-.6c2.1-.7,4.3-1.3,6.5-1.8A51.6,51.6,0,0,1,251.9,497Z"/>
    <path class="a" d="M218.9,508.6c-2,.5-4.1,1.2-6.1,1.9a1.8,1.8,0,0,0-1.1,1.8l1.7,13a1.7,1.7,0,0,0,1.9,1.5h.2l14.8-3.6a1.8,1.8,0,0,0,1.3-2.1c-.1-.1-.1-.1-.1-.2l-4.4-12.3a2,2,0,0,0-1.8-1.1C223.1,507.8,221,508.1,218.9,508.6Z"/>
    <path class="a" d="M224.5,503h0a.5.5,0,0,1,.5.5l.6,2.8a38.2,38.2,0,0,0-6.9,1.2,40,40,0,0,0-6.7,2.1l-.8-2.8h0a.5.5,0,0,1,.2-.6,48.8,48.8,0,0,1,6.5-2Q221.2,503.5,224.5,503Z"/>
    <path class="a" d="M495.1,481.6a44.8,44.8,0,0,1,6.4.7,1.5,1.5,0,0,1,1.4,1.5l.9,13v.3a1.7,1.7,0,0,1-1.8,1.6l-15.2-.6h-.2a1.6,1.6,0,0,1-1.4-1.9l2-12.9a1.7,1.7,0,0,1,1.5-1.5A45.6,45.6,0,0,1,495.1,481.6Z"/>
    <path class="a" d="M488.6,477.2c-.3,0-.5.2-.4.5h0v2.9a54,54,0,0,1,7-.2,40.6,40.6,0,0,1,6.9.8l.3-2.9a.5.5,0,0,0-.4-.6h0a49,49,0,0,0-6.7-.7A50,50,0,0,0,488.6,477.2Z"/>
    <path class="a" d="M523,483.1c2.1.2,4.3.5,6.4.9a1.6,1.6,0,0,1,1.3,1.6l.6,13v.2a1.7,1.7,0,0,1-1.9,1.6l-15.2-1H514a1.7,1.7,0,0,1-1.3-2l2.3-12.8a1.7,1.7,0,0,1,1.6-1.4C518.7,483,520.9,483,523,483.1Z"/>
    <path class="a" d="M516.6,478.5c-.3.1-.5.3-.4.5h0v2.9h7a54.6,54.6,0,0,1,6.9,1l.4-2.9c0-.2-.1-.5-.4-.5h0a37.3,37.3,0,0,0-6.7-.9A50,50,0,0,0,516.6,478.5Z"/>
    <path class="a" d="M550.8,485.4a45,45,0,0,1,6.4,1.1,1.7,1.7,0,0,1,1.3,1.6l.2,13.1v.2a1.8,1.8,0,0,1-1.9,1.5l-15.2-1.5h-.2a1.8,1.8,0,0,1-1.3-2.1l2.7-12.7a1.8,1.8,0,0,1,1.6-1.4C546.5,485.2,548.7,485.2,550.8,485.4Z"/>
    <path class="a" d="M544.5,480.7a.5.5,0,0,0-.4.5h0l-.2,2.9a40.7,40.7,0,0,1,7,.2,53.7,53.7,0,0,1,7,1.1l.4-2.9a.5.5,0,0,0-.4-.5h0a50.5,50.5,0,0,0-6.6-1.1A51.5,51.5,0,0,0,544.5,480.7Z"/>
    <path class="a" d="M578.6,488.5a47,47,0,0,1,6.3,1.3,1.7,1.7,0,0,1,1.3,1.6l-.2,13.1v.2a1.9,1.9,0,0,1-2,1.5l-15.1-1.9h-.2a1.6,1.6,0,0,1-1.2-2.1l3-12.7a1.7,1.7,0,0,1,1.7-1.2A46.4,46.4,0,0,1,578.6,488.5Z"/>
    <path class="a" d="M572.4,483.6a.5.5,0,0,0-.4.5h0l-.3,2.9a40.5,40.5,0,0,1,7,.4,41.9,41.9,0,0,1,6.9,1.3l.5-2.9a.5.5,0,0,0-.3-.5h0a51.3,51.3,0,0,0-13.4-1.7Z"/>
    <path class="a" d="M606.2,492.4a47.5,47.5,0,0,1,6.3,1.4,1.7,1.7,0,0,1,1.2,1.7l-.5,13v.3a1.9,1.9,0,0,1-2,1.4l-15.1-2.3h-.2a1.7,1.7,0,0,1-1.2-2.1l3.4-12.6a1.6,1.6,0,0,1,1.7-1.2A44.8,44.8,0,0,1,606.2,492.4Z"/>
    <path class="a" d="M600.2,487.3c-.2,0-.5.2-.5.4h0l-.3,2.9a53.6,53.6,0,0,1,7,.5,51.7,51.7,0,0,1,6.8,1.6l.6-2.9a.4.4,0,0,0-.3-.5h0a39.2,39.2,0,0,0-6.6-1.5A49.1,49.1,0,0,0,600.2,487.3Z"/>
    <path class="a" d="M633.8,497c2.1.4,4.1,1,6.2,1.6a1.9,1.9,0,0,1,1.2,1.7l-.9,13.1c-.1,0-.1.1-.1.2a1.7,1.7,0,0,1-2,1.4l-15-2.8H623a1.8,1.8,0,0,1-1.1-2.2l3.7-12.5a2,2,0,0,1,1.8-1.2C629.5,496.4,631.6,496.7,633.8,497Z"/>
    <path class="a" d="M627.9,491.8a.5.5,0,0,0-.5.4h0l-.4,2.9a55.6,55.6,0,0,1,7,.8,56.3,56.3,0,0,1,6.8,1.7l.6-2.8a.4.4,0,0,0-.3-.6h0a47.4,47.4,0,0,0-6.5-1.6A38.3,38.3,0,0,0,627.9,491.8Z"/>
    <path class="a" d="M758.2,467.3a42.9,42.9,0,0,0-6.2-1.4,1.6,1.6,0,0,0-1.9,1l-5.1,12a1.6,1.6,0,0,0,.9,2.2h.2l14.6,4.4a1.7,1.7,0,0,0,2.2-1.2v-.2l2.4-12.8a1.9,1.9,0,0,0-1-1.9A63.2,63.2,0,0,0,758.2,467.3Z"/>
    <path class="a" d="M765.9,465.3h0a.4.4,0,0,1,.2.6l-1,2.7a50.7,50.7,0,0,0-6.5-2.4,53.2,53.2,0,0,0-6.9-1.6l.8-2.8h0c0-.3.2-.4.5-.4,2.2.4,4.4.9,6.5,1.5A49.3,49.3,0,0,1,765.9,465.3Z"/>
    <path class="a" d="M149.1,467.3a42.9,42.9,0,0,1,6.2-1.4,1.6,1.6,0,0,1,1.9,1l5.1,12a.3.3,0,0,0,.1.2,1.8,1.8,0,0,1-1.2,2.1l-14.6,4.4h-.2a1.6,1.6,0,0,1-2-1.4l-2.3-12.8a1.7,1.7,0,0,1,.9-1.9A44.4,44.4,0,0,1,149.1,467.3Z"/>
    <path class="a" d="M141.4,465.3a.4.4,0,0,0-.2.6h0l1,2.7a51.2,51.2,0,0,1,6.5-2.5q3.5-.9,6.9-1.5l-.7-2.8a.5.5,0,0,0-.6-.4h0c-2.2.4-4.4.9-6.5,1.5A38.1,38.1,0,0,0,141.4,465.3Z"/>
    <line class="a" x1="348.2" y1="581.6" x2="432.6" y2="581.6"/>
    <line class="a" x1="348.2" y1="581.6" x2="348.2" y2="613.6"/>
    <line class="a" x1="348.2" y1="613.6" x2="432.6" y2="613.6"/>
    <line class="a" x1="432.6" y1="581.6" x2="432.6" y2="613.6"/>
  </g>
  <g>
    <circle class="a" cx="179" cy="266.7" r="1.6"/>
    <path class="a" d="M177.1,274.1l-.3-1.3A6,6,0,0,0,175,281a5.8,5.8,0,0,0,8.1,1.9,6.1,6.1,0,0,0,2.8-5.1l-1.1.2a5.2,5.2,0,0,1-1.9,3.6,4.8,4.8,0,0,1-6.7-.9,4.7,4.7,0,0,1,.9-6.6"/>
    <path class="a" d="M177.3,271.3l1.8,6.3,7-.8,2.2,4.3a1.4,1.4,0,0,0,1.3.9h.5c.2,0,.3-.2.3-.4h0l-3.5-6.9-5.1.6-.6-2,2.3-.2a1.1,1.1,0,0,0,1-1.3v-.4l-3.7.4a6.4,6.4,0,0,0-.6-1.8,1.7,1.7,0,0,0-2.1-.8,1.7,1.7,0,0,0-.8,2.2h0"/>
    <circle class="a" cx="671.9" cy="501.4" r="1.6"/>
    <path class="a" d="M667.9,507.8v-1.3a5.9,5.9,0,1,0,2.9,11.5,5.8,5.8,0,0,0,4.2-4l-1.1-.2a4.6,4.6,0,0,1-2.9,2.9,4.7,4.7,0,1,1-3.2-8.9"/>
    <path class="a" d="M668.9,505.2l-.2,6.6,7,1.3.8,4.8a1.2,1.2,0,0,0,.8,1.2h.5a.5.5,0,0,0,.5-.3h0l-1.2-7.6-5.1-1v-2a9.5,9.5,0,0,0,2.3.5,1.2,1.2,0,0,0,1.4-1v-.3l-3.6-.7a6.7,6.7,0,0,0,0-2,1.6,1.6,0,0,0-3.2.5h0"/>
  </g>
  <g>
    <g>
      <line class="b" x1="497.3" y1="248.6" x2="497.3" y2="207.4"/>
      <line class="b" x1="581.2" y1="253.9" x2="581.2" y2="207.4"/>
      <line class="b" x1="493.1" y1="211.6" x2="585.4" y2="211.6"/>
      <line class="c" x1="500.4" y1="208.5" x2="494.1" y2="214.8"/>
      <line class="c" x1="578.1" y1="214.8" x2="584.3" y2="208.5"/>
      <text class="d" transform="translate(524.3 208.1)">2.0m</text>
    </g>
    <g>
      <line class="b" x1="491" y1="338.8" x2="458.3" y2="338.8"/>
      <line class="b" x1="491" y1="254.9" x2="458.3" y2="254.9"/>
      <line class="b" x1="462.5" y1="343" x2="462.5" y2="250.7"/>
      <line class="c" x1="459.4" y1="335.7" x2="465.7" y2="342"/>
      <line class="e" x1="465.7" y1="258" x2="459.4" y2="251.8"/>
      <text class="d" transform="translate(459 311.8) rotate(-90)">2.0m</text>
    </g>
  </g>
</svg>
