<svg xmlns="http://www.w3.org/2000/svg" viewBox="0 0 900 900">
  <defs>
    <style>
      .a, .b, .c, .d {
        fill: none;
        stroke-linecap: round;
        stroke-linejoin: round;
      }

      .a {
        stroke: #848484;
      }

      .a, .b {
        stroke-width: 0.71px;
      }

      .b, .c, .d {
        stroke: #333;
      }

      .c {
        stroke-width: 0.96px;
      }

      .d {
        stroke-width: 0.96px;
      }

      .e {
        font-size: 10.51px;
        fill: #333;
        font-family: Calibri;
      }
    </style>
  </defs>
  <g>
    <line class="a" x1="152.2" y1="622.1" x2="188.7" y2="614.6"/>
    <line class="a" x1="150.5" y1="613.9" x2="187" y2="606.4"/>
    <line class="a" x1="148.9" y1="605.8" x2="185.3" y2="598.3"/>
    <line class="a" x1="147.2" y1="597.6" x2="183.6" y2="590.1"/>
    <line class="a" x1="145.5" y1="589.4" x2="181.9" y2="581.9"/>
    <line class="a" x1="143.8" y1="581.3" x2="180.3" y2="573.8"/>
    <line class="a" x1="142.2" y1="573.1" x2="178.6" y2="565.6"/>
    <line class="a" x1="140.5" y1="565" x2="176.9" y2="557.5"/>
    <line class="a" x1="138.8" y1="556.8" x2="175.2" y2="549.3"/>
    <line class="a" x1="137.1" y1="548.6" x2="173.6" y2="541.1"/>
    <line class="a" x1="135.4" y1="540.5" x2="171.9" y2="533"/>
    <line class="a" x1="133.8" y1="532.3" x2="170.2" y2="524.8"/>
    <line class="a" x1="132.1" y1="524.2" x2="168.5" y2="516.7"/>
    <path class="a" d="M653.7,273.7c-12.4-2-24.8-3.9-37.3-5.5"/>
    <path class="a" d="M322,265.9c-12.5,1.4-24.9,3.1-37.3,4.9"/>
    <path class="a" d="M785.7,245.9a1248.2,1248.2,0,0,0-268.8-42.1"/>
    <path class="a" d="M781.8,248.2a1244.4,1244.4,0,0,0-265.1-41.1"/>
    <line class="a" x1="781.8" y1="243.3" x2="781.5" y2="244.7"/>
    <line class="a" x1="737.8" y1="464" x2="739.1" y2="464.3"/>
    <line class="a" x1="767" y1="470.4" x2="768.4" y2="470.7"/>
    <line class="a" x1="730.1" y1="498.9" x2="731.4" y2="499.2"/>
    <line class="a" x1="614.9" y1="278.5" x2="616.4" y2="268.2"/>
    <line class="a" x1="652.1" y1="284" x2="653.7" y2="273.7"/>
    <line class="a" x1="323.3" y1="276.2" x2="322" y2="265.9"/>
    <line class="a" x1="286" y1="281.2" x2="284.7" y2="270.8"/>
    <line class="a" x1="682.3" y1="716.9" x2="785.7" y2="245.9"/>
    <line class="a" x1="679.1" y1="716.2" x2="781.8" y2="248.2"/>
    <line class="a" x1="785.7" y1="245.9" x2="786.9" y2="246.3"/>
    <line class="a" x1="516.7" y1="207.1" x2="518.2" y2="175.2"/>
    <line class="a" x1="710.2" y1="723" x2="679.1" y2="716.2"/>
  </g>
  <g>
    <line class="a" x1="158.3" y1="638.4" x2="132.9" y2="514.9"/>
    <line class="a" x1="192.1" y1="631.5" x2="189.5" y2="632"/>
    <line class="a" x1="191.9" y1="630.3" x2="190.4" y2="630.6"/>
    <line class="a" x1="190.4" y1="630.6" x2="165.5" y2="509.4"/>
    <line class="a" x1="189.5" y1="632" x2="164.1" y2="508.5"/>
    <line class="a" x1="155.7" y1="639" x2="158.3" y2="638.4"/>
    <line class="a" x1="132.9" y1="514.9" x2="130.3" y2="515.4"/>
    <line class="a" x1="165.5" y1="509.4" x2="167" y2="509.1"/>
    <line class="a" x1="164.1" y1="508.5" x2="166.7" y2="507.9"/>
    <line class="a" x1="823.4" y1="213.3" x2="709.6" y2="731.7"/>
    <line class="a" x1="821.8" y1="214.3" x2="708.3" y2="731.4"/>
    <line class="a" x1="787.3" y1="244.8" x2="683.6" y2="716.8"/>
    <line class="a" x1="788.8" y1="243.8" x2="685" y2="717.1"/>
    <line class="a" x1="708.3" y1="731.4" x2="709.6" y2="731.7"/>
    <line class="a" x1="685" y1="717.1" x2="683.6" y2="716.8"/>
    <path class="a" d="M787.3,244.8a1247.6,1247.6,0,0,0-268.8-42.4"/>
    <path class="a" d="M788.8,243.8a1248.3,1248.3,0,0,0-270.3-42.7"/>
    <path class="a" d="M823.4,213.3a1635.5,1635.5,0,0,0-314-39.8"/>
    <path class="a" d="M821.8,214.3a1643.5,1643.5,0,0,0-312.5-39.4"/>
    <line class="a" x1="518.5" y1="202.4" x2="518.5" y2="201.1"/>
    <line class="a" x1="509.3" y1="174.9" x2="509.4" y2="173.5"/>
    <path class="a" d="M783.9,246.9a1248.7,1248.7,0,0,0-265.6-41.6"/>
    <path class="a" d="M783.5,247.2a1238.6,1238.6,0,0,0-265.2-41.5"/>
    <line class="a" x1="680.8" y1="715" x2="783.5" y2="247.2"/>
    <line class="a" x1="681.2" y1="715.1" x2="783.9" y2="246.9"/>
    <line class="a" x1="681.2" y1="715.1" x2="680.8" y2="715"/>
    <line class="a" x1="518.3" y1="205.3" x2="518.3" y2="205.7"/>
    <line class="a" x1="156.9" y1="637.5" x2="132" y2="516.3"/>
    <line class="a" x1="132" y1="516.3" x2="130.5" y2="516.6"/>
    <line class="a" x1="155.5" y1="637.8" x2="156.9" y2="637.5"/>
  </g>
  <g>
    <rect class="a" x="690.4" y="163.8" width="10.4" height="37.2" transform="translate(416.3 845.1) rotate(-81.8)"/>
    <rect class="a" x="226.9" y="174.6" width="37.2" height="10.41" transform="translate(-21.4 33.6) rotate(-7.5)"/>
    <rect class="a" x="540.7" y="149.2" width="10.4" height="37.2" transform="translate(350.2 704.3) rotate(-87.1)"/>
    <rect class="a" x="376.8" y="161.7" width="37.2" height="10.42" transform="translate(-6.3 15.9) rotate(-2.3)"/>
    <polyline class="a" points="342.4 165.4 343.9 172.7 376.9 169.9"/>
    <line class="a" x1="376.6" y1="162.5" x2="342.4" y2="165.4"/>
    <polyline class="a" points="135.3 200.2 153.5 196.9 152.3 189.5 133.8 192.9"/>
    <line class="a" x1="414.1" y1="168.4" x2="527.2" y2="169.1"/>
    <line class="a" x1="413.8" y1="161" x2="527.6" y2="161.7"/>
    <line class="a" x1="841.2" y1="204.4" x2="714.8" y2="179.9"/>
    <line class="a" x1="829.5" y1="209.4" x2="713.7" y2="187.2"/>
    <line class="a" x1="564.7" y1="163.6" x2="678" y2="174.6"/>
    <line class="a" x1="564.3" y1="171" x2="676.9" y2="182"/>
  </g>
  <g>
    <path class="a" d="M768.4,309.3a1178.4,1178.4,0,0,0-633.9,4.8"/>
    <path class="a" d="M759.4,350a1137.5,1137.5,0,0,0-616.5,5"/>
    <path class="a" d="M750.5,390.8A1095.3,1095.3,0,0,0,151.3,396"/>
    <path class="a" d="M741.5,431.5a1054.7,1054.7,0,0,0-581.8,5.4"/>
    <path class="a" d="M732.6,472.3a1011.9,1011.9,0,0,0-564.5,5.6"/>
    <path class="a" d="M723.7,513.1a970,970,0,0,0-547.1,5.8"/>
    <path class="a" d="M714.7,553.8A929.1,929.1,0,0,0,185,559.9"/>
    <path class="a" d="M705.8,594.6a886.4,886.4,0,0,0-512.4,6.3"/>
    <path class="a" d="M696.8,635.4a844.9,844.9,0,0,0-494.9,6.5"/>
  </g>
  <g>
    <path class="a" d="M770.9,297.7a1162.5,1162.5,0,0,0-117.1-25.5"/>
    <path class="a" d="M284.5,269.4a1200.8,1200.8,0,0,0-149,32"/>
    <path class="a" d="M762,338.4a1142.8,1142.8,0,0,0-114.4-25"/>
    <path class="a" d="M610.4,307.9a1151,1151,0,0,0-283.1-2.2"/>
    <path class="a" d="M290,310.7a1138.1,1138.1,0,0,0-146.1,31.6"/>
    <path class="a" d="M753.1,379.2a1123.7,1123.7,0,0,0-111.7-24.6"/>
    <path class="a" d="M604.2,349.1A1110.2,1110.2,0,0,0,332.8,347"/>
    <path class="a" d="M295.5,352a1094.4,1094.4,0,0,0-143.2,31.3"/>
    <path class="a" d="M744.1,419.9a1094.2,1094.2,0,0,0-108.8-24.1"/>
    <path class="a" d="M598,390.3a1064.4,1064.4,0,0,0-259.7-2"/>
    <path class="a" d="M300.9,393.3a1064.3,1064.3,0,0,0-140.1,30.9"/>
    <path class="a" d="M735.2,460.6A1047,1047,0,0,0,629.1,437"/>
    <path class="a" d="M591.8,431.5a1023.8,1023.8,0,0,0-248-1.9"/>
    <path class="a" d="M306.4,434.6a1006.6,1006.6,0,0,0-137.2,30.6"/>
    <path class="a" d="M717.3,542.2a962.4,962.4,0,0,0-100.6-22.8"/>
    <path class="a" d="M579.5,513.9a943.6,943.6,0,0,0-224.7-1.7"/>
    <path class="a" d="M317.4,517.2A942.4,942.4,0,0,0,186,547.1"/>
    <path class="a" d="M708.3,582.9a929.1,929.1,0,0,0-97.8-22.3"/>
    <path class="a" d="M573.3,555.1a898.9,898.9,0,0,0-213.1-1.6"/>
    <path class="a" d="M322.9,558.5a894.9,894.9,0,0,0-128.4,29.6"/>
    <path class="a" d="M687.8,676.2a818.8,818.8,0,0,0-91.4-21.4"/>
    <path class="a" d="M690.4,664.5a807.2,807.2,0,0,0-92.3-21.4"/>
    <path class="a" d="M335.5,652.9a796.2,796.2,0,0,0-121.8,29"/>
    <path class="a" d="M333.9,641.1a821.1,821.1,0,0,0-122.6,29"/>
    <path class="a" d="M699.4,623.7a839,839,0,0,0-95.1-21.8"/>
    <path class="a" d="M567.1,596.3a858.7,858.7,0,0,0-201.4-1.5"/>
    <path class="a" d="M328.4,599.8a856.1,856.1,0,0,0-125.5,29.3"/>
    <path class="a" d="M726.2,501.4a987.8,987.8,0,0,0-103.3-23.2"/>
    <path class="a" d="M585.6,472.7a983.2,983.2,0,0,0-236.3-1.8"/>
    <path class="a" d="M311.9,475.9a979.9,979.9,0,0,0-134.3,30.2"/>
    <line class="a" x1="616.6" y1="266.7" x2="614.8" y2="278.5"/>
    <line class="a" x1="610.4" y1="307.9" x2="608.6" y2="319.7"/>
    <line class="a" x1="604.2" y1="349.1" x2="602.4" y2="360.9"/>
    <line class="a" x1="598" y1="390.3" x2="596.3" y2="402.1"/>
    <line class="a" x1="591.8" y1="431.5" x2="590.1" y2="443.3"/>
    <line class="a" x1="585.6" y1="472.7" x2="583.9" y2="484.5"/>
    <line class="a" x1="579.5" y1="513.9" x2="577.7" y2="525.7"/>
    <line class="a" x1="573.3" y1="555.1" x2="571.5" y2="566.9"/>
    <line class="a" x1="567.1" y1="596.3" x2="565.3" y2="608.1"/>
    <line class="a" x1="596.4" y1="654.8" x2="598.1" y2="643.1"/>
    <line class="a" x1="602.5" y1="613.6" x2="604.3" y2="601.9"/>
    <line class="a" x1="608.7" y1="572.4" x2="610.5" y2="560.6"/>
    <line class="a" x1="614.9" y1="531.2" x2="616.7" y2="519.4"/>
    <line class="a" x1="621.1" y1="490" x2="622.9" y2="478.2"/>
    <line class="a" x1="627.3" y1="448.8" x2="629.1" y2="437"/>
    <line class="a" x1="633.5" y1="407.6" x2="635.3" y2="395.8"/>
    <line class="a" x1="645.9" y1="325.2" x2="647.6" y2="313.4"/>
    <line class="a" x1="652.1" y1="284" x2="653.8" y2="272.2"/>
    <line class="a" x1="284.5" y1="269.4" x2="286" y2="281.2"/>
    <line class="a" x1="290" y1="310.7" x2="291.5" y2="322.5"/>
    <line class="a" x1="295.5" y1="352" x2="297" y2="363.8"/>
    <line class="a" x1="300.9" y1="393.3" x2="302.5" y2="405.1"/>
    <line class="a" x1="306.4" y1="434.6" x2="308" y2="446.4"/>
    <line class="a" x1="311.9" y1="475.9" x2="313.5" y2="487.7"/>
    <line class="a" x1="317.4" y1="517.2" x2="319" y2="529"/>
    <line class="a" x1="322.9" y1="558.5" x2="324.5" y2="570.3"/>
    <line class="a" x1="328.4" y1="599.8" x2="330" y2="611.6"/>
    <line class="a" x1="333.9" y1="641.1" x2="335.5" y2="652.9"/>
    <line class="a" x1="327.3" y1="305.7" x2="328.9" y2="317.5"/>
    <line class="a" x1="332.8" y1="347" x2="334.4" y2="358.8"/>
    <line class="a" x1="338.3" y1="388.3" x2="339.9" y2="400.1"/>
    <line class="a" x1="343.8" y1="429.6" x2="345.4" y2="441.4"/>
    <line class="a" x1="349.3" y1="470.9" x2="350.8" y2="482.7"/>
    <line class="a" x1="354.8" y1="512.2" x2="356.3" y2="524"/>
    <line class="a" x1="360.2" y1="553.5" x2="361.8" y2="565.3"/>
    <line class="a" x1="365.7" y1="594.8" x2="367.3" y2="606.6"/>
    <line class="a" x1="770.9" y1="297.7" x2="768.4" y2="309.3"/>
    <line class="a" x1="762" y1="338.4" x2="759.4" y2="350"/>
    <line class="a" x1="753.1" y1="379.2" x2="750.5" y2="390.8"/>
    <line class="a" x1="744.1" y1="419.9" x2="741.5" y2="431.5"/>
    <line class="a" x1="735.2" y1="460.6" x2="732.6" y2="472.3"/>
    <line class="a" x1="726.2" y1="501.4" x2="723.7" y2="513.1"/>
    <line class="a" x1="717.3" y1="542.2" x2="714.7" y2="553.8"/>
    <line class="a" x1="708.3" y1="582.9" x2="705.8" y2="594.6"/>
    <line class="a" x1="699.4" y1="623.7" x2="696.8" y2="635.4"/>
    <line class="a" x1="690.4" y1="664.5" x2="687.8" y2="676.2"/>
    <line class="a" x1="641.4" y1="354.6" x2="639.7" y2="366.4"/>
    <path class="a" d="M616.6,266.7a1190.7,1190.7,0,0,0-231.9-8"/>
    <path class="a" d="M384.4,254.3q-31.6,1.9-63.2,5.7"/>
    <path class="a" d="M521.4,645.5a800.5,800.5,0,0,0-107.3-1"/>
    <path class="a" d="M558.2,655.2c-12.4-1.5-24.8-2.8-37.3-3.7"/>
    <path class="a" d="M560.9,637.5a818.8,818.8,0,0,0-189.7-1.4"/>
    <line class="a" x1="371.2" y1="636.1" x2="373.7" y2="654.5"/>
    <line class="a" x1="385.4" y1="270.6" x2="384.4" y2="254.3"/>
    <line class="a" x1="323.4" y1="276.2" x2="321.2" y2="260"/>
    <line class="a" x1="560.9" y1="637.5" x2="558.2" y2="655.2"/>
    <path class="a" d="M414.5,650.8c-13.7.9-27.3,2.1-40.8,3.7"/>
    <line class="a" x1="413.3" y1="632.6" x2="414.5" y2="650.8"/>
    <line class="a" x1="522.3" y1="633.7" x2="520.9" y2="651.5"/>
  </g>
  <g>
    <rect class="a" x="464.5" y="682" width="4.9" height="190.45" transform="translate(-313.4 1238.9) rotate(-89.6)"/>
    <line class="a" x1="466.9" y1="774.7" x2="466.9" y2="779.6"/>
  </g>
  <g>
    <path class="a" d="M506,621.6a1.3,1.3,0,0,0-1.3,1.2l-2,10.9a1.4,1.4,0,0,0,1.2,1.7h.1l13,.8a1.3,1.3,0,0,0,1.5-1.3c.1-.1.1-.2,0-.2l-.4-11.1a1.7,1.7,0,0,0-1.2-1.4,44.4,44.4,0,0,0-10.9-.7"/>
    <path class="a" d="M517.4,618.5h0c.2,0,.4.2.3.4l-.3,2.5a42.7,42.7,0,0,0-11.8-.8v-2.5h0a.4.4,0,0,1,.4-.4A43.5,43.5,0,0,1,517.4,618.5Z"/>
    <path class="a" d="M489.5,621a1.3,1.3,0,0,0-1.3,1.2l-1.8,10.9a1.5,1.5,0,0,0,1.2,1.7h.2l13,.6a1.5,1.5,0,0,0,1.5-1.4v-.2l-.7-11.1a1.5,1.5,0,0,0-1.2-1.3,36.3,36.3,0,0,0-10.9-.5"/>
    <path class="a" d="M500.8,617.6h0c.2.1.4.3.3.5l-.2,2.4A43.1,43.1,0,0,0,489,620v-2.5h0a.4.4,0,0,1,.4-.4A39.5,39.5,0,0,1,500.8,617.6Z"/>
    <path class="a" d="M418.8,621.7a40,40,0,0,1,10.9-.6,1.7,1.7,0,0,1,1.4,1.2l1.8,11v.2a1.5,1.5,0,0,1-1.4,1.5l-12.9.7h-.2a1.5,1.5,0,0,1-1.4-1.6l.6-11a1.7,1.7,0,0,1,1.2-1.4"/>
    <path class="a" d="M418.4,617.9c-.3,0-.4.2-.3.4h0l.2,2.5a39.5,39.5,0,0,1,11.9-.6v-2.5c.1-.2-.1-.4-.3-.4h0A43.5,43.5,0,0,0,418.4,617.9Z"/>
    <path class="a" d="M435.3,621.1a40.5,40.5,0,0,1,11-.4,1.8,1.8,0,0,1,1.3,1.2l1.6,11v.2a1.5,1.5,0,0,1-1.4,1.5l-13,.5h-.2a1.4,1.4,0,0,1-1.3-1.6l.8-11a1.5,1.5,0,0,1,1.2-1.3"/>
    <path class="a" d="M434.9,617.2a.5.5,0,0,0-.3.5h0l.2,2.4a43.1,43.1,0,0,1,11.9-.4v-2.5c.1-.2-.1-.3-.3-.4h0A44.4,44.4,0,0,0,434.9,617.2Z"/>
    <path class="a" d="M452.9,620.7a44.2,44.2,0,0,1,10.9-.1,1.5,1.5,0,0,1,1.3,1.2l1.3,11.1a.1.1,0,0,0,.1.1,1.5,1.5,0,0,1-1.5,1.5l-13,.2h-.2a1.4,1.4,0,0,1-1.2-1.6l1-11.1a1.6,1.6,0,0,1,1.3-1.3"/>
    <path class="a" d="M452.6,616.9a.4.4,0,0,0-.4.4h0l.2,2.5a43.1,43.1,0,0,1,11.9-.2v-2.4c.1-.3-.1-.4-.3-.5h0A43.5,43.5,0,0,0,452.6,616.9Z"/>
    <path class="a" d="M473.1,620.5a39.8,39.8,0,0,1,10.9.1,1.5,1.5,0,0,1,1.2,1.3l1.1,11v.2a1.3,1.3,0,0,1-1.4,1.4H471.7a1.4,1.4,0,0,1-1.2-1.7l1.3-11a1.3,1.3,0,0,1,1.3-1.2"/>
    <path class="a" d="M472.8,616.6c-.2,0-.3.2-.3.4h0v2.5a43.2,43.2,0,0,1,11.9.1v-2.4c.1-.3-.1-.4-.3-.5h0A44.2,44.2,0,0,0,472.8,616.6Z"/>
    <polyline class="a" points="294.5 722.7 295 722.8 293 734 292.5 733.9"/>
    <rect class="a" x="272.5" y="714.1" width="18.2" height="24.19" transform="translate(-482.9 874.8) rotate(-79.8)"/>
    <line class="a" x1="269.7" y1="724" x2="293.5" y2="728.3"/>
    <polyline class="a" points="270.7 718.5 270.3 718.4 268.3 729.5 268.7 729.6"/>
    <path class="a" d="M735,405.3a42.7,42.7,0,0,1,10.6,2.9,1.3,1.3,0,0,1,.8,1.5l-1.7,11v.2a1.4,1.4,0,0,1-1.8,1l-12.5-3.4h-.2a1.4,1.4,0,0,1-.8-1.9l4.1-10.3a1.4,1.4,0,0,1,1.5-.9"/>
    <path class="a" d="M735.8,401.5c-.2,0-.4.1-.4.3h0l-.6,2.5a41.7,41.7,0,0,1,11.5,3.1l.7-2.4a.4.4,0,0,0-.2-.5h0A41.7,41.7,0,0,0,735.8,401.5Z"/>
    <path class="a" d="M682,649.8a46.8,46.8,0,0,1,10.5,3,1.5,1.5,0,0,1,.9,1.6l-1.9,10.9v.2a1.5,1.5,0,0,1-1.8,1L677.2,663H677a1.4,1.4,0,0,1-.7-1.9l4.2-10.3a1.4,1.4,0,0,1,1.5-.9"/>
    <path class="a" d="M682.8,646a.4.4,0,0,0-.4.4h0l-.6,2.4a41.2,41.2,0,0,1,11.4,3.2l.8-2.3a.4.4,0,0,0-.2-.5h0A42.1,42.1,0,0,0,682.8,646Z"/>
    <path class="a" d="M697.7,568a43.1,43.1,0,0,1,10.5,2.9,1.5,1.5,0,0,1,.8,1.6l-1.8,10.9v.2a1.4,1.4,0,0,1-1.8,1l-12.5-3.5h-.2a1.5,1.5,0,0,1-.7-2l4.1-10.3a1.5,1.5,0,0,1,1.6-.8"/>
    <path class="a" d="M698.5,564.2c-.2-.1-.4.1-.5.3h0l-.5,2.4a41.2,41.2,0,0,1,11.4,3.2l.8-2.3a.4.4,0,0,0-.2-.5h0A38.4,38.4,0,0,0,698.5,564.2Z"/>
    <path class="a" d="M689.1,608.8a39.3,39.3,0,0,1,10.5,3,1.3,1.3,0,0,1,.8,1.5l-1.8,11a.3.3,0,0,1-.1.2,1.5,1.5,0,0,1-1.8,1l-12.4-3.6c-.1,0-.2,0-.2-.1a1.4,1.4,0,0,1-.8-1.9l4.2-10.3a1.5,1.5,0,0,1,1.6-.8"/>
    <path class="a" d="M689.9,605c-.2-.1-.4.1-.4.3h0l-.6,2.4a45.2,45.2,0,0,1,11.4,3.3l.8-2.4a.4.4,0,0,0-.2-.5h0A41.9,41.9,0,0,0,689.9,605Z"/>
    <path class="a" d="M662.6,644.7a38.4,38.4,0,0,1,10.6,2.7,1.5,1.5,0,0,1,.9,1.6l-1.6,10.9v.2a1.5,1.5,0,0,1-1.8,1.1l-12.6-3.3H658a1.4,1.4,0,0,1-.8-1.9l3.9-10.4a1.5,1.5,0,0,1,1.5-.9"/>
    <path class="a" d="M663.3,640.9c-.2-.1-.4.1-.4.3h0l-.5,2.4a45.3,45.3,0,0,1,11.5,3l.7-2.4c.1-.1,0-.4-.2-.5h0A41.1,41.1,0,0,0,663.3,640.9Z"/>
    <path class="a" d="M642.7,640.1a43.1,43.1,0,0,1,10.6,2.5,1.6,1.6,0,0,1,1,1.5l-1.4,11.1h0a1.4,1.4,0,0,1-1.7,1.1l-12.7-2.9h-.2a1.5,1.5,0,0,1-.8-1.9l3.7-10.4a1.6,1.6,0,0,1,1.5-1"/>
    <path class="a" d="M643.3,636.3c-.2,0-.4.1-.4.3h0l-.4,2.4a41.9,41.9,0,0,1,11.5,2.7l.7-2.4a.4.4,0,0,0-.2-.5h0A43.4,43.4,0,0,0,643.3,636.3Z"/>
    <path class="a" d="M622.7,636.1a40,40,0,0,1,10.7,2.2,1.3,1.3,0,0,1,.9,1.5l-1,11c0,.1,0,.2-.1.2a1.5,1.5,0,0,1-1.7,1.2l-12.7-2.7h-.2a1.5,1.5,0,0,1-.9-1.8l3.5-10.6a1.3,1.3,0,0,1,1.5-.9"/>
    <path class="a" d="M623.2,632.2a.4.4,0,0,0-.4.4h0l-.4,2.4a41.4,41.4,0,0,1,11.6,2.5l.7-2.4c0-.2-.1-.5-.3-.5h0A43.1,43.1,0,0,0,623.2,632.2Z"/>
    <path class="a" d="M602.6,632.5a39.5,39.5,0,0,1,10.7,1.9,1.5,1.5,0,0,1,1,1.5l-.8,11.1v.2a1.4,1.4,0,0,1-1.7,1.1L599,646h-.2a1.4,1.4,0,0,1-.9-1.8l3.2-10.6a1.3,1.3,0,0,1,1.5-1"/>
    <path class="a" d="M603,628.6a.4.4,0,0,0-.4.4h0l-.3,2.4a41.8,41.8,0,0,1,11.6,2.2l.6-2.4a.4.4,0,0,0-.2-.5h0A44.2,44.2,0,0,0,603,628.6Z"/>
    <path class="a" d="M213.3,658.3a1.3,1.3,0,0,0-.8,1.5l2.1,10.9a1.4,1.4,0,0,0,1.7,1.2h.2l12.4-3.8a1.5,1.5,0,0,0,.9-1.9V666l-4.5-10.1a1.4,1.4,0,0,0-1.5-.9,40,40,0,0,0-10.5,3.3"/>
    <path class="a" d="M222.9,651.3h0c.2-.1.4.1.4.3l.6,2.4a41.1,41.1,0,0,0-11.3,3.5l-.8-2.3h0a.3.3,0,0,1,.1-.5A42.3,42.3,0,0,1,222.9,651.3Z"/>
    <path class="a" d="M233,652.5a1.6,1.6,0,0,0-.9,1.6l1.8,11a1.5,1.5,0,0,0,1.7,1.2h.2l12.4-3.6a1.5,1.5,0,0,0,1.1-1.8v-.2L245,650.4a1.4,1.4,0,0,0-1.5-.8,40.8,40.8,0,0,0-10.5,2.9"/>
    <path class="a" d="M242.7,645.8h0c.2,0,.4.1.4.3l.6,2.4a42.1,42.1,0,0,0-11.5,3.3l-.7-2.4h-.1a.8.8,0,0,1,.2-.5A43.7,43.7,0,0,1,242.7,645.8Z"/>
    <path class="a" d="M252.7,647.3a1.5,1.5,0,0,0-.9,1.5l1.6,11a1.5,1.5,0,0,0,1.6,1.3h.2l12.6-3.3a1.5,1.5,0,0,0,1-1.8.1.1,0,0,0-.1-.1l-3.9-10.4a1.4,1.4,0,0,0-1.5-.9,38.4,38.4,0,0,0-10.6,2.7"/>
    <path class="a" d="M262.6,640.8h0c.2-.1.4.1.4.3l.5,2.4a46.4,46.4,0,0,0-11.5,3l-.7-2.4h0a.4.4,0,0,1,.2-.5A42.1,42.1,0,0,1,262.6,640.8Z"/>
    <path class="a" d="M272.6,642.5a1.8,1.8,0,0,0-1,1.5l1.4,11.1a1.4,1.4,0,0,0,1.6,1.3h.1l12.7-3a1.4,1.4,0,0,0,1.1-1.7.3.3,0,0,0-.1-.2L284.7,641a1.3,1.3,0,0,0-1.5-.9,38.8,38.8,0,0,0-10.6,2.4"/>
    <path class="a" d="M282.6,636.2h0a.4.4,0,0,1,.4.4l.5,2.4a45.6,45.6,0,0,0-11.6,2.7l-.7-2.4h0a.4.4,0,0,1,.2-.5A48,48,0,0,1,282.6,636.2Z"/>
    <path class="a" d="M292.6,638.2a1.5,1.5,0,0,0-1,1.5l1,11.1a1.5,1.5,0,0,0,1.6,1.3h.2l12.7-2.6a1.5,1.5,0,0,0,1.1-1.8v-.2L304.7,637a1.5,1.5,0,0,0-1.5-1,42.6,42.6,0,0,0-10.6,2.2"/>
    <path class="a" d="M302.7,632.2h0c.2,0,.4.1.4.3l.4,2.5a38.1,38.1,0,0,0-11.6,2.4l-.6-2.4h0a.4.4,0,0,1,.2-.5A39.2,39.2,0,0,1,302.7,632.2Z"/>
    <path class="a" d="M312.6,634.4a1.5,1.5,0,0,0-1,1.5l.8,11a1.5,1.5,0,0,0,1.6,1.4h.1l12.8-2.3a1.6,1.6,0,0,0,1.2-1.7v-.2l-3.2-10.7a1.5,1.5,0,0,0-1.4-1,43.8,43.8,0,0,0-10.8,2"/>
    <path class="a" d="M322.9,628.6h0c.2,0,.4.1.4.3l.4,2.5a42.5,42.5,0,0,0-11.7,2.2l-.6-2.5h0a.5.5,0,0,1,.3-.5A42.5,42.5,0,0,1,322.9,628.6Z"/>
    <path class="a" d="M761,283.2a38.4,38.4,0,0,1,10.6,2.7,1.5,1.5,0,0,1,.9,1.5l-1.6,11c0,.1,0,.2-.1.2a1.4,1.4,0,0,1-1.7,1.1l-12.6-3.3h-.2a1.5,1.5,0,0,1-.8-1.9l4-10.3a1.3,1.3,0,0,1,1.5-.9"/>
    <path class="a" d="M761.7,279.3a.4.4,0,0,0-.4.4h0l-.5,2.4a45.3,45.3,0,0,1,11.5,3l.7-2.4a.4.4,0,0,0-.2-.5h0A46.5,46.5,0,0,0,761.7,279.3Z"/>
    <path class="a" d="M741.1,278.3a39,39,0,0,1,10.6,2.5,1.5,1.5,0,0,1,.9,1.6l-1.4,11v.2a1.4,1.4,0,0,1-1.8,1l-12.6-3h-.2a1.5,1.5,0,0,1-.8-1.9l3.8-10.4a1.3,1.3,0,0,1,1.5-.9"/>
    <path class="a" d="M741.7,274.4a.4.4,0,0,0-.4.4h0l-.5,2.4a45.7,45.7,0,0,1,11.6,2.8l.7-2.3c.1-.2,0-.5-.2-.5h0A43.8,43.8,0,0,0,741.7,274.4Z"/>
    <path class="a" d="M721.1,273.7a42.9,42.9,0,0,1,10.6,2.4,1.8,1.8,0,0,1,1,1.5l-1.3,11.1v.2a1.7,1.7,0,0,1-1.8,1.1L717,287.1h-.2a1.6,1.6,0,0,1-.9-1.9l3.6-10.5a1.8,1.8,0,0,1,1.6-1"/>
    <path class="a" d="M721.6,269.9c-.2,0-.4.1-.4.3h0l-.4,2.4a41.6,41.6,0,0,1,11.6,2.6l.6-2.4a.4.4,0,0,0-.2-.5h0A42.3,42.3,0,0,0,721.6,269.9Z"/>
    <path class="a" d="M701,269.5a42.6,42.6,0,0,1,10.6,2.2,1.5,1.5,0,0,1,1,1.5l-1,11.1v.2a1.3,1.3,0,0,1-1.7,1.1L697.1,283h-.2a1.5,1.5,0,0,1-.9-1.8l3.5-10.6a1.5,1.5,0,0,1,1.5-1"/>
    <path class="a" d="M701.5,265.7c-.2,0-.4.1-.4.3h0l-.4,2.4a42.1,42.1,0,0,1,11.6,2.4l.6-2.4a.4.4,0,0,0-.2-.5h0A42.9,42.9,0,0,0,701.5,265.7Z"/>
    <path class="a" d="M680.8,265.7a43.9,43.9,0,0,1,10.7,2,1.5,1.5,0,0,1,1,1.5l-.8,11.1h-.1a1.4,1.4,0,0,1-1.7,1.2l-12.7-2.4H677a1.4,1.4,0,0,1-.9-1.9l3.2-10.6a1.4,1.4,0,0,1,1.5-1"/>
    <path class="a" d="M681.2,261.8a.4.4,0,0,0-.4.4h0l-.3,2.5a39.1,39.1,0,0,1,11.7,2.2l.5-2.5a.3.3,0,0,0-.2-.4h0A39.1,39.1,0,0,0,681.2,261.8Z"/>
    <path class="a" d="M660.5,262.2a39.4,39.4,0,0,1,10.8,1.8,1.4,1.4,0,0,1,1,1.5l-.6,11.1h-.1a1.3,1.3,0,0,1-1.6,1.2l-12.8-2.1H657a1.5,1.5,0,0,1-1-1.8l3.1-10.7a1.5,1.5,0,0,1,1.4-1"/>
    <path class="a" d="M660.9,258.3c-.2,0-.3.2-.4.4h0l-.3,2.5a38.3,38.3,0,0,1,11.7,2l.6-2.5c0-.2-.1-.4-.3-.4h0A42.5,42.5,0,0,0,660.9,258.3Z"/>
    <path class="a" d="M752.6,323.9a42.9,42.9,0,0,1,10.5,2.8,1.5,1.5,0,0,1,.9,1.6l-1.7,11h0a1.5,1.5,0,0,1-1.8,1.1L748,337.2h-.2a1.4,1.4,0,0,1-.8-1.9l4-10.4a1.7,1.7,0,0,1,1.6-.9"/>
    <path class="a" d="M753.3,320.1a.4.4,0,0,0-.4.4h0l-.6,2.4a45.3,45.3,0,0,1,11.5,3l.8-2.3a.8.8,0,0,0-.2-.5h0A43.5,43.5,0,0,0,753.3,320.1Z"/>
    <path class="a" d="M734.1,319.4a42.2,42.2,0,0,1,10.6,2.6,1.5,1.5,0,0,1,.9,1.5l-1.4,11v.2a1.5,1.5,0,0,1-1.8,1.1l-12.6-3.1h-.2a1.4,1.4,0,0,1-.8-1.9l3.8-10.4a1.4,1.4,0,0,1,1.5-.9"/>
    <path class="a" d="M734.8,315.6c-.2,0-.4.1-.4.3h0l-.5,2.5a42,42,0,0,1,11.5,2.8l.7-2.4a.4.4,0,0,0-.2-.5h0A42.9,42.9,0,0,0,734.8,315.6Z"/>
    <path class="a" d="M713.8,314.8a39.5,39.5,0,0,1,10.7,2.4,1.3,1.3,0,0,1,.9,1.5l-1.3,11v.2a1.4,1.4,0,0,1-1.7,1.1l-12.7-2.9h-.2a1.5,1.5,0,0,1-.8-1.9l3.6-10.5a1.4,1.4,0,0,1,1.5-.9"/>
    <path class="a" d="M714.4,310.9a.4.4,0,0,0-.4.4h0l-.4,2.4a41.9,41.9,0,0,1,11.5,2.7l.7-2.4a.4.4,0,0,0-.2-.5h0A43.4,43.4,0,0,0,714.4,310.9Z"/>
    <path class="a" d="M693.4,310.5a38.4,38.4,0,0,1,10.7,2.2,1.5,1.5,0,0,1,1,1.5L704,325.3h0a1.5,1.5,0,0,1-1.7,1.2l-12.7-2.7h-.2a1.4,1.4,0,0,1-.9-1.9l3.4-10.5a1.5,1.5,0,0,1,1.5-1"/>
    <path class="a" d="M694,306.6c-.3,0-.4.2-.5.4h0l-.4,2.5a39.3,39.3,0,0,1,11.7,2.4l.6-2.4a.4.4,0,0,0-.2-.5h0A44,44,0,0,0,694,306.6Z"/>
    <path class="a" d="M673,306.6a43.9,43.9,0,0,1,10.7,2,1.5,1.5,0,0,1,1,1.5l-.9,11.1h0a1.4,1.4,0,0,1-1.7,1.2l-12.7-2.4c-.1,0-.2,0-.2-.1a1.4,1.4,0,0,1-1-1.8l3.3-10.6a1.4,1.4,0,0,1,1.5-1"/>
    <path class="a" d="M673.4,302.7a.4.4,0,0,0-.4.4h0l-.3,2.5a38.4,38.4,0,0,1,11.6,2.2l.6-2.4c.1-.2,0-.5-.2-.5h0A40.4,40.4,0,0,0,673.4,302.7Z"/>
    <path class="a" d="M652.4,303a43.7,43.7,0,0,1,10.8,1.9,1.5,1.5,0,0,1,1,1.4l-.6,11.1c0,.1-.1.1-.1.2a1.5,1.5,0,0,1-1.7,1.2l-12.7-2.2h-.2a1.6,1.6,0,0,1-1-1.9l3.1-10.6a1.5,1.5,0,0,1,1.4-1.1"/>
    <path class="a" d="M652.8,299.2c-.2,0-.4.1-.4.3h0l-.3,2.5a42.2,42.2,0,0,1,11.7,2l.6-2.4a.5.5,0,0,0-.3-.5h0A43.1,43.1,0,0,0,652.8,299.2Z"/>
    <path class="a" d="M744.2,364.6a42.9,42.9,0,0,1,10.5,2.8,1.5,1.5,0,0,1,.9,1.6l-1.7,10.9c0,.1,0,.2-.1.2a1.5,1.5,0,0,1-1.8,1.1l-12.5-3.4h-.2a1.4,1.4,0,0,1-.7-1.9l4-10.3a1.5,1.5,0,0,1,1.6-.9"/>
    <path class="a" d="M744.9,360.8c-.2,0-.4.1-.4.3h0l-.6,2.4a44.4,44.4,0,0,1,11.5,3.1l.8-2.3c0-.2,0-.4-.2-.5h0A43.5,43.5,0,0,0,744.9,360.8Z"/>
    <path class="a" d="M727.3,360.6a43.3,43.3,0,0,1,10.6,2.6,1.5,1.5,0,0,1,.9,1.6l-1.5,11v.2a1.5,1.5,0,0,1-1.8,1l-12.6-3.1h-.2a1.5,1.5,0,0,1-.8-1.9l3.9-10.4a1.3,1.3,0,0,1,1.5-.9"/>
    <path class="a" d="M728,356.8c-.2,0-.4.1-.4.3h0l-.5,2.5a42,42,0,0,1,11.5,2.8l.7-2.3c.1-.2,0-.5-.2-.5h0A39.4,39.4,0,0,0,728,356.8Z"/>
    <path class="a" d="M707.2,355.9a43.1,43.1,0,0,1,10.6,2.5,1.3,1.3,0,0,1,.9,1.5l-1.3,11v.2a1.4,1.4,0,0,1-1.7,1.1L703,369.3h-.2a1.4,1.4,0,0,1-.8-1.8l3.6-10.5a1.8,1.8,0,0,1,1.6-1"/>
    <path class="a" d="M707.8,352.1a.5.5,0,0,0-.5.4h0l-.4,2.4a38.5,38.5,0,0,1,11.6,2.7l.6-2.4a.4.4,0,0,0-.2-.5h0A42.7,42.7,0,0,0,707.8,352.1Z"/>
    <path class="a" d="M686.9,351.7a38.4,38.4,0,0,1,10.7,2.2,1.6,1.6,0,0,1,1,1.5l-1.1,11.1h0a1.6,1.6,0,0,1-1.8,1.2L683,365.1a.1.1,0,0,1-.1-.1,1.3,1.3,0,0,1-.9-1.8l3.4-10.6a1.5,1.5,0,0,1,1.5-.9"/>
    <path class="a" d="M687.5,347.8a.4.4,0,0,0-.4.4h0l-.4,2.4a43,43,0,0,1,11.6,2.5l.6-2.4a.4.4,0,0,0-.2-.5h0A43.1,43.1,0,0,0,687.5,347.8Z"/>
    <path class="a" d="M666.6,347.8a43.8,43.8,0,0,1,10.8,2,1.3,1.3,0,0,1,.9,1.5l-.8,11.1a.1.1,0,0,1-.1.1,1.4,1.4,0,0,1-1.7,1.2L663,361.3h-.2a1.3,1.3,0,0,1-.9-1.8l3.3-10.6a1.3,1.3,0,0,1,1.4-1"/>
    <path class="a" d="M667.1,343.9a.4.4,0,0,0-.4.4h0l-.4,2.4A42.6,42.6,0,0,1,678,349l.6-2.4c.1-.2,0-.5-.2-.5h-.1A39.1,39.1,0,0,0,667.1,343.9Z"/>
    <path class="a" d="M646.3,344.2a43.7,43.7,0,0,1,10.7,1.9,1.3,1.3,0,0,1,1,1.4l-.6,11.1v.2a1.4,1.4,0,0,1-1.6,1.2l-12.8-2.2h-.2a1.6,1.6,0,0,1-1-1.9l3.1-10.6a1.5,1.5,0,0,1,1.5-1.1"/>
    <path class="a" d="M646.7,340.4c-.2,0-.4.1-.4.3h0l-.3,2.5a42.9,42.9,0,0,1,11.7,2l.5-2.4a.4.4,0,0,0-.2-.5h-.1A42.4,42.4,0,0,0,646.7,340.4Z"/>
    <path class="a" d="M718.4,401.3A39.4,39.4,0,0,1,729,404a1.5,1.5,0,0,1,.9,1.5l-1.5,11v.2a1.4,1.4,0,0,1-1.8,1L714,414.6h-.2a1.4,1.4,0,0,1-.8-1.9l3.9-10.4a1.3,1.3,0,0,1,1.5-.9"/>
    <path class="a" d="M719.1,397.5a.5.5,0,0,0-.5.3h0l-.5,2.4a42.2,42.2,0,0,1,11.6,3l.7-2.4a.4.4,0,0,0-.2-.5h0A39.4,39.4,0,0,0,719.1,397.5Z"/>
    <path class="a" d="M698.8,396.8a38,38,0,0,1,10.6,2.4,1.6,1.6,0,0,1,1,1.5l-1.3,11.1v.2a1.4,1.4,0,0,1-1.7,1l-12.6-2.9h-.2a1.5,1.5,0,0,1-.9-1.9l3.7-10.5a1.4,1.4,0,0,1,1.5-.9"/>
    <path class="a" d="M699.4,392.9a.4.4,0,0,0-.4.4h0l-.4,2.4a45.8,45.8,0,0,1,11.5,2.7l.7-2.4a.4.4,0,0,0-.2-.5h0A48,48,0,0,0,699.4,392.9Z"/>
    <path class="a" d="M679.2,392.6a38.7,38.7,0,0,1,10.6,2.3,1.3,1.3,0,0,1,1,1.5l-1.1,11v.2a1.5,1.5,0,0,1-1.8,1.1L675.3,406h-.2a1.4,1.4,0,0,1-.9-1.9l3.5-10.5a1.3,1.3,0,0,1,1.5-1"/>
    <path class="a" d="M679.7,388.7a.4.4,0,0,0-.4.4h0l-.4,2.5a41.3,41.3,0,0,1,11.6,2.4l.6-2.4a.4.4,0,0,0-.2-.5h0A43.1,43.1,0,0,0,679.7,388.7Z"/>
    <path class="a" d="M659.4,388.8a39.8,39.8,0,0,1,10.8,2.1,1.3,1.3,0,0,1,.9,1.4l-.8,11.1c-.1.1-.1.1-.1.2a1.3,1.3,0,0,1-1.7,1.1l-12.7-2.4h-.2a1.3,1.3,0,0,1-.9-1.8l3.3-10.6a1.4,1.4,0,0,1,1.4-1"/>
    <path class="a" d="M659.9,384.9a.4.4,0,0,0-.4.4h0l-.4,2.5a39.1,39.1,0,0,1,11.7,2.2l.6-2.4a.4.4,0,0,0-.2-.5h0A44.3,44.3,0,0,0,659.9,384.9Z"/>
    <path class="a" d="M639.6,385.3a43.7,43.7,0,0,1,10.8,1.9,1.5,1.5,0,0,1,1,1.5l-.7,11.1h0a1.4,1.4,0,0,1-1.7,1.2l-12.8-2.2h-.1a1.6,1.6,0,0,1-1-1.9l3.1-10.6a1.5,1.5,0,0,1,1.4-1.1"/>
    <path class="a" d="M640,381.5c-.2,0-.3.1-.3.4h0l-.4,2.4a38.4,38.4,0,0,1,11.7,2.1l.6-2.5c0-.2-.1-.4-.3-.4h0A38.9,38.9,0,0,0,640,381.5Z"/>
    <path class="a" d="M721.7,444.9a42.7,42.7,0,0,1,10.6,2.9,1.6,1.6,0,0,1,.9,1.5l-1.7,11c-.1.1-.1.1-.1.2a1.4,1.4,0,0,1-1.8,1l-12.5-3.4h-.2a1.5,1.5,0,0,1-.8-1.9l4.1-10.4a1.5,1.5,0,0,1,1.5-.9"/>
    <path class="a" d="M722.5,441.1a.4.4,0,0,0-.4.4h0l-.6,2.4A41.7,41.7,0,0,1,733,447l.7-2.4a.4.4,0,0,0-.1-.5h-.1A41.7,41.7,0,0,0,722.5,441.1Z"/>
    <path class="a" d="M702.7,440.3a38.3,38.3,0,0,1,10.6,2.6,1.4,1.4,0,0,1,.9,1.5l-1.4,11c-.1.1-.1.1-.1.2a1.5,1.5,0,0,1-1.8,1.1l-12.5-3.2h-.2a1.4,1.4,0,0,1-.8-1.9l3.8-10.4a1.5,1.5,0,0,1,1.5-.9"/>
    <path class="a" d="M703.4,436.4a.4.4,0,0,0-.4.4h0l-.5,2.4a41.3,41.3,0,0,1,11.5,2.9l.7-2.4a.4.4,0,0,0-.2-.5h0A46.4,46.4,0,0,0,703.4,436.4Z"/>
    <path class="a" d="M683.6,435.9a42.8,42.8,0,0,1,10.7,2.5,1.3,1.3,0,0,1,.9,1.5l-1.2,11c0,.1-.1.1-.1.2a1.3,1.3,0,0,1-1.7,1.1l-12.7-2.9h-.1a1.5,1.5,0,0,1-.9-1.9l3.6-10.5a1.8,1.8,0,0,1,1.5-1"/>
    <path class="a" d="M684.2,432.1c-.2,0-.3.1-.4.4h0l-.4,2.4a38.5,38.5,0,0,1,11.6,2.7l.6-2.4c.1-.2,0-.5-.2-.5h0A42.5,42.5,0,0,0,684.2,432.1Z"/>
    <path class="a" d="M664.5,432a44.3,44.3,0,0,1,10.7,2.2,1.5,1.5,0,0,1,.9,1.5l-1,11.1v.2a1.5,1.5,0,0,1-1.8,1.1l-12.7-2.6c0-.1-.1-.1-.2-.1a1.6,1.6,0,0,1-.9-1.9L663,433a1.5,1.5,0,0,1,1.5-1"/>
    <path class="a" d="M665,428.2c-.2,0-.4.1-.4.3h0l-.4,2.5a38.1,38.1,0,0,1,11.6,2.4l.6-2.4a.4.4,0,0,0-.2-.5h0A39.2,39.2,0,0,0,665,428.2Z"/>
    <path class="a" d="M645.2,428.5a36.2,36.2,0,0,1,10.8,2,1.5,1.5,0,0,1,1,1.4l-.9,11.1v.2a1.5,1.5,0,0,1-1.7,1.2L641.6,442a.1.1,0,0,1-.1-.1,1.4,1.4,0,0,1-1-1.8l3.3-10.6a1.3,1.3,0,0,1,1.4-1"/>
    <path class="a" d="M645.7,424.6a.4.4,0,0,0-.4.4h0l-.4,2.4a42.5,42.5,0,0,1,11.7,2.2l.6-2.4a.5.5,0,0,0-.3-.5h0A42.6,42.6,0,0,0,645.7,424.6Z"/>
    <path class="a" d="M712.7,485.8a37.9,37.9,0,0,1,10.5,2.8,1.5,1.5,0,0,1,.9,1.6l-1.7,10.9v.2a1.4,1.4,0,0,1-1.8,1L708.1,499h-.2a1.4,1.4,0,0,1-.8-1.9l4.1-10.3a1.3,1.3,0,0,1,1.5-.9"/>
    <path class="a" d="M713.5,482c-.3-.1-.4.1-.5.3h0l-.5,2.4a42.6,42.6,0,0,1,11.5,3.1l.7-2.3c.1-.2,0-.5-.2-.5h0A41.7,41.7,0,0,0,713.5,482Z"/>
    <path class="a" d="M693.7,481.1a43.3,43.3,0,0,1,10.6,2.6,1.5,1.5,0,0,1,.9,1.5l-1.5,11v.2a1.5,1.5,0,0,1-1.8,1.1l-12.6-3.1h-.2a1.5,1.5,0,0,1-.8-1.9l3.9-10.4a1.3,1.3,0,0,1,1.5-.9"/>
    <path class="a" d="M694.4,477.3c-.2-.1-.4.1-.4.3h0l-.5,2.4a42.2,42.2,0,0,1,11.5,2.9l.7-2.4a.4.4,0,0,0-.2-.5h0A42.9,42.9,0,0,0,694.4,477.3Z"/>
    <path class="a" d="M674.6,476.8a38.8,38.8,0,0,1,10.6,2.4,1.4,1.4,0,0,1,1,1.5l-1.3,11v.2a1.5,1.5,0,0,1-1.8,1.1l-12.6-2.9h-.2a1.5,1.5,0,0,1-.8-1.9l3.6-10.5a1.4,1.4,0,0,1,1.5-.9"/>
    <path class="a" d="M675.2,472.9a.4.4,0,0,0-.4.4h0l-.5,2.4a45.6,45.6,0,0,1,11.6,2.7l.7-2.4a.4.4,0,0,0-.2-.5h0A43.4,43.4,0,0,0,675.2,472.9Z"/>
    <path class="a" d="M655.4,472.8a38.6,38.6,0,0,1,10.7,2.3,1.5,1.5,0,0,1,1,1.5l-1.1,11v.2a1.3,1.3,0,0,1-1.7,1.1l-12.7-2.6h-.2a1.3,1.3,0,0,1-.9-1.8l3.4-10.6a1.8,1.8,0,0,1,1.5-1"/>
    <path class="a" d="M656,469a.4.4,0,0,0-.4.4h0l-.4,2.4a47,47,0,0,1,11.6,2.4l.6-2.4a.4.4,0,0,0-.2-.5h0A47.4,47.4,0,0,0,656,469Z"/>
    <path class="a" d="M636.2,469.3a39.6,39.6,0,0,1,10.7,2,1.4,1.4,0,0,1,1,1.5l-.8,11v.2a1.5,1.5,0,0,1-1.7,1.2l-12.8-2.4h-.2a1.5,1.5,0,0,1-.9-1.9l3.2-10.6a1.5,1.5,0,0,1,1.5-1"/>
    <path class="a" d="M636.6,465.4c-.2,0-.3.2-.4.4h0l-.3,2.5a39.1,39.1,0,0,1,11.7,2.2l.5-2.5a.4.4,0,0,0-.2-.5h0A42.6,42.6,0,0,0,636.6,465.4Z"/>
    <path class="a" d="M703.2,526.3a42.7,42.7,0,0,1,10.6,2.9,1.4,1.4,0,0,1,.8,1.5l-1.7,11v.2a1.4,1.4,0,0,1-1.8,1l-12.5-3.4c-.1,0-.2,0-.2-.1a1.4,1.4,0,0,1-.8-1.9l4.1-10.3a1.4,1.4,0,0,1,1.5-.9"/>
    <path class="a" d="M704,522.5a.4.4,0,0,0-.4.4h0l-.6,2.4a41.7,41.7,0,0,1,11.5,3.1l.7-2.4c.1-.1,0-.4-.2-.5h0A41.7,41.7,0,0,0,704,522.5Z"/>
    <path class="a" d="M684.7,521.7a43.5,43.5,0,0,1,10.6,2.7,1.5,1.5,0,0,1,.9,1.5l-1.5,11v.2a1.5,1.5,0,0,1-1.8,1.1L680.3,535h-.2a1.5,1.5,0,0,1-.8-1.9l3.9-10.4a1.4,1.4,0,0,1,1.5-1"/>
    <path class="a" d="M685.4,517.9a.4.4,0,0,0-.4.4h0l-.5,2.4a42.2,42.2,0,0,1,11.5,2.9l.7-2.4a.4.4,0,0,0-.2-.5h0A47.6,47.6,0,0,0,685.4,517.9Z"/>
    <path class="a" d="M666.1,517.5a43.1,43.1,0,0,1,10.6,2.5,1.5,1.5,0,0,1,1,1.5l-1.3,11v.2a1.5,1.5,0,0,1-1.8,1.1L662,530.9c-.1,0-.2,0-.2-.1a1.3,1.3,0,0,1-.9-1.8l3.7-10.5a1.5,1.5,0,0,1,1.5-1"/>
    <path class="a" d="M666.7,513.7c-.2,0-.4.1-.4.3h0l-.5,2.4a38.5,38.5,0,0,1,11.6,2.7l.7-2.4a.4.4,0,0,0-.2-.5h0A43.4,43.4,0,0,0,666.7,513.7Z"/>
    <path class="a" d="M647.4,513.7a44.3,44.3,0,0,1,10.7,2.2,1.8,1.8,0,0,1,1,1.5L658,528.5v.2a1.5,1.5,0,0,1-1.8,1.1l-12.7-2.7h-.1a1.4,1.4,0,0,1-.9-1.9l3.4-10.5a1.5,1.5,0,0,1,1.5-1"/>
    <path class="a" d="M647.9,509.9c-.2-.1-.4.1-.4.3h0l-.4,2.5a39.3,39.3,0,0,1,11.7,2.4l.6-2.4a.5.5,0,0,0-.3-.5h0A38.5,38.5,0,0,0,647.9,509.9Z"/>
    <path class="a" d="M628.6,510.2a39.8,39.8,0,0,1,10.8,2.1,1.5,1.5,0,0,1,1,1.4l-.9,11.1v.2a1.5,1.5,0,0,1-1.7,1.2L625,523.8h-.1a1.5,1.5,0,0,1-1-1.8l3.3-10.7a1.5,1.5,0,0,1,1.4-1"/>
    <path class="a" d="M629.1,506.4a.4.4,0,0,0-.4.4h0l-.4,2.4a42.5,42.5,0,0,1,11.7,2.2l.6-2.4c.1-.2-.1-.4-.3-.5h0A42.6,42.6,0,0,0,629.1,506.4Z"/>
    <path class="a" d="M676.2,562.4a48.5,48.5,0,0,1,10.6,2.7,1.5,1.5,0,0,1,.9,1.6l-1.5,11c-.1,0-.1.1-.1.2a1.5,1.5,0,0,1-1.8,1l-12.5-3.2h-.2a1.5,1.5,0,0,1-.8-2l3.9-10.3a1.5,1.5,0,0,1,1.5-1"/>
    <path class="a" d="M676.9,558.6a.4.4,0,0,0-.4.4h0l-.5,2.4a42.2,42.2,0,0,1,11.5,2.9l.7-2.3c.1-.2,0-.5-.2-.5h0A42.2,42.2,0,0,0,676.9,558.6Z"/>
    <path class="a" d="M655.9,557.9a38.7,38.7,0,0,1,10.7,2.4,1.4,1.4,0,0,1,.9,1.5l-1.3,11.1h0a1.5,1.5,0,0,1-1.8,1.1l-12.6-2.9h-.2a1.5,1.5,0,0,1-.8-1.9l3.6-10.5a1.5,1.5,0,0,1,1.5-.9"/>
    <path class="a" d="M656.5,554c-.2,0-.3.2-.4.4h0l-.4,2.4a47.6,47.6,0,0,1,11.6,2.7l.6-2.4a.4.4,0,0,0-.2-.5h0A46.8,46.8,0,0,0,656.5,554Z"/>
    <path class="a" d="M635.6,553.7a40.2,40.2,0,0,1,10.7,2.3,1.3,1.3,0,0,1,.9,1.4l-1,11.1v.2a1.5,1.5,0,0,1-1.8,1.1l-12.7-2.6h-.1a1.5,1.5,0,0,1-.9-1.9l3.4-10.6a1.5,1.5,0,0,1,1.5-1"/>
    <path class="a" d="M636.1,549.9a.4.4,0,0,0-.4.4h0l-.4,2.4a45.2,45.2,0,0,1,11.6,2.4l.6-2.4a.4.4,0,0,0-.2-.5h0A42.9,42.9,0,0,0,636.1,549.9Z"/>
    <path class="a" d="M615.1,550.1a38.2,38.2,0,0,1,10.7,2,1.5,1.5,0,0,1,1.1,1.4l-.8,11.1c0,.1,0,.1-.1.2a1.5,1.5,0,0,1-1.7,1.2l-12.7-2.4h-.2a1.4,1.4,0,0,1-.9-1.9l3.1-10.6a1.5,1.5,0,0,1,1.5-1"/>
    <path class="a" d="M615.5,546.2c-.2,0-.3.2-.4.4h0l-.3,2.5a38.9,38.9,0,0,1,11.7,2.1l.5-2.4a.4.4,0,0,0-.2-.5h0A42.6,42.6,0,0,0,615.5,546.2Z"/>
    <path class="a" d="M668.6,603.4a43.7,43.7,0,0,1,10.6,2.8,1.4,1.4,0,0,1,.9,1.5l-1.6,11v.2a1.4,1.4,0,0,1-1.8,1l-12.6-3.2h-.2a1.5,1.5,0,0,1-.8-1.9l4-10.4a1.6,1.6,0,0,1,1.5-.9"/>
    <path class="a" d="M669.3,599.6a.4.4,0,0,0-.4.4h0l-.5,2.4a39.1,39.1,0,0,1,11.5,3l.7-2.4a.4.4,0,0,0-.2-.5h0A46.5,46.5,0,0,0,669.3,599.6Z"/>
    <path class="a" d="M648.7,598.9a39,39,0,0,1,10.6,2.5,1.5,1.5,0,0,1,1,1.5l-1.4,11v.2a1.5,1.5,0,0,1-1.8,1.1l-12.6-3h-.2a1.5,1.5,0,0,1-.8-1.9l3.7-10.5a1.3,1.3,0,0,1,1.5-.9"/>
    <path class="a" d="M649.3,595.1c-.2,0-.4.1-.4.3h0l-.5,2.5a38.5,38.5,0,0,1,11.6,2.7l.7-2.4a.4.4,0,0,0-.2-.5h0A39.7,39.7,0,0,0,649.3,595.1Z"/>
    <path class="a" d="M628.7,594.8a38.7,38.7,0,0,1,10.6,2.3,1.3,1.3,0,0,1,1,1.4l-1,11.1v.2a1.3,1.3,0,0,1-1.7,1.1l-12.7-2.6h-.2a1.4,1.4,0,0,1-.9-1.9l3.5-10.5a1.5,1.5,0,0,1,1.5-1"/>
    <path class="a" d="M629.2,591c-.2,0-.4.1-.4.3h0l-.4,2.5a41.3,41.3,0,0,1,11.6,2.4l.6-2.4a.4.4,0,0,0-.2-.5h0A42.9,42.9,0,0,0,629.2,591Z"/>
    <path class="a" d="M608.5,591.2a43.8,43.8,0,0,1,10.8,2,1.5,1.5,0,0,1,1,1.5l-.8,11v.2a1.6,1.6,0,0,1-1.8,1.2L605,604.7h-.2a1.4,1.4,0,0,1-.9-1.8l3.2-10.7a1.5,1.5,0,0,1,1.4-1"/>
    <path class="a" d="M609,587.4c-.2,0-.4.1-.4.3h0l-.4,2.5a41.8,41.8,0,0,1,11.7,2.2l.6-2.5a.3.3,0,0,0-.2-.4h-.1A38.9,38.9,0,0,0,609,587.4Z"/>
    <path class="a" d="M142.9,288.9a1.5,1.5,0,0,0-.9,1.6l1.7,10.9a1.6,1.6,0,0,0,1.7,1.3h.1l12.6-3.3a1.6,1.6,0,0,0,1-1.8.3.3,0,0,0-.1-.2l-4-10.4a1.5,1.5,0,0,0-1.6-.8,37.9,37.9,0,0,0-10.5,2.8"/>
    <path class="a" d="M152.7,282.3h0c.2-.1.4.1.4.3l.5,2.4a41,41,0,0,0-11.4,3.1l-.8-2.3h0c-.1-.2,0-.5.2-.5A42.4,42.4,0,0,1,152.7,282.3Z"/>
    <path class="a" d="M162.7,283.7a1.3,1.3,0,0,0-.9,1.5l1.5,11a1.6,1.6,0,0,0,1.7,1.3h.2l12.5-3.1a1.5,1.5,0,0,0,1.1-1.8c0-.1,0-.1-.1-.2l-3.9-10.4a1.3,1.3,0,0,0-1.5-.9,39.4,39.4,0,0,0-10.6,2.7"/>
    <path class="a" d="M172.6,277.2h0c.2-.1.4.1.4.3l.5,2.4a42.4,42.4,0,0,0-11.5,3l-.7-2.4h0a.4.4,0,0,1,.2-.5A39.4,39.4,0,0,1,172.6,277.2Z"/>
    <path class="a" d="M182.7,278.7a1.6,1.6,0,0,0-1,1.6l1.4,11a1.4,1.4,0,0,0,1.6,1.3h.2l12.6-3a1.5,1.5,0,0,0,1.1-1.8v-.2l-3.7-10.4a1.4,1.4,0,0,0-1.5-.9,38.8,38.8,0,0,0-10.6,2.4"/>
    <path class="a" d="M192.7,272.4h0a.4.4,0,0,1,.4.4l.4,2.4a45.8,45.8,0,0,0-11.5,2.7l-.7-2.4h0a.4.4,0,0,1,.2-.5A46.8,46.8,0,0,1,192.7,272.4Z"/>
    <path class="a" d="M202.7,274.2a1.5,1.5,0,0,0-1,1.5l1.2,11a1.5,1.5,0,0,0,1.6,1.4.1.1,0,0,1,.1-.1l12.7-2.7a1.5,1.5,0,0,0,1.1-1.8v-.2l-3.6-10.5a1.3,1.3,0,0,0-1.5-.9,38.7,38.7,0,0,0-10.6,2.3"/>
    <path class="a" d="M212.8,268h0a.4.4,0,0,1,.4.4l.4,2.4a42.4,42.4,0,0,0-11.6,2.6l-.6-2.5h0c-.1-.2,0-.4.2-.4A39.5,39.5,0,0,1,212.8,268Z"/>
    <path class="a" d="M222.8,269.9a1.6,1.6,0,0,0-1,1.5l.9,11.1a1.6,1.6,0,0,0,1.6,1.4h.2l12.7-2.5a1.5,1.5,0,0,0,1.2-1.7.3.3,0,0,0-.1-.2L235,268.8a1.8,1.8,0,0,0-1.5-1,42.3,42.3,0,0,0-10.7,2.1"/>
    <path class="a" d="M233,264h0c.2,0,.4.1.4.3l.4,2.5a42.6,42.6,0,0,0-11.7,2.3l-.6-2.4h0a.5.5,0,0,1,.3-.5A42.8,42.8,0,0,1,233,264Z"/>
    <path class="a" d="M242.9,266.1a1.5,1.5,0,0,0-1,1.4l.8,11.1a1.5,1.5,0,0,0,1.5,1.4h.2l12.8-2.3a1.6,1.6,0,0,0,1.2-1.8h-.1l-3.2-10.7a1.5,1.5,0,0,0-1.4-1,39.6,39.6,0,0,0-10.8,2"/>
    <path class="a" d="M253.3,260.3h0c.2,0,.3.1.4.3l.3,2.5a42.3,42.3,0,0,0-11.7,2.1l-.6-2.4h0a.5.5,0,0,1,.3-.5A38.9,38.9,0,0,1,253.3,260.3Z"/>
    <path class="a" d="M263.2,262.5a1.5,1.5,0,0,0-1.1,1.5l.6,11.1a1.5,1.5,0,0,0,1.5,1.4h.2l12.8-2.1a1.5,1.5,0,0,0,1.2-1.7v-.2l-3-10.7a1.4,1.4,0,0,0-1.5-1,43.4,43.4,0,0,0-10.7,1.7"/>
    <path class="a" d="M273.6,256.9h0a.4.4,0,0,1,.4.4l.3,2.4a42.9,42.9,0,0,0-11.8,2l-.5-2.5h0a.5.5,0,0,1,.3-.5A42.4,42.4,0,0,1,273.6,256.9Z"/>
    <path class="a" d="M145.9,331.3a1.5,1.5,0,0,0-.9,1.6l1.8,10.9a1.5,1.5,0,0,0,1.6,1.3c.1,0,.2,0,.2-.1l12.5-3.5a1.4,1.4,0,0,0,1-1.8v-.2l-4.2-10.2a1.3,1.3,0,0,0-1.5-.9,41.9,41.9,0,0,0-10.5,2.9"/>
    <path class="a" d="M155.6,324.6h0c.2,0,.4.1.4.3l.6,2.4a45.7,45.7,0,0,0-11.5,3.2l-.7-2.3h0a.4.4,0,0,1,.2-.5A38.4,38.4,0,0,1,155.6,324.6Z"/>
    <path class="a" d="M166,325.9a1.3,1.3,0,0,0-.9,1.5l1.6,11a1.4,1.4,0,0,0,1.6,1.2h.2l12.5-3.3a1.4,1.4,0,0,0,1.1-1.7c0-.1,0-.2-.1-.2L178.1,324a1.5,1.5,0,0,0-1.6-.9,37.9,37.9,0,0,0-10.5,2.8"/>
    <path class="a" d="M175.8,319.3h0c.2,0,.4.1.4.3l.6,2.5a37.5,37.5,0,0,0-11.5,3l-.8-2.4h0a.4.4,0,0,1,.2-.5A43.3,43.3,0,0,1,175.8,319.3Z"/>
    <path class="a" d="M186.2,320.7a1.6,1.6,0,0,0-1,1.6l1.4,11a1.5,1.5,0,0,0,1.7,1.3h.1l12.6-3.1a1.5,1.5,0,0,0,1.1-1.8h0l-3.8-10.5a1.4,1.4,0,0,0-1.5-.9,42,42,0,0,0-10.6,2.5"/>
    <path class="a" d="M196.1,314.4h0c.2-.1.4.1.4.3l.5,2.4a46,46,0,0,0-11.5,2.8l-.7-2.3h0a.3.3,0,0,1,.2-.4A42.9,42.9,0,0,1,196.1,314.4Z"/>
    <path class="a" d="M206.5,316a1.4,1.4,0,0,0-1,1.5l1.2,11a1.5,1.5,0,0,0,1.6,1.4h.2l12.6-2.9a1.3,1.3,0,0,0,1.1-1.7v-.2l-3.6-10.5a1.5,1.5,0,0,0-1.5-1,38.8,38.8,0,0,0-10.6,2.4"/>
    <path class="a" d="M216.5,309.8h0a.4.4,0,0,1,.4.4l.5,2.4a41.6,41.6,0,0,0-11.6,2.6l-.7-2.4h0c-.1-.2.1-.4.2-.5A43.2,43.2,0,0,1,216.5,309.8Z"/>
    <path class="a" d="M226.8,311.6a1.8,1.8,0,0,0-1,1.5l1,11.1a1.5,1.5,0,0,0,1.6,1.3h.2l12.7-2.6a1.3,1.3,0,0,0,1.1-1.7V321L239,310.4a1.3,1.3,0,0,0-1.5-.9,39.8,39.8,0,0,0-10.7,2.1"/>
    <path class="a" d="M237,305.6h0a.4.4,0,0,1,.4.4l.4,2.4a45.2,45.2,0,0,0-11.6,2.4l-.6-2.4h-.1a.5.5,0,0,1,.3-.5A42.9,42.9,0,0,1,237,305.6Z"/>
    <path class="a" d="M247.3,307.6a1.3,1.3,0,0,0-1,1.5l.8,11.1a1.5,1.5,0,0,0,1.5,1.4h.2l12.7-2.3a1.5,1.5,0,0,0,1.2-1.7v-.2l-3.2-10.7a1.5,1.5,0,0,0-1.5-1,42.2,42.2,0,0,0-10.7,2"/>
    <path class="a" d="M257.6,301.8h0c.2,0,.3.1.4.4l.3,2.4a42.5,42.5,0,0,0-11.7,2.2l-.5-2.4h0c-.1-.2,0-.5.2-.5A42.6,42.6,0,0,1,257.6,301.8Z"/>
    <path class="a" d="M267.8,304a1.5,1.5,0,0,0-1.1,1.4l.7,11.1a1.4,1.4,0,0,0,1.5,1.4h.2l12.7-2.1a1.6,1.6,0,0,0,1.3-1.7c-.1-.1-.1-.1-.1-.2l-3-10.7a1.5,1.5,0,0,0-1.5-1,39.3,39.3,0,0,0-10.7,1.8"/>
    <path class="a" d="M278.2,298.3h0a.4.4,0,0,1,.4.4l.3,2.5a42.8,42.8,0,0,0-11.8,1.9l-.5-2.4h0a.5.5,0,0,1,.3-.5A42.4,42.4,0,0,1,278.2,298.3Z"/>
    <path class="a" d="M152.9,372.6a1.5,1.5,0,0,0-.9,1.6l1.9,10.9a1.5,1.5,0,0,0,1.6,1.3h.2l12.5-3.5a1.5,1.5,0,0,0,1-1.8.3.3,0,0,0-.1-.2l-4.2-10.3a1.4,1.4,0,0,0-1.5-.9,45.4,45.4,0,0,0-10.5,3"/>
    <path class="a" d="M162.6,365.9h0c.2-.1.4.1.4.3l.6,2.4a38.8,38.8,0,0,0-11.5,3.3l-.7-2.4h0a.4.4,0,0,1,.1-.5A43.7,43.7,0,0,1,162.6,365.9Z"/>
    <path class="a" d="M172.8,367.1a1.5,1.5,0,0,0-.9,1.6l1.6,11a1.5,1.5,0,0,0,1.7,1.2h.2l12.5-3.3a1.4,1.4,0,0,0,1-1.8v-.2l-4-10.4a1.7,1.7,0,0,0-1.6-.9,42.9,42.9,0,0,0-10.5,2.8"/>
    <path class="a" d="M182.6,360.5h0a.4.4,0,0,1,.4.4l.6,2.4a44.3,44.3,0,0,0-11.5,3l-.8-2.3h0c0-.2,0-.4.2-.5A43.5,43.5,0,0,1,182.6,360.5Z"/>
    <path class="a" d="M192.8,362a1.5,1.5,0,0,0-.9,1.5l1.4,11a1.5,1.5,0,0,0,1.7,1.3h.1l12.6-3.1a1.5,1.5,0,0,0,1.1-1.8h0l-3.9-10.5a1.3,1.3,0,0,0-1.5-.9,43.3,43.3,0,0,0-10.6,2.6"/>
    <path class="a" d="M202.8,355.6h0c.2,0,.4.1.4.3l.5,2.5a41.9,41.9,0,0,0-11.6,2.8l-.7-2.4h0a.4.4,0,0,1,.2-.5A42.6,42.6,0,0,1,202.8,355.6Z"/>
    <path class="a" d="M212.9,357.3a1.3,1.3,0,0,0-.9,1.5l1.2,11a1.5,1.5,0,0,0,1.6,1.3h.2l12.6-2.9a1.5,1.5,0,0,0,1.2-1.7v-.2l-3.6-10.5a1.8,1.8,0,0,0-1.5-1,43.8,43.8,0,0,0-10.7,2.5"/>
    <path class="a" d="M223,351h0a.4.4,0,0,1,.4.4l.4,2.4a43.2,43.2,0,0,0-11.6,2.6l-.6-2.4h0a.4.4,0,0,1,.2-.5A43.2,43.2,0,0,1,223,351Z"/>
    <path class="a" d="M233.1,352.9a1.3,1.3,0,0,0-.9,1.5l1,11a1.5,1.5,0,0,0,1.6,1.4h.1l12.7-2.6a1.5,1.5,0,0,0,1.2-1.7v-.2l-3.4-10.6a1.3,1.3,0,0,0-1.5-.9,40,40,0,0,0-10.7,2.2"/>
    <path class="a" d="M243.3,346.8h0a.4.4,0,0,1,.4.4l.4,2.4a45.2,45.2,0,0,0-11.6,2.4l-.6-2.4h-.1a.5.5,0,0,1,.3-.5A47.4,47.4,0,0,1,243.3,346.8Z"/>
    <path class="a" d="M253.4,348.9a1.5,1.5,0,0,0-1,1.4l.8,11.1a1.6,1.6,0,0,0,1.6,1.4h.2l12.7-2.4a1.5,1.5,0,0,0,1.2-1.7c0-.1,0-.2-.1-.2l-3.2-10.6a1.5,1.5,0,0,0-1.5-1.1,39.8,39.8,0,0,0-10.7,2.1"/>
    <path class="a" d="M263.7,343h0a.4.4,0,0,1,.4.4l.3,2.4a43.2,43.2,0,0,0-11.7,2.2l-.5-2.4h0a.4.4,0,0,1,.2-.5A44.2,44.2,0,0,1,263.7,343Z"/>
    <path class="a" d="M273.8,345.2a1.5,1.5,0,0,0-1.1,1.5l.6,11.1a1.6,1.6,0,0,0,1.6,1.4h.2l12.7-2.2a1.4,1.4,0,0,0,1.2-1.7v-.2l-3-10.7a1.5,1.5,0,0,0-1.5-1,38.7,38.7,0,0,0-10.7,1.8"/>
    <path class="a" d="M284.1,339.6h0c.3,0,.4.1.4.3l.3,2.5a42.9,42.9,0,0,0-11.7,2l-.5-2.5h0c-.1-.2,0-.4.2-.4a38.2,38.2,0,0,1,5.6-1.4A36.6,36.6,0,0,1,284.1,339.6Z"/>
    <path class="a" d="M163.5,412.9a1.5,1.5,0,0,0-.9,1.6l1.9,10.9a1.6,1.6,0,0,0,1.7,1.3h.2l12.4-3.6a1.4,1.4,0,0,0,1-1.8V421l-4.3-10.2a1.4,1.4,0,0,0-1.5-.9,42.1,42.1,0,0,0-10.5,3"/>
    <path class="a" d="M173.2,406.1h0c.2,0,.4.1.4.3l.6,2.5a41.2,41.2,0,0,0-11.4,3.2l-.8-2.3h0a.4.4,0,0,1,.2-.5A42.1,42.1,0,0,1,173.2,406.1Z"/>
    <path class="a" d="M182.9,407.6a1.3,1.3,0,0,0-.9,1.5l1.6,11a1.4,1.4,0,0,0,1.7,1.2h.2L198,418a1.4,1.4,0,0,0,1-1.8V416l-4.1-10.4a1.3,1.3,0,0,0-1.5-.8,37.9,37.9,0,0,0-10.5,2.8"/>
    <path class="a" d="M192.7,400.9h0a.4.4,0,0,1,.4.4l.5,2.4a42.6,42.6,0,0,0-11.5,3.1l-.7-2.4h0a.4.4,0,0,1,.2-.5A42.4,42.4,0,0,1,192.7,400.9Z"/>
    <path class="a" d="M202.3,402.6a1.3,1.3,0,0,0-.9,1.5l1.5,11a1.4,1.4,0,0,0,1.6,1.3h.2l12.5-3.1a1.5,1.5,0,0,0,1.1-1.8v-.2l-3.9-10.4a1.3,1.3,0,0,0-1.5-.9,35.8,35.8,0,0,0-10.6,2.6"/>
    <path class="a" d="M212.2,396.1h.1c.2,0,.3.2.4.4l.5,2.4a42,42,0,0,0-11.6,2.9l-.7-2.4h0a.4.4,0,0,1,.2-.5A43.1,43.1,0,0,1,212.2,396.1Z"/>
    <path class="a" d="M221.9,397.9a1.6,1.6,0,0,0-1,1.5l1.3,11.1a1.4,1.4,0,0,0,1.6,1.3h.1l12.7-2.9a1.5,1.5,0,0,0,1.1-1.8.1.1,0,0,0-.1-.1L234,396.5a1.5,1.5,0,0,0-1.5-1,42.9,42.9,0,0,0-10.6,2.4"/>
    <path class="a" d="M231.9,391.7h0c.2,0,.4.1.4.3l.5,2.5a41.6,41.6,0,0,0-11.6,2.6l-.7-2.4h0a.4.4,0,0,1,.2-.5A43.2,43.2,0,0,1,231.9,391.7Z"/>
    <path class="a" d="M241.5,393.7a1.5,1.5,0,0,0-1,1.5l1.1,11a1.5,1.5,0,0,0,1.5,1.4c.1,0,.2,0,.2-.1l12.7-2.6a1.4,1.4,0,0,0,1.1-1.7V403l-3.4-10.6a1.5,1.5,0,0,0-1.5-.9,38.4,38.4,0,0,0-10.7,2.2"/>
    <path class="a" d="M251.7,387.6h0c.2,0,.3.2.4.4l.4,2.4a46.8,46.8,0,0,0-11.7,2.4l-.6-2.4h0a.4.4,0,0,1,.2-.5A48.3,48.3,0,0,1,251.7,387.6Z"/>
    <path class="a" d="M261.2,389.8a1.5,1.5,0,0,0-1,1.4l.8,11.1a1.6,1.6,0,0,0,1.6,1.4h.2l12.7-2.4a1.5,1.5,0,0,0,1.2-1.7.3.3,0,0,0-.1-.2l-3.2-10.6a1.3,1.3,0,0,0-1.5-1,39.6,39.6,0,0,0-10.7,2"/>
    <path class="a" d="M271.5,383.9h0a.4.4,0,0,1,.4.4l.3,2.4a42.5,42.5,0,0,0-11.7,2.2l-.5-2.4h0a.4.4,0,0,1,.2-.5A43.4,43.4,0,0,1,271.5,383.9Z"/>
    <path class="a" d="M281,386.2a1.5,1.5,0,0,0-1.1,1.5l.7,11.1a1.5,1.5,0,0,0,1.5,1.4h.2l12.8-2.2a1.5,1.5,0,0,0,1.2-1.7v-.2l-3-10.6a1.5,1.5,0,0,0-1.5-1.1,48.9,48.9,0,0,0-10.7,1.8"/>
    <path class="a" d="M291.3,380.6h.1c.2,0,.3.1.3.4l.3,2.4a42.9,42.9,0,0,0-11.7,2l-.5-2.4h0a.4.4,0,0,1,.3-.5A38.7,38.7,0,0,1,291.3,380.6Z"/>
    <path class="a" d="M170.7,454.2a1.3,1.3,0,0,0-.8,1.5l2,11a1.4,1.4,0,0,0,1.6,1.2h.2l12.5-3.7a1.4,1.4,0,0,0,.9-1.8v-.2l-4.3-10.2a1.5,1.5,0,0,0-1.6-.8,39.5,39.5,0,0,0-10.5,3.1"/>
    <path class="a" d="M180.4,447.3h0c.2,0,.4.1.4.3l.6,2.4a41.6,41.6,0,0,0-11.4,3.4l-.8-2.3h0c-.1-.1,0-.4.2-.5A46.3,46.3,0,0,1,180.4,447.3Z"/>
    <path class="a" d="M189.6,448.8a1.4,1.4,0,0,0-.9,1.6l1.7,10.9a1.6,1.6,0,0,0,1.7,1.3h.2l12.5-3.4a1.4,1.4,0,0,0,1-1.8c0-.1,0-.1-.1-.2l-4.1-10.3a1.4,1.4,0,0,0-1.5-.9,41.9,41.9,0,0,0-10.5,2.9"/>
    <path class="a" d="M199.3,442.1h0a.4.4,0,0,1,.4.4l.6,2.4a41.7,41.7,0,0,0-11.5,3.1l-.7-2.3h0c-.1-.2,0-.5.2-.5A41.9,41.9,0,0,1,199.3,442.1Z"/>
    <path class="a" d="M208.5,443.8a1.5,1.5,0,0,0-.9,1.6l1.5,11a1.4,1.4,0,0,0,1.6,1.2h.2l12.6-3.2a1.5,1.5,0,0,0,1.1-1.8c-.1,0-.1-.1-.1-.2l-3.9-10.3a1.6,1.6,0,0,0-1.5-1,47.1,47.1,0,0,0-10.6,2.7"/>
    <path class="a" d="M218.4,437.3h0a.4.4,0,0,1,.4.4l.5,2.4a41.3,41.3,0,0,0-11.5,2.9l-.7-2.3h0c-.1-.2,0-.5.2-.5A42.2,42.2,0,0,1,218.4,437.3Z"/>
    <path class="a" d="M227.5,439.2a1.5,1.5,0,0,0-.9,1.5l1.3,11.1a1.5,1.5,0,0,0,1.6,1.3h.2l12.6-2.9a1.5,1.5,0,0,0,1.1-1.8.1.1,0,0,0-.1-.1l-3.7-10.5a1.5,1.5,0,0,0-1.5-1,43.1,43.1,0,0,0-10.6,2.5"/>
    <path class="a" d="M237.5,432.9h0a.4.4,0,0,1,.4.4l.5,2.4a45.6,45.6,0,0,0-11.6,2.7l-.7-2.4h0a.5.5,0,0,1,.3-.5A46,46,0,0,1,237.5,432.9Z"/>
    <path class="a" d="M246.6,435a1.5,1.5,0,0,0-1,1.5l1.1,11a1.6,1.6,0,0,0,1.6,1.4h.2l12.7-2.7a1.5,1.5,0,0,0,1.1-1.8v-.2l-3.5-10.5a1.6,1.6,0,0,0-1.5-1,42.5,42.5,0,0,0-10.7,2.3"/>
    <path class="a" d="M256.7,428.9h0c.3,0,.4.1.4.3l.5,2.5a42.9,42.9,0,0,0-11.7,2.5l-.6-2.4h0c-.1-.2,0-.5.2-.5A43.1,43.1,0,0,1,256.7,428.9Z"/>
    <path class="a" d="M265.8,431.1a1.8,1.8,0,0,0-1,1.5l.9,11.1a1.5,1.5,0,0,0,1.5,1.4h.2l12.8-2.4a1.4,1.4,0,0,0,1.1-1.7v-.2L278,430.1a1.4,1.4,0,0,0-1.5-1,43.9,43.9,0,0,0-10.7,2"/>
    <path class="a" d="M276,425.2h.1c.2,0,.3.2.3.4l.4,2.5a39.1,39.1,0,0,0-11.7,2.2l-.5-2.4h0a.4.4,0,0,1,.2-.5A42.8,42.8,0,0,1,276,425.2Z"/>
    <path class="a" d="M285.1,427.7a1.5,1.5,0,0,0-1.1,1.4l.7,11.1a1.5,1.5,0,0,0,1.5,1.4h.2l12.8-2.2a1.5,1.5,0,0,0,1.2-1.7v-.2l-3-10.7a1.5,1.5,0,0,0-1.5-1,42.9,42.9,0,0,0-10.7,1.9"/>
    <path class="a" d="M295.4,422h0c.2,0,.4.1.4.3l.3,2.5a42.2,42.2,0,0,0-11.7,2l-.5-2.4h0a.4.4,0,0,1,.2-.5A43.8,43.8,0,0,1,295.4,422Z"/>
    <path class="a" d="M179.2,495.1a1.5,1.5,0,0,0-.9,1.6l2,10.9a1.4,1.4,0,0,0,1.7,1.2h.1l12.5-3.7a1.4,1.4,0,0,0,1-1.8v-.2l-4.3-10.2a1.5,1.5,0,0,0-1.6-.9,41.6,41.6,0,0,0-10.4,3.1"/>
    <path class="a" d="M188.8,488.2h0a.4.4,0,0,1,.4.4l.6,2.4a41.6,41.6,0,0,0-11.4,3.4l-.8-2.4h0a.4.4,0,0,1,.2-.5A42.3,42.3,0,0,1,188.8,488.2Z"/>
    <path class="a" d="M198,489.8a1.4,1.4,0,0,0-.9,1.5l1.8,11a1.3,1.3,0,0,0,1.6,1.2h.2l12.5-3.4a1.5,1.5,0,0,0,1-1.8v-.2L210,487.8a1.3,1.3,0,0,0-1.5-.9,38.1,38.1,0,0,0-10.5,2.9"/>
    <path class="a" d="M207.7,483.1h0a.5.5,0,0,1,.5.3l.5,2.4a41.2,41.2,0,0,0-11.4,3.2l-.8-2.4h0a.4.4,0,0,1,.2-.5A41.7,41.7,0,0,1,207.7,483.1Z"/>
    <path class="a" d="M216.9,484.8a1.4,1.4,0,0,0-.9,1.5l1.5,11a1.6,1.6,0,0,0,1.7,1.3h.2l12.5-3.2a1.5,1.5,0,0,0,1.1-1.8c0-.1-.1-.1-.1-.2L229,483a1.4,1.4,0,0,0-1.5-.9,39.4,39.4,0,0,0-10.6,2.7"/>
    <path class="a" d="M226.8,478.3h0c.2,0,.4.1.4.3l.5,2.5a42.2,42.2,0,0,0-11.5,2.9l-.7-2.4h0a.4.4,0,0,1,.2-.5A42.1,42.1,0,0,1,226.8,478.3Z"/>
    <path class="a" d="M235.9,480.2a1.3,1.3,0,0,0-.9,1.5l1.3,11a1.5,1.5,0,0,0,1.6,1.3h.2l12.6-2.9a1.5,1.5,0,0,0,1.1-1.8v-.2l-3.7-10.5a1.5,1.5,0,0,0-1.5-.9,42.8,42.8,0,0,0-10.7,2.5"/>
    <path class="a" d="M245.9,473.9h0c.2,0,.4.1.4.3l.5,2.5a38.5,38.5,0,0,0-11.6,2.7l-.6-2.4h0a.4.4,0,0,1,.2-.5A39,39,0,0,1,245.9,473.9Z"/>
    <path class="a" d="M255,476a1.3,1.3,0,0,0-.9,1.5l1.1,11a1.3,1.3,0,0,0,1.5,1.3h.2l12.7-2.7a1.4,1.4,0,0,0,1.1-1.7v-.2l-3.5-10.5a1.3,1.3,0,0,0-1.5-1A40.2,40.2,0,0,0,255,476"/>
    <path class="a" d="M265.2,469.8h0a.4.4,0,0,1,.4.4l.4,2.5a41.3,41.3,0,0,0-11.6,2.4l-.7-2.4h0a.5.5,0,0,1,.3-.5A42.2,42.2,0,0,1,265.2,469.8Z"/>
    <path class="a" d="M274.2,472.1a1.5,1.5,0,0,0-1,1.5l.9,11a1.4,1.4,0,0,0,1.6,1.4h.1l12.8-2.5a1.3,1.3,0,0,0,1.1-1.7v-.2L286.4,471a1.5,1.5,0,0,0-1.5-1,39.8,39.8,0,0,0-10.7,2.1"/>
    <path class="a" d="M284.5,466.2h0a.4.4,0,0,1,.4.4l.3,2.4a41.9,41.9,0,0,0-11.6,2.3l-.6-2.5h0c-.1-.2,0-.4.2-.4A39.7,39.7,0,0,1,284.5,466.2Z"/>
    <path class="a" d="M293.5,468.6a1.3,1.3,0,0,0-1,1.5l.6,11.1a1.5,1.5,0,0,0,1.5,1.4h.2l12.8-2.2a1.5,1.5,0,0,0,1.2-1.7v-.2l-3.1-10.7a1.5,1.5,0,0,0-1.5-1,39.3,39.3,0,0,0-10.7,1.8"/>
    <path class="a" d="M303.8,462.9h0a.4.4,0,0,1,.4.4l.4,2.5a39.5,39.5,0,0,0-11.8,2l-.5-2.5h0c-.1-.2.1-.4.3-.4A42.5,42.5,0,0,1,303.8,462.9Z"/>
    <path class="a" d="M189,535.7a1.4,1.4,0,0,0-.9,1.5l2.1,11a1.4,1.4,0,0,0,1.6,1.2h.2l12.4-3.7a1.4,1.4,0,0,0,1-1.8v-.2L201,533.4a1.5,1.5,0,0,0-1.6-.9,41.8,41.8,0,0,0-10.4,3.2"/>
    <path class="a" d="M198.6,528.7h0a.4.4,0,0,1,.4.4l.6,2.4a42.7,42.7,0,0,0-11.4,3.4l-.8-2.4h0c-.1-.1,0-.4.2-.5A46.5,46.5,0,0,1,198.6,528.7Z"/>
    <path class="a" d="M207.3,530.4a1.5,1.5,0,0,0-.8,1.6l1.7,10.9a1.6,1.6,0,0,0,1.7,1.3h.2l12.5-3.5a1.4,1.4,0,0,0,1-1.8h-.1l-4.1-10.3a1.4,1.4,0,0,0-1.6-.9,43.1,43.1,0,0,0-10.5,2.9"/>
    <path class="a" d="M217.1,523.7h0c.2,0,.4.1.4.3l.6,2.4a41.9,41.9,0,0,0-11.5,3.2l-.8-2.3h0c0-.2,0-.5.2-.5A40,40,0,0,1,217.1,523.7Z"/>
    <path class="a" d="M225.8,525.5a1.5,1.5,0,0,0-.9,1.6l1.5,10.9a1.6,1.6,0,0,0,1.7,1.3h.2l12.5-3.2a1.5,1.5,0,0,0,1.1-1.8c-.1-.1-.1-.1-.1-.2l-3.9-10.4a1.5,1.5,0,0,0-1.6-.9,38.7,38.7,0,0,0-10.5,2.7"/>
    <path class="a" d="M235.6,519h0a.5.5,0,0,1,.5.3l.5,2.5a40.5,40.5,0,0,0-11.5,2.9l-.8-2.4h0a.8.8,0,0,1,.2-.5A43.1,43.1,0,0,1,235.6,519Z"/>
    <path class="a" d="M244.3,521a1.4,1.4,0,0,0-.9,1.5l1.3,11a1.6,1.6,0,0,0,1.6,1.4h.2l12.6-3a1.3,1.3,0,0,0,1.1-1.7v-.2l-3.8-10.5a1.3,1.3,0,0,0-1.5-.9,43.1,43.1,0,0,0-10.6,2.5"/>
    <path class="a" d="M254.3,514.7h0c.2,0,.4.1.4.3l.5,2.5a38.5,38.5,0,0,0-11.6,2.7l-.7-2.4h0a.5.5,0,0,1,.3-.5A38.2,38.2,0,0,1,254.3,514.7Z"/>
    <path class="a" d="M262.9,516.9a1.3,1.3,0,0,0-.9,1.5l1.1,11a1.5,1.5,0,0,0,1.6,1.3h.2l12.6-2.7a1.6,1.6,0,0,0,1.2-1.7.3.3,0,0,1-.1-.2l-3.5-10.6a1.3,1.3,0,0,0-1.5-.9,40.2,40.2,0,0,0-10.7,2.3"/>
    <path class="a" d="M273.1,510.7h0a.4.4,0,0,1,.4.4l.4,2.4a45.3,45.3,0,0,0-11.6,2.5l-.7-2.4h0a.5.5,0,0,1,.3-.5A42.2,42.2,0,0,1,273.1,510.7Z"/>
    <path class="a" d="M281.6,513.1a1.5,1.5,0,0,0-1,1.5l.9,11a1.5,1.5,0,0,0,1.6,1.4h.2l12.7-2.5a1.5,1.5,0,0,0,1.2-1.7c0-.1-.1-.1-.1-.2L293.8,512a1.5,1.5,0,0,0-1.4-1,39.8,39.8,0,0,0-10.8,2.1"/>
    <path class="a" d="M291.9,507.2h0c.2,0,.4.1.4.3l.4,2.5a38.6,38.6,0,0,0-11.7,2.3l-.6-2.5h0c-.1-.2,0-.4.2-.4A40.4,40.4,0,0,1,291.9,507.2Z"/>
    <path class="a" d="M300.4,509.7a1.5,1.5,0,0,0-1,1.5l.7,11a1.4,1.4,0,0,0,1.5,1.4h.2l12.8-2.2a1.5,1.5,0,0,0,1.2-1.7c-.1,0-.1-.1-.1-.2l-3.1-10.6a1.5,1.5,0,0,0-1.4-1.1,43.7,43.7,0,0,0-10.8,1.9"/>
    <path class="a" d="M310.8,504h0a.4.4,0,0,1,.4.4l.3,2.4a38.9,38.9,0,0,0-11.7,2.1l-.6-2.5h0a.5.5,0,0,1,.3-.5A42.4,42.4,0,0,1,310.8,504Z"/>
    <path class="a" d="M199.8,575.9a1.5,1.5,0,0,0-.8,1.6l2,10.9a1.5,1.5,0,0,0,1.7,1.2h.2l12.4-3.7a1.5,1.5,0,0,0,1-1.8.3.3,0,0,0-.1-.2l-4.4-10.2a1.4,1.4,0,0,0-1.5-.9,43.9,43.9,0,0,0-10.5,3.2"/>
    <path class="a" d="M209.4,569h0c.2-.1.4.1.4.3l.7,2.4a40.6,40.6,0,0,0-11.4,3.4l-.8-2.3h0a.4.4,0,0,1,.2-.5A40.5,40.5,0,0,1,209.4,569Z"/>
    <path class="a" d="M219.8,570.2a1.4,1.4,0,0,0-.9,1.5l1.8,11a1.5,1.5,0,0,0,1.7,1.2h.2l12.5-3.5a1.5,1.5,0,0,0,1-1.8.3.3,0,0,1-.1-.2l-4.1-10.3a1.5,1.5,0,0,0-1.6-.8,39.1,39.1,0,0,0-10.5,2.9"/>
    <path class="a" d="M229.5,563.5h.1c.2-.1.4.1.4.3l.5,2.4a41.2,41.2,0,0,0-11.4,3.2l-.8-2.4h0a.4.4,0,0,1,.2-.5A41.7,41.7,0,0,1,229.5,563.5Z"/>
    <path class="a" d="M239.9,564.9a1.5,1.5,0,0,0-.9,1.5l1.5,11a1.6,1.6,0,0,0,1.7,1.3h.1l12.6-3.2a1.5,1.5,0,0,0,1.1-1.8.3.3,0,0,1-.1-.2L252,563.1a1.6,1.6,0,0,0-1.5-.9,43.5,43.5,0,0,0-10.6,2.7"/>
    <path class="a" d="M249.8,558.4h0a.4.4,0,0,1,.4.4l.5,2.4a42.2,42.2,0,0,0-11.5,2.9l-.7-2.4h0a.4.4,0,0,1,.2-.5A47.6,47.6,0,0,1,249.8,558.4Z"/>
    <path class="a" d="M260.1,560.1a1.4,1.4,0,0,0-.9,1.5l1.3,11.1a1.5,1.5,0,0,0,1.6,1.3h.2l12.6-2.9a1.3,1.3,0,0,0,1.1-1.7v-.2l-3.6-10.5a1.5,1.5,0,0,0-1.5-.9,39.5,39.5,0,0,0-10.7,2.4"/>
    <path class="a" d="M270.2,553.8h0a.4.4,0,0,1,.4.4l.4,2.4a47.6,47.6,0,0,0-11.6,2.7l-.6-2.4h0a.4.4,0,0,1,.2-.5A46.8,46.8,0,0,1,270.2,553.8Z"/>
    <path class="a" d="M280.5,555.8a1.3,1.3,0,0,0-1,1.5l1,11a1.6,1.6,0,0,0,1.6,1.4h.2L295,567a1.3,1.3,0,0,0,1.1-1.7v-.2l-3.5-10.5a1.3,1.3,0,0,0-1.5-1,38.5,38.5,0,0,0-10.6,2.2"/>
    <path class="a" d="M290.6,549.7h0a.4.4,0,0,1,.4.4l.4,2.5a41.9,41.9,0,0,0-11.6,2.3l-.6-2.4h0a.4.4,0,0,1,.2-.5A47.4,47.4,0,0,1,290.6,549.7Z"/>
    <path class="a" d="M300.9,551.9a1.3,1.3,0,0,0-1,1.5l.7,11a1.5,1.5,0,0,0,1.6,1.4h.2l12.7-2.3a1.5,1.5,0,0,0,1.2-1.7v-.2L313.1,551a1.3,1.3,0,0,0-1.5-1,39.5,39.5,0,0,0-10.7,1.9"/>
    <path class="a" d="M311.2,546.1h0a.4.4,0,0,1,.4.4l.3,2.4a42.5,42.5,0,0,0-11.7,2.2l-.5-2.5h0a.4.4,0,0,1,.2-.5A48.7,48.7,0,0,1,311.2,546.1Z"/>
    <path class="a" d="M208.1,616.9a1.5,1.5,0,0,0-.8,1.6l2.1,10.9a1.5,1.5,0,0,0,1.7,1.2.1.1,0,0,0,.1-.1l12.4-3.8a1.4,1.4,0,0,0,1-1.8c0-.1,0-.1-.1-.2l-4.4-10.2a1.5,1.5,0,0,0-1.6-.8,41.8,41.8,0,0,0-10.4,3.2"/>
    <path class="a" d="M217.6,609.9h.1c.2,0,.4.1.4.3l.6,2.4a44.9,44.9,0,0,0-11.3,3.5l-.9-2.3h0a.4.4,0,0,1,.2-.5A43,43,0,0,1,217.6,609.9Z"/>
    <path class="a" d="M227.7,611.2a1.5,1.5,0,0,0-.8,1.6l1.8,10.9a1.4,1.4,0,0,0,1.7,1.2h.1l12.5-3.5a1.5,1.5,0,0,0,1-1.8v-.2l-4.2-10.3a1.5,1.5,0,0,0-1.6-.9,39.3,39.3,0,0,0-10.5,3"/>
    <path class="a" d="M237.4,604.4h0a.7.7,0,0,1,.5.4l.5,2.4a41.2,41.2,0,0,0-11.4,3.2l-.8-2.3h0c-.1-.2,0-.5.2-.5A42.1,42.1,0,0,1,237.4,604.4Z"/>
    <path class="a" d="M247.5,606a1.3,1.3,0,0,0-.9,1.5l1.5,11a1.6,1.6,0,0,0,1.7,1.3h.2l12.5-3.2a1.5,1.5,0,0,0,1.1-1.8c0-.1-.1-.1-.1-.2l-3.9-10.4a1.7,1.7,0,0,0-1.6-.9,42.9,42.9,0,0,0-10.5,2.8"/>
    <path class="a" d="M257.3,599.4h0c.3,0,.4.2.5.4l.5,2.4a37.5,37.5,0,0,0-11.5,3l-.8-2.4h0a.8.8,0,0,1,.2-.5A43.3,43.3,0,0,1,257.3,599.4Z"/>
    <path class="a" d="M267.3,601.2a1.3,1.3,0,0,0-.9,1.5l1.3,11a1.5,1.5,0,0,0,1.6,1.3h.2l12.6-2.9a1.5,1.5,0,0,0,1.1-1.8v-.2l-3.7-10.4a1.5,1.5,0,0,0-1.5-1,43.8,43.8,0,0,0-10.7,2.5"/>
    <path class="a" d="M277.4,594.9h0c.2,0,.4.1.4.3l.4,2.5a38.5,38.5,0,0,0-11.5,2.7L266,598h0a.4.4,0,0,1,.2-.5A38.9,38.9,0,0,1,277.4,594.9Z"/>
    <path class="a" d="M287.3,596.9a1.5,1.5,0,0,0-1,1.5l1.1,11a1.6,1.6,0,0,0,1.6,1.4h.2l12.7-2.7a1.5,1.5,0,0,0,1.1-1.7c0-.1,0-.2-.1-.2l-3.4-10.6a1.3,1.3,0,0,0-1.5-.9,40,40,0,0,0-10.7,2.2"/>
    <path class="a" d="M297.5,590.8h0a.4.4,0,0,1,.4.4l.4,2.4a42.9,42.9,0,0,0-11.7,2.5l-.6-2.5h0c0-.2.1-.4.3-.4A43.1,43.1,0,0,1,297.5,590.8Z"/>
    <path class="a" d="M307.4,593.1a1.5,1.5,0,0,0-1,1.4l.8,11.1a1.5,1.5,0,0,0,1.5,1.4h.2l12.8-2.4a1.3,1.3,0,0,0,1.1-1.7v-.2l-3.2-10.6a1.4,1.4,0,0,0-1.5-1,39.6,39.6,0,0,0-10.7,2"/>
    <path class="a" d="M317.7,587.2h0a.4.4,0,0,1,.4.4l.3,2.5a39.5,39.5,0,0,0-11.7,2.1l-.5-2.4h0a.4.4,0,0,1,.2-.5A44.2,44.2,0,0,1,317.7,587.2Z"/>
    <path class="a" d="M450.5,579a1.6,1.6,0,0,0-1.3,1.3l-1,11.1a1.5,1.5,0,0,0,1.3,1.6h.2l12.9-.2a1.5,1.5,0,0,0,1.5-1.5v-.2l-1.4-11a1.3,1.3,0,0,0-1.2-1.2,39.8,39.8,0,0,0-10.9.1"/>
    <path class="a" d="M461.6,575h0c.2,0,.3.2.3.4v2.5a42.4,42.4,0,0,0-11.8.2l-.2-2.5h0c0-.2.1-.4.3-.4A40.3,40.3,0,0,1,461.6,575Z"/>
    <path class="a" d="M429.6,579.6a1.5,1.5,0,0,0-1.2,1.4l-.8,11a1.5,1.5,0,0,0,1.3,1.6h.2l12.9-.5a1.5,1.5,0,0,0,1.5-1.5c0-.1-.1-.1-.1-.2l-1.6-11a1.6,1.6,0,0,0-1.3-1.2,44.1,44.1,0,0,0-10.9.4"/>
    <path class="a" d="M440.6,575.3h0a.5.5,0,0,1,.3.5v2.4a43.4,43.4,0,0,0-11.9.5l-.2-2.5h0c0-.2.1-.4.3-.4A44.4,44.4,0,0,1,440.6,575.3Z"/>
    <path class="a" d="M408.7,580.8a1.4,1.4,0,0,0-1.2,1.3l-.5,11.1a1.5,1.5,0,0,0,1.4,1.6h.2l12.9-.9a1.5,1.5,0,0,0,1.4-1.5c0-.1,0-.2-.1-.2l-1.9-11a1.4,1.4,0,0,0-1.3-1.1,36.2,36.2,0,0,0-10.9.7"/>
    <path class="a" d="M419.6,576.2h0c.2,0,.4.2.3.4v2.5a39.6,39.6,0,0,0-11.9.8l-.2-2.5h0c-.1-.2.1-.4.3-.5A43.5,43.5,0,0,1,419.6,576.2Z"/>
    <path class="a" d="M387.8,582.4a1.4,1.4,0,0,0-1.1,1.4l-.2,11.1a1.4,1.4,0,0,0,1.4,1.5h.2l12.9-1.2a1.4,1.4,0,0,0,1.3-1.6h0l-2.2-10.9a1.6,1.6,0,0,0-1.4-1.2,44.7,44.7,0,0,0-10.9,1"/>
    <path class="a" d="M398.6,577.6h0c.3,0,.4.1.4.4v2.4a42.6,42.6,0,0,0-11.8,1.1l-.4-2.5h0c0-.2.1-.4.3-.4A40,40,0,0,1,398.6,577.6Z"/>
    <path class="a" d="M440.7,537.6a1.5,1.5,0,0,0-1.3,1.3l-.9,11a1.4,1.4,0,0,0,1.3,1.6h.2l12.9-.4a1.5,1.5,0,0,0,1.5-1.5v-.2l-1.5-11a1.6,1.6,0,0,0-1.3-1.2,39.7,39.7,0,0,0-10.9.3"/>
    <path class="a" d="M451.7,533.4h.1a.5.5,0,0,1,.3.5v2.4a46.6,46.6,0,0,0-11.8.3l-.2-2.4h0c-.1-.3.1-.4.3-.5A43.6,43.6,0,0,1,451.7,533.4Z"/>
    <path class="a" d="M420.8,538.3a1.7,1.7,0,0,0-1.2,1.4l-.7,11a1.5,1.5,0,0,0,1.4,1.6h.2l12.9-.6a1.5,1.5,0,0,0,1.4-1.5V550l-1.7-11a1.7,1.7,0,0,0-1.4-1.2,44.3,44.3,0,0,0-10.9.5"/>
    <path class="a" d="M431.8,534h0a.4.4,0,0,1,.4.4v2.5a43.1,43.1,0,0,0-11.9.5l-.2-2.5h0c-.1-.2.1-.4.3-.4A39.7,39.7,0,0,1,431.8,534Z"/>
    <path class="a" d="M401,539.5a1.5,1.5,0,0,0-1.1,1.4l-.5,11.1a1.4,1.4,0,0,0,1.4,1.5h.2l12.9-.9a1.5,1.5,0,0,0,1.4-1.5.3.3,0,0,0-.1-.2L413.3,540a1.5,1.5,0,0,0-1.4-1.2,40,40,0,0,0-10.9.7"/>
    <path class="a" d="M411.9,534.9h0a.4.4,0,0,1,.4.4v2.5a42.7,42.7,0,0,0-11.8.8l-.3-2.4h0c0-.2.1-.4.3-.4A43.5,43.5,0,0,1,411.9,534.9Z"/>
    <path class="a" d="M381.2,541.2a1.4,1.4,0,0,0-1.1,1.3l-.2,11.1a1.6,1.6,0,0,0,1.4,1.6h.2l12.9-1.1a1.5,1.5,0,0,0,1.3-1.6v-.2l-2.2-10.9a1.5,1.5,0,0,0-1.4-1.1,36.7,36.7,0,0,0-10.9,1"/>
    <path class="a" d="M392,536.3h0a.4.4,0,0,1,.4.4v2.5a39.1,39.1,0,0,0-11.8,1.1l-.4-2.5h0a.5.5,0,0,1,.3-.5A44,44,0,0,1,392,536.3Z"/>
    <path class="a" d="M440.1,495.9a1.6,1.6,0,0,0-1.3,1.3l-.9,11.1a1.5,1.5,0,0,0,1.3,1.6h.2l12.9-.3a1.5,1.5,0,0,0,1.5-1.5v-.2l-1.5-11a1.4,1.4,0,0,0-1.3-1.2,39.8,39.8,0,0,0-10.9.2"/>
    <path class="a" d="M451.2,491.8h0c.2,0,.3.2.3.4v2.5a39.5,39.5,0,0,0-11.9.3l-.2-2.5h0c0-.2.1-.4.3-.4A44.3,44.3,0,0,1,451.2,491.8Z"/>
    <path class="a" d="M419,496.7a1.6,1.6,0,0,0-1.2,1.3l-.7,11.1a1.5,1.5,0,0,0,1.3,1.6h.2l13-.6a1.5,1.5,0,0,0,1.4-1.5c0-.1,0-.2-.1-.2l-1.7-11a1.5,1.5,0,0,0-1.3-1.2,44.3,44.3,0,0,0-10.9.5"/>
    <path class="a" d="M430,492.3h0c.2.1.4.3.3.5v2.4a43.1,43.1,0,0,0-11.9.6l-.2-2.5h0c-.1-.2.1-.4.3-.4A43.5,43.5,0,0,1,430,492.3Z"/>
    <path class="a" d="M398,498a1.4,1.4,0,0,0-1.2,1.3l-.5,11.1a1.6,1.6,0,0,0,1.4,1.6h.2l12.9-.9a1.6,1.6,0,0,0,1.4-1.6v-.2l-2-10.9a1.6,1.6,0,0,0-1.4-1.2,43.4,43.4,0,0,0-10.8.8"/>
    <path class="a" d="M408.9,493.4h0c.2,0,.3.2.3.4v2.5a39.6,39.6,0,0,0-11.9.8l-.3-2.5h0a.5.5,0,0,1,.3-.5A44.2,44.2,0,0,1,408.9,493.4Z"/>
    <path class="a" d="M376.9,499.7a1.5,1.5,0,0,0-1.1,1.4l-.2,11.1a1.4,1.4,0,0,0,1.4,1.5h.2l12.9-1.2a1.4,1.4,0,0,0,1.3-1.6h0l-2.2-10.9a1.6,1.6,0,0,0-1.4-1.2,44.7,44.7,0,0,0-10.9,1"/>
    <path class="a" d="M387.7,494.9h0a.4.4,0,0,1,.4.4v2.4a42.2,42.2,0,0,0-11.8,1.1l-.4-2.4h0c0-.3.1-.5.3-.5A40,40,0,0,1,387.7,494.9Z"/>
    <path class="a" d="M452.4,454a1.5,1.5,0,0,0-1.2,1.3l-1.1,11a1.5,1.5,0,0,0,1.2,1.7h.2l13-.2a1.3,1.3,0,0,0,1.4-1.4v-.2l-1.3-11.1a1.5,1.5,0,0,0-1.3-1.2,39.8,39.8,0,0,0-10.9.1"/>
    <path class="a" d="M463.6,450h0a.5.5,0,0,1,.3.5v2.4a43.2,43.2,0,0,0-11.9.2v-2.5h0a.5.5,0,0,1,.3-.5A44.3,44.3,0,0,1,463.6,450Z"/>
    <path class="a" d="M432,454.5a1.3,1.3,0,0,0-1.2,1.3l-.9,11a1.5,1.5,0,0,0,1.3,1.7h.2l12.9-.4a1.6,1.6,0,0,0,1.5-1.5.3.3,0,0,0-.1-.2l-1.5-11a1.4,1.4,0,0,0-1.3-1.2,39.8,39.8,0,0,0-10.9.3"/>
    <path class="a" d="M443,450.3h0a.4.4,0,0,1,.4.4v2.5a39,39,0,0,0-11.8.4l-.2-2.5h0c-.1-.2.1-.4.3-.5A43.6,43.6,0,0,1,443,450.3Z"/>
    <path class="a" d="M411.6,455.4a1.4,1.4,0,0,0-1.2,1.3l-.7,11.1a1.5,1.5,0,0,0,1.3,1.6h.2l13-.7a1.5,1.5,0,0,0,1.4-1.5V467l-1.7-11a1.6,1.6,0,0,0-1.3-1.2,39.5,39.5,0,0,0-10.9.6"/>
    <path class="a" d="M422.5,451h0a.4.4,0,0,1,.4.4v2.5a39.5,39.5,0,0,0-11.9.6l-.2-2.5h0c-.1-.2.1-.4.3-.5A39.7,39.7,0,0,1,422.5,451Z"/>
    <path class="a" d="M391.1,456.7a1.4,1.4,0,0,0-1.1,1.4l-.5,11.1a1.5,1.5,0,0,0,1.4,1.5h.2l12.9-.9a1.5,1.5,0,0,0,1.4-1.6V468l-2-10.9a1.7,1.7,0,0,0-1.4-1.2,44.5,44.5,0,0,0-10.9.8"/>
    <path class="a" d="M402,452.1h0a.4.4,0,0,1,.4.4V455a42.7,42.7,0,0,0-11.8.8l-.3-2.5h0c0-.2.1-.4.3-.4A39.9,39.9,0,0,1,402,452.1Z"/>
    <path class="a" d="M370.8,458.5a1.5,1.5,0,0,0-1.2,1.3l-.2,11.1a1.6,1.6,0,0,0,1.4,1.6c.1,0,.2,0,.2-.1l12.9-1.1a1.6,1.6,0,0,0,1.4-1.6v-.2L383,458.6a1.4,1.4,0,0,0-1.4-1.1,35.7,35.7,0,0,0-10.8,1"/>
    <path class="a" d="M381.6,453.6h0c.2,0,.3.2.3.4v2.5a39.4,39.4,0,0,0-11.8,1.1l-.3-2.5h0a.4.4,0,0,1,.2-.5A44.4,44.4,0,0,1,381.6,453.6Z"/>
    <path class="a" d="M442.1,412.5a1.5,1.5,0,0,0-1.2,1.3l-1,11.1a1.5,1.5,0,0,0,1.3,1.6h.2l12.9-.2a1.6,1.6,0,0,0,1.5-1.5c0-.1,0-.2-.1-.2l-1.4-11a1.5,1.5,0,0,0-1.3-1.3,44.2,44.2,0,0,0-10.9.2"/>
    <path class="a" d="M453.2,408.5h.1c.2,0,.3.2.3.4v2.5a39.6,39.6,0,0,0-11.9.2v-2.5h0c-.1-.2.1-.4.3-.4A39.6,39.6,0,0,1,453.2,408.5Z"/>
    <path class="a" d="M422.6,413.1a1.7,1.7,0,0,0-1.2,1.4l-.8,11a1.5,1.5,0,0,0,1.3,1.6h.2l13-.5a1.5,1.5,0,0,0,1.4-1.5v-.2L434.9,414a1.7,1.7,0,0,0-1.4-1.3,44.3,44.3,0,0,0-10.9.4"/>
    <path class="a" d="M433.7,408.9h0c.2,0,.3.2.3.4v2.5a43.1,43.1,0,0,0-11.9.4l-.2-2.5h0c0-.2.1-.4.3-.4A40.4,40.4,0,0,1,433.7,408.9Z"/>
    <path class="a" d="M403.2,414.1a1.5,1.5,0,0,0-1.2,1.4l-.6,11.1a1.3,1.3,0,0,0,1.3,1.5h.2l13-.7a1.3,1.3,0,0,0,1.3-1.5v-.2l-1.8-11a1.6,1.6,0,0,0-1.3-1.2,44.1,44.1,0,0,0-10.9.6"/>
    <path class="a" d="M414.1,409.7h0a.4.4,0,0,1,.4.4v2.5a39.5,39.5,0,0,0-11.9.6l-.2-2.5h0c-.1-.2.1-.4.3-.4A43.5,43.5,0,0,1,414.1,409.7Z"/>
    <path class="a" d="M383.7,415.5a1.4,1.4,0,0,0-1.1,1.4l-.4,11a1.4,1.4,0,0,0,1.3,1.6h.2l13-1A1.3,1.3,0,0,0,398,427v-.2l-2.1-10.9a1.3,1.3,0,0,0-1.3-1.2,39.8,39.8,0,0,0-10.9.8"/>
    <path class="a" d="M394.6,410.8h0c.2,0,.3.2.3.4v2.5a38.8,38.8,0,0,0-11.8.9l-.3-2.5h0c-.1-.2,0-.4.3-.4A43.2,43.2,0,0,1,394.6,410.8Z"/>
    <path class="a" d="M364.3,417.2a1.4,1.4,0,0,0-1.1,1.4l-.2,11.1a1.4,1.4,0,0,0,1.4,1.5h.2l12.9-1.2a1.5,1.5,0,0,0,1.3-1.6v-.2l-2.3-10.8a1.4,1.4,0,0,0-1.3-1.2,43.8,43.8,0,0,0-10.9,1"/>
    <path class="a" d="M375.1,412.3h0c.2.1.3.2.3.4l.2,2.5a43.3,43.3,0,0,0-11.9,1.1l-.3-2.4h0c-.1-.2.1-.4.3-.5A43.3,43.3,0,0,1,375.1,412.3Z"/>
    <path class="a" d="M440.8,370.9a1.5,1.5,0,0,0-1.2,1.3l-1,11a1.4,1.4,0,0,0,1.3,1.6h.1l13-.2a1.4,1.4,0,0,0,1.4-1.5v-.2l-1.4-11a1.5,1.5,0,0,0-1.3-1.2,39.8,39.8,0,0,0-10.9.2"/>
    <path class="a" d="M451.9,366.8h0a.4.4,0,0,1,.4.4v2.5a43.1,43.1,0,0,0-11.9.2v-2.4h0c-.1-.3.1-.4.3-.5A43.5,43.5,0,0,1,451.9,366.8Z"/>
    <path class="a" d="M420.5,371.5a1.5,1.5,0,0,0-1.2,1.3l-.8,11.1a1.5,1.5,0,0,0,1.3,1.6h.2l12.9-.5a1.4,1.4,0,0,0,1.4-1.5v-.2l-1.6-10.9a1.6,1.6,0,0,0-1.3-1.3,44.3,44.3,0,0,0-10.9.4"/>
    <path class="a" d="M431.5,367.3h0a.4.4,0,0,1,.4.4v2.5a42.5,42.5,0,0,0-11.8.4l-.2-2.5h0c-.1-.2.1-.4.3-.4A39.5,39.5,0,0,1,431.5,367.3Z"/>
    <path class="a" d="M400.2,372.6a1.4,1.4,0,0,0-1.2,1.3l-.6,11.1a1.5,1.5,0,0,0,1.3,1.6h.2l13-.7a1.5,1.5,0,0,0,1.3-1.6v-.2l-1.8-10.9a1.4,1.4,0,0,0-1.3-1.2,39.5,39.5,0,0,0-10.9.6"/>
    <path class="a" d="M411.1,368.1h0a.4.4,0,0,1,.4.4V371a43.1,43.1,0,0,0-11.9.7l-.2-2.5h0c-.1-.2.1-.4.3-.5A43.5,43.5,0,0,1,411.1,368.1Z"/>
    <path class="a" d="M379.9,374a1.5,1.5,0,0,0-1.2,1.4l-.4,11.1a1.5,1.5,0,0,0,1.4,1.5h.2l12.9-1a1.5,1.5,0,0,0,1.4-1.5.3.3,0,0,0-.1-.2l-2-10.9a1.4,1.4,0,0,0-1.4-1.2,43.4,43.4,0,0,0-10.8.8"/>
    <path class="a" d="M390.7,369.3h0a.4.4,0,0,1,.4.4v2.5a47.4,47.4,0,0,0-11.9.9l-.3-2.5h0c0-.2.1-.4.3-.4A43.9,43.9,0,0,1,390.7,369.3Z"/>
    <path class="a" d="M359.6,375.8a1.4,1.4,0,0,0-1.1,1.4l-.2,11.1a1.4,1.4,0,0,0,1.4,1.5h.2l12.9-1.2a1.5,1.5,0,0,0,1.3-1.6v-.2L371.8,376a1.4,1.4,0,0,0-1.3-1.2,44.3,44.3,0,0,0-10.9,1"/>
    <path class="a" d="M370.4,370.9h0c.2.1.3.2.3.4l.2,2.5a43.3,43.3,0,0,0-11.9,1.1l-.3-2.4h0c-.1-.2.1-.4.3-.5A43.3,43.3,0,0,1,370.4,370.9Z"/>
    <path class="a" d="M452.9,329a1.5,1.5,0,0,0-1.2,1.3l-1.2,11a1.6,1.6,0,0,0,1.3,1.7h13.1a1.5,1.5,0,0,0,1.5-1.5v-.2l-1.3-11a1.5,1.5,0,0,0-1.3-1.3,44.2,44.2,0,0,0-10.9.1"/>
    <path class="a" d="M464.1,325.1h0c.2,0,.3.2.3.4V328a39.6,39.6,0,0,0-11.9.1v-2.5h0a.5.5,0,0,1,.3-.5A44.3,44.3,0,0,1,464.1,325.1Z"/>
    <path class="a" d="M433,329.4a1.5,1.5,0,0,0-1.2,1.3l-1,11.1a1.5,1.5,0,0,0,1.3,1.6h.2l13-.3a1.5,1.5,0,0,0,1.4-1.5v-.2l-1.5-11a1.3,1.3,0,0,0-1.3-1.2,39.8,39.8,0,0,0-10.9.2"/>
    <path class="a" d="M444.1,325.3h0a.4.4,0,0,1,.4.4v2.5a39.6,39.6,0,0,0-11.9.3V326h0c-.1-.2.1-.4.3-.4A39.6,39.6,0,0,1,444.1,325.3Z"/>
    <path class="a" d="M413.1,330.2a1.5,1.5,0,0,0-1.2,1.3l-.7,11.1a1.3,1.3,0,0,0,1.3,1.5h.2l12.9-.5a1.5,1.5,0,0,0,1.5-1.5c-.1-.1-.1-.1-.1-.2l-1.6-11a1.7,1.7,0,0,0-1.4-1.2,39.9,39.9,0,0,0-10.9.5"/>
    <path class="a" d="M424.2,325.8h0a.5.5,0,0,1,.3.5v2.4a43.1,43.1,0,0,0-11.9.5l-.2-2.4h0a.5.5,0,0,1,.3-.5A44.2,44.2,0,0,1,424.2,325.8Z"/>
    <path class="a" d="M393.3,331.3a1.4,1.4,0,0,0-1.2,1.3l-.6,11.1a1.6,1.6,0,0,0,1.4,1.6h.2l12.9-.8a1.5,1.5,0,0,0,1.4-1.5v-.2l-1.9-11a1.6,1.6,0,0,0-1.3-1.2,44.1,44.1,0,0,0-10.9.7"/>
    <path class="a" d="M404.2,326.8h0a.4.4,0,0,1,.4.4v2.5a39.6,39.6,0,0,0-11.9.7l-.2-2.5h0c-.1-.2.1-.4.3-.5A43.5,43.5,0,0,1,404.2,326.8Z"/>
    <path class="a" d="M373.4,332.7a1.5,1.5,0,0,0-1.1,1.4l-.4,11.1a1.5,1.5,0,0,0,1.4,1.5h.2l12.9-1a1.3,1.3,0,0,0,1.3-1.5V344l-2-10.9a1.5,1.5,0,0,0-1.4-1.2,44.5,44.5,0,0,0-10.9.8"/>
    <path class="a" d="M384.3,328h0c.2,0,.4.2.3.4v2.5a46.7,46.7,0,0,0-11.8.9l-.3-2.4h0c-.1-.2.1-.4.3-.5A43.6,43.6,0,0,1,384.3,328Z"/>
    <path class="a" d="M353.6,334.6a1.4,1.4,0,0,0-1.1,1.3l-.2,11.1a1.6,1.6,0,0,0,1.4,1.6h.2l12.9-1.2a1.5,1.5,0,0,0,1.3-1.6v-.2l-2.3-10.8a1.5,1.5,0,0,0-1.3-1.2,40,40,0,0,0-10.9,1.1"/>
    <path class="a" d="M364.4,329.7h0c.2,0,.4.2.3.4l.2,2.4a43.4,43.4,0,0,0-11.9,1.2l-.3-2.5h0c-.1-.2.1-.4.3-.5A43.3,43.3,0,0,1,364.4,329.7Z"/>
    <path class="a" d="M453,287.3a1.6,1.6,0,0,0-1.2,1.3l-1.2,11a1.6,1.6,0,0,0,1.3,1.7H465a1.4,1.4,0,0,0,1.5-1.4v-.2l-1.3-11.1a1.5,1.5,0,0,0-1.2-1.2,40.5,40.5,0,0,0-11,0"/>
    <path class="a" d="M464.2,283.4h0c.2.1.4.2.3.5v2.4a43.2,43.2,0,0,0-11.9.1v-2.5h0a.4.4,0,0,1,.4-.4A39.6,39.6,0,0,1,464.2,283.4Z"/>
    <path class="a" d="M432.2,287.8A1.3,1.3,0,0,0,431,289l-1,11.1a1.5,1.5,0,0,0,1.3,1.6h.2l12.9-.3a1.5,1.5,0,0,0,1.5-1.5v-.2l-1.5-11a1.5,1.5,0,0,0-1.3-1.2,39.8,39.8,0,0,0-10.9.3"/>
    <path class="a" d="M443.3,283.6h0c.2.1.4.3.3.5v2.4a47.3,47.3,0,0,0-11.9.3l-.2-2.5h0c0-.2.1-.4.3-.4A44.3,44.3,0,0,1,443.3,283.6Z"/>
    <path class="a" d="M411.4,288.5a1.5,1.5,0,0,0-1.2,1.4l-.8,11a1.5,1.5,0,0,0,1.3,1.6h.2l13-.5a1.5,1.5,0,0,0,1.4-1.5c0-.1,0-.2-.1-.2l-1.6-11a1.6,1.6,0,0,0-1.3-1.2,44.1,44.1,0,0,0-10.9.4"/>
    <path class="a" d="M422.4,284.2h0c.2.1.3.2.3.4v2.5a43.4,43.4,0,0,0-11.9.5l-.2-2.5h0c0-.2.1-.4.3-.4A44.4,44.4,0,0,1,422.4,284.2Z"/>
    <path class="a" d="M390.6,289.7a1.4,1.4,0,0,0-1.2,1.3l-.6,11.1a1.5,1.5,0,0,0,1.4,1.6h.1l13-.8a1.5,1.5,0,0,0,1.4-1.5v-.2l-1.8-10.9a1.4,1.4,0,0,0-1.4-1.2,39,39,0,0,0-10.8.6"/>
    <path class="a" d="M401.5,285.2h0c.2,0,.4.2.3.4v2.5a43.1,43.1,0,0,0-11.9.7l-.2-2.5h0c-.1-.2.1-.4.3-.4A39.6,39.6,0,0,1,401.5,285.2Z"/>
    <path class="a" d="M369.8,291.2a1.5,1.5,0,0,0-1.2,1.4l-.4,11.1a1.5,1.5,0,0,0,1.4,1.5h.2l12.9-1a1.5,1.5,0,0,0,1.4-1.5v-.2L382,291.6a1.5,1.5,0,0,0-1.4-1.2,43.4,43.4,0,0,0-10.8.8"/>
    <path class="a" d="M380.6,286.5h0c.2.1.4.2.4.4v2.5a47.4,47.4,0,0,0-11.9.9l-.3-2.4h0a.5.5,0,0,1,.3-.5A43.9,43.9,0,0,1,380.6,286.5Z"/>
    <path class="a" d="M349,293.2a1.4,1.4,0,0,0-1.1,1.3l-.2,11.1a1.5,1.5,0,0,0,1.4,1.5h.2l12.9-1.2a1.5,1.5,0,0,0,1.3-1.6v-.2l-2.3-10.8a1.5,1.5,0,0,0-1.3-1.2,40,40,0,0,0-10.9,1.1"/>
    <path class="a" d="M359.8,288.3h0c.2,0,.4.1.3.4l.2,2.4a39.8,39.8,0,0,0-11.9,1.2l-.3-2.5h0c-.1-.2.1-.4.3-.5A43.3,43.3,0,0,1,359.8,288.3Z"/>
    <path class="a" d="M452,245.7a1.5,1.5,0,0,0-1.3,1.3l-1.1,11a1.4,1.4,0,0,0,1.2,1.6H464a1.5,1.5,0,0,0,1.4-1.5v-.2l-1.2-11a1.6,1.6,0,0,0-1.3-1.3,44.2,44.2,0,0,0-10.9.1"/>
    <path class="a" d="M463.1,241.8h.1c.2,0,.3.2.3.4v2.5a43.1,43.1,0,0,0-11.9,0v-2.4h0c-.1-.3.1-.4.3-.5A43.5,43.5,0,0,1,463.1,241.8Z"/>
    <path class="a" d="M430.4,246.1a1.4,1.4,0,0,0-1.2,1.3l-1,11.1a1.5,1.5,0,0,0,1.3,1.6h.2l12.9-.3a1.5,1.5,0,0,0,1.5-1.5v-.2l-1.5-11a1.5,1.5,0,0,0-1.3-1.2,44.2,44.2,0,0,0-10.9.2"/>
    <path class="a" d="M441.5,242h0c.2,0,.3.2.3.4v2.5a39.5,39.5,0,0,0-11.9.3l-.2-2.5h0c0-.2.1-.4.3-.4A44.3,44.3,0,0,1,441.5,242Z"/>
    <path class="a" d="M408.8,247a1.5,1.5,0,0,0-1.2,1.3l-.8,11a1.5,1.5,0,0,0,1.4,1.6h.2l12.9-.5a1.5,1.5,0,0,0,1.4-1.5v-.2l-1.7-11a1.5,1.5,0,0,0-1.3-1.2,39.9,39.9,0,0,0-10.9.5"/>
    <path class="a" d="M419.8,242.6h0a.7.7,0,0,1,.4.5v2.4a43.1,43.1,0,0,0-11.9.5l-.2-2.4h0c-.1-.2.1-.4.3-.4A43.6,43.6,0,0,1,419.8,242.6Z"/>
    <path class="a" d="M387.3,248.2a1.3,1.3,0,0,0-1.2,1.3l-.6,11.1a1.5,1.5,0,0,0,1.4,1.6h.1l13-.8a1.5,1.5,0,0,0,1.4-1.5c0-.1,0-.2-.1-.2l-1.8-11a1.6,1.6,0,0,0-1.4-1.2,43.3,43.3,0,0,0-10.8.7"/>
    <path class="a" d="M398.2,243.7h0c.2,0,.4.2.3.4v2.5a39.6,39.6,0,0,0-11.9.7l-.2-2.5h0c-.1-.2.1-.4.3-.5A43.5,43.5,0,0,1,398.2,243.7Z"/>
    <path class="a" d="M367,584.5a1.6,1.6,0,0,0-1.1,1.4V597a1.4,1.4,0,0,0,1.4,1.5h.2l12.9-1.5a1.4,1.4,0,0,0,1.3-1.6.3.3,0,0,0-.1-.2l-2.4-10.8a1.5,1.5,0,0,0-1.4-1.1,40.1,40.1,0,0,0-10.9,1.2"/>
    <path class="a" d="M377.7,579.4h0a.4.4,0,0,1,.4.4l.2,2.5a42.3,42.3,0,0,0-11.8,1.3l-.4-2.4h0a.4.4,0,0,1,.2-.5A44.4,44.4,0,0,1,377.7,579.4Z"/>
    <path class="a" d="M361.5,543.2a1.6,1.6,0,0,0-1.1,1.4v11.1a1.5,1.5,0,0,0,1.5,1.5h.2l12.8-1.5a1.4,1.4,0,0,0,1.3-1.6v-.2l-2.5-10.8a1.4,1.4,0,0,0-1.3-1.1,40.1,40.1,0,0,0-10.9,1.2"/>
    <path class="a" d="M372.2,538.1h0a.4.4,0,0,1,.4.4V541a43.2,43.2,0,0,0-11.8,1.3l-.4-2.4h0a.5.5,0,0,1,.3-.5A43.9,43.9,0,0,1,372.2,538.1Z"/>
    <path class="a" d="M356,501.9a1.5,1.5,0,0,0-1.1,1.4v11.1a1.5,1.5,0,0,0,1.4,1.5h.2l12.9-1.5a1.4,1.4,0,0,0,1.3-1.6v-.2l-2.5-10.8a1.5,1.5,0,0,0-1.4-1.1,39.4,39.4,0,0,0-10.8,1.2"/>
    <path class="a" d="M366.7,496.8h0c.2,0,.3.2.3.4l.2,2.5a42.3,42.3,0,0,0-11.8,1.3l-.4-2.4h0c-.1-.2.1-.4.3-.5A43.4,43.4,0,0,1,366.7,496.8Z"/>
    <path class="a" d="M350.4,460.6a1.6,1.6,0,0,0-1.1,1.4v11.1a1.4,1.4,0,0,0,1.4,1.5h.2l12.9-1.5a1.5,1.5,0,0,0,1.3-1.6c-.1,0-.1-.1-.1-.2l-2.4-10.8a1.6,1.6,0,0,0-1.4-1.1,40.1,40.1,0,0,0-10.9,1.2"/>
    <path class="a" d="M361.1,455.5h0a.4.4,0,0,1,.4.4l.2,2.5a43.5,43.5,0,0,0-11.9,1.3l-.3-2.4h0a.4.4,0,0,1,.2-.5A44.4,44.4,0,0,1,361.1,455.5Z"/>
    <path class="a" d="M344.9,419.3a1.6,1.6,0,0,0-1.1,1.4v11.1a1.5,1.5,0,0,0,1.5,1.5h.1l12.9-1.4a1.6,1.6,0,0,0,1.3-1.7V430l-2.5-10.8a1.4,1.4,0,0,0-1.4-1.1,39.4,39.4,0,0,0-10.8,1.2"/>
    <path class="a" d="M355.6,414.2h0c.2,0,.4.2.3.4l.2,2.5a42.7,42.7,0,0,0-11.8,1.3l-.4-2.4h0a.5.5,0,0,1,.3-.5A43.4,43.4,0,0,1,355.6,414.2Z"/>
    <path class="a" d="M339.4,378a1.5,1.5,0,0,0-1.1,1.4v11.1a1.5,1.5,0,0,0,1.4,1.5h.2l12.9-1.4a1.6,1.6,0,0,0,1.3-1.7v-.2l-2.4-10.8a1.5,1.5,0,0,0-1.4-1.1,39.4,39.4,0,0,0-10.8,1.2"/>
    <path class="a" d="M350,372.9h0a.4.4,0,0,1,.4.4l.2,2.5a42.3,42.3,0,0,0-11.8,1.3l-.4-2.4h0c-.1-.2.1-.4.3-.5A43.1,43.1,0,0,1,350,372.9Z"/>
    <path class="a" d="M333.8,336.7a1.6,1.6,0,0,0-1.1,1.4v11.1a1.5,1.5,0,0,0,1.5,1.5h.2l12.9-1.4a1.5,1.5,0,0,0,1.2-1.7v-.2l-2.4-10.8a1.6,1.6,0,0,0-1.4-1.1,40.1,40.1,0,0,0-10.9,1.2"/>
    <path class="a" d="M344.5,331.6h0a.4.4,0,0,1,.4.4v2.5a43.2,43.2,0,0,0-11.8,1.3l-.4-2.4h0a.5.5,0,0,1,.3-.5A48.6,48.6,0,0,1,344.5,331.6Z"/>
    <path class="a" d="M328.3,295.4a1.5,1.5,0,0,0-1.1,1.4v11.1a1.5,1.5,0,0,0,1.4,1.5h.2l12.9-1.4a1.6,1.6,0,0,0,1.3-1.7h0l-2.5-10.9a1.4,1.4,0,0,0-1.4-1.1,39.4,39.4,0,0,0-10.8,1.2"/>
    <path class="a" d="M339,290.3h0c.2.1.3.2.3.4l.2,2.5a39.3,39.3,0,0,0-11.8,1.4l-.4-2.5h0a.5.5,0,0,1,.3-.5A48,48,0,0,1,339,290.3Z"/>
    <path class="a" d="M472.8,578.9a39.8,39.8,0,0,1,10.9.3,1.3,1.3,0,0,1,1.2,1.3l1,11v.2a1.5,1.5,0,0,1-1.5,1.5l-13-.4h-.2a1.5,1.5,0,0,1-1.2-1.7l1.5-11a1.6,1.6,0,0,1,1.3-1.2"/>
    <path class="a" d="M472.6,575a.5.5,0,0,0-.3.5h0v2.4a43.1,43.1,0,0,1,11.9.4l.2-2.5a.5.5,0,0,0-.3-.5h0A44.2,44.2,0,0,0,472.6,575Z"/>
    <path class="a" d="M493.7,579.5a39.9,39.9,0,0,1,10.9.5,1.5,1.5,0,0,1,1.2,1.3l.7,11.1v.2a1.6,1.6,0,0,1-1.6,1.4l-12.9-.6h-.2a1.5,1.5,0,0,1-1.2-1.7l1.8-10.9a1.3,1.3,0,0,1,1.3-1.2"/>
    <path class="a" d="M493.6,575.6c-.2,0-.3.2-.3.4h0v2.5a39.1,39.1,0,0,1,11.8.6l.3-2.5c0-.2-.1-.4-.3-.4h0A44.2,44.2,0,0,0,493.6,575.6Z"/>
    <path class="a" d="M514.6,580.5a44.5,44.5,0,0,1,10.9.8,1.5,1.5,0,0,1,1.1,1.4l.4,11.1v.2a1.3,1.3,0,0,1-1.5,1.3l-13-.9h-.2a1.3,1.3,0,0,1-1.1-1.7l2-10.9a1.6,1.6,0,0,1,1.4-1.2"/>
    <path class="a" d="M514.6,576.7a.4.4,0,0,0-.4.4h0v2.4a47,47,0,0,1,11.8.9l.3-2.4c.1-.2-.1-.4-.3-.5h0A39.6,39.6,0,0,0,514.6,576.7Z"/>
    <path class="a" d="M535.4,582.1a40,40,0,0,1,10.9,1.1,1.4,1.4,0,0,1,1.1,1.3l.2,11.1v.2a1.6,1.6,0,0,1-1.6,1.4l-13-1.3h-.1a1.5,1.5,0,0,1-1.1-1.8l2.3-10.9a1.4,1.4,0,0,1,1.3-1.1"/>
    <path class="a" d="M535.5,578.2c-.2,0-.3.2-.3.4h0l-.2,2.5a39.8,39.8,0,0,1,11.9,1.2l.3-2.5c.1-.2,0-.4-.3-.5h0A48,48,0,0,0,535.5,578.2Z"/>
    <path class="a" d="M463.2,537.2a39.8,39.8,0,0,1,10.9.1,1.5,1.5,0,0,1,1.2,1.3l1.1,11v.2a1.5,1.5,0,0,1-1.5,1.5l-12.9-.2h-.2a1.6,1.6,0,0,1-1.3-1.7l1.4-11a1.5,1.5,0,0,1,1.3-1.2"/>
    <path class="a" d="M462.9,533.3c-.2,0-.3.2-.3.4h0v2.5a43.2,43.2,0,0,1,11.9.2v-2.5c.1-.2-.1-.4-.3-.4h0A40.2,40.2,0,0,0,462.9,533.3Z"/>
    <path class="a" d="M483,537.5a39.8,39.8,0,0,1,10.9.3,1.4,1.4,0,0,1,1.2,1.3l.9,11.1v.2a1.5,1.5,0,0,1-1.5,1.4l-13-.4h-.2a1.4,1.4,0,0,1-1.2-1.6l1.6-11a1.4,1.4,0,0,1,1.3-1.2"/>
    <path class="a" d="M482.9,533.6a.4.4,0,0,0-.4.4h0v2.5a42.5,42.5,0,0,1,11.8.4l.2-2.5c.1-.2-.1-.4-.3-.4h0A39.7,39.7,0,0,0,482.9,533.6Z"/>
    <path class="a" d="M502.8,538.2a39.5,39.5,0,0,1,10.9.6,1.4,1.4,0,0,1,1.2,1.3l.6,11.1v.2a1.5,1.5,0,0,1-1.5,1.4l-13-.8h-.2a1.3,1.3,0,0,1-1.1-1.7l1.8-10.9a1.4,1.4,0,0,1,1.3-1.2"/>
    <path class="a" d="M502.8,534.3a.4.4,0,0,0-.4.4h0v2.5a43.1,43.1,0,0,1,11.9.7l.2-2.5c.1-.2-.1-.4-.3-.4h0A39.6,39.6,0,0,0,502.8,534.3Z"/>
    <path class="a" d="M522.7,539.3a39.1,39.1,0,0,1,10.8.9,1.4,1.4,0,0,1,1.2,1.3l.3,11.1v.2a1.5,1.5,0,0,1-1.5,1.4l-13-1c0-.1-.1-.1-.2-.1a1.4,1.4,0,0,1-1.1-1.7l2.1-10.9a1.5,1.5,0,0,1,1.4-1.2"/>
    <path class="a" d="M522.7,535.5a.4.4,0,0,0-.4.4h0v2.4a43.2,43.2,0,0,1,11.9,1l.3-2.5c0-.2-.1-.4-.3-.4h0A36.4,36.4,0,0,0,522.7,535.5Z"/>
    <path class="a" d="M542.4,540.9a44.4,44.4,0,0,1,10.9,1.1,1.5,1.5,0,0,1,1.1,1.4v11.3a1.5,1.5,0,0,1-1.6,1.3L540,554.7h-.2a1.6,1.6,0,0,1-1.1-1.8l2.4-10.9a1.4,1.4,0,0,1,1.3-1.1"/>
    <path class="a" d="M542.6,537a.4.4,0,0,0-.4.4h0l-.2,2.5a39.8,39.8,0,0,1,11.9,1.2l.3-2.5c.1-.2,0-.4-.2-.4h0A44.2,44.2,0,0,0,542.6,537Z"/>
    <path class="a" d="M462.9,495.5a44.2,44.2,0,0,1,10.9.1,1.6,1.6,0,0,1,1.3,1.3l1.1,11.1v.2a1.5,1.5,0,0,1-1.5,1.4H461.5a1.4,1.4,0,0,1-1.2-1.6l1.4-11a1.4,1.4,0,0,1,1.2-1.3"/>
    <path class="a" d="M462.7,491.7c-.2,0-.4.2-.3.4h0v2.5a39.5,39.5,0,0,1,11.9.1l.2-2.5c0-.2-.1-.4-.3-.4h-.1A39.6,39.6,0,0,0,462.7,491.7Z"/>
    <path class="a" d="M484,495.8a44.3,44.3,0,0,1,10.9.4,1.3,1.3,0,0,1,1.2,1.3l.9,11.1h0a1.5,1.5,0,0,1-1.5,1.5l-13-.5h-.2a1.5,1.5,0,0,1-1.2-1.7l1.6-11a1.5,1.5,0,0,1,1.3-1.2"/>
    <path class="a" d="M483.9,491.9a.7.7,0,0,0-.4.5h0v2.5a39,39,0,0,1,11.8.4l.2-2.5c.1-.2-.1-.4-.3-.5h0A48.4,48.4,0,0,0,483.9,491.9Z"/>
    <path class="a" d="M505.1,496.6a40,40,0,0,1,10.9.6,1.6,1.6,0,0,1,1.2,1.3l.6,11.1v.2a1.6,1.6,0,0,1-1.6,1.4l-12.9-.7h-.2a1.5,1.5,0,0,1-1.2-1.7l1.9-10.9a1.3,1.3,0,0,1,1.3-1.2"/>
    <path class="a" d="M505,492.7c-.2,0-.3.2-.3.4h0v2.5a43.1,43.1,0,0,1,11.9.7l.3-2.5c0-.2-.1-.4-.3-.4h0A44.5,44.5,0,0,0,505,492.7Z"/>
    <path class="a" d="M526.1,497.8a39.9,39.9,0,0,1,10.9.9,1.5,1.5,0,0,1,1.2,1.3l.3,11.1v.2a1.5,1.5,0,0,1-1.6,1.4L524,511.6h-.2a1.3,1.3,0,0,1-1.1-1.7l2.1-10.9a1.5,1.5,0,0,1,1.3-1.2"/>
    <path class="a" d="M526.2,493.9c-.2.1-.4.2-.4.4h0v2.4a43.2,43.2,0,0,1,11.9,1l.3-2.5a.5.5,0,0,0-.3-.5h0A43.9,43.9,0,0,0,526.2,493.9Z"/>
    <path class="a" d="M547.1,499.5a44.4,44.4,0,0,1,10.9,1.1,1.5,1.5,0,0,1,1.1,1.4v11.3a1.4,1.4,0,0,1-1.6,1.3l-12.9-1.3h-.2a1.5,1.5,0,0,1-1-1.8l2.3-10.9a1.4,1.4,0,0,1,1.3-1.1"/>
    <path class="a" d="M547.3,495.6c-.2.1-.4.2-.4.4h0v2.5a47.3,47.3,0,0,1,11.8,1.2l.3-2.4c.1-.3,0-.5-.2-.5h0A44.2,44.2,0,0,0,547.3,495.6Z"/>
    <path class="a" d="M472.1,453.9a39.8,39.8,0,0,1,10.9.3,1.5,1.5,0,0,1,1.2,1.2l1,11.1v.2a1.5,1.5,0,0,1-1.5,1.4l-12.9-.2h-.2a1.6,1.6,0,0,1-1.3-1.7l1.5-11a1.5,1.5,0,0,1,1.3-1.3"/>
    <path class="a" d="M471.9,450.1a.4.4,0,0,0-.4.4h0V453a43.2,43.2,0,0,1,11.9.2v-2.5c.1-.2-.1-.4-.3-.4h0A39.6,39.6,0,0,0,471.9,450.1Z"/>
    <path class="a" d="M492.5,454.4a44.3,44.3,0,0,1,10.9.4,1.4,1.4,0,0,1,1.2,1.3l.8,11.1v.2a1.5,1.5,0,0,1-1.5,1.4l-13-.5h-.2a1.5,1.5,0,0,1-1.2-1.7l1.7-11a1.5,1.5,0,0,1,1.3-1.2"/>
    <path class="a" d="M492.4,450.5c-.2,0-.4.2-.3.4h0v2.5a42.5,42.5,0,0,1,11.8.5l.2-2.5c.1-.2-.1-.4-.3-.4h0A43.4,43.4,0,0,0,492.4,450.5Z"/>
    <path class="a" d="M512.9,455.3a39.8,39.8,0,0,1,10.9.6,1.5,1.5,0,0,1,1.2,1.4l.6,11.1v.2a1.5,1.5,0,0,1-1.6,1.3l-12.9-.8h-.2a1.5,1.5,0,0,1-1.2-1.7l1.9-10.9a1.4,1.4,0,0,1,1.3-1.2"/>
    <path class="a" d="M512.9,451.4c-.2,0-.4.2-.3.4h0v2.5a43.1,43.1,0,0,1,11.9.7l.2-2.5c.1-.2-.1-.4-.3-.4h0A43.5,43.5,0,0,0,512.9,451.4Z"/>
    <path class="a" d="M533.3,456.6a39.5,39.5,0,0,1,10.9.9,1.5,1.5,0,0,1,1.2,1.3l.3,11.1v.2a1.6,1.6,0,0,1-1.6,1.4l-12.9-1.1H531a1.5,1.5,0,0,1-1.1-1.8l2.1-10.9a1.4,1.4,0,0,1,1.3-1.1"/>
    <path class="a" d="M533.4,452.7a.4.4,0,0,0-.4.4h0v2.5a39.7,39.7,0,0,1,11.9,1l.3-2.5a.5.5,0,0,0-.3-.5h0A43.6,43.6,0,0,0,533.4,452.7Z"/>
    <path class="a" d="M553.7,458.3a44.4,44.4,0,0,1,10.9,1.1,1.5,1.5,0,0,1,1.1,1.4v11.3a1.5,1.5,0,0,1-1.6,1.3l-12.9-1.3h-.2a1.3,1.3,0,0,1-1.1-1.7l2.3-10.9a1.6,1.6,0,0,1,1.4-1.1"/>
    <path class="a" d="M553.8,454.4c-.2,0-.3.2-.3.4h0l-.2,2.5a39.8,39.8,0,0,1,11.9,1.2l.3-2.4a.3.3,0,0,0-.3-.5h0A43.3,43.3,0,0,0,553.8,454.4Z"/>
    <path class="a" d="M463.3,412.2a44.2,44.2,0,0,1,10.9.1,1.5,1.5,0,0,1,1.2,1.3l1.1,11v.2a1.6,1.6,0,0,1-1.5,1.5H461.9a1.4,1.4,0,0,1-1.2-1.6l1.3-11a1.5,1.5,0,0,1,1.3-1.3"/>
    <path class="a" d="M463,408.4c-.2,0-.3.2-.3.4h0v2.5a39.6,39.6,0,0,1,11.9.1v-2.5c0-.2-.1-.4-.3-.4h0A40.3,40.3,0,0,0,463,408.4Z"/>
    <path class="a" d="M482.8,412.5a39.8,39.8,0,0,1,10.9.3,1.5,1.5,0,0,1,1.2,1.3l.9,11v.2a1.4,1.4,0,0,1-1.5,1.4l-13-.3h-.1a1.6,1.6,0,0,1-1.3-1.7l1.6-11a1.3,1.3,0,0,1,1.3-1.2"/>
    <path class="a" d="M482.6,408.6c-.2,0-.4.2-.3.4h0v2.5a43.1,43.1,0,0,1,11.9.3l.2-2.4a.5.5,0,0,0-.3-.5H494A43.4,43.4,0,0,0,482.6,408.6Z"/>
    <path class="a" d="M502.3,413.1a39.9,39.9,0,0,1,10.9.5,1.5,1.5,0,0,1,1.2,1.3l.7,11.1v.2a1.6,1.6,0,0,1-1.6,1.4l-12.9-.6c-.1,0-.2,0-.2-.1a1.5,1.5,0,0,1-1.2-1.7l1.7-10.9a1.5,1.5,0,0,1,1.4-1.2"/>
    <path class="a" d="M502.2,409.2a.4.4,0,0,0-.4.4h0v2.5a39.5,39.5,0,0,1,11.9.6l.2-2.5a.5.5,0,0,0-.3-.5h0A43.6,43.6,0,0,0,502.2,409.2Z"/>
    <path class="a" d="M521.7,414.1a39.8,39.8,0,0,1,10.9.7,1.5,1.5,0,0,1,1.2,1.3l.5,11.1v.2a1.6,1.6,0,0,1-1.6,1.4l-12.9-.9h-.2a1.5,1.5,0,0,1-1.2-1.7l2-11a1.4,1.4,0,0,1,1.3-1.1"/>
    <path class="a" d="M521.7,410.2c-.2,0-.4.2-.3.4h0v2.5a39.6,39.6,0,0,1,11.9.8l.2-2.5c.1-.2,0-.4-.3-.5h0A43.5,43.5,0,0,0,521.7,410.2Z"/>
    <path class="a" d="M541.2,415.4a40.2,40.2,0,0,1,10.9.9,1.5,1.5,0,0,1,1.1,1.4l.3,11.1v.2a1.5,1.5,0,0,1-1.6,1.3L539,429.2h-.2a1.5,1.5,0,0,1-1.1-1.8l2.1-10.8a1.5,1.5,0,0,1,1.4-1.2"/>
    <path class="a" d="M541.2,411.5c-.2,0-.3.2-.3.4h0v2.5a42.5,42.5,0,0,1,11.8,1l.3-2.4c.1-.2,0-.5-.2-.5h0A44.4,44.4,0,0,0,541.2,411.5Z"/>
    <path class="a" d="M560.6,417.1a44.4,44.4,0,0,1,10.9,1.1,1.6,1.6,0,0,1,1.1,1.4v11.3a1.5,1.5,0,0,1-1.7,1.3l-12.8-1.3H558a1.5,1.5,0,0,1-1.1-1.8l2.3-10.9a1.5,1.5,0,0,1,1.4-1.1"/>
    <path class="a" d="M560.7,413.2c-.2.1-.3.2-.3.4h0l-.2,2.5a42.3,42.3,0,0,1,11.8,1.3l.4-2.5c.1-.2-.1-.4-.3-.5h0A43.3,43.3,0,0,0,560.7,413.2Z"/>
    <path class="a" d="M464.1,370.6a36.2,36.2,0,0,1,10.9.1,1.5,1.5,0,0,1,1.3,1.2l1.1,11.1v.2a1.4,1.4,0,0,1-1.4,1.4H462.8a1.6,1.6,0,0,1-1.3-1.7l1.4-11a1.5,1.5,0,0,1,1.2-1.2"/>
    <path class="a" d="M463.9,366.7c-.2,0-.4.2-.3.4h0v2.5a42.4,42.4,0,0,1,11.8.1l.2-2.5c0-.2-.1-.4-.3-.4h-.1A43.5,43.5,0,0,0,463.9,366.7Z"/>
    <path class="a" d="M484.5,370.8a49.7,49.7,0,0,1,10.9.3,1.8,1.8,0,0,1,1.2,1.3l.9,11.1v.2a1.5,1.5,0,0,1-1.5,1.4l-12.9-.3c-.1,0-.2,0-.2-.1a1.3,1.3,0,0,1-1.2-1.6l1.5-11a1.5,1.5,0,0,1,1.3-1.3"/>
    <path class="a" d="M484.3,367c-.2,0-.3.2-.3.4h0v2.5a39.5,39.5,0,0,1,11.9.3l.2-2.5c0-.2-.1-.4-.3-.4h0A44.3,44.3,0,0,0,484.3,367Z"/>
    <path class="a" d="M504.8,371.5a44.1,44.1,0,0,1,10.9.5,1.4,1.4,0,0,1,1.2,1.3l.7,11.1v.2a1.5,1.5,0,0,1-1.5,1.4l-13-.6H503a1.5,1.5,0,0,1-1.2-1.7l1.7-11a1.5,1.5,0,0,1,1.3-1.2"/>
    <path class="a" d="M504.7,367.6c-.2,0-.3.2-.3.4h0v2.5a39.9,39.9,0,0,1,11.9.6l.2-2.5c0-.2-.1-.4-.3-.4h0A44.5,44.5,0,0,0,504.7,367.6Z"/>
    <path class="a" d="M525.1,372.5a39.5,39.5,0,0,1,10.9.8,1.3,1.3,0,0,1,1.2,1.3l.5,11.1v.2a1.4,1.4,0,0,1-1.6,1.3l-12.9-.8H523a1.5,1.5,0,0,1-1.1-1.8l1.9-10.9a1.6,1.6,0,0,1,1.3-1.2"/>
    <path class="a" d="M525.1,368.7c-.2,0-.3.2-.3.4h0v2.5a43.1,43.1,0,0,1,11.9.7l.2-2.4a.4.4,0,0,0-.2-.5h0A40.3,40.3,0,0,0,525.1,368.7Z"/>
    <path class="a" d="M545.4,374a39.9,39.9,0,0,1,10.9.9,1.5,1.5,0,0,1,1.2,1.3l.3,11.1c0,.1,0,.2-.1.2a1.5,1.5,0,0,1-1.5,1.4l-13-1.1a.1.1,0,0,1-.1-.1,1.5,1.5,0,0,1-1.2-1.7l2.2-10.9a1.4,1.4,0,0,1,1.3-1.1"/>
    <path class="a" d="M545.5,370.1a.4.4,0,0,0-.4.4h0V373a39.7,39.7,0,0,1,11.9,1l.3-2.5c0-.2-.1-.4-.3-.4h0A39.7,39.7,0,0,0,545.5,370.1Z"/>
    <path class="a" d="M565.7,375.8a40,40,0,0,1,10.9,1.1,1.4,1.4,0,0,1,1.1,1.4v11.3a1.5,1.5,0,0,1-1.7,1.3l-12.8-1.4h-.2a1.5,1.5,0,0,1-1.1-1.8l2.3-10.8a1.5,1.5,0,0,1,1.4-1.1"/>
    <path class="a" d="M565.8,371.9c-.2,0-.3.2-.3.4h0l-.2,2.5a38.9,38.9,0,0,1,11.8,1.2l.4-2.5c.1-.2-.1-.4-.3-.4h0A43.3,43.3,0,0,0,565.8,371.9Z"/>
    <path class="a" d="M472.8,329a39.8,39.8,0,0,1,10.9.2,1.4,1.4,0,0,1,1.2,1.2l1.1,11.1v.2a1.5,1.5,0,0,1-1.5,1.4l-13-.2h-.2a1.5,1.5,0,0,1-1.2-1.7l1.4-11a1.5,1.5,0,0,1,1.3-1.2"/>
    <path class="a" d="M472.6,325.1a.4.4,0,0,0-.4.4h0V328a43.1,43.1,0,0,1,11.9.2v-2.5c.1-.2-.1-.4-.3-.4h0A43.5,43.5,0,0,0,472.6,325.1Z"/>
    <path class="a" d="M492.7,329.4a36.3,36.3,0,0,1,10.9.4,1.5,1.5,0,0,1,1.2,1.3l.9,11v.2a1.5,1.5,0,0,1-1.6,1.4l-12.9-.4H491a1.5,1.5,0,0,1-1.2-1.7l1.6-11a1.5,1.5,0,0,1,1.3-1.2"/>
    <path class="a" d="M492.5,325.5c-.2,0-.3.2-.3.4h0v2.5a43.1,43.1,0,0,1,11.9.4l.2-2.5c0-.2-.1-.4-.3-.4h0A44.2,44.2,0,0,0,492.5,325.5Z"/>
    <path class="a" d="M512.6,330.2a36.3,36.3,0,0,1,10.9.5,1.6,1.6,0,0,1,1.2,1.3l.6,11.1v.2a1.5,1.5,0,0,1-1.5,1.4l-13-.7h-.2a1.3,1.3,0,0,1-1.1-1.7l1.7-11a1.5,1.5,0,0,1,1.4-1.1"/>
    <path class="a" d="M512.5,326.3a.4.4,0,0,0-.4.4h0v2.5a39.5,39.5,0,0,1,11.9.6l.2-2.5c.1-.2-.1-.4-.3-.4h0A43.5,43.5,0,0,0,512.5,326.3Z"/>
    <path class="a" d="M532.4,331.3a39.8,39.8,0,0,1,10.9.7,1.5,1.5,0,0,1,1.2,1.4l.5,11v.2a1.5,1.5,0,0,1-1.6,1.4l-12.9-.9h-.2a1.5,1.5,0,0,1-1.2-1.7l2-11a1.4,1.4,0,0,1,1.3-1.1"/>
    <path class="a" d="M532.4,327.4c-.2,0-.3.2-.3.4h0v2.5a43.1,43.1,0,0,1,11.9.8l.3-2.5c0-.2-.1-.4-.3-.4h0A40.3,40.3,0,0,0,532.4,327.4Z"/>
    <path class="a" d="M552.3,332.7a44.7,44.7,0,0,1,10.9,1,1.4,1.4,0,0,1,1.1,1.3l.3,11.1v.2a1.6,1.6,0,0,1-1.6,1.4l-12.9-1.2h-.2a1.5,1.5,0,0,1-1.2-1.7l2.2-10.9a1.6,1.6,0,0,1,1.4-1.2"/>
    <path class="a" d="M552.3,328.9c-.2,0-.3.1-.3.4h0v2.4a42.6,42.6,0,0,1,11.8,1.1l.3-2.5a.4.4,0,0,0-.2-.5h0A44.3,44.3,0,0,0,552.3,328.9Z"/>
    <path class="a" d="M572.1,334.5a40.1,40.1,0,0,1,10.9,1.2,1.4,1.4,0,0,1,1.1,1.4v11.3a1.5,1.5,0,0,1-1.6,1.3l-12.9-1.4h-.2a1.4,1.4,0,0,1-1-1.8l2.3-10.8a1.6,1.6,0,0,1,1.4-1.2"/>
    <path class="a" d="M572.2,330.7c-.2,0-.3.2-.3.4h0l-.2,2.5a38.9,38.9,0,0,1,11.8,1.2l.4-2.5c.1-.2-.1-.4-.3-.4h0A43.3,43.3,0,0,0,572.2,330.7Z"/>
    <path class="a" d="M473.1,287.3a44.2,44.2,0,0,1,10.9.2,1.4,1.4,0,0,1,1.2,1.3l1.1,11v.2a1.5,1.5,0,0,1-1.5,1.5l-12.9-.2h-.2a1.6,1.6,0,0,1-1.3-1.7l1.4-11a1.5,1.5,0,0,1,1.3-1.3"/>
    <path class="a" d="M472.9,283.5a.4.4,0,0,0-.4.4h0v2.5a43.1,43.1,0,0,1,11.9.1v-2.4c.1-.2-.1-.4-.3-.5h0A43.5,43.5,0,0,0,472.9,283.5Z"/>
    <path class="a" d="M493.9,287.8a39.7,39.7,0,0,1,10.9.3,1.4,1.4,0,0,1,1.2,1.3l.9,11.1v.2a1.5,1.5,0,0,1-1.5,1.4l-13-.4h-.1A1.6,1.6,0,0,1,491,300l1.6-11a1.4,1.4,0,0,1,1.3-1.2"/>
    <path class="a" d="M493.8,283.9a.4.4,0,0,0-.4.4h0v2.5a42.5,42.5,0,0,1,11.8.4l.2-2.5c.1-.2-.1-.4-.3-.4h0A39.7,39.7,0,0,0,493.8,283.9Z"/>
    <path class="a" d="M514.7,288.6a36,36,0,0,1,10.9.5,1.4,1.4,0,0,1,1.2,1.3l.7,11.1v.2a1.5,1.5,0,0,1-1.5,1.4l-13-.7h-.2a1.3,1.3,0,0,1-1.1-1.7l1.7-10.9a1.4,1.4,0,0,1,1.3-1.2"/>
    <path class="a" d="M514.7,284.7a.4.4,0,0,0-.4.4h0v2.5a39.5,39.5,0,0,1,11.9.6l.2-2.5c.1-.2-.1-.4-.3-.4h0A39.8,39.8,0,0,0,514.7,284.7Z"/>
    <path class="a" d="M535.6,289.7a39.1,39.1,0,0,1,10.8.8,1.4,1.4,0,0,1,1.2,1.3l.5,11.1v.2a1.6,1.6,0,0,1-1.6,1.4l-12.9-.9h-.2a1.5,1.5,0,0,1-1.2-1.7l2-10.9a1.7,1.7,0,0,1,1.4-1.2"/>
    <path class="a" d="M535.6,285.9c-.3,0-.4.1-.4.4h0v2.4a39.7,39.7,0,0,1,11.9.9l.3-2.5a.5.5,0,0,0-.3-.5h0A43.8,43.8,0,0,0,535.6,285.9Z"/>
    <path class="a" d="M556.3,291.3a39.5,39.5,0,0,1,10.9.9,1.6,1.6,0,0,1,1.2,1.4l.2,11.1v.2a1.4,1.4,0,0,1-1.6,1.3l-12.9-1.1h-.2a1.5,1.5,0,0,1-1.1-1.8l2.2-10.9a1.4,1.4,0,0,1,1.3-1.1"/>
    <path class="a" d="M556.4,287.4c-.2,0-.4.2-.3.4h0l-.2,2.5a43.2,43.2,0,0,1,11.9,1l.3-2.5c.1-.2-.1-.4-.3-.4h0A39.7,39.7,0,0,0,556.4,287.4Z"/>
    <path class="a" d="M577.1,293.2a44.4,44.4,0,0,1,10.9,1.1,1.5,1.5,0,0,1,1.1,1.4V307a1.4,1.4,0,0,1-1.6,1.3L574.6,307h-.2a1.5,1.5,0,0,1-1-1.7l2.3-10.9a1.5,1.5,0,0,1,1.4-1.1"/>
    <path class="a" d="M577.2,289.3c-.2,0-.3.2-.3.4h0l-.2,2.5a42.3,42.3,0,0,1,11.8,1.2l.4-2.4c.1-.2-.1-.4-.3-.5h0A43.3,43.3,0,0,0,577.2,289.3Z"/>
    <path class="a" d="M474.5,245.7a40.5,40.5,0,0,1,11,.2,1.5,1.5,0,0,1,1.2,1.2l1.1,11.1v.2a1.5,1.5,0,0,1-1.5,1.4l-13-.2h-.2a1.4,1.4,0,0,1-1.2-1.6l1.4-11.1a1.5,1.5,0,0,1,1.2-1.2"/>
    <path class="a" d="M474.3,241.8a.5.5,0,0,0-.3.5h0v2.4a43.2,43.2,0,0,1,11.9.2v-2.5c0-.2-.1-.4-.3-.4h0A44.3,44.3,0,0,0,474.3,241.8Z"/>
    <path class="a" d="M496.1,246.2a39.7,39.7,0,0,1,10.9.3,1.5,1.5,0,0,1,1.3,1.3l.8,11.1v.2a1.5,1.5,0,0,1-1.5,1.4l-12.9-.4c-.1,0-.2,0-.2-.1a1.3,1.3,0,0,1-1.2-1.6l1.5-11a1.4,1.4,0,0,1,1.3-1.2"/>
    <path class="a" d="M496,242.3a.4.4,0,0,0-.4.4h0v2.5a39.7,39.7,0,0,1,11.9.4v-2.5c.1-.2-.1-.4-.3-.4h0A39.5,39.5,0,0,0,496,242.3Z"/>
    <path class="a" d="M517.7,247a44.1,44.1,0,0,1,10.9.5,1.6,1.6,0,0,1,1.2,1.4l.7,11v.2a1.5,1.5,0,0,1-1.6,1.4l-12.9-.6h-.2a1.6,1.6,0,0,1-1.2-1.8l1.8-10.9a1.5,1.5,0,0,1,1.3-1.2"/>
    <path class="a" d="M517.6,243.1c-.2,0-.3.2-.3.4h0V246a46.8,46.8,0,0,1,11.8.6l.3-2.5c0-.2-.1-.4-.3-.4h0A44.2,44.2,0,0,0,517.6,243.1Z"/>
    <path class="a" d="M539.3,248.2a40.1,40.1,0,0,1,10.9.8,1.4,1.4,0,0,1,1.1,1.3l.5,11.1v.2a1.6,1.6,0,0,1-1.6,1.4l-12.9-.9h-.2a1.5,1.5,0,0,1-1.1-1.8l1.9-10.9a1.7,1.7,0,0,1,1.4-1.2"/>
    <path class="a" d="M539.3,244.4a.4.4,0,0,0-.4.4h0v2.4a43.2,43.2,0,0,1,11.9.9l.3-2.5a.5.5,0,0,0-.3-.5h0A43.8,43.8,0,0,0,539.3,244.4Z"/>
    <path class="a" d="M560.8,249.8a44.3,44.3,0,0,1,10.9,1,1.4,1.4,0,0,1,1.1,1.4l.3,11v.2a1.6,1.6,0,0,1-1.6,1.4l-12.9-1.1h-.2a1.3,1.3,0,0,1-1.1-1.7l2.1-10.9a1.6,1.6,0,0,1,1.4-1.2"/>
    <path class="a" d="M560.9,246a.4.4,0,0,0-.4.4h0v2.5a38.8,38.8,0,0,1,11.8,1l.4-2.5c0-.2-.1-.4-.3-.4h0A40,40,0,0,0,560.9,246Z"/>
    <path class="a" d="M582.3,251.9a36.4,36.4,0,0,1,10.9,1.1,1.4,1.4,0,0,1,1.1,1.4v11.3a1.4,1.4,0,0,1-1.6,1.3l-12.9-1.4h-.2a1.5,1.5,0,0,1-1-1.8l2.3-10.8a1.4,1.4,0,0,1,1.4-1.1"/>
    <path class="a" d="M582.4,248c-.2,0-.3.2-.3.4h0l-.2,2.5a38.9,38.9,0,0,1,11.8,1.2l.4-2.5c.1-.2-.1-.4-.3-.4h0A43.3,43.3,0,0,0,582.4,248Z"/>
    <path class="a" d="M556.2,584.2a40.2,40.2,0,0,1,10.9,1.3,1.5,1.5,0,0,1,1.1,1.4L568,598v.2a1.5,1.5,0,0,1-1.6,1.3l-12.9-1.6h-.2a1.5,1.5,0,0,1-1-1.8l2.5-10.8a1.5,1.5,0,0,1,1.4-1.1"/>
    <path class="a" d="M556.4,580.3c-.2,0-.3.2-.3.4h0l-.2,2.5a42.8,42.8,0,0,1,11.8,1.4l.4-2.4c0-.2-.1-.5-.3-.5h0A39.6,39.6,0,0,0,556.4,580.3Z"/>
    <path class="a" d="M562.2,542.9a39.5,39.5,0,0,1,10.8,1.4,1.3,1.3,0,0,1,1.1,1.4v11.1h0a1.5,1.5,0,0,1-1.7,1.3l-12.8-1.6h-.2a1.5,1.5,0,0,1-1.1-1.8l2.6-10.8a1.4,1.4,0,0,1,1.4-1.1"/>
    <path class="a" d="M562.4,539.1c-.2,0-.4.1-.4.3h0l-.2,2.5a39,39,0,0,1,11.8,1.5l.4-2.5c.1-.2,0-.4-.2-.4h0A44.4,44.4,0,0,0,562.4,539.1Z"/>
    <path class="a" d="M568.1,501.7A40.2,40.2,0,0,1,579,503a1.5,1.5,0,0,1,1,1.4v11.3a1.5,1.5,0,0,1-1.6,1.3l-12.9-1.6h-.2a1.4,1.4,0,0,1-1-1.8l2.5-10.8a1.5,1.5,0,0,1,1.4-1.1"/>
    <path class="a" d="M568.3,497.8a.4.4,0,0,0-.4.4h0v2.5a43.3,43.3,0,0,1,11.8,1.4l.4-2.4a.5.5,0,0,0-.3-.5h0A43.4,43.4,0,0,0,568.3,497.8Z"/>
    <path class="a" d="M574.1,460.4a39.5,39.5,0,0,1,10.8,1.4,1.4,1.4,0,0,1,1.1,1.4v11.3a1.4,1.4,0,0,1-1.6,1.2l-12.9-1.5h-.1a1.5,1.5,0,0,1-1.1-1.8l2.6-10.8a1.4,1.4,0,0,1,1.4-1.1"/>
    <path class="a" d="M574.3,456.6a.4.4,0,0,0-.4.4h0l-.2,2.4a42.9,42.9,0,0,1,11.8,1.5l.4-2.5c.1-.2-.1-.4-.3-.4h0A39.4,39.4,0,0,0,574.3,456.6Z"/>
    <path class="a" d="M580,419.2a43.2,43.2,0,0,1,10.8,1.3,1.5,1.5,0,0,1,1.1,1.4v11.3a1.5,1.5,0,0,1-1.6,1.3l-12.9-1.6h-.2a1.5,1.5,0,0,1-1.1-1.8l2.6-10.8a1.5,1.5,0,0,1,1.4-1.1"/>
    <path class="a" d="M580.2,415.3a.4.4,0,0,0-.4.4h0l-.2,2.5a42.4,42.4,0,0,1,11.8,1.4l.4-2.4a.4.4,0,0,0-.2-.5h0A44,44,0,0,0,580.2,415.3Z"/>
    <path class="a" d="M585.9,378a40.2,40.2,0,0,1,10.9,1.3,1.5,1.5,0,0,1,1.1,1.4l-.2,11.1v.2a1.5,1.5,0,0,1-1.6,1.3l-12.9-1.6H583a1.5,1.5,0,0,1-1-1.7l2.5-10.8a1.5,1.5,0,0,1,1.4-1.1"/>
    <path class="a" d="M586.1,374.1c-.2,0-.3.2-.3.4h0l-.2,2.5a42.8,42.8,0,0,1,11.8,1.4l.4-2.4c0-.2-.1-.5-.3-.5h0A39.6,39.6,0,0,0,586.1,374.1Z"/>
    <path class="a" d="M591.9,336.7a43.7,43.7,0,0,1,10.8,1.3,1.5,1.5,0,0,1,1.1,1.5v11.1h0A1.6,1.6,0,0,1,602,352l-12.8-1.6H589a1.5,1.5,0,0,1-1.1-1.8l2.6-10.8a1.4,1.4,0,0,1,1.4-1.1"/>
    <path class="a" d="M592.1,332.9c-.2,0-.4.1-.4.3h0l-.2,2.5a39,39,0,0,1,11.8,1.5l.4-2.5a.4.4,0,0,0-.2-.5h0A44.4,44.4,0,0,0,592.1,332.9Z"/>
    <path class="a" d="M597.8,295.5a40.2,40.2,0,0,1,10.9,1.3,1.5,1.5,0,0,1,1,1.4v11.3a1.5,1.5,0,0,1-1.6,1.3l-12.9-1.6h-.2a1.4,1.4,0,0,1-1-1.8l2.5-10.8a1.5,1.5,0,0,1,1.4-1.1"/>
    <path class="a" d="M598,291.6c-.2,0-.4.2-.3.4h0l-.2,2.5a43.3,43.3,0,0,1,11.8,1.4l.4-2.4a.5.5,0,0,0-.3-.5h0A43.4,43.4,0,0,0,598,291.6Z"/>
    <path class="a" d="M603.8,254.2a39.5,39.5,0,0,1,10.8,1.4,1.4,1.4,0,0,1,1.1,1.4v11.3a1.4,1.4,0,0,1-1.6,1.2L601,268h-.1a1.5,1.5,0,0,1-1.1-1.8l2.6-10.8a1.5,1.5,0,0,1,1.4-1.1"/>
    <path class="a" d="M604,250.4a.4.4,0,0,0-.4.4h0l-.2,2.4a42.5,42.5,0,0,1,11.8,1.5l.4-2.5c.1-.2-.1-.4-.3-.4h0A39.4,39.4,0,0,0,604,250.4Z"/>
  </g>
  <g>
    <polyline class="a" points="103.6 200.7 204 689.1 211.3 687.6 112 205 135.4 200.2 134.2 194.4 126.9 195.9"/>
    <polyline class="a" points="134.2 194.4 58.4 210 62 227.5 72.2 225.4 69.8 213.7 104.8 206.5 103.6 200.7"/>
    <polygon class="a" points="841.2 204.4 831 202.4 703.6 782.5 230.1 779.4 226.9 763.5 219.6 765 222.5 779.3 184.5 779.1 175.7 736.2 212.1 728.7 213.2 734.1 220.5 732.6 217.6 718.5 210.3 720 210.9 722.9 174.5 730.4 77.1 256.9 68.4 258.7 177.5 789.4 712 793 841.2 204.4 841.2 204.4"/>
  </g>
  <g>
    <circle class="a" cx="543.5" cy="622.1" r="1.2"/>
    <path class="a" d="M541.1,627v-.9a4.1,4.1,0,0,0-2.4,5.4,4.2,4.2,0,0,0,5.4,2.4,4.1,4.1,0,0,0,2.6-3.1h-.8a3.3,3.3,0,0,1-1.8,2.3,3.3,3.3,0,0,1-4.5-1.5,3.4,3.4,0,0,1,1.5-4.5"/>
    <path class="a" d="M541.7,625.1l.3,4.6,5,.4,1,3.3a.8.8,0,0,0,.7.8h.4a.2.2,0,0,0,.2-.2c.1,0,0-.1,0-.1l-1.4-5.2-3.7-.3v-1.5l1.6.2a.8.8,0,0,0,.9-.8V626l-2.6-.2a5.7,5.7,0,0,0-.1-1.3,1.1,1.1,0,0,0-1.4-.8,1.1,1.1,0,0,0-.8,1.4h0"/>
    <circle class="a" cx="389.7" cy="620.8" r="1.2"/>
    <path class="a" d="M388.1,626l-.2-.9a4.2,4.2,0,0,0-1.6,5.7,4.1,4.1,0,0,0,5.7,1.6,4.2,4.2,0,0,0,2.2-3.4h-.8a3.2,3.2,0,0,1-1.5,2.5,3.4,3.4,0,0,1-4.7-.8,3.5,3.5,0,0,1,.9-4.7"/>
    <path class="a" d="M388.4,624l1,4.6,5-.4,1.4,3.2a1,1,0,0,0,.8.7h.4a.2.2,0,0,0,.2-.2h0l-2.2-5-3.7.2-.3-1.4a4.9,4.9,0,0,0,1.7-.1.7.7,0,0,0,.7-.8v-.3l-2.6.2-.3-1.4a1.3,1.3,0,0,0-1.5-.6,1.1,1.1,0,0,0-.6,1.5h0"/>
    <circle class="a" cx="334.6" cy="245.3" r="1.2"/>
    <path class="a" d="M332.9,250.4l-.2-.9a4.2,4.2,0,0,0-1.7,5.7,4.1,4.1,0,0,0,5.6,1.7,4,4,0,0,0,2.3-3.4h-.8a3.5,3.5,0,0,1-1.6,2.5,3.4,3.4,0,0,1-3.6-5.7"/>
    <path class="a" d="M333.2,248.5l.9,4.5,5-.2,1.3,3.2a1.1,1.1,0,0,0,.8.7h.4a.3.3,0,0,0,.3-.3h0l-2.1-5h-3.7l-.3-1.4h1.7a.8.8,0,0,0,.7-.9v-.3h-2.6l-.3-1.3a1.1,1.1,0,0,0-1.5-.6,1,1,0,0,0-.6,1.4h0"/>
    <circle class="a" cx="364.2" cy="242.6" r="1.2"/>
    <path class="a" d="M362.5,247.7v-.9a4.2,4.2,0,1,0,6.2,4h-.8a3.5,3.5,0,0,1-1.5,2.5,3.3,3.3,0,0,1-4.7-.9,3.5,3.5,0,0,1,.9-4.7"/>
    <path class="a" d="M362.8,245.8l1,4.5,5-.2,1.4,3.1a.8.8,0,0,0,.8.7h.3a.3.3,0,0,0,.3-.3h0l-2.1-5.1-3.7.2-.4-1.4a4.7,4.7,0,0,0,1.7-.1.8.8,0,0,0,.8-.8v-.3h-2.7a3.1,3.1,0,0,0-.3-1.3,1.1,1.1,0,0,0-1.5-.6,1.2,1.2,0,0,0-.6,1.5h0"/>
  </g>
  <g>
    <g>
      <line class="b" x1="510.5" y1="636.1" x2="510.3" y2="664.4"/>
      <line class="b" x1="451" y1="635.6" x2="450.7" y2="663.9"/>
      <line class="b" x1="510.3" y1="663.8" x2="492.1" y2="663.7"/>
      <line class="b" x1="450.8" y1="663.4" x2="468.9" y2="663.5"/>
      <line class="c" x1="506.5" y1="667.5" x2="514" y2="660.1"/>
      <line class="d" x1="454.5" y1="659.7" x2="447" y2="667"/>
      <text class="e" transform="translate(468.5 667.2) rotate(0.4)">2.0m</text>
    </g>
    <g>
      <line class="b" x1="599.3" y1="638.8" x2="585.9" y2="638.7"/>
      <line class="b" x1="599.8" y1="579.2" x2="586.4" y2="579.1"/>
      <line class="b" x1="586.9" y1="579.1" x2="586.5" y2="638.7"/>
      <line class="b" x1="586.5" y1="638.7" x2="586.2" y2="670.3"/>
      <line class="b" x1="586.2" y1="670.3" x2="578.9" y2="671.8"/>
      <line class="c" x1="590.6" y1="582.9" x2="583.3" y2="575.4"/>
      <line class="c" x1="582.8" y1="634.9" x2="590.2" y2="642.4"/>
      <text class="e" transform="translate(555.3 677.7) rotate(0.4)">2.0m</text>
    </g>
  </g>
</svg>
