<svg xmlns="http://www.w3.org/2000/svg" viewBox="0 0 900 900">
  <defs>
    <style>
      .a, .b, .c, .d {
        fill: none;
        stroke-linecap: round;
        stroke-linejoin: round;
      }

      .a {
        stroke: #848484;
      }

      .a, .b {
        stroke-width: 0.71px;
      }

      .b, .c, .d {
        stroke: #333;
      }

      .c {
        stroke-width: 0.91px;
      }

      .d {
        stroke-width: 0.91px;
      }

      .e {
        font-size: 12.62px;
        fill: #333;
        font-family: Calibri;
      }
    </style>
  </defs>
  <g>
    <line class="a" x1="708.5" y1="653.9" x2="708.5" y2="653.5"/>
    <line class="a" x1="776.9" y1="572.6" x2="776.9" y2="158.3"/>
    <line class="a" x1="591.5" y1="696" x2="537.2" y2="750.3"/>
    <line class="a" x1="714.9" y1="572.6" x2="660.5" y2="627"/>
    <line class="a" x1="666.2" y1="632.8" x2="671.2" y2="627.8"/>
    <line class="a" x1="593.7" y1="705.3" x2="597.3" y2="701.7"/>
    <line class="a" x1="661.4" y1="727.9" x2="653.7" y2="735.6"/>
    <line class="a" x1="700.3" y1="688.9" x2="687.2" y2="702"/>
    <line class="a" x1="667.1" y1="733.6" x2="657" y2="743.7"/>
    <line class="a" x1="708.5" y1="692.2" x2="693" y2="707.7"/>
    <line class="a" x1="687.2" y1="702" x2="693" y2="707.7"/>
    <line class="a" x1="661.4" y1="727.9" x2="667.1" y2="733.6"/>
    <line class="a" x1="626.5" y1="743.7" x2="657" y2="743.7"/>
    <line class="a" x1="623.9" y1="735.6" x2="653.7" y2="735.6"/>
    <line class="a" x1="593.7" y1="705.3" x2="623.9" y2="735.6"/>
    <line class="a" x1="587.9" y1="711.1" x2="618.4" y2="741.6"/>
    <line class="a" x1="677" y1="622" x2="708.5" y2="653.5"/>
    <line class="a" x1="671.2" y1="627.8" x2="700.3" y2="656.9"/>
    <line class="a" x1="179.4" y1="442.6" x2="145.7" y2="442.6"/>
    <line class="a" x1="398.8" y1="824.5" x2="398.8" y2="833.7"/>
    <line class="a" x1="545.3" y1="816.8" x2="618.4" y2="816.8"/>
    <line class="a" x1="432.6" y1="824.5" x2="609.5" y2="824.5"/>
    <line class="a" x1="122.6" y1="816.8" x2="122.6" y2="415"/>
    <line class="a" x1="114.9" y1="824.5" x2="114.9" y2="415"/>
    <line class="a" x1="122.7" y1="816.8" x2="537.2" y2="816.8"/>
    <line class="a" x1="114.9" y1="824.5" x2="398.8" y2="824.5"/>
    <line class="a" x1="609.5" y1="833.5" x2="626.5" y2="833.5"/>
    <line class="a" x1="609.5" y1="824.5" x2="609.5" y2="833.5"/>
    <line class="a" x1="398.8" y1="833.7" x2="432.6" y2="833.7"/>
    <line class="a" x1="591.5" y1="696" x2="597.3" y2="701.7"/>
    <line class="a" x1="660.5" y1="627" x2="666.2" y2="632.8"/>
    <line class="a" x1="718.2" y1="580.8" x2="735.2" y2="580.8"/>
    <line class="a" x1="714.9" y1="572.6" x2="735.2" y2="572.6"/>
    <line class="a" x1="735.2" y1="580.8" x2="735.2" y2="572.6"/>
    <line class="a" x1="771.8" y1="580.8" x2="771.8" y2="572.6"/>
    <line class="a" x1="545.3" y1="816.8" x2="545.3" y2="807.1"/>
    <line class="a" x1="537.2" y1="816.8" x2="537.2" y2="807.1"/>
    <line class="a" x1="537.2" y1="770.5" x2="545.3" y2="770.5"/>
    <line class="a" x1="537.2" y1="807.1" x2="545.3" y2="807.1"/>
    <line class="a" x1="545.3" y1="770.5" x2="545.3" y2="753.7"/>
    <line class="a" x1="537.2" y1="770.5" x2="537.2" y2="750.3"/>
    <line class="a" x1="677" y1="622" x2="718.2" y2="580.8"/>
    <line class="a" x1="771.8" y1="572.6" x2="776.9" y2="572.6"/>
    <line class="a" x1="771.8" y1="580.8" x2="776.9" y2="580.8"/>
    <line class="a" x1="153.9" y1="434.5" x2="153.9" y2="415"/>
    <line class="a" x1="153.9" y1="415" x2="145.7" y2="415"/>
    <line class="a" x1="176" y1="434.5" x2="153.9" y2="434.5"/>
    <line class="a" x1="145.7" y1="442.6" x2="145.7" y2="415"/>
    <line class="a" x1="122.6" y1="415" x2="114.9" y2="415"/>
    <line class="a" x1="432.6" y1="824.5" x2="432.6" y2="833.7"/>
    <line class="a" x1="369.1" y1="150.1" x2="785" y2="150.1"/>
    <line class="a" x1="369.1" y1="202.9" x2="377.2" y2="202.9"/>
    <line class="a" x1="587.9" y1="711.1" x2="545.3" y2="753.7"/>
    <line class="a" x1="618.4" y1="788.2" x2="626.5" y2="788.2"/>
    <line class="a" x1="618.4" y1="751.6" x2="618.4" y2="741.6"/>
    <line class="a" x1="618.4" y1="816.8" x2="618.4" y2="788.2"/>
    <line class="a" x1="626.5" y1="751.6" x2="626.5" y2="743.7"/>
    <line class="a" x1="626.5" y1="833.5" x2="626.5" y2="788.2"/>
    <line class="a" x1="618.4" y1="751.6" x2="626.5" y2="751.6"/>
    <line class="a" x1="407.2" y1="214.8" x2="179.4" y2="442.6"/>
    <line class="a" x1="395.4" y1="215.1" x2="176" y2="434.5"/>
    <line class="a" x1="369.1" y1="162.3" x2="369.1" y2="158.3"/>
    <polyline class="a" points="377.2 162.3 377.2 158.3 776.9 158.3"/>
    <polyline class="a" points="407.2 207 377.2 207 377.2 202.9"/>
    <line class="a" x1="369.1" y1="162.3" x2="377.2" y2="162.3"/>
    <line class="a" x1="785" y1="662" x2="785" y2="150.1"/>
    <line class="a" x1="776.9" y1="653.9" x2="776.9" y2="580.8"/>
    <line class="a" x1="369.1" y1="215.1" x2="395.4" y2="215.1"/>
    <polyline class="a" points="369.1 215.1 369.1 207 369.1 202.9"/>
    <line class="a" x1="749.1" y1="662" x2="749.1" y2="653.9"/>
    <line class="a" x1="749.1" y1="653.9" x2="776.9" y2="653.9"/>
    <line class="a" x1="708.5" y1="653.9" x2="712.5" y2="653.9"/>
    <line class="a" x1="749.1" y1="662" x2="785" y2="662"/>
    <line class="a" x1="708.5" y1="662" x2="712.5" y2="662"/>
    <line class="a" x1="712.5" y1="662" x2="712.5" y2="653.9"/>
    <line class="a" x1="708.5" y1="692.2" x2="708.5" y2="662"/>
    <line class="a" x1="700.3" y1="688.9" x2="700.3" y2="656.9"/>
    <line class="a" x1="407.2" y1="214.8" x2="407.2" y2="207"/>
    <line class="a" x1="369.1" y1="162.3" x2="369.1" y2="158.3"/>
    <line class="a" x1="369.1" y1="158.3" x2="369.1" y2="150.1"/>
  </g>
  <g>
    <line class="a" x1="771.8" y1="574.8" x2="771.8" y2="580.2"/>
    <line class="a" x1="735.2" y1="574.8" x2="735.2" y2="580.2"/>
    <line class="a" x1="712.5" y1="654.6" x2="712.5" y2="660.1"/>
    <line class="a" x1="749.1" y1="654.6" x2="749.1" y2="660.1"/>
    <line class="a" x1="619.1" y1="751.6" x2="624.6" y2="751.6"/>
    <line class="a" x1="619.1" y1="788.2" x2="624.6" y2="788.2"/>
    <line class="a" x1="539" y1="807.1" x2="544.5" y2="807.1"/>
    <line class="a" x1="539" y1="770.5" x2="544.5" y2="770.5"/>
  </g>
  <line class="a" x1="663.4" y1="629.9" x2="594.4" y2="698.8"/>
  <g>
    <line class="a" x1="666.2" y1="632.8" x2="597.3" y2="701.7"/>
    <line class="a" x1="591.5" y1="696" x2="660.5" y2="627"/>
  </g>
  <g>
    <line class="a" x1="431.2" y1="465.6" x2="445.5" y2="480"/>
    <line class="a" x1="412.6" y1="432.7" x2="426.9" y2="447.1"/>
    <path class="a" d="M699.2,469.3a664.7,664.7,0,0,0,29.2-61.5l18.8,7.6a668.1,668.1,0,0,1-30.4,64"/>
    <line class="a" x1="737.5" y1="437" x2="719.1" y2="428.5"/>
    <line class="a" x1="727.6" y1="458.4" x2="709.5" y2="449.1"/>
    <line class="a" x1="699.2" y1="469.3" x2="716.8" y2="479.4"/>
    <line class="a" x1="711.8" y1="346.8" x2="731.3" y2="353"/>
    <line class="a" x1="723.6" y1="375" x2="704.4" y2="368.3"/>
    <line class="a" x1="714.9" y1="397" x2="696.3" y2="389.5"/>
    <line class="a" x1="705.8" y1="418.8" x2="687.3" y2="410.3"/>
    <line class="a" x1="695.9" y1="440.2" x2="677.8" y2="430.9"/>
    <line class="a" x1="679.3" y1="328.3" x2="698.8" y2="334.1"/>
    <line class="a" x1="691.4" y1="356.6" x2="672.3" y2="349.8"/>
    <line class="a" x1="683.2" y1="378.7" x2="664.4" y2="371.1"/>
    <line class="a" x1="674.1" y1="400.5" x2="655.6" y2="392"/>
    <line class="a" x1="664.2" y1="421.9" x2="646.1" y2="412.6"/>
    <line class="a" x1="635.8" y1="432.8" x2="653.4" y2="443"/>
    <line class="a" x1="724" y1="194.6" x2="703.6" y2="194.6"/>
    <line class="a" x1="701.8" y1="217.2" x2="722" y2="218.5"/>
    <line class="a" x1="699" y1="239.7" x2="719.2" y2="242"/>
    <line class="a" x1="695.4" y1="262.1" x2="715.5" y2="265.3"/>
    <line class="a" x1="690.9" y1="284.4" x2="710.8" y2="288.4"/>
    <line class="a" x1="685.5" y1="306.4" x2="705.2" y2="311.4"/>
    <line class="a" x1="687.3" y1="194.8" x2="667" y2="194.8"/>
    <line class="a" x1="665.2" y1="215.7" x2="685.5" y2="216.6"/>
    <line class="a" x1="662.5" y1="236.4" x2="682.8" y2="238.3"/>
    <line class="a" x1="659.1" y1="257.1" x2="679.3" y2="260"/>
    <line class="a" x1="674.9" y1="281.4" x2="654.9" y2="277.6"/>
    <line class="a" x1="650" y1="298" x2="669.7" y2="302.7"/>
    <line class="a" x1="663.7" y1="323.8" x2="644.2" y2="318.1"/>
    <line class="a" x1="656.9" y1="344.6" x2="637.7" y2="338"/>
    <line class="a" x1="649.2" y1="365.1" x2="630.4" y2="357.7"/>
    <line class="a" x1="640.8" y1="385.4" x2="622.3" y2="377"/>
    <line class="a" x1="631.6" y1="405.3" x2="613.5" y2="396"/>
    <line class="a" x1="621.7" y1="424.8" x2="604" y2="414.7"/>
    <path class="a" d="M635.8,432.8a580,580,0,0,0,68.8-260.9h20.3A600.6,600.6,0,0,1,653.4,443"/>
    <path class="a" d="M621.7,424.8a565.7,565.7,0,0,0,65.6-230"/>
    <path class="a" d="M604,414.7a545.2,545.2,0,0,0,63-219.9"/>
    <line class="a" x1="630.3" y1="194.9" x2="650.7" y2="194.8"/>
    <line class="a" x1="648.7" y1="216.9" x2="628.3" y2="215.9"/>
    <line class="a" x1="625.5" y1="236.8" x2="645.7" y2="238.9"/>
    <line class="a" x1="621.8" y1="257.6" x2="641.9" y2="260.7"/>
    <line class="a" x1="617.2" y1="278.3" x2="637.1" y2="282.4"/>
    <line class="a" x1="611.8" y1="298.7" x2="631.5" y2="303.9"/>
    <line class="a" x1="624.9" y1="325.1" x2="605.6" y2="318.9"/>
    <line class="a" x1="617.5" y1="346" x2="598.5" y2="338.7"/>
    <line class="a" x1="609.1" y1="366.5" x2="590.6" y2="358.3"/>
    <line class="a" x1="600" y1="386.7" x2="581.8" y2="377.6"/>
    <line class="a" x1="589.9" y1="406.5" x2="572.3" y2="396.4"/>
    <line class="a" x1="614" y1="194.8" x2="593.6" y2="194.9"/>
    <line class="a" x1="591.5" y1="216.1" x2="611.8" y2="217.2"/>
    <line class="a" x1="588.4" y1="237.2" x2="608.6" y2="239.5"/>
    <line class="a" x1="604.4" y1="261.7" x2="584.3" y2="258.2"/>
    <line class="a" x1="579.3" y1="279" x2="599.1" y2="283.6"/>
    <line class="a" x1="592.9" y1="305.2" x2="573.4" y2="299.5"/>
    <line class="a" x1="585.7" y1="326.6" x2="566.5" y2="319.7"/>
    <line class="a" x1="577.5" y1="347.6" x2="558.8" y2="339.6"/>
    <line class="a" x1="568.3" y1="368.2" x2="550.1" y2="359.1"/>
    <line class="a" x1="558.2" y1="388.3" x2="540.6" y2="378.2"/>
    <line class="a" x1="572.3" y1="235.2" x2="552" y2="233"/>
    <line class="a" x1="568.4" y1="255.1" x2="548.3" y2="251.9"/>
    <line class="a" x1="563.6" y1="274.9" x2="543.7" y2="270.6"/>
    <line class="a" x1="558" y1="294.4" x2="538.4" y2="289"/>
    <line class="a" x1="551.4" y1="313.7" x2="532.2" y2="307.3"/>
    <line class="a" x1="544.1" y1="332.6" x2="525.2" y2="325.2"/>
    <line class="a" x1="535.9" y1="351.2" x2="517.4" y2="342.8"/>
    <path class="a" d="M589.9,406.5a528.8,528.8,0,0,0,60.8-211.7"/>
    <path class="a" d="M572.3,396.4a506.6,506.6,0,0,0,58-201.5"/>
    <path class="a" d="M558.2,388.3A490,490,0,0,0,614,194.8"/>
    <path class="a" d="M540.6,378.2a470.9,470.9,0,0,0,53-183.3"/>
    <path class="a" d="M508.7,360.3A435.6,435.6,0,0,0,554.9,214l20.4,1.1a456.7,456.7,0,0,1-49,155.3"/>
    <line class="a" x1="535" y1="235.6" x2="514.9" y2="233"/>
    <line class="a" x1="530.7" y1="255.7" x2="510.8" y2="251.8"/>
    <line class="a" x1="525.5" y1="275.6" x2="505.8" y2="270.4"/>
    <line class="a" x1="519.2" y1="295.2" x2="499.9" y2="288.8"/>
    <line class="a" x1="512" y1="314.5" x2="493.2" y2="306.8"/>
    <line class="a" x1="503.8" y1="333.4" x2="485.6" y2="324.5"/>
    <line class="a" x1="494.8" y1="351.9" x2="477.1" y2="341.8"/>
    <line class="a" x1="480.3" y1="295.1" x2="461.1" y2="288.4"/>
    <line class="a" x1="472.4" y1="314.2" x2="453.7" y2="306.2"/>
    <line class="a" x1="463" y1="333.7" x2="445.4" y2="323.6"/>
    <path class="a" d="M445.4,323.6a366.5,366.5,0,0,0,22.2-53.4l19.5,5.5a385.6,385.6,0,0,1-24.1,58"/>
    <line class="a" x1="406.4" y1="770.6" x2="397.8" y2="752.2"/>
    <line class="a" x1="425.9" y1="761.5" x2="416.6" y2="743.4"/>
    <line class="a" x1="309.4" y1="730.4" x2="303.4" y2="711"/>
    <line class="a" x1="329.9" y1="723.4" x2="323" y2="704.3"/>
    <line class="a" x1="350.1" y1="715.7" x2="342.3" y2="696.9"/>
    <line class="a" x1="389.5" y1="698" x2="380.2" y2="680"/>
    <line class="a" x1="370" y1="707.2" x2="361.4" y2="688.8"/>
    <line class="a" x1="288.8" y1="736.7" x2="283.5" y2="717.1"/>
    <line class="a" x1="267.9" y1="742.2" x2="263.5" y2="722.4"/>
    <line class="a" x1="246.8" y1="747" x2="243.3" y2="727"/>
    <line class="a" x1="225.6" y1="751" x2="222.9" y2="730.8"/>
    <line class="a" x1="204.2" y1="754.2" x2="202.4" y2="734"/>
    <line class="a" x1="182.7" y1="756.7" x2="181.8" y2="736.4"/>
    <line class="a" x1="161.2" y1="758.4" x2="161.2" y2="738.1"/>
    <line class="a" x1="371.1" y1="666.3" x2="361.9" y2="648.2"/>
    <line class="a" x1="351.2" y1="675.5" x2="342.9" y2="657"/>
    <line class="a" x1="331.1" y1="683.9" x2="323.6" y2="665"/>
    <line class="a" x1="310.6" y1="691.5" x2="304" y2="672.2"/>
    <line class="a" x1="289.8" y1="698.3" x2="284.2" y2="678.7"/>
    <line class="a" x1="268.8" y1="704.2" x2="264.1" y2="684.5"/>
    <line class="a" x1="247.6" y1="709.4" x2="243.8" y2="689.4"/>
    <line class="a" x1="226.2" y1="713.8" x2="223.3" y2="693.6"/>
    <line class="a" x1="204.6" y1="717.3" x2="202.7" y2="697"/>
    <line class="a" x1="182.9" y1="719.9" x2="182" y2="699.6"/>
    <line class="a" x1="161.2" y1="721.8" x2="161.2" y2="701.4"/>
    <line class="a" x1="352.6" y1="634.6" x2="343.5" y2="616.5"/>
    <line class="a" x1="332.5" y1="643.8" x2="324.3" y2="625.2"/>
    <line class="a" x1="312" y1="652.1" x2="304.8" y2="633.1"/>
    <line class="a" x1="291.1" y1="659.5" x2="284.9" y2="640.1"/>
    <line class="a" x1="270" y1="666" x2="264.8" y2="646.4"/>
    <line class="a" x1="248.6" y1="671.6" x2="244.4" y2="651.8"/>
    <line class="a" x1="227" y1="676.4" x2="223.8" y2="656.3"/>
    <line class="a" x1="205.2" y1="680.2" x2="203.1" y2="660"/>
    <line class="a" x1="205.1" y1="680" x2="205.2" y2="680.2"/>
    <line class="a" x1="183.2" y1="683.1" x2="182.2" y2="662.8"/>
    <line class="a" x1="161.2" y1="685.1" x2="161.2" y2="664.8"/>
    <path class="a" d="M161.2,628.1a470.6,470.6,0,0,0,182.2-52.5"/>
    <line class="a" x1="333.1" y1="603.4" x2="324.4" y2="585.1"/>
    <line class="a" x1="312.6" y1="612.5" x2="305" y2="593.6"/>
    <line class="a" x1="291.8" y1="620.5" x2="285.2" y2="601.3"/>
    <line class="a" x1="270.6" y1="627.6" x2="265.1" y2="608.1"/>
    <line class="a" x1="249.2" y1="633.8" x2="244.8" y2="614"/>
    <line class="a" x1="227.4" y1="639" x2="224.1" y2="618.9"/>
    <line class="a" x1="205.5" y1="643.1" x2="203.3" y2="622.9"/>
    <line class="a" x1="183.4" y1="646.3" x2="182.3" y2="626"/>
    <line class="a" x1="161.2" y1="648.5" x2="161.2" y2="628.1"/>
    <line class="a" x1="353.1" y1="593.5" x2="343.4" y2="575.6"/>
    <line class="a" x1="362.4" y1="607" x2="372.4" y2="624.7"/>
    <line class="a" x1="380.5" y1="638.8" x2="390.5" y2="656.4"/>
    <line class="a" x1="398.6" y1="670.5" x2="408.8" y2="688.1"/>
    <line class="a" x1="435" y1="734" x2="445.2" y2="751.6"/>
    <line class="a" x1="307.1" y1="512.1" x2="318" y2="529.3"/>
    <line class="a" x1="298.7" y1="498" x2="289.3" y2="479.8"/>
    <line class="a" x1="317.1" y1="570.6" x2="308.4" y2="552.2"/>
    <line class="a" x1="298.5" y1="578.7" x2="290.8" y2="559.9"/>
    <line class="a" x1="279.7" y1="586" x2="273" y2="566.8"/>
    <line class="a" x1="260.5" y1="592.5" x2="254.9" y2="573"/>
    <line class="a" x1="241" y1="598.1" x2="236.5" y2="578.3"/>
    <line class="a" x1="221.4" y1="602.9" x2="217.9" y2="582.8"/>
    <line class="a" x1="201.5" y1="606.7" x2="199.1" y2="586.5"/>
    <line class="a" x1="280.7" y1="546.5" x2="273.7" y2="527.4"/>
    <line class="a" x1="261.4" y1="553.7" x2="254.4" y2="534.6"/>
    <line class="a" x1="241.9" y1="559.9" x2="236.2" y2="540.4"/>
    <line class="a" x1="222" y1="565.2" x2="217.7" y2="545.4"/>
    <line class="a" x1="201.9" y1="569.5" x2="199" y2="549.4"/>
    <line class="a" x1="290.3" y1="520.3" x2="299.6" y2="538.4"/>
    <line class="a" x1="277" y1="508.3" x2="269.1" y2="489.4"/>
    <line class="a" x1="254.7" y1="517.2" x2="248.4" y2="497.8"/>
    <line class="a" x1="231.8" y1="524.3" x2="227.2" y2="504.8"/>
    <line class="a" x1="208.6" y1="530.8" x2="205.6" y2="510.6"/>
    <path class="a" d="M494.8,351.9a418.9,418.9,0,0,0,43.5-136.6L518,214a397.4,397.4,0,0,1-40.9,127.8"/>
    <line class="a" x1="461.5" y1="675.3" x2="472.6" y2="692.3"/>
    <path class="a" d="M161.2,664.8A509.2,509.2,0,0,0,362.4,607"/>
    <path class="a" d="M161.2,701.4a544,544,0,0,0,219.3-62.6"/>
    <path class="a" d="M161.2,738.1a581,581,0,0,0,237.4-67.6"/>
    <path class="a" d="M161.2,758.4a600.6,600.6,0,0,0,247.6-70.3"/>
    <path class="a" d="M161.2,721.8a563.8,563.8,0,0,0,229.3-65.4"/>
    <path class="a" d="M161.2,685.1a528.5,528.5,0,0,0,211.2-60.4"/>
    <path class="a" d="M161.2,648.5a491.3,491.3,0,0,0,191.9-55"/>
    <line class="a" x1="497.5" y1="739.1" x2="508.4" y2="756.1"/>
    <line class="a" x1="513.9" y1="728.2" x2="525.3" y2="744.9"/>
    <line class="a" x1="530" y1="716.8" x2="541.9" y2="733.2"/>
    <line class="a" x1="545.7" y1="705.1" x2="558.1" y2="721.1"/>
    <line class="a" x1="561.1" y1="692.8" x2="573.9" y2="708.5"/>
    <line class="a" x1="576.2" y1="680.1" x2="589.4" y2="695.4"/>
    <line class="a" x1="590.9" y1="667" x2="604.5" y2="681.9"/>
    <line class="a" x1="605.2" y1="653.5" x2="619.3" y2="668"/>
    <line class="a" x1="479.5" y1="707.2" x2="490.5" y2="724.2"/>
    <line class="a" x1="495.8" y1="696.2" x2="507.4" y2="712.9"/>
    <line class="a" x1="511.8" y1="684.8" x2="523.9" y2="701.2"/>
    <line class="a" x1="527.5" y1="672.9" x2="540" y2="688.9"/>
    <line class="a" x1="542.8" y1="660.5" x2="555.8" y2="676.1"/>
    <line class="a" x1="557.7" y1="647.7" x2="571.2" y2="662.9"/>
    <line class="a" x1="572.2" y1="634.5" x2="586.1" y2="649.2"/>
    <line class="a" x1="477.8" y1="664.3" x2="489.4" y2="680.9"/>
    <line class="a" x1="493.7" y1="652.7" x2="505.9" y2="669"/>
    <line class="a" x1="509.2" y1="640.7" x2="521.9" y2="656.6"/>
    <line class="a" x1="524.4" y1="628.2" x2="537.6" y2="643.7"/>
    <line class="a" x1="539.1" y1="615.2" x2="552.8" y2="630.3"/>
    <line class="a" x1="553.5" y1="601.8" x2="567.6" y2="616.4"/>
    <line class="a" x1="444" y1="643" x2="455.2" y2="659.9"/>
    <line class="a" x1="460.1" y1="632" x2="471.9" y2="648.5"/>
    <line class="a" x1="475.9" y1="620.4" x2="488.2" y2="636.5"/>
    <line class="a" x1="491.2" y1="608.3" x2="504" y2="624"/>
    <line class="a" x1="506.1" y1="595.7" x2="519.5" y2="611"/>
    <line class="a" x1="520.6" y1="582.6" x2="534.5" y2="597.5"/>
    <line class="a" x1="425.8" y1="611.2" x2="437" y2="628.1"/>
    <line class="a" x1="441.8" y1="600.1" x2="453.7" y2="616.6"/>
    <line class="a" x1="457.5" y1="588.4" x2="469.9" y2="604.5"/>
    <line class="a" x1="472.7" y1="576.1" x2="485.7" y2="591.7"/>
    <line class="a" x1="487.5" y1="563.4" x2="501" y2="578.5"/>
    <line class="a" x1="501.8" y1="550" x2="515.9" y2="564.7"/>
    <line class="a" x1="408" y1="579.1" x2="419.3" y2="596"/>
    <line class="a" x1="423.9" y1="567.9" x2="435.9" y2="584.3"/>
    <line class="a" x1="439.3" y1="556.2" x2="452" y2="572.1"/>
    <line class="a" x1="454.4" y1="543.8" x2="467.6" y2="559.2"/>
    <line class="a" x1="468.9" y1="530.8" x2="482.7" y2="545.7"/>
    <line class="a" x1="389.9" y1="547.2" x2="401.4" y2="564"/>
    <line class="a" x1="405.7" y1="535.9" x2="417.8" y2="552.2"/>
    <line class="a" x1="421" y1="524" x2="433.8" y2="539.7"/>
    <line class="a" x1="435.8" y1="511.4" x2="449.3" y2="526.7"/>
    <line class="a" x1="450.1" y1="498.3" x2="464.2" y2="512.9"/>
    <line class="a" x1="384.1" y1="458.6" x2="397" y2="474.3"/>
    <line class="a" x1="398.6" y1="446" x2="412.3" y2="461"/>
    <line class="a" x1="372.3" y1="514.9" x2="383.9" y2="531.6"/>
    <line class="a" x1="387.8" y1="503.6" x2="400.1" y2="519.7"/>
    <line class="a" x1="402.8" y1="491.6" x2="415.9" y2="507.2"/>
    <line class="a" x1="417.3" y1="478.9" x2="431" y2="493.9"/>
    <line class="a" x1="704.6" y1="531.9" x2="721.7" y2="542.9"/>
    <line class="a" x1="693.8" y1="548.3" x2="710.5" y2="559.7"/>
    <line class="a" x1="682.4" y1="564.4" x2="698.8" y2="576.3"/>
    <line class="a" x1="670.6" y1="580.2" x2="686.6" y2="592.5"/>
    <line class="a" x1="658.4" y1="595.6" x2="674" y2="608.4"/>
    <line class="a" x1="645.7" y1="610.6" x2="661" y2="623.9"/>
    <line class="a" x1="632.6" y1="625.3" x2="647.5" y2="639"/>
    <line class="a" x1="619.1" y1="639.6" x2="633.6" y2="653.7"/>
    <line class="a" x1="672.7" y1="513.9" x2="689.8" y2="525"/>
    <line class="a" x1="661.8" y1="530.3" x2="678.5" y2="541.8"/>
    <line class="a" x1="650.4" y1="546.3" x2="666.7" y2="558.3"/>
    <line class="a" x1="638.5" y1="561.9" x2="654.4" y2="574.5"/>
    <line class="a" x1="626.1" y1="577.2" x2="641.7" y2="590.2"/>
    <line class="a" x1="613.3" y1="592.1" x2="628.5" y2="605.6"/>
    <line class="a" x1="600" y1="606.6" x2="614.8" y2="620.6"/>
    <line class="a" x1="640.8" y1="495.9" x2="657.8" y2="507.1"/>
    <line class="a" x1="629.8" y1="512.2" x2="646.4" y2="523.9"/>
    <line class="a" x1="618.3" y1="528.1" x2="634.6" y2="540.3"/>
    <line class="a" x1="606.3" y1="543.7" x2="622.1" y2="556.4"/>
    <line class="a" x1="593.8" y1="558.8" x2="609.2" y2="572"/>
    <line class="a" x1="580.8" y1="573.6" x2="595.8" y2="587.2"/>
    <line class="a" x1="567.3" y1="587.9" x2="581.9" y2="602"/>
    <line class="a" x1="608.5" y1="478.5" x2="625.5" y2="489.7"/>
    <line class="a" x1="597.5" y1="494.6" x2="614.1" y2="506.3"/>
    <line class="a" x1="585.9" y1="510.3" x2="602.1" y2="522.6"/>
    <line class="a" x1="573.9" y1="525.6" x2="589.6" y2="538.5"/>
    <line class="a" x1="561.3" y1="540.5" x2="576.6" y2="553.9"/>
    <line class="a" x1="548.2" y1="555" x2="563" y2="568.9"/>
    <line class="a" x1="576.8" y1="460.2" x2="593.7" y2="471.5"/>
    <line class="a" x1="565.7" y1="476.3" x2="582.1" y2="488.1"/>
    <line class="a" x1="554" y1="491.9" x2="570" y2="504.4"/>
    <line class="a" x1="541.7" y1="507.1" x2="557.3" y2="520.2"/>
    <line class="a" x1="528.9" y1="521.9" x2="544" y2="535.5"/>
    <line class="a" x1="515.6" y1="536.2" x2="530.2" y2="550.3"/>
    <line class="a" x1="544.7" y1="442.4" x2="561.5" y2="453.8"/>
    <line class="a" x1="533.5" y1="458.3" x2="549.9" y2="470.3"/>
    <line class="a" x1="521.7" y1="473.8" x2="537.6" y2="486.4"/>
    <line class="a" x1="509.3" y1="488.8" x2="524.7" y2="502"/>
    <line class="a" x1="496.4" y1="503.3" x2="511.3" y2="517.1"/>
    <line class="a" x1="512.8" y1="424.3" x2="529.5" y2="435.8"/>
    <line class="a" x1="501.5" y1="440.1" x2="517.7" y2="452.3"/>
    <line class="a" x1="489.5" y1="455.5" x2="505.3" y2="468.3"/>
    <line class="a" x1="477" y1="470.3" x2="492.2" y2="483.7"/>
    <line class="a" x1="463.8" y1="484.6" x2="478.5" y2="498.6"/>
    <line class="a" x1="425.8" y1="418.8" x2="440.9" y2="432.4"/>
    <line class="a" x1="480.5" y1="406.7" x2="497.2" y2="418.3"/>
    <line class="a" x1="469.2" y1="422.2" x2="485.3" y2="434.6"/>
    <line class="a" x1="457.1" y1="437.3" x2="472.7" y2="450.3"/>
    <line class="a" x1="444.5" y1="451.7" x2="459.5" y2="465.4"/>
    <line class="a" x1="586.3" y1="620.8" x2="600.7" y2="635.1"/>
    <line class="a" x1="534.6" y1="569.1" x2="549" y2="583.4"/>
    <line class="a" x1="482.9" y1="517.3" x2="497.3" y2="531.7"/>
    <path class="a" d="M497.5,739.1A690.1,690.1,0,0,0,704.6,531.9"/>
    <path class="a" d="M479.5,707.2A654.5,654.5,0,0,0,672.7,513.9"/>
    <path class="a" d="M461.5,675.3A618,618,0,0,0,640.8,495.9"/>
    <path class="a" d="M444,643A580.5,580.5,0,0,0,608.5,478.5"/>
    <path class="a" d="M425.7,611.2a543.1,543.1,0,0,0,151.1-151"/>
    <path class="a" d="M408,579.1A508,508,0,0,0,544.7,442.4"/>
    <path class="a" d="M390,547.1A472.1,472.1,0,0,0,512.7,424.5"/>
    <path class="a" d="M372.3,515A435,435,0,0,0,480.5,406.7"/>
    <path class="a" d="M490.5,724.2A674.6,674.6,0,0,0,689.8,525"/>
    <path class="a" d="M472.6,692.3A638.4,638.4,0,0,0,657.8,507.1"/>
    <path class="a" d="M455.2,659.9A601.5,601.5,0,0,0,625.5,489.7"/>
    <path class="a" d="M437,628.1A564.3,564.3,0,0,0,593.7,471.5"/>
    <path class="a" d="M419.3,596A528.6,528.6,0,0,0,561.5,453.8"/>
    <path class="a" d="M401.5,563.9a491.1,491.1,0,0,0,127.9-128"/>
    <path class="a" d="M383.9,531.6A456.8,456.8,0,0,0,497.2,418.3"/>
    <path class="a" d="M508.4,756.1A706.4,706.4,0,0,0,721.7,542.9"/>
    <line class="a" x1="526.3" y1="370.4" x2="508.7" y2="360.3"/>
    <line class="a" x1="718.4" y1="325.6" x2="737.9" y2="331.4"/>
    <line class="a" x1="724.2" y1="303.7" x2="743.9" y2="308.7"/>
    <path class="a" d="M667.2,450.9a632.3,632.3,0,0,0,72.9-236.4"/>
    <line class="a" x1="729.2" y1="281.7" x2="749.1" y2="285.8"/>
    <path class="a" d="M684.8,461.1a652.3,652.3,0,0,0,75.6-245.3"/>
    <line class="a" x1="684.8" y1="461.1" x2="667.2" y2="450.9"/>
    <line class="a" x1="740.1" y1="214.5" x2="760.4" y2="215.8"/>
    <line class="a" x1="737.3" y1="237.1" x2="757.5" y2="239.3"/>
    <line class="a" x1="733.7" y1="259.5" x2="753.8" y2="262.6"/>
    <path class="a" d="M381.1,486.7a414.7,414.7,0,0,0,73-69.6"/>
    <line class="a" x1="454.1" y1="417.1" x2="438.4" y2="404.2"/>
    <path class="a" d="M368.9,470.4a392.6,392.6,0,0,0,69.5-66.2"/>
    <line class="a" x1="368.9" y1="470.4" x2="381.1" y2="486.7"/>
    <path class="a" d="M181.5,609.7a454.4,454.4,0,0,0,153.2-47.8"/>
    <line class="a" x1="334.7" y1="561.9" x2="325" y2="544"/>
    <path class="a" d="M180.2,589.4A433.7,433.7,0,0,0,325,544"/>
    <path class="a" d="M183.7,514.9a358.8,358.8,0,0,0,105.6-35.1"/>
    <line class="a" x1="183.7" y1="514.9" x2="185" y2="535.4"/>
    <path class="a" d="M185,535.4A383.7,383.7,0,0,0,298.7,498"/>
    <path class="a" d="M180.2,552.5a398,398,0,0,0,126.9-40.4"/>
    <line class="a" x1="180.2" y1="552.5" x2="181.6" y2="572.8"/>
    <path class="a" d="M181.6,572.8A415.4,415.4,0,0,0,318,529.3"/>
    <line class="a" x1="181.5" y1="609.7" x2="180.2" y2="589.4"/>
    <path class="a" d="M379,760.9q28.7-12.1,56-26.9"/>
    <line class="a" x1="379" y1="760.9" x2="386.7" y2="779.6"/>
    <path class="a" d="M386.7,779.6q29.9-12.6,58.5-28"/>
    <line class="a" x1="327.7" y1="762.1" x2="321.7" y2="742.7"/>
    <line class="a" x1="348.2" y1="755.1" x2="341.3" y2="736"/>
    <line class="a" x1="368.4" y1="747.3" x2="360.6" y2="728.6"/>
    <line class="a" x1="407.8" y1="729.7" x2="398.5" y2="711.7"/>
    <line class="a" x1="388.3" y1="738.9" x2="379.7" y2="720.4"/>
    <line class="a" x1="307.1" y1="768.4" x2="301.8" y2="748.7"/>
    <line class="a" x1="286.2" y1="773.9" x2="281.8" y2="754"/>
    <line class="a" x1="265.1" y1="778.7" x2="261.6" y2="758.6"/>
    <line class="a" x1="243.8" y1="782.7" x2="241.2" y2="762.5"/>
    <line class="a" x1="222.5" y1="785.9" x2="220.7" y2="765.7"/>
    <line class="a" x1="416.9" y1="702.2" x2="427.1" y2="719.8"/>
    <path class="a" d="M201,788.4a601.8,601.8,0,0,0,226.1-68.6"/>
    <line class="a" x1="201" y1="788.4" x2="200.1" y2="768.1"/>
    <path class="a" d="M200.1,768.1a579.9,579.9,0,0,0,216.8-65.9"/>
  </g>
  <g>
    <line class="a" x1="363.5" y1="275.7" x2="418.8" y2="220.5"/>
    <line class="a" x1="244.4" y1="394.9" x2="357.7" y2="281.5"/>
    <line class="a" x1="179.9" y1="459.3" x2="240.2" y2="399"/>
    <line class="a" x1="350.7" y1="271.3" x2="353.6" y2="274.2"/>
    <line class="a" x1="293.3" y1="328.7" x2="296.1" y2="331.6"/>
    <line class="a" x1="235.8" y1="386.2" x2="238.7" y2="389.1"/>
    <line class="a" x1="185" y1="442.7" x2="407.2" y2="220.5"/>
    <line class="a" x1="410.1" y1="223.4" x2="187.9" y2="445.6"/>
    <line class="a" x1="182.2" y1="439.9" x2="187.9" y2="445.6"/>
    <line class="a" x1="404.4" y1="217.6" x2="410.1" y2="223.4"/>
  </g>
  <g>
    <g>
      <line class="b" x1="165.5" y1="748.2" x2="139.3" y2="748.2"/>
      <line class="b" x1="165.5" y1="667" x2="139.3" y2="667"/>
      <line class="b" x1="143.4" y1="752.3" x2="143.4" y2="662.9"/>
      <line class="c" x1="140.3" y1="745.2" x2="146.4" y2="751.3"/>
      <line class="d" x1="146.4" y1="670" x2="140.3" y2="663.9"/>
      <text class="e" transform="translate(140 722) rotate(-90)">2.0m</text>
    </g>
    <g>
      <line class="b" x1="171.6" y1="754.3" x2="171.6" y2="809.8"/>
      <line class="b" x1="252.9" y1="776.9" x2="252.9" y2="809.8"/>
      <line class="b" x1="167.6" y1="805.7" x2="257" y2="805.7"/>
      <line class="c" x1="174.7" y1="802.7" x2="168.6" y2="808.7"/>
      <line class="c" x1="249.8" y1="808.7" x2="255.9" y2="802.7"/>
      <text class="e" transform="translate(197.8 802.3)">2.0m</text>
    </g>
  </g>
</svg>
